<svg version="1.1" id="Layer_1" xmlns="http://www.w3.org/2000/svg" xmlns:xlink="http://www.w3.org/1999/xlink" x="0px" y="0px"
	 width="100%" viewBox="0 0 1525 595" enable-background="new 0 0 1525 595" xml:space="preserve">
<path fill="none" opacity="1.000000" stroke="#000000" stroke-linecap="round" stroke-linejoin="round" stroke-width="11.000000"
	d="
M272.000000,298.500000 
	C270.093903,298.341797 270.083221,299.558136 269.967651,300.997406 
	C269.279327,309.567780 264.082886,314.523315 256.498718,317.496704 
	C256.008667,317.688812 255.486649,317.801483 255.001953,318.004669 
	C245.630569,321.933319 245.024857,322.801147 245.006836,333.000000 
	C244.980316,347.999969 244.981445,363.000061 245.022171,377.999939 
	C245.027588,380.000366 245.281677,382.005920 245.510269,383.998810 
	C246.060715,388.797668 248.450729,391.426544 253.462021,392.654938 
	C260.085449,394.278473 266.067108,396.823242 269.677856,403.909363 
	C275.747772,415.821594 269.609467,429.251526 257.510559,432.538910 
	C246.028046,435.658752 245.194260,435.848663 245.040054,449.000458 
	C244.866165,463.831787 244.979813,478.666718 245.022278,493.499939 
	C245.028473,495.667053 245.181656,497.858276 245.532745,499.994629 
	C246.186768,503.974182 248.106567,506.477173 252.463806,507.636078 
	C259.356873,509.469452 265.573700,512.499512 268.566467,519.973389 
	C273.205872,531.559448 268.089600,542.472412 257.998505,546.496216 
	C256.676056,547.023560 255.365906,547.799805 253.994446,547.948792 
	C247.599045,548.643250 245.450195,553.055176 245.084290,558.505676 
	C244.705582,564.146912 244.599045,569.869080 245.100388,575.491028 
	C245.742523,582.691711 249.409088,586.163696 257.003510,586.371338 
	C263.323242,586.544128 269.665802,587.122498 276.066833,585.225464 
	C279.825653,584.111450 281.515106,582.280518 282.500092,579.000061 
	C283.874786,574.421631 285.510742,570.229187 288.857452,566.376160 
	C296.983154,557.020996 317.712158,558.640076 322.058685,574.984375 
	C324.613281,584.590637 327.525818,586.531494 337.499908,586.481384 
	C342.680115,586.455383 347.864563,586.863037 353.014435,585.556885 
	C357.397339,584.445374 359.929474,581.930237 360.487335,577.498413 
	C361.388702,570.337646 361.129547,563.173645 360.524292,555.997925 
	C359.970856,549.436523 354.580566,548.292847 349.967224,547.130066 
	C339.987335,544.614807 335.088867,535.934937 335.152802,528.501343 
	C335.228729,519.669250 339.075104,512.999023 349.020996,509.052917 
	C360.753113,504.398071 361.000000,504.317871 361.000000,492.000000 
	C361.000000,477.333344 361.000000,462.666656 361.000000,448.000000 
	C361.000000,446.666656 361.128448,445.318756 360.978851,444.002411 
	C360.102112,436.287262 359.253906,435.299835 351.495697,433.518768 
	C344.937195,432.013123 339.242157,429.528198 335.956238,423.022095 
	C330.587067,412.391022 334.790253,398.081940 346.997833,394.492584 
	C348.513763,394.046844 349.967621,393.230896 351.505524,393.045898 
	C358.742889,392.175262 360.899506,386.986633 360.895294,381.000061 
	C360.882874,363.334534 361.550446,345.661896 360.552124,327.997040 
	C360.295532,323.457306 358.355499,320.948334 354.037323,319.396179 
	C348.979797,317.578156 343.736084,315.813660 339.995789,311.503662 
	C331.189453,301.355957 334.758606,285.275452 346.996307,280.490540 
	C348.523468,279.893372 349.942261,278.821228 351.509888,278.559204 
	C358.726196,277.353058 360.938690,272.351074 360.941437,265.999969 
	C360.944855,258.069794 362.267517,249.878479 357.944092,242.532913 
	C356.823975,240.629807 358.098267,239.281097 358.603638,238.042267 
	C362.367157,228.816147 361.344208,219.436951 360.010040,209.998581 
	C359.306122,205.018478 355.509491,203.749161 351.493652,203.035721 
	C337.078949,200.474899 331.640228,184.673157 337.497070,173.998383 
	C340.581787,168.376068 345.514862,164.985275 351.522827,163.598877 
	C358.231567,162.050751 361.039276,158.052231 361.005585,151.499969 
	C360.978149,146.166779 361.206940,140.823135 360.945007,135.502701 
	C360.650421,129.518799 356.804138,126.472427 349.498840,126.018791 
	C347.506500,125.895073 345.500000,126.000000 343.500000,126.000000 
	C315.333344,126.000000 287.166656,125.990677 259.000031,126.021454 
	C257.166504,126.023453 255.272614,126.094337 253.510666,126.541977 
	C246.435028,128.339645 244.991302,130.154648 245.033203,137.499817 
	C245.065506,143.166489 244.806595,148.827271 245.405457,154.509964 
	C245.842789,158.660080 247.627518,161.069458 251.474350,162.565948 
	C255.423264,164.102112 259.511017,165.146652 263.079224,167.897232 
	C270.354065,173.505127 271.543091,181.137619 269.777313,188.949661 
	C268.113007,196.312881 262.454193,201.030777 254.993210,202.973907 
	C247.299942,204.977524 245.273376,206.693878 245.114868,214.502335 
	C244.944275,222.904831 243.544403,231.618408 248.058502,239.466354 
	C249.157349,241.376724 247.908829,242.728775 247.395126,243.956100 
	C243.604126,253.013809 244.737137,262.229919 245.982620,271.502319 
	C246.543076,275.674866 249.630035,276.935425 252.998566,278.004517 
	C259.875031,280.186981 265.877594,283.382721 269.075043,290.466125 
	C270.274719,293.123810 269.407654,295.944397 270.500000,298.500000 
"/>
<path fill="none" opacity="1.000000" stroke="#000000" stroke-linecap="round" stroke-linejoin="round" stroke-width="11.000000"
	d="
M361.500000,470.000000 
	C369.500000,470.000000 377.500244,470.039703 385.499939,469.988831 
	C393.442719,469.938293 395.539307,468.480255 397.977112,460.992554 
	C400.821259,452.256927 408.870605,446.369934 414.993683,445.915100 
	C426.433563,445.065338 434.530762,450.933136 436.866180,459.536316 
	C439.324554,468.592712 445.334351,470.641327 453.501251,470.016357 
	C458.157440,469.660095 462.831268,470.374634 467.509949,469.556976 
	C471.931732,468.784210 474.134369,466.481750 474.540527,462.003662 
	C475.146454,455.322876 475.006897,448.686981 474.625916,441.992828 
	C474.373352,437.555054 472.487061,435.275452 468.512115,433.963318 
	C464.465454,432.627441 460.302460,431.620087 456.968567,428.533966 
	C444.971283,417.428223 449.166565,399.859161 464.009583,394.024353 
	C474.711334,389.817444 475.113007,389.553864 474.947388,378.000763 
	C474.875702,372.999725 475.185516,368.034760 474.227661,362.957062 
	C473.398895,358.563660 470.902588,357.053253 467.487549,356.592224 
	C460.696289,355.675354 453.852692,355.761169 446.993256,356.430939 
	C442.349091,356.884369 439.798340,359.304291 438.500458,363.500153 
	C436.682007,369.378876 433.656036,374.541473 428.469940,377.954315 
	C418.229797,384.692902 402.920837,380.048798 398.947998,367.516479 
	C397.939240,364.334351 397.102386,360.793365 394.442810,358.568359 
	C391.196594,355.852570 386.979126,356.037323 382.999908,356.022614 
	C367.833466,355.966553 352.666656,356.000000 337.500000,356.000000 
	C336.333344,356.000000 335.160522,356.078094 334.001007,355.987000 
	C327.719879,355.493622 323.603210,352.902618 322.362610,346.024780 
	C321.332672,340.314789 317.947845,335.266052 312.447693,333.135040 
	C302.051605,329.106995 289.171478,330.408173 284.061279,344.023010 
	C283.742004,344.873596 283.421478,345.697327 283.079865,346.532654 
	C279.679932,354.846527 278.282928,355.927368 269.499908,355.988251 
	C261.500305,356.043732 253.500000,356.000000 245.500000,356.000000 
"/>
<path fill="none" opacity="1.000000" stroke="#000000" stroke-linecap="round" stroke-linejoin="round" stroke-width="10.000000"
	d="
M130.500000,466.500000 
	C130.500000,459.500000 130.504425,452.500000 130.498871,445.500000 
	C130.492111,436.993164 129.314926,435.449036 121.000008,432.999969 
	C107.038246,428.887756 101.678452,415.722900 108.426590,402.961182 
	C111.439392,397.263550 116.619171,394.427155 122.054390,393.251404 
	C129.160492,391.714142 130.320602,386.912750 130.402588,381.498535 
	C130.664932,364.169159 130.577866,346.832764 130.451340,329.500366 
	C130.414581,324.464813 128.475693,320.688141 123.034760,318.894562 
	C116.466362,316.729309 110.613876,313.884369 107.298843,306.591431 
	C102.361374,295.729187 108.367661,283.634460 117.499840,279.999603 
	C119.167625,279.335754 120.815453,278.617004 122.503235,278.008972 
	C128.458969,275.863342 130.597443,273.534576 130.414490,267.502594 
	C130.154953,258.944885 132.379517,250.038132 127.488144,242.007217 
	C126.746704,240.789871 127.638435,239.892090 128.039734,239.018250 
	C132.221985,229.911011 130.380768,220.405319 129.989929,211.000412 
	C129.779282,205.931946 126.263939,203.972534 121.993385,203.029984 
	C116.018356,201.711258 110.957291,199.125641 108.013184,193.493103 
	C101.922691,181.841095 107.215340,168.570297 117.995285,164.985825 
	C119.695625,164.420441 121.283157,163.463303 123.009239,163.037430 
	C128.595413,161.659241 130.586685,157.516998 130.401718,152.503632 
	C130.087051,143.974594 132.356628,135.157913 128.010818,126.994240 
	C127.529449,126.089958 128.069382,125.359848 128.445587,124.476822 
	C132.099442,115.900681 130.295792,106.843178 130.370392,97.998909 
	C130.421295,91.964470 125.806946,89.299416 120.496185,88.015770 
	C107.550926,84.886810 101.329628,70.155357 108.467064,57.980690 
	C111.564430,52.697357 116.475899,50.496292 121.996071,48.985649 
	C128.455536,47.217968 130.385818,44.724525 130.483704,37.999763 
	C130.563751,32.500927 130.610031,26.997234 130.471832,21.500708 
	C130.303589,14.808777 128.195862,12.708851 121.514206,11.426018 
	C119.649216,11.067953 117.838707,11.015236 115.999992,11.013939 
	C87.666672,10.993959 59.333332,11.000000 31.000000,11.000000 
	C29.500000,11.000000 27.937925,10.724069 26.510181,11.045258 
	C17.928637,12.975786 17.399990,12.853448 16.206781,21.528442 
	C15.332754,27.882879 15.479685,34.530994 16.524727,40.996002 
	C17.167261,44.970966 19.023296,47.597664 23.474613,48.611469 
	C31.575346,50.456444 38.105728,54.482086 40.015083,63.496807 
	C42.272999,74.157211 37.913525,84.021423 27.420219,87.239891 
	C17.742098,90.208313 15.547585,96.248985 15.953481,105.002159 
	C16.266489,111.752213 15.389095,118.599655 18.429066,125.033516 
	C18.784910,125.786629 18.328495,127.061646 17.974703,127.990364 
	C14.806372,136.307266 16.072477,144.979660 16.121325,153.499298 
	C16.149000,158.326187 18.716404,161.610748 23.955059,163.152695 
	C29.677486,164.836990 34.942078,167.747665 38.028469,173.484680 
	C44.202267,184.960632 39.090378,198.597839 27.010767,202.533051 
	C16.624792,205.916504 15.967484,206.981354 16.011478,217.999954 
	C16.040600,225.293884 15.133587,232.736923 19.007122,239.495911 
	C19.772337,240.831131 19.137522,241.752319 18.582621,243.035721 
	C14.815132,251.749405 15.721356,260.910339 16.549812,269.995453 
	C16.900196,273.837921 18.693920,276.479797 22.956017,277.658966 
	C26.245127,278.568970 29.673523,279.762573 32.503902,281.995056 
	C45.558949,292.292297 42.270645,312.036926 26.997116,317.491913 
	C26.353062,317.721924 25.658804,317.807098 25.001228,318.004089 
	C18.543928,319.938538 15.785607,324.431732 15.996600,331.000122 
	C16.251326,338.929932 14.805624,347.078278 19.008018,354.495453 
	C19.766483,355.834167 19.137535,356.752319 18.582621,358.035736 
	C14.815132,366.749390 15.721358,375.910339 16.549812,384.995453 
	C16.900200,388.837921 18.735950,391.384277 22.950811,392.662231 
	C27.332993,393.990936 31.542418,395.895081 35.091305,399.407745 
	C45.607166,409.816162 40.095512,429.280304 25.993788,432.472565 
	C19.981012,433.833710 16.178524,437.207489 16.080511,443.501251 
	C15.992415,449.158234 15.572820,454.830322 16.454306,460.507080 
	C17.894329,469.780884 18.542274,468.303711 26.043020,469.781677 
	C31.658348,470.888062 37.682198,470.262634 43.495201,469.918884 
	C48.355984,469.631439 51.784374,467.324860 53.095173,462.023529 
	C54.612221,455.888031 57.869225,450.628845 64.013405,448.031708 
	C76.865013,442.599396 87.103874,447.029907 92.509705,459.995941 
	C96.259537,468.990021 97.841904,470.087128 107.499664,469.971802 
	C114.903221,469.883392 122.461739,471.020721 129.521698,467.544037 
	C130.192368,467.213776 131.313690,467.208862 131.977692,467.544189 
	C140.345657,471.770111 149.306503,469.570801 158.003006,469.926697 
	C164.242859,470.182098 166.814697,465.730804 168.520370,460.506653 
	C170.359146,454.874847 173.600479,450.019836 179.043839,447.598572 
	C188.000839,443.614380 200.680984,445.936371 205.508301,456.496216 
	C206.282532,458.189880 207.492691,459.749969 207.943939,461.514343 
	C209.966171,469.421204 211.989532,469.631042 219.504440,469.841644 
	C237.157242,470.336365 254.833740,470.069336 272.499786,469.962921 
	C278.789703,469.925049 280.987976,468.260864 282.948120,461.983795 
	C285.076965,455.166443 288.347504,449.334564 295.518341,447.057800 
	C305.672699,443.833771 316.890839,446.268127 321.406830,458.534302 
	C325.181610,468.787231 326.049683,470.033875 338.000000,470.003510 
	C345.499969,469.984467 353.000000,470.000000 360.500000,470.000000 
"/>
<path fill="none" opacity="1.000000" stroke="#000000" stroke-linecap="round" stroke-linejoin="round" stroke-width="11.000000"
	d="
M932.500000,126.000000 
	C935.927185,116.523712 935.393250,106.752357 934.433777,97.006523 
	C934.064941,93.260605 932.429077,90.148506 928.010254,89.436493 
	C926.281006,89.157867 924.645142,88.215530 923.003540,87.492004 
	C913.141418,83.145302 909.839111,77.050629 910.150085,68.005157 
	C910.466492,58.799149 914.233154,53.041542 924.011780,49.532810 
	C934.304871,45.839508 935.000000,45.031174 935.000000,34.000000 
	C935.000000,30.333334 935.313843,26.634192 934.938477,23.006363 
	C933.981812,13.760319 932.250427,11.844398 922.991089,11.112675 
	C917.540466,10.681934 912.006348,10.840635 906.490112,11.402830 
	C902.323792,11.827445 899.853455,13.492254 898.423950,17.472698 
	C897.068481,21.247026 895.991394,25.235359 893.484375,28.487970 
	C884.923401,39.594925 864.485107,39.300430 858.495178,23.001781 
	C858.367432,22.654146 858.134888,22.345270 858.004639,21.998255 
	C854.217712,11.908690 852.958801,10.989951 842.500000,11.008383 
	C835.365112,11.020957 828.051819,10.141234 821.532654,14.054351 
	C819.636169,15.192722 818.281433,13.901621 817.042114,13.396649 
	C807.650146,9.569938 798.081726,10.610992 788.505310,12.035855 
	C783.472534,12.784682 783.084961,17.195730 781.990173,20.997164 
	C778.528992,33.014709 767.575195,39.009850 755.525208,34.925583 
	C749.584045,32.911865 745.628906,28.480534 743.493591,22.502285 
	C739.733826,11.975777 738.308472,10.948345 727.000122,11.018857 
	C719.917603,11.063020 712.712952,10.199203 705.983215,13.465471 
	C705.443665,13.727363 704.559021,13.725331 704.016235,13.465996 
	C696.624207,9.934354 688.729492,11.065452 680.999878,11.036114 
	C655.666931,10.939961 630.333313,10.987847 605.000000,11.021689 
	C602.833130,11.024584 600.638855,11.169787 598.505554,11.532814 
	C593.508118,12.383254 591.267090,14.493236 590.544495,19.506414 
	C589.515259,26.647846 589.694641,33.844318 590.536194,40.995739 
	C591.014832,45.063354 593.285828,47.540466 597.480408,48.579189 
	C601.616943,49.603569 605.703857,50.961510 609.015320,53.983204 
	C619.205811,63.282009 616.872925,82.446404 602.016174,87.547089 
	C600.838867,87.951286 599.435486,88.658371 598.469910,88.817924 
	C591.584290,89.955742 590.209167,94.997055 590.089172,100.501945 
	C589.914124,108.535599 589.080566,116.711128 592.072754,124.471939 
	C592.598877,125.836449 592.401794,126.831017 592.001038,128.000351 
	C588.965027,136.858902 589.894226,145.932159 590.475403,155.001572 
	C590.731873,159.003815 592.683533,161.328293 596.483948,162.549973 
	C599.893555,163.646011 603.496460,164.665482 606.434875,166.598984 
	C613.695984,171.376938 616.018250,178.666275 614.947144,186.993195 
	C613.983337,194.485687 609.126648,199.060501 602.490051,201.977325 
	C601.730225,202.311264 600.805603,202.249207 600.004272,202.512955 
	C591.629089,205.269547 590.058044,207.398544 590.017700,216.500076 
	C589.982422,224.454407 589.061768,232.596771 593.090027,239.950668 
	C594.123779,241.837784 592.790527,242.926086 592.368225,243.945389 
	C588.609985,253.015839 589.737183,262.229919 590.982666,271.502319 
	C591.543091,275.674866 594.666199,276.836853 597.990417,278.026794 
	C603.684692,280.065125 609.322571,282.147766 612.529236,287.983917 
	C617.935791,297.823700 615.238831,312.439301 601.515564,317.541901 
	C590.170593,321.760254 589.993164,322.265076 590.002625,334.500000 
	C590.007935,341.313629 589.322693,348.263794 593.042419,354.474579 
	C594.050171,356.157257 592.972961,357.253235 592.472412,358.488831 
	C588.754089,367.667572 589.584106,377.058167 590.983215,386.502502 
	C591.431030,389.525696 592.863464,391.086243 595.955505,392.131683 
	C601.507019,394.008789 607.044434,396.075409 611.047241,400.961334 
	C618.336304,409.858673 615.679443,425.560455 604.488098,430.975372 
	C601.734863,432.307556 598.925537,433.775604 595.977173,434.390533 
	C592.103760,435.198395 590.852905,437.830414 590.562500,441.005707 
	C589.716919,450.253479 588.847412,459.580048 592.565674,468.472565 
	C593.401184,470.470795 592.611511,471.830597 592.031982,473.511047 
	C588.798096,482.888641 589.602478,492.450317 591.034851,501.994781 
	C591.488586,505.018127 593.667480,506.758270 596.506287,507.475128 
	C603.078918,509.134766 609.113159,511.790588 612.443115,518.030334 
	C618.395874,529.184692 614.971191,541.501343 602.501465,546.503662 
	C601.323792,546.976074 600.198669,547.827759 598.994629,547.945251 
	C592.524475,548.576843 590.456848,553.064758 590.085693,558.505859 
	C589.700928,564.146301 589.603455,569.868347 590.099976,575.491150 
	C590.726990,582.592102 593.968079,585.879700 601.509460,586.347229 
	C607.627319,586.726624 613.857544,587.200500 620.021667,585.582581 
	C624.234070,584.476929 626.586426,582.647583 627.681702,578.043213 
	C629.131531,571.949158 631.525269,566.218750 637.945068,562.893921 
	C648.681519,557.333496 662.053528,561.644165 666.493347,574.002380 
	C666.546387,574.150024 666.450562,574.352600 666.507019,574.497253 
	C670.837891,585.593811 672.198303,586.468933 684.499939,586.512695 
	C690.913696,586.535522 697.377747,586.864319 703.471497,584.428650 
	C705.155884,583.755371 706.170654,584.597412 707.507568,584.973083 
	C715.388428,587.187561 723.491577,586.719971 731.495483,586.390320 
	C738.083801,586.118896 741.493225,581.841919 743.074524,575.518616 
	C745.225220,566.918274 753.537109,560.376892 762.000000,560.000000 
	C769.146790,559.681702 778.418945,566.021729 780.995667,573.001587 
	C781.360535,573.989990 781.720886,574.985596 781.991455,576.002258 
	C784.134033,584.053223 786.440552,586.277710 794.501404,586.421753 
	C802.393738,586.562805 810.493591,587.619507 817.975342,583.949707 
	C820.109985,582.902649 821.679504,583.911255 823.506042,584.480652 
	C832.993042,587.438232 842.440430,587.461243 852.033325,584.612122 
	C855.258911,583.654114 855.572510,581.341309 856.518799,579.007629 
	C858.911682,573.106384 860.665405,566.825378 866.984802,563.471313 
	C876.565491,558.386292 891.179993,559.944336 896.541443,573.984192 
	C896.989746,575.158386 897.650024,576.559998 897.815613,577.531433 
	C898.827393,583.467102 902.724976,585.526917 908.001831,585.978760 
	C914.701965,586.552490 921.322205,587.266724 928.048584,585.154724 
	C932.027649,583.905396 933.884521,581.424683 934.407654,577.985962 
	C935.541809,570.531555 935.445923,562.966492 934.398010,555.514343 
	C933.885132,551.866882 931.848755,549.366760 927.538208,548.339661 
	C920.135925,546.575745 913.354736,543.096802 911.066040,534.981384 
	C908.140991,524.609558 911.318848,513.117859 922.992859,509.477203 
	C924.046387,509.148651 924.966125,508.411407 926.005432,508.014130 
	C933.556213,505.127869 934.903564,503.609161 934.932556,495.499756 
	C934.961487,487.410736 936.282227,479.078308 931.974976,471.514252 
	C931.246338,470.234650 932.090393,469.480164 932.486328,468.494507 
	C936.145935,459.382599 935.239807,449.912506 934.446289,440.504517 
	C934.004639,435.268524 929.505249,434.177063 925.490417,433.033630 
	C914.110962,429.792725 910.231140,422.129333 910.048950,413.498962 
	C909.838623,403.539307 914.538452,397.635895 925.000000,393.999969 
	C932.928650,391.244354 934.923279,388.644379 934.958801,379.999817 
	C934.990112,372.389404 936.119080,364.545746 931.945190,357.532623 
	C930.814758,355.633179 932.091980,354.272491 932.604614,353.043640 
	C936.452209,343.819855 935.218689,334.429810 934.015076,324.998077 
	C933.661133,322.224365 931.852051,321.158142 929.561523,319.889008 
	C925.251587,317.501038 920.466064,316.448761 916.345764,313.195343 
	C908.017944,306.619720 907.350647,287.785767 919.015076,281.528107 
	C921.243530,280.332611 923.580688,279.102905 926.016296,278.575378 
	C932.964844,277.070526 934.961853,272.143768 934.946289,266.000122 
	C934.926270,258.069275 936.267517,249.878479 931.944092,242.532913 
	C930.823914,240.629791 932.098450,239.281479 932.603455,238.042145 
	C936.430237,228.650162 935.254639,219.100784 934.020447,209.497375 
	C933.441406,204.991714 929.892456,203.817734 926.480469,203.091934 
	C920.221985,201.760635 915.508423,198.578705 912.518982,192.989838 
	C906.935974,182.552002 911.090576,169.117096 922.981750,164.453506 
	C935.064270,159.714844 934.969604,159.550842 935.012451,146.500046 
	C935.034668,139.717331 935.325134,132.917694 932.500000,126.500000 
"/>
<path fill="none" opacity="1.000000" stroke="#000000" stroke-linecap="round" stroke-linejoin="round" stroke-width="11.000000"
	d="
M1138.000000,68.500000 
	C1139.603516,68.770142 1139.935791,67.902557 1140.022827,66.501419 
	C1140.633911,56.668640 1146.449341,51.006001 1155.532715,49.161263 
	C1161.893799,47.869408 1164.559082,44.235413 1164.922119,38.495075 
	C1165.278931,32.850967 1165.417114,27.128109 1164.897827,21.509449 
	C1164.196411,13.922001 1160.786743,11.228786 1152.499146,11.034822 
	C1145.336426,10.867184 1138.166626,11.000000 1131.000000,11.000000 
	C1108.666626,11.000000 1086.333374,11.000000 1064.000000,11.000000 
	C1063.166626,11.000000 1062.332153,10.970647 1061.500244,11.004505 
	C1052.283691,11.379586 1049.510254,14.269061 1049.500854,23.500000 
	C1049.495850,28.333330 1049.437988,33.167656 1049.515015,37.999763 
	C1049.622559,44.753391 1051.824219,47.551235 1058.505737,48.972797 
	C1071.729736,51.786308 1078.489136,64.817627 1072.537964,77.517815 
	C1069.754028,83.459236 1064.853027,86.499527 1058.999146,88.497589 
	C1050.748535,91.313789 1049.351440,92.999832 1049.546143,101.498940 
	C1049.730591,109.549057 1048.095703,117.819893 1052.000000,125.500000 
"/>
<path fill="none" opacity="1.000000" stroke="#000000" stroke-linecap="round" stroke-linejoin="round" stroke-width="10.000000"
	d="
M1369.500000,298.500000 
	C1369.913818,290.207703 1373.478638,283.860168 1381.010254,280.020142 
	C1382.270874,279.377411 1383.628052,278.802307 1385.006470,278.533203 
	C1391.987427,277.170654 1393.961792,272.143768 1393.946289,266.000122 
	C1393.926270,258.069275 1395.244873,249.892166 1390.955322,242.526001 
	C1389.970459,240.834702 1391.038086,239.753311 1391.525635,238.510071 
	C1395.192139,229.160721 1394.367310,219.627121 1393.072144,209.990311 
	C1392.514648,205.841858 1389.959473,204.477264 1386.511963,203.459625 
	C1382.913330,202.397354 1379.506836,201.039185 1376.448608,198.563461 
	C1365.202148,189.459381 1367.618896,169.510300 1382.573975,164.731445 
	C1392.125366,161.679291 1394.809937,155.932648 1394.037964,146.996719 
	C1393.794922,144.184387 1393.977905,141.333130 1394.004028,138.500031 
	C1394.097046,128.434448 1391.777832,127.869675 1381.993774,126.033195 
	C1380.705811,125.791443 1379.333374,126.000000 1378.000000,126.000000 
	C1349.833374,126.000000 1321.666626,126.000000 1293.500000,126.000000 
	C1292.666626,126.000000 1291.832153,125.970703 1291.000122,126.004509 
	C1282.315674,126.357361 1279.510254,129.286057 1279.500732,138.000000 
	C1279.496582,141.833328 1279.500000,145.666672 1279.500000,149.500000 
	C1279.500000,159.188126 1280.600098,160.707367 1290.000000,164.000015 
	C1298.961792,167.139206 1303.927002,173.899490 1304.582642,182.493698 
	C1305.333130,192.330353 1298.618042,200.739456 1289.002319,203.010056 
	C1281.216919,204.848434 1279.530518,207.015015 1279.503784,215.000015 
	C1279.484131,220.833282 1278.255493,227.031296 1279.829468,232.403458 
	C1281.612305,238.488586 1281.424927,243.502182 1279.856934,249.591904 
	C1278.247192,255.844116 1279.057617,262.873993 1279.665039,269.484833 
	C1280.033203,273.491638 1282.126709,276.949738 1286.976196,278.100281 
	C1292.942261,279.515656 1297.852539,282.480286 1301.638062,287.903656 
	C1308.150635,297.234222 1304.368164,313.651764 1289.488281,317.959473 
	C1284.382324,319.437683 1280.424438,321.833649 1279.530273,327.504761 
	C1279.325073,328.805756 1279.500000,330.166656 1279.500000,331.500000 
	C1279.500000,347.500000 1279.500000,363.500000 1279.500000,379.500000 
	C1279.500000,380.166656 1279.475830,380.834351 1279.503784,381.499847 
	C1279.801758,388.592072 1281.960205,391.043518 1288.990723,393.032990 
	C1296.125488,395.051910 1302.567139,398.195526 1304.975098,406.007690 
	C1308.616821,417.823181 1303.436890,429.167816 1291.984497,432.445648 
	C1291.074951,432.705963 1290.281616,433.147644 1289.471069,433.410767 
	C1279.867310,436.528229 1279.500000,436.953186 1279.500000,447.000000 
	C1279.500000,462.500000 1279.500000,478.000000 1279.500000,493.500000 
	C1279.500000,504.288361 1280.126831,506.167816 1290.047485,508.822479 
	C1301.785156,511.963257 1309.718384,528.122864 1300.658569,540.119690 
	C1297.081421,544.856567 1292.435547,546.347290 1287.493286,547.979736 
	C1281.945557,549.812134 1279.732300,552.277344 1279.544067,558.001465 
	C1279.347168,563.994995 1279.335571,570.005737 1279.545654,575.998413 
	C1279.761230,582.148132 1281.916382,584.156921 1287.989258,585.547180 
	C1294.331543,586.999207 1300.646729,586.719910 1306.999146,585.992188 
	C1311.909180,585.429749 1315.200073,583.132385 1316.601318,578.027771 
	C1317.457397,574.908875 1318.470581,571.715271 1320.485718,568.989502 
	C1329.922729,556.224792 1350.752930,558.314758 1356.006348,573.997864 
	C1356.290894,574.847534 1356.878418,575.645020 1356.966064,576.503479 
	C1357.586304,582.586670 1361.149292,585.356567 1366.995361,586.039490 
	C1373.182617,586.762329 1379.400879,587.047424 1385.478394,585.887085 
	C1390.261108,584.973999 1393.161499,581.902283 1393.590698,576.507202 
	C1394.136597,569.644104 1394.232788,562.823792 1393.467285,556.003662 
	C1393.033447,552.139160 1391.309082,549.430420 1387.019165,548.418762 
	C1379.904541,546.740906 1374.135986,543.176575 1370.878174,536.055786 
	C1369.630005,533.327393 1370.844971,530.508240 1369.500000,528.000000 
"/>
<path fill="none" opacity="1.000000" stroke="#000000" stroke-linecap="round" stroke-linejoin="round" stroke-width="11.000000"
	d="
M1280.000000,470.000000 
	C1288.666626,470.000000 1297.333984,470.060059 1305.999878,469.980225 
	C1312.460938,469.920715 1314.061768,468.636017 1316.514160,462.505646 
	C1319.357056,455.399261 1322.676147,448.852631 1330.982788,446.440796 
	C1342.863770,442.991119 1352.013794,450.313293 1355.492188,458.003510 
	C1355.554810,458.141846 1355.470581,458.339508 1355.504150,458.499115 
	C1357.593994,468.446259 1364.300781,470.210144 1373.499878,470.217133 
	C1388.833862,470.228821 1404.166626,469.959320 1419.500000,469.994720 
	C1427.647949,470.013550 1430.433960,468.028442 1433.000000,460.500000 
	C1436.244507,450.981323 1442.203491,446.043762 1450.500000,446.000031 
	C1461.927856,445.939728 1467.098022,449.596649 1471.000000,460.500000 
	C1473.789917,468.296295 1476.300781,470.000000 1485.000000,470.000000 
	C1489.666626,470.000000 1494.350952,470.255737 1498.995605,469.935455 
	C1504.854492,469.531403 1509.270264,468.833527 1509.611450,460.504578 
	C1509.851562,454.647583 1509.658325,448.832520 1509.665649,443.000214 
	C1509.674683,435.661713 1504.620972,434.030396 1499.476685,432.582825 
	C1491.105347,430.227081 1486.411621,425.019806 1484.968262,416.505402 
	C1483.437378,407.475800 1487.557983,399.414459 1496.000854,395.501953 
	C1497.828125,394.655243 1499.598999,393.360565 1501.512451,393.086670 
	C1507.807739,392.185547 1509.667236,387.697144 1509.883179,382.495148 
	C1510.110474,377.020691 1510.506104,371.490051 1509.525757,365.995422 
	C1508.228271,358.723785 1507.296265,357.654999 1499.998291,356.511047 
	C1493.172974,355.441101 1486.315796,355.798981 1479.507080,356.562683 
	C1475.832275,356.974884 1473.358887,358.955658 1472.423340,362.982208 
	C1470.839966,369.796814 1467.786255,375.681213 1461.018677,379.037750 
	C1449.712891,384.645325 1436.599854,377.583862 1433.432617,368.022339 
	C1429.602051,356.458679 1428.611938,356.000000 1416.000000,356.000000 
	C1401.333374,356.000000 1386.666626,356.018951 1372.000122,355.977814 
	C1369.999634,355.972198 1368.002441,355.624664 1365.999512,355.508087 
	C1360.599365,355.193756 1358.223755,352.226196 1356.872925,347.033081 
	C1353.582520,334.383728 1345.614380,331.553314 1339.004517,330.950623 
	C1329.944824,330.124481 1320.644897,335.535767 1317.508179,345.502563 
	C1314.524170,354.984283 1314.636719,355.144989 1302.494507,355.912567 
	C1295.024292,356.384766 1287.500000,356.000000 1280.000000,356.000000 
"/>
<path fill="none" opacity="1.000000" stroke="#000000" stroke-linecap="round" stroke-linejoin="round" stroke-width="10.000000"
	d="
M1052.000000,126.500000 
	C1047.926636,135.760941 1049.540527,145.421921 1050.003540,154.999832 
	C1050.221069,159.500916 1052.632568,161.979782 1056.989868,163.041428 
	C1062.887939,164.478455 1068.077271,167.078247 1071.524414,172.484451 
	C1078.219604,182.984665 1074.499756,198.346771 1060.494995,202.482941 
	C1050.305054,205.492386 1049.561279,206.456223 1049.479370,216.999832 
	C1049.420410,224.574570 1049.078857,232.201477 1051.631470,239.453751 
	C1052.211304,241.101410 1051.819214,242.347641 1051.418457,243.470932 
	C1048.554688,251.500153 1049.530884,259.801392 1049.583252,267.999481 
	C1049.615601,273.084045 1051.913940,276.672729 1057.471558,278.110138 
	C1063.743774,279.732452 1069.384155,282.715973 1072.512939,288.993561 
	C1077.212891,298.423828 1073.942993,311.383545 1063.997925,315.995392 
	C1062.846924,316.529114 1061.710938,317.218933 1060.492920,317.465302 
	C1050.963867,319.393158 1048.894653,325.841095 1049.394287,334.506104 
	C1049.772095,341.059692 1049.217651,347.680695 1051.532959,353.987915 
	C1052.271484,355.999878 1051.516968,357.637848 1051.070679,359.516785 
	C1048.989380,368.279144 1048.858887,377.091003 1050.398682,386.017456 
	C1051.063354,389.870422 1052.750366,391.585144 1056.471924,392.602509 
	C1063.916260,394.637512 1070.981567,397.827087 1073.428101,406.021484 
	C1076.997437,417.976990 1073.349731,427.939545 1060.477051,432.434113 
	C1051.956909,435.408905 1049.298706,435.165344 1049.489868,447.500153 
	C1049.554443,451.665802 1049.341309,455.840820 1049.536743,459.998260 
	C1049.839966,466.449707 1052.917847,469.743317 1059.001587,469.954559 
	C1064.994385,470.162659 1071.007202,470.182373 1076.997803,469.944183 
	C1082.096924,469.741425 1085.531860,467.524536 1087.142334,462.041809 
	C1089.064575,455.497070 1092.523193,449.358917 1099.530029,447.092987 
	C1110.944214,443.401764 1121.530151,447.235382 1125.898682,459.037537 
	C1129.570679,468.958069 1130.403076,470.114868 1140.999390,469.961731 
	C1148.741821,469.849823 1156.721069,471.315552 1163.985596,467.224426 
	C1165.165527,466.559875 1166.186768,467.157410 1166.969727,467.559021 
	C1175.507935,471.938751 1184.649902,469.655396 1193.503296,469.835297 
	C1198.029663,469.927277 1200.640869,466.349609 1202.030518,462.009796 
	C1205.694702,450.567444 1212.267212,445.966187 1224.000000,445.957977 
	C1231.465820,445.952728 1235.943848,450.252838 1239.457275,456.026031 
	C1240.882812,458.368469 1242.142212,460.906372 1242.934448,463.519867 
	C1244.499268,468.681549 1248.300903,469.974670 1253.000000,469.991272 
	C1261.666504,470.021881 1270.333374,470.000000 1279.000000,470.000000 
"/>
<path fill="none" opacity="1.000000" stroke="#000000" stroke-linecap="round" stroke-linejoin="round" stroke-width="11.000000"
	d="
M820.000000,471.000000 
	C820.291809,480.164398 819.671082,489.328522 820.395630,498.508240 
	C820.828308,503.990692 823.051025,507.041260 828.493225,508.037018 
	C836.879456,509.571442 843.040161,513.550171 845.604309,522.470032 
	C848.657104,533.089722 844.291687,542.805725 834.000916,546.502563 
	C832.660950,546.983948 831.359192,547.589050 829.995789,547.985596 
	C821.325745,550.507446 820.155273,551.918579 820.021790,561.000305 
	C819.914062,568.332031 820.000000,575.666687 820.000000,583.000000 
"/>
<path fill="none" opacity="1.000000" stroke="#000000" stroke-linecap="round" stroke-linejoin="round" stroke-width="10.000000"
	d="
M705.000000,14.000000 
	C705.000000,21.166666 704.889282,28.335833 705.050903,35.498852 
	C705.122009,38.651264 704.156616,41.537407 703.462524,44.491192 
	C702.331482,49.304501 697.611206,48.424309 694.455505,49.347954 
	C684.242249,52.337234 678.123779,58.694344 678.041199,68.000366 
	C677.960205,77.133606 683.700317,85.535072 693.987427,88.543068 
	C696.707275,89.338364 700.193970,88.399971 701.975342,91.514099 
	C703.996704,95.047806 705.044983,98.817383 705.053406,102.999893 
	C705.083191,117.833504 705.358398,132.666473 705.474182,147.500198 
	C705.492371,149.832092 705.274536,152.180542 704.976929,154.497040 
	C704.402222,158.969604 702.657837,162.013214 697.533447,163.150742 
	C690.501465,164.711700 684.204712,168.354568 681.594604,175.534409 
	C677.232605,187.533722 682.299805,199.669998 695.057922,202.760910 
	C703.351318,204.770157 704.844910,207.737991 705.346375,215.010590 
	C705.888428,222.871246 706.515503,230.987656 702.945251,238.473892 
	C701.770996,240.936096 702.674316,242.817642 703.457825,245.015045 
	C706.439880,253.377991 706.061951,261.919922 704.511536,270.502075 
	C703.780579,274.548187 701.484436,276.855133 697.517395,278.057465 
	C690.653381,280.137939 683.920166,282.755219 681.535278,290.510864 
	C677.710266,302.950165 681.635071,311.061432 691.512085,316.477966 
	C692.421387,316.976624 693.476929,317.293274 694.503601,317.480408 
	C704.575806,319.316132 705.644104,326.656281 705.558838,335.000610 
	C705.494385,341.308258 705.720337,347.630219 702.941711,353.472260 
	C701.770203,355.935333 702.689392,357.814392 703.455750,360.015411 
	C706.558044,368.925873 706.133301,377.946747 704.022339,387.005219 
	C703.254211,390.301483 701.333130,391.659821 698.044250,392.647369 
	C691.812012,394.518738 685.764771,397.101135 682.487122,403.493408 
	C676.804993,414.575043 680.944580,428.366821 694.514771,432.451019 
	C703.508728,435.157928 705.276428,436.273193 705.412903,448.001007 
	C705.597046,463.830261 705.206482,479.667206 704.984009,495.499786 
	C704.865173,503.960083 702.806885,506.637238 695.000000,509.000000 
	C686.060791,511.705414 680.510498,518.212646 680.499939,526.000000 
	C680.483215,538.402039 684.432617,544.257935 695.000000,547.499939 
	C703.239441,550.027771 704.925110,552.253113 704.988708,561.000061 
	C705.043274,568.499695 705.000000,576.000000 705.000000,583.500000 
"/>
<path fill="none" opacity="1.000000" stroke="#000000" stroke-linecap="round" stroke-linejoin="round" stroke-width="10.000000"
	d="
M932.000000,126.000000 
	C925.166687,126.000000 918.331726,125.913063 911.500671,126.035912 
	C907.976746,126.099289 904.783264,124.943565 901.495300,124.016647 
	C897.573669,122.911095 898.515381,118.985779 897.061035,116.464790 
	C895.615540,113.958992 895.108887,110.838432 893.418274,108.560646 
	C888.024902,101.294052 880.249939,100.063667 872.016113,101.587234 
	C865.149780,102.857788 860.913452,107.667290 858.628845,114.046143 
	C858.280640,115.018265 857.821716,115.999840 857.471191,116.989799 
	C855.064636,123.786118 852.392761,125.897423 844.999634,125.956764 
	C828.000732,126.093216 810.999146,126.101730 794.000366,125.954536 
	C786.194336,125.886948 783.929504,123.965424 782.000000,117.000000 
	C779.258728,107.104149 773.200623,101.433662 764.498474,101.033051 
	C754.388977,100.567665 748.348694,104.544708 743.526855,114.013672 
	C743.155579,114.742805 743.261108,115.699432 742.985107,116.494843 
	C740.501892,123.651886 737.428894,125.931862 729.499878,125.973450 
	C712.833618,126.060890 696.166382,126.056503 679.500122,125.974564 
	C671.935059,125.937370 668.544983,123.296516 666.546509,115.488106 
	C663.131836,102.146164 647.333069,96.875740 635.987488,104.481354 
	C631.807068,107.283760 629.809387,111.339302 628.469238,115.991142 
	C626.098938,124.218758 623.735840,125.924278 614.999939,125.988869 
	C607.666992,126.043083 600.333313,126.000000 593.000000,126.000000 
"/>
<path fill="none" opacity="1.000000" stroke="#000000" stroke-linecap="round" stroke-linejoin="round" stroke-width="11.000000"
	d="
M931.000000,470.000000 
	C924.000000,470.000000 916.996460,470.140106 910.000916,469.963776 
	C901.621521,469.752625 899.560547,468.481873 897.057678,460.481964 
	C892.361084,445.470123 877.302368,442.973572 866.996765,448.493958 
	C862.504761,450.900146 860.073303,454.837158 858.488892,459.496216 
	C855.484253,468.331757 853.060242,470.000000 843.500000,470.000000 
	C827.666687,470.000000 811.833313,470.000000 796.000000,470.000000 
	C786.574524,470.000000 783.842834,471.911224 781.541260,481.010437 
	C778.809753,491.809265 767.427612,498.808533 755.484253,494.544067 
	C748.841614,492.172241 744.963989,487.275177 743.106018,480.968781 
	C740.781616,473.079315 738.803467,470.079834 727.999878,470.021881 
	C712.167053,469.936951 696.333313,470.003601 680.500000,469.998474 
	C672.266846,469.995819 669.464844,468.218750 667.056763,460.482330 
	C664.719299,452.973022 660.093262,447.551117 652.468384,446.175171 
	C644.482117,444.734039 636.882080,446.346954 631.468262,453.475891 
	C629.500183,456.067474 628.718140,459.153198 627.599854,462.038696 
	C625.098083,468.493774 623.668823,469.843933 616.999939,469.997650 
	C609.333496,470.174377 601.666687,470.333344 594.000000,470.500000 
"/>
<path fill="none" opacity="1.000000" stroke="#000000" stroke-linecap="round" stroke-linejoin="round" stroke-width="11.000000"
	d="
M820.000000,15.000000 
	C819.704834,23.330765 820.687988,31.695749 819.477478,39.996719 
	C818.559875,46.289444 817.028198,48.043724 810.992981,48.953365 
	C800.762268,50.495365 794.574951,55.497025 793.196045,67.522476 
	C792.277161,75.536270 797.053650,84.046982 806.508423,87.476822 
	C807.445557,87.816765 808.533264,87.724121 809.494812,88.017052 
	C818.166443,90.658897 819.947632,93.040535 819.984192,102.500061 
	C820.042908,117.666496 820.000000,132.833328 820.000000,148.000000 
	C820.000000,148.666672 819.985901,149.333679 820.002136,149.999954 
	C820.228271,159.267792 821.155029,160.972229 830.027710,163.916534 
	C837.888916,166.525208 842.679626,171.494492 844.507874,179.498199 
	C846.429871,187.912201 841.833374,198.676682 833.000549,201.501663 
	C831.996582,201.822739 831.000732,202.168900 829.999878,202.499619 
	C821.484680,205.313461 820.060425,207.225098 820.017822,216.500076 
	C819.981323,224.454391 819.115723,232.566147 823.065125,239.965240 
	C823.852417,241.440277 822.917908,242.023193 822.511780,243.004883 
	C818.882080,251.778503 819.721375,260.910339 820.549805,269.995453 
	C820.900208,273.837921 822.719299,276.423859 826.949646,277.670807 
	C830.431396,278.697052 833.912354,280.159058 837.052734,282.426941 
	C849.008301,291.060730 846.785278,311.222748 833.002319,316.506073 
	C831.817993,316.960022 830.709106,317.672424 829.493042,317.971802 
	C822.071838,319.798462 819.749451,324.964172 819.980896,332.000641 
	C820.231140,339.609070 818.880920,347.454254 823.054749,354.467407 
	C824.185242,356.366821 822.915222,357.737427 822.394653,358.954956 
	C818.381165,368.341797 819.864075,377.930603 821.038086,387.495331 
	C821.672913,392.666840 826.777893,392.880920 830.061340,393.774628 
	C839.456421,396.331757 843.742737,402.914490 844.812561,411.523285 
	C845.748596,419.056091 842.687744,425.662811 835.976807,429.963776 
	C834.298645,431.039276 832.377441,431.786560 830.492615,432.479889 
	C820.778503,436.053314 819.948181,437.110382 820.022095,447.499847 
	C820.075439,455.000641 820.333313,462.500000 820.500000,470.000000 
"/>
<path fill="none" opacity="1.000000" stroke="#000000" stroke-linecap="round" stroke-linejoin="round" stroke-width="11.000000"
	d="
M1279.000000,356.000000 
	C1271.666626,356.000000 1264.333374,356.000000 1257.000000,356.000000 
	C1246.438232,356.000000 1245.175415,356.938538 1241.490479,366.996521 
	C1236.216675,381.391388 1219.387573,384.900726 1209.426758,376.587830 
	C1205.751099,373.520325 1204.244141,369.512878 1202.528809,365.487701 
	C1199.076416,357.386719 1200.038330,356.395233 1188.497559,356.092926 
	C1173.840942,355.708923 1159.166626,356.000000 1144.500000,356.000000 
	C1143.666626,356.000000 1142.833374,356.000000 1142.000000,356.000000 
	C1130.930908,356.000000 1129.679199,355.139435 1125.999878,345.000031 
	C1122.888306,336.424469 1117.340576,331.927979 1110.504639,331.435516 
	C1095.389282,330.346558 1091.565308,336.688751 1088.014893,344.506775 
	C1087.735474,345.122192 1087.734863,345.859650 1087.489624,346.496002 
	C1084.273438,354.841919 1082.733032,355.915558 1073.499878,355.988983 
	C1066.500366,356.044647 1059.500000,356.000000 1052.500000,356.000000 
"/>
<path fill="none" opacity="1.000000" stroke="#000000" stroke-linecap="round" stroke-linejoin="round" stroke-width="11.000000"
	d="
M244.500000,356.000000 
	C235.335815,356.303162 226.165848,355.545807 216.993347,356.431000 
	C212.024307,356.910553 209.301483,359.194183 207.934341,363.981262 
	C205.638275,372.021027 201.536942,378.649139 192.499115,380.495697 
	C182.065720,382.627319 173.096802,377.763489 168.479874,366.007904 
	C164.841400,356.743713 163.618912,356.006500 153.500000,356.001709 
	C139.166672,355.994934 124.833252,356.025177 110.500076,355.977448 
	C107.832886,355.968567 105.168114,355.559662 102.499680,355.523438 
	C97.672745,355.457886 94.814224,353.129211 93.462845,348.510864 
	C92.166916,344.082062 90.517372,339.877655 87.043701,336.455627 
	C77.002655,326.563843 59.746380,330.238525 54.429115,343.471527 
	C54.028595,344.468262 53.544289,345.587311 53.133793,346.556671 
	C49.631374,354.827057 48.284538,355.918732 39.499916,355.989685 
	C33.000340,356.042206 26.500000,356.000000 20.000000,356.000000 
"/>
<path fill="none" opacity="1.000000" stroke="#000000" stroke-linecap="round" stroke-linejoin="round" stroke-width="7.000000"
	d="
M1162.000000,126.000000 
	C1155.166626,126.000000 1148.333130,125.966339 1141.500122,126.017365 
	C1138.938110,126.036484 1136.487915,125.485695 1133.983521,125.110107 
	C1129.632568,124.457626 1127.651611,121.966049 1127.011230,117.998177 
	C1125.256592,107.126022 1116.929932,99.152473 1102.994751,101.468491 
	C1096.923340,102.477531 1089.674927,108.821808 1088.000000,115.000008 
	C1085.502808,124.211334 1083.379395,125.958183 1074.000000,125.977715 
	C1064.833496,125.996796 1055.666626,125.833336 1046.500000,125.750008 
"/>
<path fill="none" opacity="1.000000" stroke="#000000" stroke-linecap="round" stroke-linejoin="round" stroke-width="11.000000"
	d="
M1138.000000,298.500000 
	C1139.906128,298.341797 1139.923706,299.556519 1140.031250,300.997681 
	C1140.673584,309.607025 1145.791016,314.629028 1153.503540,317.490601 
	C1154.143799,317.728210 1154.837036,317.819977 1155.499390,318.002045 
	C1163.210571,320.121246 1165.161621,325.696289 1165.062988,333.000854 
	C1164.855835,348.331390 1164.994629,363.666656 1165.005737,379.000000 
	C1165.007446,381.387024 1164.358765,383.695343 1164.129517,386.012817 
	C1163.757446,389.775024 1161.769287,391.470764 1158.507690,392.523651 
	C1152.830811,394.356232 1147.358643,396.266876 1143.422607,401.441101 
	C1135.684570,411.612915 1139.536255,427.967743 1153.492432,432.523102 
	C1164.662476,436.169006 1165.000000,436.771057 1165.000000,448.500000 
	C1165.000000,454.500000 1165.000000,460.500000 1165.000000,466.500000 
"/>
<path fill="none" opacity="1.000000" stroke="#000000" stroke-linecap="round" stroke-linejoin="round" stroke-width="11.000000"
	d="
M1161.000000,241.000000 
	C1152.501831,240.737946 1143.983154,241.564819 1135.499634,240.503006 
	C1131.244263,239.970413 1128.558960,238.311462 1127.338745,233.541260 
	C1125.265869,225.438477 1121.201538,218.704620 1112.018677,216.424881 
	C1101.883423,213.908722 1091.753540,219.078033 1088.493408,228.997849 
	C1088.378418,229.348145 1088.107300,229.650070 1088.008789,230.002441 
	C1085.484253,239.034775 1083.279175,240.837601 1073.999634,240.978302 
	C1066.834717,241.086929 1059.666626,241.000000 1052.500000,241.000000 
"/>
<path fill="none" opacity="1.000000" stroke="#000000" stroke-linecap="round" stroke-linejoin="round" stroke-width="11.000000"
	d="
M704.500000,356.000000 
	C695.335876,355.694427 686.173035,356.318298 676.991089,355.616699 
	C671.449768,355.193237 668.799988,352.497437 667.462585,347.510040 
	C666.297119,343.164215 664.403931,339.269592 661.058899,335.940796 
	C651.719421,326.646698 631.889954,330.525970 628.805847,344.958496 
	C626.698975,354.817810 623.985718,355.988922 613.500000,355.998871 
	C607.000000,356.005035 600.500000,356.000000 594.000000,356.000000 
"/>
<path fill="none" opacity="1.000000" stroke="#000000" stroke-linecap="round" stroke-linejoin="round" stroke-width="11.000000"
	d="
M357.000000,241.000000 
	C350.000000,241.000000 342.998749,241.083557 336.000305,240.978958 
	C327.120758,240.846268 324.041779,238.919861 322.092316,230.977341 
	C319.818573,221.713531 312.314758,216.036530 303.497498,215.544601 
	C294.565765,215.046295 287.569031,220.400024 284.000000,230.000000 
	C280.190918,240.245651 279.093689,241.000000 268.000000,241.000000 
	C261.666656,241.000000 255.333328,241.000000 249.000000,241.000000 
"/>
<path fill="none" opacity="1.000000" stroke="#000000" stroke-linecap="round" stroke-linejoin="round" stroke-width="11.000000"
	d="
M704.500000,241.000000 
	C695.168579,240.727890 685.831421,241.424469 676.493408,240.572327 
	C672.329834,240.192383 669.878418,238.511765 668.401001,234.536804 
	C667.266479,231.484634 666.391296,228.328964 664.586060,225.446121 
	C660.530396,218.969315 652.861023,214.421280 646.008545,215.551620 
	C637.762634,216.911850 631.606262,221.117813 629.005920,229.501831 
	C628.958740,229.653885 629.042664,229.847107 628.993896,229.998032 
	C625.837341,239.772247 624.126587,240.988724 613.500000,240.998856 
	C607.000000,241.005051 600.500000,241.000000 594.000000,241.000000 
"/>
<path fill="none" opacity="1.000000" stroke="#000000" stroke-linecap="round" stroke-linejoin="round" stroke-width="11.000000"
	d="
M931.000000,356.000000 
	C922.834900,355.756012 914.667236,356.346069 906.492065,355.585632 
	C902.524048,355.216553 899.818848,353.701019 898.532166,349.988861 
	C897.791504,347.851868 897.069092,345.671936 896.352722,343.549713 
	C893.636292,335.502808 886.461304,330.971375 877.500000,331.007477 
	C867.082581,331.049438 862.078491,335.728455 858.497620,343.998962 
	C858.349792,344.340485 858.134827,344.654694 858.004578,345.001709 
	C854.185669,355.176514 853.047180,355.988586 842.500000,355.998871 
	C836.333313,356.004883 830.166687,356.000000 824.000000,356.000000 
"/>
<path fill="none" opacity="1.000000" stroke="#000000" stroke-linecap="round" stroke-linejoin="round" stroke-width="11.000000"
	d="
M931.000000,241.000000 
	C922.834900,240.756027 914.666565,241.358200 906.492554,240.577911 
	C902.332397,240.180801 899.935425,238.486237 898.417969,234.531464 
	C895.926697,228.038330 893.665771,221.456909 886.547424,217.904938 
	C875.777039,212.530594 862.525940,217.585419 858.514709,229.005173 
	C858.235779,229.799072 858.212097,230.678833 857.992920,231.498108 
	C855.914917,239.262726 850.302124,241.305725 842.998352,241.046646 
	C836.672974,240.822266 830.333313,241.000000 824.000000,241.000000 
"/>
<path fill="none" opacity="1.000000" stroke="#000000" stroke-linecap="round" stroke-linejoin="round" stroke-width="11.000000"
	d="
M1390.000000,241.000000 
	C1381.834961,240.756027 1373.648438,241.546677 1365.500122,240.499313 
	C1361.270386,239.955658 1358.474854,238.347076 1357.335938,233.538849 
	C1355.947510,227.676392 1353.166260,222.486389 1347.567505,218.894775 
	C1338.117188,212.832581 1323.765625,216.219650 1318.999512,226.999786 
	C1318.335815,228.501114 1317.475830,229.945862 1317.032227,231.509140 
	C1314.711060,239.685913 1314.116821,240.037445 1303.990845,240.891190 
	C1297.205688,241.463257 1290.333374,241.000000 1283.500000,241.000000 
"/>
<path fill="none" opacity="1.000000" stroke="#000000" stroke-linecap="round" stroke-linejoin="round" stroke-width="10.000000"
	d="
M127.000000,126.000000 
	C118.338997,125.519333 109.663849,126.724594 100.974548,125.139503 
	C96.193275,124.267311 94.019958,121.805069 92.988853,117.502670 
	C90.040657,105.200996 79.704033,99.004150 68.500984,101.504402 
	C61.043858,103.168648 56.184681,107.663612 54.002716,115.000809 
	C51.193794,124.446281 49.105625,125.989594 39.000000,125.998840 
	C32.333336,126.004944 25.666666,126.000000 19.000000,126.000000 
"/>
<path fill="none" opacity="1.000000" stroke="#000000" stroke-linecap="round" stroke-linejoin="round" stroke-width="11.000000"
	d="
M1368.000000,298.500000 
	C1369.418823,298.414520 1369.994873,299.082458 1370.014648,300.499786 
	C1370.141846,309.616547 1375.622681,314.471588 1383.493652,317.516327 
	C1392.851562,321.136292 1393.975708,322.835785 1393.993164,333.000000 
	C1394.019531,348.333313 1394.019531,363.666718 1393.977783,378.999939 
	C1393.971924,381.167023 1393.937012,383.398102 1393.436890,385.484863 
	C1392.682007,388.635468 1391.397583,391.358765 1387.517578,392.092804 
	C1384.760376,392.614380 1382.087280,393.830139 1379.515015,395.032196 
	C1372.088867,398.502594 1366.421509,404.546600 1368.148926,416.478424 
	C1369.351807,424.786072 1372.999878,430.182892 1382.473267,432.604736 
	C1383.525024,432.873627 1384.533081,432.693756 1385.496826,433.009857 
	C1392.019287,435.149506 1393.876587,437.884308 1393.978149,446.000275 
	C1394.078369,453.999023 1394.000000,462.000000 1394.000000,470.000000 
"/>
<path fill="none" opacity="1.000000" stroke="#000000" stroke-linecap="round" stroke-linejoin="round" stroke-width="11.000000"
	d="
M1138.000000,183.500000 
	C1139.906128,183.341782 1139.888062,184.565765 1140.036621,185.996201 
	C1140.992554,195.200882 1145.771851,200.580261 1155.026123,202.895508 
	C1163.901123,205.115845 1164.228760,206.420197 1164.795166,214.514328 
	C1165.379639,222.862610 1166.455566,231.618362 1161.941406,239.466309 
	C1160.842529,241.376678 1162.091187,242.728790 1162.604858,243.956100 
	C1166.395874,253.013809 1165.317749,262.237457 1163.992554,271.498932 
	C1163.377686,275.796997 1160.141479,276.951050 1156.517944,278.058868 
	C1146.468994,281.131256 1140.070923,287.440948 1139.500000,298.500000 
"/>
<path fill="none" opacity="1.000000" stroke="#000000" stroke-linecap="round" stroke-linejoin="round" stroke-width="11.000000"
	d="
M1139.500000,69.000000 
	C1140.474976,79.003578 1145.111328,85.710594 1155.477051,88.099609 
	C1161.661255,89.524879 1165.120972,93.849182 1164.995361,100.499908 
	C1164.843384,108.541512 1165.919434,116.711121 1162.927124,124.471901 
	C1162.401001,125.836433 1162.598145,126.831039 1162.998901,128.000366 
	C1166.035034,136.858902 1165.105835,145.932159 1164.524658,155.001572 
	C1164.268188,159.003799 1162.316406,161.328308 1158.516113,162.549957 
	C1155.106445,163.645996 1151.559448,164.726013 1148.557373,166.592285 
	C1142.434326,170.398682 1139.891357,176.452255 1139.500000,183.500000 
"/>
<path fill="none" opacity="1.000000" stroke="#000000" stroke-linecap="round" stroke-linejoin="round" stroke-width="11.000000"
	d="
M1394.000000,471.000000 
	C1394.000000,479.000000 1394.085327,487.001160 1393.977295,494.999695 
	C1393.857300,503.877075 1391.839844,506.634583 1383.997559,508.991943 
	C1375.741943,511.473541 1370.872803,516.802917 1370.029907,525.502869 
	C1369.895142,526.893677 1369.603516,527.770142 1368.000000,527.500000 
"/>
<path fill="none" opacity="1.000000" stroke="#000000" stroke-linecap="round" stroke-linejoin="round" stroke-width="11.000000"
	d="
M126.500000,241.000000 
	C118.836090,240.706680 111.175995,241.209030 103.490410,240.626526 
	C97.592316,240.179489 94.354370,237.537506 92.985901,232.003479 
	C91.364899,225.448273 87.961823,220.165985 81.488731,217.527634 
	C70.865822,213.197922 59.135609,217.143066 54.508400,228.503418 
	C54.111614,229.477585 53.854061,230.507477 53.496727,231.498825 
	C50.578789,239.594116 48.890556,240.842163 39.999687,240.979660 
	C33.334610,241.082733 26.666666,241.000000 20.000000,241.000000 
"/>
</svg>