<svg xmlns="http://www.w3.org/2000/svg" width="800" height="450.667" viewBox="0 0 600 338"><defs><pattern id="d" preserveAspectRatio="xMidYMid" href="#a"/><pattern id="a" width="800.058" height="450.667" patternTransform="translate(-.058)" patternUnits="userSpaceOnUse" preserveAspectRatio="xMidYMid"><path fill="url(#b)" d="M0 0h800.058v450.667H0z"/></pattern><pattern id="b" preserveAspectRatio="xMidYMid" href="#c"/><pattern id="c" width="800.058" height="450.667" patternTransform="translate(-.058)" patternUnits="userSpaceOnUse" preserveAspectRatio="xMidYMid"><path stroke-width=".133" d="M62.458 1.2c-4.933 1.067-9.2 4.933-8.267 7.467.4 1.066 2.667 2.533 4.934 3.066 6.266 1.6 5.733 3.734-2 8.267-11.067 6.267-11.734 6.267-21.067-.533-10-7.334-14.133-7.867-19.067-2.134-4 4.4-5.066 4.667-9.066 2.667-3.867-2.133-3.067-4.533 2.133-7.067 7.067-3.333 5.867-5.866-4.4-9.466-7.2-2.534-7.333-.4-.267 2.4 2.934 1.2 5.334 2.4 5.334 2.666 0 .267-2.134 1.734-4.667 3.334-2.533 1.466-4.667 3.6-4.667 4.533 0 3.467 4.667 6.267 10.267 6.267 4.4 0 6-.667 8.133-3.467 2-2.8 3.2-3.467 5.734-2.8 3.6.933 15.866 10 15.866 11.733 0 .534-5.066 3.467-11.333 6.4-13.467 6.267-15.067 10.8-3.867 10.8 3.867 0 4.267 3.334.667 5.334-4 2.133-7.867 1.6-12.133-1.467-2.934-2.267-4.8-2.667-8.534-2-4.266.8-7.2 2.8-5.866 4.133.266.4 2.4-.133 4.666-.933 3.467-1.333 4.667-1.067 8.934 1.467 5.6 3.466 11.866 3.066 16.933-1.067 3.867-3.067 2.667-6.267-2.667-7.467-2.266-.533-4.133-1.333-4.133-1.866 0-1.067 19.2-10.8 21.2-10.8.667 0 5.2 1.866 10.267 4.133l9.2 4.267-6 1.466C50.858 42.4 49.79 46.8 56.19 50c4.934 2.667 11.334 1.867 16.267-2 1.867-1.467 4.267-2.667 5.333-2.667 2.534 0 14.267 9.6 14.267 11.6 0 1.6-11.333 10.667-17.2 13.734-2.667 1.333-3.467 1.2-6.933-2-3.2-3.2-4.534-3.6-8.667-2.934-5.867.934-10.667 5.067-9.467 8.134.534 1.2 2.8 2.933 5.2 4l4.4 1.866-10.533 4.934-10.4 4.933-8.933-6.133c-10.4-7.2-15.867-8-19.867-2.8-1.6 2-4 3.333-6.133 3.333-1.867 0-3.467.533-3.467 1.333 0 3.067 8.133 1.2 12.133-2.666 3.6-3.334 4.667-3.734 7.067-2.4 4.267 2.266 14.133 9.466 14.133 10.266 0 .4-4.4 3.067-9.866 5.867-5.467 2.8-10.267 6-10.667 7.2-1.067 2.667 1.467 5.733 4.8 5.733 3.6 0 4.667 4 1.733 6.134-3.733 2.8-7.866 2.266-11.066-1.467-2.934-3.333-8.267-4.533-8.267-2 0 .667.8 1.333 1.733 1.333 1.067 0 3.2 1.467 4.934 3.334 3.733 4 8.533 4.266 14.266.666 6.267-3.733 5.467-8.266-1.6-9.6-5.066-.933-2.666-4.4 6.667-9.333 11.067-5.867 13.067-6.133 18.533-1.867C50.19 100.8 56.724 104 59.79 104c1.334 0 3.867-1.467 5.6-3.333 3.067-3.2 6.934-4.134 11.2-2.534 3.6 1.467 2.4 3.867-3.466 6.534-3.2 1.466-5.734 3.6-5.734 4.666 0 1.2 3.6 3.734 8.4 5.867 4.534 2.267 8.134 4.533 8 5.067-.266.666-4.933 3.466-10.4 6.133-5.466 2.667-10 5.467-9.866 6.267 0 1.2 1.733 1.866 9.866 4.266 1.6.534 1.334 1.2-1.2 3.2-4 3.334-9.733 3.2-12.8-.133-3.466-3.867-7.466-3.333-14.8 2-14.4 10.4-12 9.733-20.4 5.067-4.133-2.267-7.466-4.934-7.466-5.734 0-.933 2.266-2.4 5.066-3.333 6.4-2.133 6.667-2.533 5.6-5.867-.933-3.2-8.4-5.866-13.066-4.8-1.867.534-4.4 2-5.734 3.467-1.2 1.333-3.733 2.533-5.466 2.533-1.6 0-3.067.534-3.067 1.334 0 2.533 6.933 1.333 10.933-2 4.4-3.734 7.467-4.134 11.067-1.6 3.2 2.4 1.733 4.4-4 5.466-8.933 1.734-7.467 6.667 3.733 12.267 7.6 3.867 7.2 4.933-3.733 11.2-8.267 4.8-10.8 4.933-14.933 1.067-2.4-2.134-3.067-2.4-3.067-.8 0 3.2 4.533 6.4 8.933 6.4 2.4 0 7.2-2.134 12.267-5.334 4.533-2.933 8.8-5.333 9.467-5.333s3.866 1.867 7.2 4.133c9.066 6.134 14 6.4 19.733 1.334 5.067-4.4 10.4-5.334 12.933-2.267 1.734 2 .134 3.867-4.8 5.333-1.466.534-3.466 1.734-4.266 2.667-1.734 2.133 2 5.867 10.4 10.4 3.333 1.733 6.133 3.6 6.4 4.4.4 1.6-11.467 9.6-16.267 10.8-2.4.533-5.333-.133-9.333-2.267-5.6-2.933-6.267-3.066-11.467-1.2-7.2 2.534-9.6 6-6 8.8 1.467 1.067 4 1.867 5.733 1.867 3.334 0 4 1.6 1.467 3.6-.933.8-5.467 3.333-10 5.733L24.19 213.6l-4.4-3.333c-9.066-6.8-19.733-10.534-19.733-6.934 0 1.2.533 1.734 1.333 1.334 1.734-1.067 11.6 3.6 16.667 7.733l4 3.467-10.133 4.666c-5.734 2.534-10.667 5.334-11.2 6.134-.534.933.666 2.133 3.2 3.066 5.466 2 5.466 6 .133 8-5.067 1.867-5.333 4.267-.4 2.934 8.133-2 11.2-8.934 5.067-11.334-1.867-.666-3.334-1.733-3.334-2.266 0-1.867 18.934-8.8 20.667-7.6.933.666 4.133 3.2 7.333 5.466 7.2 5.467 13.334 5.867 18.934 1.067 4.533-3.733 7.466-4.133 11.2-1.467 3.066 2.4 1.866 3.867-5.067 6.134-8.8 2.666-6.4 5.333 10.933 12.266l3.334 1.334-4.667 4c-2.533 2.266-7.067 5.066-10 6.533l-5.333 2.4-3.6-3.467c-3.067-2.933-4.4-3.333-9.2-2.666-10.267 1.333-14 9.333-5.2 11.066 2.133.534 4 1.6 4 2.4 0 .934-4.667 3.867-10.534 6.667l-10.4 5.2-7.6-2.933C1.925 270.4.058 270.133.058 271.867c0 .533 2.667 1.866 6 2.8s6.4 2.266 6.8 2.933c.4.533-2.267 2.4-6 4-3.733 1.467-6.8 3.333-6.8 3.867 0 1.733.533 1.6 9.467-2.134 4.4-1.866 8.666-2.933 9.6-2.4.933.534 4.666 3.067 8.266 5.867 9.2 6.8 11.334 7.2 17.2 3.2 5.067-3.467 9.467-4.133 12.667-2.133 1.6 1.066 1.6 1.6.267 3.333-1.067 1.2-2.8 2.133-4 2.133-1.334 0-3.467.8-4.934 1.867-2.266 1.733-2.266 2.133-.533 4 1.067 1.067 4.933 3.067 8.667 4.533 3.6 1.467 6.8 3.2 6.933 3.867.667 1.733-12.4 10.667-16.933 11.733-2.534.667-4.134 0-6.4-2.533-4-4.667-11.867-4.8-16-.4-4 4.267-3.734 6.133 1.733 8.4 2.667 1.067 4.4 2.533 4 3.333-.533.667-5.067 3.467-10.267 6-9.333 4.667-9.6 4.667-14.666 2.8-2.934-1.2-5.067-1.466-5.067-.666 0 .666 1.2 1.6 2.667 2 3.466.933 3.466 3.866 0 4.8-1.467.4-2.667 1.466-2.667 2.266 0 1.067.8 1.2 2.267.667 9.066-3.733 8.8-3.733 16.933 1.2 9.467 5.733 12.133 5.867 18.133 1.467 4.934-3.6 8-4.134 12.134-2 4 2.133 3.066 3.6-3.467 5.2-10.4 2.666-9.2 7.6 3.333 13.466 3.734 1.734 6.667 3.734 6.667 4.534-.133.8-4.933 3.733-10.667 6.4-8 3.733-10.666 5.6-10.666 7.6 0 1.866 1.333 2.8 5.066 3.733 6.4 1.467 6.534 4.667.134 6.267-4 .933-5.467.666-8.934-1.867-5.466-4-11.866-2.933-20 3.333-3.333 2.534-7.2 4.667-8.533 4.667-1.733 0-2.4.933-2.4 3.467 0 2.8.533 3.2 2.667 2.533 1.866-.533 4.266.4 7.866 3.333 7.734 6 12.4 7.334 17.067 4.8 2-1.066 5.067-2.8 6.8-3.6 3.333-1.866 10.133-.266 10 2.134-.133.666-2.8 2.266-6 3.333-3.067 1.2-5.733 2.933-5.733 3.867 0 1.066 4 3.866 9.066 6.4 4.934 2.533 8.934 4.933 8.934 5.466s-4 3.067-8.934 5.6c-13.466 7.067-14.533 11.2-3.6 12.934 5.334.8 5.334-1.467 0-2.534-5.333-.933-3.333-3.733 5.867-8.4 5.333-2.666 10.267-4.533 11.2-4.133.8.4 4.4 2.933 8 5.467 7.467 5.466 14.133 6.133 19.467 2 3.866-3.067 11.066-3.467 13.2-.8 1.866 2.266 1.066 2.933-5.6 4.133-4.667.933-7.334 2.8-5.867 4.133 1.2 1.2 15.333-3.6 16-5.333 1.333-3.467-2.4-6.4-8.933-7.067-5.067-.666-7.067-.266-10.134 2.134-2.133 1.466-5.466 2.8-7.333 2.8-3.867 0-15.333-7.467-15.333-9.867 0-1.733 17.066-14.133 19.333-14.133.933 0 2.667 1.2 4 2.666C83.391 422.8 86.191 424 88.325 424c4.666 0 11.066-3.2 12.133-5.867 1.067-2.533-2.4-6.133-5.867-6.133-4.4 0-2.8-2.667 3.2-5.2 14.934-6.4 14.134-6.4 23.467-.267 10.4 6.667 14.933 7.067 19.867 1.467 3.733-4.133 8-5.067 10.666-2.4 2.534 2.533 2 3.467-3.733 6.4-2.933 1.467-5.333 3.6-5.333 4.667 0 2.133 11.2 10 14.266 10 4.4 0 .8 3.866-8.266 8.533-12.8 6.8-14.534 10.267-5.6 12.133 2.266.534 4.933 1.6 5.866 2.267 2.267 1.867 4.534.8 3.2-1.333-.666-1.067-3.066-2.267-5.333-2.667-2.4-.533-4.267-1.6-4.4-2.267-.133-1.333 19.6-12.666 22.133-12.666.8 0 4.134 2.133 7.2 4.666 7.867 6.134 10.534 6.8 14.8 3.6 5.067-3.6 8.534-4.533 12.667-3.066 4.533 1.733 4.4 3.866-.133 4.933-5.734 1.2-9.734 3.067-9.734 4.533 0 2 6.267 5.6 8.934 4.934 2-.4 1.733-.8-1.334-2-4.266-1.867-3.733-4.267.934-4.267 1.733 0 4.533-1.067 6.266-2.533 2.667-2.134 2.8-2.8 1.334-4.667-.934-1.067-4-2.667-6.667-3.467-4.133-1.2-5.733-.8-11.333 2-7.2 3.734-7.067 3.734-16.134-4l-4-3.333 3.334-2.667c1.866-1.466 6.266-4.133 10-6l6.533-3.333 3.2 4c3.733 4.8 8.267 5.2 14.667 1.333 5.333-3.333 5.466-6.133.266-9.066-2.133-1.2-3.733-2.8-3.6-3.6.667-1.734 16.934-11.2 19.6-11.2 1.067-.134 5.2 2 8.934 4.666 8.133 5.6 11.866 6 17.466 2 4.534-3.2 9.334-3.6 12.934-1.066 2.8 2.133 2 2.8-5.6 4.8-3.467.933-5.734 2.4-5.734 3.466s4.267 4.134 9.334 6.667c5.2 2.533 9.333 5.2 9.333 5.733 0 .667-4.4 3.2-9.6 5.734-11.2 5.2-12.933 8.8-5.333 10.8 5.066 1.333 5.333 2.8 1.333 5.6-4.133 2.933-6 2.666-10.667-1.2-4.666-3.867-7.2-3.6-14.4 1.866-3.866 2.8-4.266 3.467-2.266 3.867 1.466.267 3.866-.8 5.466-2.267 3.467-3.333 6.934-3.6 9.6-.8 3.467 3.334 8.134 3.734 13.467 1.067 6.533-3.067 6.8-6.933.8-9.6-2.4-1.067-4.4-2.267-4.4-2.8s4.533-2.8 10-5.2l10.133-4.533 7.6 3.466c4.134 1.867 7.734 4 8 4.8.267.667-1.466 2.267-3.6 3.467-4.933 2.4-5.333 6.267-1.2 9.2 4.667 3.333 9.867 2.667 14.667-1.867 2.267-2.266 4.533-4 4.933-4s4 2.134 7.867 4.8c9.2 6.134 12.267 5.2 3.6-1.2-9.733-7.066-13.6-7.6-18.267-2.4-2.933 3.2-4.8 4.134-7.466 3.867-5.467-.667-5.6-5.333-.134-7.867 6.934-2.933 6.267-4.933-2.666-8.8-4.534-1.866-8.134-4.133-8.134-5.066 0-.8 2-2.134 4.4-3.067 6.934-2.533 16.934-9.333 16.934-11.6 0-1.2-2.134-3.067-4.667-4.133-5.2-2.134-5.867-3.867-2.133-5.867 4.133-2.133 8.8-1.6 11.466 1.333 3.6 4 8.4 3.2 17.334-2.666 4.4-2.934 8.666-5.334 9.466-5.334.934 0 4.4 2.4 7.867 5.2 8 6.667 11.333 7.2 17.6 3.334 5.733-3.6 11.333-4.134 13.6-1.334 1.333 1.6 1.067 2.267-1.067 3.334-1.466.8-3.466 1.466-4.4 1.466-1.066 0-3.066.8-4.4 1.867-3.6 2.667-1.2 5.067 8.667 8.667 4.4 1.6 8.267 3.466 8.667 4.133.8 1.333-13.6 10.133-18.8 11.467-2.534.666-4 0-6.667-2.8-2.8-3.067-4.133-3.467-8.133-2.934-9.467 1.6-12.8 8.667-5.734 12.267 2.267 1.2 4 2.4 4 2.667 0 .4-3.466 2.533-7.6 4.933-4.933 2.8-6.933 4.533-5.466 4.8 4 .8 17.066-7.333 17.066-10.667 0-.666-2.133-2.133-4.666-3.333-5.467-2.667-5.734-3.467-1.734-6.267 4.267-3.066 7.334-2.666 9.867 1.2 3.333 5.067 8.8 4.4 21.067-2.666 5.866-3.334 11.333-6 12.133-6 2.667 0 20.667 8.266 20.667 9.466 0 .667-1.6 1.467-3.6 2-10.267 2.134-12.534 6-5.734 9.467 4.8 2.4 10.667 2.133 15.734-.933 6.266-3.867 9.6-3.334 16.133 2.666 3.2 2.934 6.533 5.334 7.6 5.334.933 0 6.533-2.4 12.4-5.467 12-6 13.867-9.2 6.8-11.733-4.533-1.467-5.2-4.667-1.467-6.8 4.267-2.267 7.734-1.6 10 2 3.734 5.733 10.267 4.133 23.867-5.6l6.533-4.534 4.8 3.734c10.667 8.133 16.534 9.2 21.6 3.733 2.4-2.533 4.4-3.333 7.334-3.067 5.466.534 5.6 5.067 0 6.8-4.267 1.467-6.267 3.467-5.2 5.2.4.667 4.4 2.934 8.933 5.2s8.533 4.4 8.933 4.8c.4.267-.8 1.734-2.666 3.067-3.334 2.533-3.334 2.667-.4 2.667 1.6 0 3.333-.667 3.733-1.334 1.067-1.733 6-1.733 6 0 0 .667 1.333 1.334 2.933 1.334 2.8 0 2.8-.134.667-2.267-2-2.133-1.467-2.533 8.8-7.6 12-6 14.267-9.2 8-11.467-2-.8-4.667-1.733-5.733-2.133-1.6-.533-1.334-1.2 1.2-3.333 4-3.334 8.4-3.2 11.466.133 3.734 4.133 8.534 3.2 18.267-3.333 4.933-3.334 9.867-6 11.067-6 2.933 0 19.333 8 19.333 9.466 0 .667-2.667 1.867-5.867 2.667-6.666 1.6-8.533 4.4-5.466 7.867 4.4 4.8 13.066 4.133 20.8-1.6 1.866-1.2 3.466-.8 9.066 2.8 3.734 2.4 6.8 4.933 6.8 5.466s-2.8 2.934-6.266 5.2c-5.067 3.2-5.734 4.134-3.467 4.134 1.6 0 5.2-1.467 7.867-3.334 6.133-4.133 8.266-4.133 14.4 0 2.666 1.867 5.466 3.334 6.133 3.334 2.667 0 1.2-2-3.333-5.067-2.534-1.6-4.667-3.467-4.667-4 .133-1.067 15.333-11.6 18.8-12.933 1.333-.534 2.933.4 4.4 2.533 2.8 4.4 9.6 4.667 14.667.667 4.4-3.467 4.533-7.6.133-9.2-1.867-.667-3.333-1.734-3.333-2.267 0-.667 4.266-3.067 9.466-5.467l9.467-4.533 3.6 3.333c5.2 4.8 12.667 8.934 16.133 8.934 1.6 0 5.067-1.867 7.6-4 4.667-4.134 9.067-4.4 11.334-.934 1.333 2.134.133 3.334-5.2 5.6-2.534 1.067-4.4 2.667-4.134 3.6.267.934 4.267 3.467 8.8 5.6 4.534 2.134 8.267 4.4 8.267 4.934 0 .933-9.6 7.2-16.667 10.933l-4 2.133 3.734.134c2 0 7.333-2.267 12.133-5.334l8.533-5.466 6.4 3.466c3.467 1.867 7.334 4.267 8.534 5.334 2.666 2.4 5.466 2.666 4.533.266-.267-.933-3.867-3.466-7.867-5.733-4-2.133-7.333-4.533-7.333-5.333s4-3.067 9.067-5.067c4.933-2 10-4.533 11.466-5.467 2.934-2.133 2-6-1.466-6-1.334 0-3.334-.666-4.4-1.333-1.734-1.067-1.734-1.467 0-3.2 3.866-3.867 8.533-3.867 12.4-.267 4.133 3.867 8.933 4.534 8.933 1.334 0-1.067-.533-1.734-1.2-1.2-.667.4-3.467-.8-6.267-2.667-2.666-1.867-5.733-3.333-6.8-3.333-3.333 0-11.066 3.866-11.866 6-1.067 2.533 1.733 6 4.933 6 5.067 0 3.867 2.8-2.4 5.466-3.467 1.467-8.267 3.6-10.667 4.667-2.266 1.067-5.066 1.867-6.133 1.867-3.067 0-17.067-6.8-16.267-7.867.267-.667 2.4-1.867 4.534-2.8q7.6-3.2 2.8-8c-4-4-12.534-3.6-16.267.667-3.733 4.266-5.867 4.133-13.2-.4-10.267-6.534-10.4-7.334-2.533-13.467 7.333-5.733 13.066-7.067 16-3.467 2.666 3.334 13.733 2.667 18.133-1.066 3.333-2.934 3.333-3.2 1.333-5.334-1.333-1.2-4.133-2.266-6.4-2.266-7.6 0-3.733-3.467 11.867-10.534l6.933-3.2 7.467 4.934c4 2.8 9.333 5.333 11.867 5.733 3.733.533 5.066 0 9.333-4.133 5.333-5.467 5.733-6.134 2.8-6.134-1.067 0-3.6 1.734-5.6 4-1.867 2.134-4.4 4-5.6 4-2.4 0-16.133-8.133-16.133-9.6 0-.533 3.6-2.533 7.866-4.533 4.4-1.867 9.067-4.667 10.4-6.133 2.267-2.534 2.267-2.667-.266-4.534-1.334-1.066-3.867-1.866-5.6-1.866-3.734 0-4.134-3.334-.534-5.334 4.134-2.133 8.667-1.6 11.2 1.334 2 2.4 6.267 3.733 6.267 2 0-2.4-7.867-7.2-11.733-7.334-11.067 0-16.667 8.534-7.2 11.334 2.266.666 4.266 1.866 4.266 2.666s-4.133 3.467-9.333 6l-9.333 4.534-3.6-3.467c-9.334-8.4-13.867-9.6-21.2-4.933-5.2 3.2-12.934 3.066-13.6-.267-.267-1.6 1.2-2.4 5.333-3.333 8.667-1.867 7.867-5.334-2.267-9.734-12.133-5.2-12.266-5.333-7.866-8.933 2.133-1.733 5.866-4.4 8.266-6l4.267-2.8 4.533 2.8c5.334 3.333 8.934 3.467 14.934.667 7.2-3.467 4.933-9.867-3.334-9.867-1.6 0-2.8-.533-2.8-1.2 0-1.333 17.867-10.133 22.934-11.467 3.866-.933 21.733 6 21.733 8.534 0 .933-2.133 2.4-4.667 3.333-6.933 2.133-7.2 6.8-.533 9.6 5.067 2.133 11.2 1.6 11.2-.933 0-.8-1.2-1.067-2.533-.534-1.467.4-4.134.4-6.134-.133-4.8-1.2-3.733-4.533 2-6.533 7.067-2.4 6.934-6.267-.4-9.734-3.333-1.6-7.6-3.2-9.466-3.733-5.734-1.333-5.2-2.667 2.533-6.533 11.2-5.467 12-9.067 2.933-12.534-4.8-1.866-4.533-3.733 1.067-6.4 4.4-2.133 4.8-2 7.333.267 2.534 2.4 2.667 2.4 2.667-.267 0-6.666-16.133-3.466-17.067 3.334-.4 2.4.534 3.466 4.667 5.066l5.067 2.134-3.6 3.066c-2 1.734-6.4 4.134-9.867 5.467-6.267 2.4-6.4 2.4-15.6-.933-5.067-1.734-9.2-3.734-9.067-4.534 0-.666 2.134-1.866 4.934-2.666 10.133-2.8 8.933-9.467-2-10.934-4.4-.666-6.4-.133-9.467 2.134-2.133 1.466-4.8 2.8-5.867 2.8-2.266 0-13.466-9.067-13.466-10.934 0-.666 3.066-2.666 6.666-4.266 14-6 15.867-8.534 8.667-11.467-2.133-.933-4-2.4-4-3.2 0-4.933 9.6-6.667 12-2.267 3.067 5.867 8.533 4.934 20-3.733 4-2.933 8-5.467 9.067-5.467.933 0 4.8 2.134 8.666 4.667 6.934 4.667 10.267 5.733 10.267 3.333 0-.8-.533-1.333-1.067-1.333-1.866 0-13.6-8.133-13.6-9.467 0-.666 3.334-2.8 7.334-4.8s7.333-4.133 7.333-4.8c0-1.466-4.4 0-12.267 3.867-3.466 1.733-7.2 3.2-8.4 3.2-2.8 0-15.333-6.4-15.333-7.867 0-.533 2.4-2 5.333-3.2 6.667-2.533 8.134-5.866 4.134-9.2-4.4-3.466-11.067-3.066-15.867.934-2.267 1.866-4.8 3.333-5.867 3.333-2.266 0-17.066-9.2-17.066-10.533 0-.534 3.6-2.667 8-4.8 8.666-4.134 12.8-7.734 11.466-9.867-.533-.8-3.333-2-6.133-2.8-5.6-1.467-6.4-2.8-3.6-5.067 4-3.333 8.8-3.333 13.067.267 4.933 4.133 6.266 4 18.8-3.333 4.8-2.8 9.6-5.2 10.4-5.2s4.133 1.6 7.466 3.466c3.2 1.867 5.867 2.8 5.867 2.134 0-.8-1.733-2.534-4-3.867-5.067-2.933-5.067-4.8 0-6.667 2.267-.8 4-2.266 4-3.066 0-1.067-.933-1.2-2.267-.667-9.466 4-9.733 4-13.466 1.733-8.667-5.466-16.4-9.066-19.2-9.066-1.6 0-4.934 1.866-7.334 4.266-3.733 3.6-4.933 4.134-8 2.934-5.333-1.867-5.066-4.134.8-7.2 8.134-4.134 6.8-7.6-4.8-12.667-3.2-1.333-5.733-2.933-5.733-3.467 0-1.6 14.667-10.266 19.067-11.333 2.8-.533 4.933-.133 7.733 2 4.667 3.467 11.2 3.6 16.933.133 6.534-4 5.2-6.933-4.133-8.533-3.067-.533-4.933-1.6-4.667-2.533.267-.934 4.534-3.734 9.467-6.267 7.6-4 9.333-4.4 11.6-3.067 3.6 2.267 3.467 2.4 3.6-2.8.133-4.266-.133-4.533-2.8-3.333-2.133 1.067-4.4.4-10.533-2.933-4.267-2.267-7.467-4.8-7.2-5.6.266-.934 2.4-2.134 4.666-2.8 5.6-1.6 6.934-5.867 2.934-9.067-4.4-3.6-11.467-3.067-15.2.933-1.734 1.867-4.534 3.334-6.134 3.334-3.466 0-18-9.067-16.666-10.4.4-.534 4.266-2.667 8.4-4.934 9.2-4.933 10.133-7.6 3.733-11.466-5.333-3.067-5.2-5.467.667-7.867 3.6-1.467 4.133-1.333 7.866 2.667 4.667 5.066 5.734 4.933 20.4-3.6 6.667-3.867 10.267-6.8 10-8.134-.266-1.066-4-3.2-8.266-4.8-8-2.8-11.334-6.133-6.267-6.133 4.4 0 9.467-2.933 9.467-5.467 0-2.666-6.267-6.533-10.667-6.533-1.6 0-5.467 1.467-8.533 3.333l-5.734 3.334-7.466-5.6c-4.134-3.2-7.6-6.4-7.6-7.067 0-1.333 11.466-8.4 16.933-10.4 2.4-.933 4-.4 7.2 2.267 2.267 1.866 5.2 3.466 6.4 3.466 7.6 0 15.2-6.266 12.133-10-.8-.933-3.2-2-5.333-2.533-5.067-.933-5.067-2.933.133-5.867 6.534-3.6 8.534-5.333 7.6-6.266-1.066-1.2-10.533 3.733-13.6 7.2-2 2.266-2.133 3.066-.8 4.8.934 1.066 2.667 2 4 2s3.067.8 3.867 1.866c1.333 1.467.933 2.267-1.467 4-4.266 3.067-7.733 2.667-11.866-1.333-4.534-4.4-8.267-3.733-20.667 3.733l-8.933 5.334-10.267-5.467c-12.133-6.4-17.6-6.933-20.8-2.133-2.667 4-6.267 5.333-9.867 3.333-4-2.133-3.2-4.8 2.4-7.6 8.267-4 7.2-7.867-3.333-13.067-4.933-2.4-5.467-3.866-2-5.866 2-1.334 2-1.334-.4-1.467-1.6 0-3.467.667-4.4 1.6-1.2 1.2-2.667 1.2-6.4-.133-5.333-1.867-7.6-1.2-3.333 1.2 1.6.8 2.8 1.866 2.8 2.533 0 1.6-13.6 10.8-16 10.8-1.2 0-3.067-1.2-4.4-2.667-2.934-3.466-9.6-3.466-15.334 0-5.2 3.2-5.066 5.2.8 8 6.4 3.067 5.867 3.734-9.466 10.934l-9.2 4.133-9.867-4.8c-5.467-2.667-9.867-5.467-9.867-6.133 0-.534 2.667-2.134 6-3.334 9.334-3.6 7.6-9.6-3.066-11.066-4.134-.534-5.867 0-9.2 2.8-2.267 1.866-5.2 3.466-6.4 3.466-2.4 0-15.334-7.866-15.334-9.2 0-.4 2.267-2.266 5.067-4.133 3.733-2.4 4.4-3.333 2.667-3.733-1.334-.267-4.4 1.2-6.934 3.066l-4.666 3.6-6-3.6c-7.867-4.533-10.8-3.733-3.6 1.067 2.933 2 5.466 4.267 5.466 4.933 0 .667-3.2 2.934-7.066 4.8-9.467 4.8-12 7.067-10.134 9.467.8.933 2.534 1.733 3.867 1.733s3.067.8 3.867 1.867c1.333 1.467.933 2.267-1.467 4-4.267 2.933-7.333 2.667-12.133-1.333s-7.867-3.6-17.6 2.4c-14.534 9.066-12.8 8.666-19.467 4.266-12.4-8.266-16.4-8.933-21.867-3.2-4 4.134-8.4 5.067-11.066 2.4-2.534-2.533-2-3.466 3.733-6.4 2.933-1.466 5.333-3.6 5.333-4.533 0-2.667-3.733-6.133-8.8-8.267-2.4-1.066-4.666-2.4-5.2-3.066-.4-.8 3.734-3.467 9.334-6 5.466-2.534 10-5.2 10-6 0-2.134-.4-2-12.534 3.866-6 2.934-11.733 5.334-12.666 5.334-1.067 0-4.667-2.134-8.134-4.667-7.333-5.333-13.066-6-16.666-2-1.6 1.733-4.134 2.667-7.334 2.667-5.333 0-7.6-2.534-4.933-5.2C445.525.4 445.125 0 442.991 0c-4.4 0-4 5.733.4 7.733 5.467 2.534 10.8 1.867 15.067-1.733 2.267-1.867 4.4-3.333 4.8-3.333 1.6 0 12.133 8.266 12.133 9.466 0 .8-3.466 2.8-7.733 4.534-13.067 5.2-15.6 9.733-6.933 11.866 4 1.067 4.4 4.134.8 6.134-4 2.133-7.867 1.6-9.467-1.2-1.733-3.467-5.867-4.667-9.467-2.667-1.6.8-6.533 4.133-11.066 7.467-8.667 6.4-9.6 6.533-20.4 1.733-3.2-1.333-5.734-3.067-5.734-3.867s2.4-2 5.334-2.8c2.8-.8 5.6-2 6-2.666 1.6-2.667-.8-6.134-5.2-7.734-3.867-1.466-5.467-1.333-9.2.267-2.534.933-5.067 2.533-5.467 3.333-1.867 2.934-7.867 1.467-14.267-3.466-3.6-2.667-6.533-5.467-6.533-6 0-1.334 16.133-13.067 18-13.067.8 0 2.667.933 4.133 2 5.2 4 20.534.933 20.534-4 0-2.8-2.534-2.533-5.067.533-3.467 3.867-8.4 4.4-12.933 1.467-5.6-3.733-8.934-3.333-15.734 1.867-12.8 9.733-11.733 9.466-20.933 4.8-4.533-2.267-8-4.8-7.6-5.734.267-.8 2.533-2 5.067-2.8 5.866-1.6 1.866-2.666-4.4-1.066-6.667 1.733-5.867 5.466 2 9.733 9.866 5.333 9.866 5.467 1.733 11.6-4 3.067-8 5.6-8.8 5.6-.667 0-2.533-1.2-4-2.667-3.333-3.333-9.6-3.466-14.8-.4-5.067 3.067-5.067 6.8.133 8.8 2.267.8 3.867 2 3.6 2.667-.133.533-5.466 3.333-11.733 6.133l-11.467 5.2-9.2-5.866c-11.333-7.2-16.266-7.6-21.466-1.867-3.867 4.533-7.2 5.067-10.4 1.867-1.6-1.6-1.734-2.534-.534-4 .8-1.067 2.267-1.867 3.2-1.867s3.067-1.2 4.8-2.533c3.067-2.4 3.067-2.667.8-5.2-1.333-1.334-4.666-3.6-7.6-4.934-2.933-1.333-5.333-2.933-5.333-3.6 0-2.133 12.533-9.066 16.533-9.066 2.134 0 5.067 1.066 6.534 2.266 5.2 4.8 19.6 1.467 19.6-4.4C310.725 6.4 306.59 4 302.858 4c-1.6 0-2.8-.933-2.8-2s-.933-2-2.133-2c-4 0-1.2 4.533 3.733 6 5.867 1.6 6.533 3.467 2.267 5.6-4.667 2.4-8.4 2.133-11.2-.933-4.134-4.534-12.134-3.6-21.867 2.666-4.533 2.934-8.533 5.334-8.933 5.334s-4.134-2.4-8.134-5.334c-8.4-6-12.4-6.533-17.333-2.666-4 3.2-11.333 3.466-13.733.666-1.867-2.133-2.134-2 7.333-4.933 5.467-1.867 7.2-5.333 2.933-6.133-1.333-.267-2.133.266-2 1.2.267.933-2 2.533-4.933 3.466-8.4 2.934-9.6 4.8-5.2 8.267 4.667 3.6 12.4 3.733 16.933.133 1.867-1.466 4.134-2.666 5.2-2.666 2.134 0 15.734 8.933 15.734 10.4 0 .533-3.867 2.933-8.534 5.333-4.666 2.4-9.6 5.6-10.933 7.067-2.4 2.666-2.4 2.8.133 4.666 1.334 1.067 3.6 1.867 4.8 1.867 3.6 0 4.534 2.8 1.867 4.933-3.6 2.534-8.4 2.134-12.267-.933-5.2-4-10.666-3.333-20.4 2.533l-8.666 5.334-7.867-4.4c-4.4-2.4-8.133-4.8-8.4-5.6-.267-.667 2.133-2.4 5.2-3.867 6.4-3.067 7.467-4.8 4.4-7.867-2.933-2.8-14.4-2.933-16.667 0-3.733 4.267-6.4 4.8-12.4 2-3.066-1.466-6.8-3.6-8.266-4.8-2.667-2.133-2.667-2.133.666-4.666 1.867-1.467 4-2.667 4.667-2.667 2.667 0 11.2-8.133 10.533-9.867-.4-1.066-2.533-2.666-4.666-3.6-3.067-1.2-3.867-2.266-3.467-4.133.533-1.867.133-2.4-1.467-2.133-4.133.8-3.2 4.666 1.867 7.6 4.133 2.4 4.533 3.2 3.067 4.933-.934 1.2-5.2 3.867-9.6 6l-7.867 4-8-4.667c-8-4.8-17.2-6.4-19.067-3.466-2 3.066-8.533 5.333-11.866 4-5.334-2-4.4-5.2 1.866-6.134 2.934-.533 6-1.733 6.934-2.8 1.333-1.733.933-2.666-2.667-5.866-2.4-2.134-5.6-3.867-7.333-3.734-2.8 0-2.8.134-.4 1.6 1.333.934 3.733 2.534 5.333 3.867l2.8 2.133-3.733 1.467c-2 .8-5.067 2-6.934 2.8-4.533 1.733-4.4 6.267.134 8 5.333 2.133 11.866 1.6 15.333-1.2 5.6-4.267 8.133-4.4 15.6 0 3.867 2.133 6.933 4.667 6.667 5.467-.267.666-4 2.8-8.267 4.666-10 4.134-14.133 6.934-14.133 9.2 0 2 .8 2.4 7.066 3.734 4.934 1.2 4.534 3.2-1.333 5.6-4.533 2-5.067 1.866-8.8-.8-5.6-4.267-9.467-3.734-18.4 2.533-4.267 2.933-8.133 5.467-8.667 5.467-.533 0-3.466-2.134-6.666-4.667-9.2-7.6-12.534-8.267-19.734-4-4.666 2.667-7.066 3.333-10.133 2.667-5.733-1.2-4.933-4.134 1.733-6.267 3.067-.933 5.6-2.533 5.6-3.467 0-1.066-3.866-3.466-8.533-5.466-4.8-2-8.8-4.267-9.067-5.067s1.334-2.133 3.6-3.067C59.658 22.667 68.058 16.267 68.058 14c0-1.2-1.6-2.667-3.6-3.467-2.133-.666-4.667-1.6-5.733-2-1.6-.533-1.334-1.2 1.2-3.333 4-3.333 8.4-3.2 11.6.267C74.858 9.067 83.79 8.4 91.258 4c7.467-4.533 3.6-4.933-5.2-.533l-7.467 3.6-3.6-2.667c-4.666-3.467-8-4.267-12.533-3.2m644.933 8.4c7.467 3.6 7.867 6.933 1.334 9.6-6.134 2.667-7.334 5.867-3.467 9.067 4.667 3.6 12.8 3.2 15.467-.8 1.2-1.734 2.933-3.6 4-4C726.858 22.667 745.39 32 745.39 34c0 1.333-13.333 10.4-17.733 12.133-1.6.534-3.333-.266-5.733-2.8-2.8-3.066-4.134-3.466-8.134-2.933-5.733.933-11.066 4.267-11.066 7.067 0 1.066 2.133 2.933 4.666 4 2.534 1.066 4.667 2.4 4.667 2.933s-4.533 3.333-10.133 6l-10.134 5.067-5.466-3.734c-14.134-10-15.067-10.133-21.2-5.066-4.667 3.866-6.134 4.133-10.267 1.066-3.067-2-3.067-2.266-.8-4 1.467-.933 3.467-1.733 4.8-1.733 1.2 0 2.933-.933 3.867-2 2.4-2.8.533-4.533-8.667-8-4-1.467-7.467-3.067-7.6-3.733-.267-.534 4.667-3.467 10.933-6.667 12.267-6 14-8.8 7.067-10.933-5.867-2-6.8-3.2-3.867-5.467 3.6-2.667 8.8-2.267 12.8.8 5.6 4.4 10.134 3.067 20.667-5.867C698.991 6 699.791 6 707.391 9.6m-109.066 5.733c8.266 5.467 12.666 5.867 18 1.334 4-3.467 8.266-4.134 11.6-2.134 2.8 1.734 1.2 4.4-3.867 6-3.6 1.2-4.667 2.134-4.667 4.8s1.467 3.867 8.4 7.2c4.534 2.267 8.267 4.534 8.267 5.067s-4.667 3.333-10.267 6c-5.733 2.8-10.4 6-10.4 6.933 0 1.067 1.867 2.4 4 3.067 2.267.667 4.8 1.6 5.867 1.867 2.667.933-.533 4.133-5.2 5.2-2.667.533-5.333 0-8.933-2.134-6.534-3.733-9.734-3.066-20.134 4.8l-8 6.134-8.8-3.6c-4.8-1.867-8.8-4-8.8-4.534 0-.666 2.267-2.266 5.067-3.6 6.4-3.066 6.933-6.266 1.733-8.933-5.733-3.067-10-2.667-14.533 1.2-2.267 1.867-4.8 3.333-5.733 3.333-2 0-15.867-10.266-15.867-11.866 0-1.2 18.8-12.134 21.067-12.134.8 0 2.933 1.467 4.8 3.334 3.866 3.866 7.333 4.133 13.6 1.2 6-2.934 6.266-7.6.533-9.734-2.133-.666-4-2-4-2.666 0-1.067 16.133-10.4 18.667-10.667.4-.133 3.866 2 7.6 4.533M490.058 18.4c7.6 4.133 9.2 7.733 4.133 9.067-1.733.4-4.4 2-5.733 3.466-2.267 2.534-2.267 2.8 1.333 5.867 5.2 4.533 10.667 4.133 15.2-.8 1.867-2.267 4.4-4 5.467-4 2.267 0 15.867 7.6 17.067 9.467.933 1.6-.934 3.066-11.334 9.333l-7.2 4.4-2.8-3.6c-3.733-4.667-12.133-5.067-16.533-.933-4 3.733-3.733 6.666 1.067 8.4 2.266.8 4 2 4 2.533 0 1.067-17.734 10.4-19.867 10.4-.667 0-4.667-2.133-8.933-4.667-9.2-5.6-13.067-5.866-19.2-1.333-4.534 3.333-9.867 4.267-13.2 2.133-2.667-1.733-.667-3.866 5.333-5.466 9.6-2.667 7.867-8-4.267-13.334-3.733-1.466-6.533-3.333-6.266-4 .666-2.133 14.8-12 17.066-12 1.2 0 3.334 1.2 4.667 2.667 3.333 3.733 10.267 3.467 14.8-.4 4.267-3.733 3.733-6.933-1.6-8.933-1.867-.8-3.2-2.134-2.933-2.934.666-1.733 17.466-8.8 21.066-8.933 1.067 0 4.934 1.6 8.667 3.6m-116.133 1.467c1.866 2.933 15.6 10.8 19.066 10.8 2 0 5.467-1.467 7.6-3.334 4.4-3.733 7.2-4.133 10.8-1.6 3.2 2.534 1.734 4.534-4.666 6.267-8.267 2.267-7.2 5.467 3.6 10.267l8.8 4-7.867 5.333c-10.533 7.2-12.667 7.733-16.933 4.4-4-3.2-10.267-3.467-15.734-.533-5.866 2.933-4.8 7.2 2.134 9.2l5.333 1.466-3.333 2.134c-1.867 1.2-6.8 3.866-10.934 5.866l-7.6 3.734-7.466-6.267c-8.667-7.067-12.934-7.867-16.134-2.933-2.666 4-6.266 5.333-9.866 3.333-3.867-2-3.334-3.733 2-6.8 2.533-1.6 4.666-3.6 4.666-4.533s-4.133-3.467-9.333-5.867c-5.067-2.267-9.333-4.667-9.333-5.333 0-.534 4.533-3.067 9.866-5.467 5.467-2.4 10.934-5.333 12.134-6.667 2.133-2.266 2-2.533-.534-3.866-1.466-.8-3.6-1.467-4.666-1.467-1.2 0-2.134-.8-2.134-1.733 0-5.2 10.8-7.067 13.334-2.267 2.266 4.267 7.6 3.2 16.266-3.333 8.267-6.267 9.734-6.8 10.934-4.8m-101.867 5.866c3.333 1.6 6 3.734 6 4.8 0 .934-2.133 2.8-4.667 4-6.4 2.934-6.933 7.2-1.333 10.134 5.333 2.8 11.067 1.6 13.867-2.8 3.466-5.2 11.066-3.467 20.933 4.666l4.533 3.734-8.666 4.4c-11.2 5.6-13.867 7.866-11.867 10.266.8.934 2.533 1.734 3.733 1.734 1.334 0 3.467.8 4.8 1.866 2.4 1.734 2.267 1.867-1.733 4-5.333 2.8-7.2 2.667-10.933-.533-5.467-4.667-12.4-3.333-24.4 4.933l-6.267 4.4-8.933-3.6c-4.8-2.133-9.067-4.4-9.334-5.066-.266-.8 2.134-2.267 5.2-3.334 7.067-2.4 8.4-6.666 3.067-9.066-5.467-2.534-11.733-1.867-16.533 1.6-2.534 1.866-5.334 2.933-6.534 2.533-3.733-1.333-13.6-8.8-13.6-10.133 0-1.734 3.467-4.4 11.067-8.4l6.4-3.334 4 3.467c2.533 2 5.733 3.333 8.267 3.333 4.4 0 12.933-4.4 12.933-6.533 0-1.867-5.467-5.467-8.4-5.467-1.333 0-2.267-.8-2-1.733.667-1.867 19.467-12.8 22.4-12.8 1.067 0 4.667 1.333 8 2.933m-109.333 5.734c9.466 5.733 14.4 6.133 20 1.466 4.666-4 7.6-4.4 11.333-1.866 3.067 2.266 1.733 4.533-3.2 5.6-2.133.4-4.667 1.733-5.6 2.8-2.133 2.533-.133 4.666 9.067 9.866 8.266 4.667 8.266 5.2-2 12-7.2 4.667-8.667 4.934-13.2 1.334-4.4-3.334-9.2-3.334-14.8 0-5.467 3.333-5.2 6.8.8 8.666 2.4.667 4.133 1.867 3.866 2.534-.266.8-5.2 3.466-11.066 6.266l-10.8 4.8-8.534-5.066c-10.533-6.4-15.466-6.667-20.266-1.2-3.6 4-5.6 4.666-9.467 3.2-3.6-1.334-2.4-5.334 2.133-7.334 6.934-2.933 6.267-5.6-2.8-11.2-4.533-2.666-8.133-5.333-8.133-5.866 0-.934 9.333-8.267 14.267-11.2 1.066-.667 3.466 0 6.266 1.6 4.934 3.066 10.934 3.6 16 1.333 6.4-2.933 5.467-8.667-1.466-9.467-6.534-.8-4.534-3.333 6.533-8.133 6.133-2.667 11.6-4.933 12.133-4.933.667 0 4.667 2.133 8.934 4.8m593.6 8.266c10.533 9.067 15.866 10.4 22 5.6 4-3.2 8.266-3.466 11.866-.8 2.4 1.867 2.267 2-2.133 3.867-2.533 1.067-5.733 2.267-7.067 2.8q-7.4 2.6 10.4 9.6c5.2 2 5.2 2.133 2.667 4-1.467 1.2-6.533 4.267-11.2 6.8l-8.533 4.8-2.534-3.467c-2-2.8-3.733-3.6-7.6-3.6-10 0-15.066 8.934-6.666 11.867 2.266.8 3.866 2.133 3.6 3.067-.267.933-4.534 3.866-9.334 6.4l-8.8 4.533-7.733-4.8c-10.8-6.667-16.933-7.2-19.467-1.733-1.733 4-5.333 5.333-9.066 3.333-4-2.133-3.2-5.067 2-7.2 8.4-3.467 4.8-10.667-7.6-15.333-2.134-.8-3.734-1.867-3.734-2.4 0-.667 4-3.2 9.067-5.867 10.267-5.467 11.733-8.933 4.667-10.8-5.2-1.333-5.467-2.8-1.467-5.6 4.133-2.933 6.8-2.667 11.067 1.333 4.666 4.267 7.733 3.734 19.333-4.133 4.8-3.2 9.333-5.867 10.267-5.867.933-.133 3.6 1.6 6 3.6m-105.067 3.734c8.4 3.333 8.933 3.733 6.8 5.333-1.467 1.067-3.2 1.867-4 1.867-.933 0-2.667 1.2-3.867 2.533-2.266 2.4-2.266 2.667.4 5.333 3.867 3.867 13.467 3.867 16.8.134 1.334-1.467 3.334-2.667 4.4-2.667 1.867 0 16.267 10.267 16.267 11.6 0 .267-4.4 2.667-9.733 5.067-14 6.533-16.267 10-7.467 11.866 2.933.534 4 1.467 3.6 3.067-.533 2.933-7.2 5.467-9.6 3.733-9.067-6.666-8.267-6.533-14-3.066-2.933 1.6-8 4.8-11.333 6.8l-6 3.733-8-5.6c-8.934-6.267-12.667-6.8-18.4-2.667-4.667 3.467-12.8 3.467-13.467 0-.267-1.6 1.2-2.533 5.733-3.733 9.2-2.267 7.6-6.133-4.933-11.867-3.6-1.6-6.4-3.466-6.4-4.266 0-1.734 11.867-10.534 15.6-11.467 1.867-.533 4.133 0 5.467 1.2 4 3.467 8.266 4 14.266 1.6 3.2-1.2 6.134-3.2 6.667-4.4.933-2.667-2.533-5.6-6.933-5.6-5.6 0-3.2-2.8 6.666-7.333 5.2-2.534 10.134-4.534 10.934-4.534.666-.133 5.466 1.467 10.533 3.334m-116 1.733c1.6 2.533 15.333 10.8 18.133 10.8 1.467 0 4.267-1.6 6-3.467 2.4-2.533 4.134-3.333 7.6-2.933 6.267.533 6.134 4.933-.266 7.067-7.734 2.533-6.8 5.466 3.2 10 4.8 2.266 8.8 4.533 8.8 5.066 0 1.6-12.667 10.934-14.934 10.934-1.2 0-2.8-.8-3.6-1.867-2.666-3.2-8.8-3.867-14.266-1.467-8.534 3.467-8.934 8-1.067 9.467 2.533.4 4.533 1.2 4.533 1.733 0 .4-5.6 3.334-12.533 6.267l-12.667 5.467-9.066-3.6c-9.867-4-11.467-6.534-4.934-8.267 2.267-.533 4.934-2 5.867-3.2 1.467-1.6 1.333-2.4-.8-4.533-4.4-4.4-11.2-4.667-16.933-.8-6.8 4.666-9.334 4.4-15.867-1.734l-5.6-5.066 10.933-5.734c6-3.066 10.934-6.533 10.934-7.6s-1.867-2.533-4.134-3.333c-4.933-1.733-4.666-4.8.534-7.733 3.466-1.867 3.733-1.867 7.733 2.4 5.2 5.466 7.6 5.066 19.867-3.2 8.8-5.867 11.2-6.8 12.533-4.667m-101.867 6.533c4 2 7.334 4.4 7.334 5.467 0 .933-2.667 2.8-5.867 4s-6.133 2.8-6.4 3.467c-.933 3.066 3.2 6.266 9.067 6.933 4.8.533 6.666 0 10.4-2.8 2.533-1.867 5.866-3.467 7.466-3.467 3.2 0 15.334 7.334 15.334 9.2 0 .8-4.134 3.467-9.2 6.134-11.867 6.266-13.467 9.866-6 12.666 3.866 1.467 4.133 4.667.666 6.667-4.266 2.267-7.733 1.6-10-2-3.2-4.933-8.133-4.267-19.466 2.533-10.934 6.534-10.267 6.667-21.2-1.2-6.267-4.533-13.734-4.533-16.667 0-2.4 3.734-6.933 4.4-10.8 1.6-2.267-1.733-2.267-2 .8-4 1.733-1.333 3.867-2.266 4.667-2.266s2.266-.934 3.2-2c2.4-2.8-.934-6.267-9.467-9.867-3.6-1.6-6.533-3.467-6.533-4.133 0-.534 3.2-2.667 7.066-4.4 10.534-4.934 12.534-6.8 10.4-9.467-.933-1.2-3.2-2.133-4.933-2.133-3.867 0-5.333-2.134-3.2-4.667 2.267-2.667 9.2-2.533 12.267.267 4.266 3.866 10.533 2.533 20.533-4.134C417.925 50.8 422.991 48 424.058 48s5.333 1.733 9.333 3.733M324.591 56c9.467 4.133 10.8 5.867 5.467 7.2-3.6.933-6.667 5.333-5.2 7.6.4.8 2.8 2.267 5.333 3.333 5.2 2.134 9.867.934 12.934-3.466 2.533-3.6 5.066-2.934 12.8 4l5.866 5.066-8.4 5.467c-9.466 6.133-11.866 6.667-15.333 2.8-2.933-3.2-9.867-3.467-15.467-.533-5.466 2.8-4.933 7.333 1.2 9.066 2.267.667 4.267 1.6 4.267 2s-4.933 3.334-10.933 6.534l-10.8 5.6-8.534-3.867c-4.533-2.267-8.4-4.667-8.4-5.333 0-.8 2.267-2 5.067-2.8 6.8-1.867 8.667-3.2 8-6.134-1.2-6.266-12.267-7.2-19.733-1.6L278.59 94l-6.933-3.733c-3.867-2-8.133-4.534-9.6-5.734-2.667-2-2.667-2 .667-4.666 1.866-1.334 6.4-4.134 10.266-6l6.934-3.467 4 3.067c2.666 2 5.866 3.066 8.8 2.933 11.6-.267 16-11.067 4.666-11.067-5.466 0-3.466-2.666 5.6-7.733 5.334-2.933 10.4-5.467 11.334-5.467.8-.133 5.466 1.6 10.266 3.867m-111.733 5.333c9.067 6.4 13.733 6.8 20.8 1.734 4.4-2.934 5.6-3.2 8.533-1.867 4.267 1.867 3.6 4.133-1.866 6-5.2 1.867-7.467 4.133-6.267 6.133.533.934 4.933 3.467 9.6 5.6 8.267 3.734 8.533 4 6.4 6.267-1.2 1.467-5.733 4.4-10.133 6.8l-7.867 4.133-4.133-3.333c-4.934-4.133-9.734-4.4-15.6-.8-5.467 3.333-5.2 6.8.8 8.8 2.4.8 4.533 2 4.666 2.667.267 1.466-14.8 9.733-17.866 9.866-1.2 0-5.734-2.133-10-4.666-9.2-5.6-14-5.867-20.8-1.2-4.267 3.066-5.734 3.333-9.334 2.4-6.4-1.867-6-4.134 1.2-6.134 9.6-2.666 9.334-5.866-.933-11.466-4.4-2.4-8-4.934-8-5.467s4.933-3.333 11.067-6.267c12.133-5.866 13.733-8.533 6-10.4-5.867-1.466-6.534-3.733-1.734-5.866 4.934-2.267 7.867-2 10.667 1.066 3.733 4.134 8.667 3.2 18.133-3.333 4.667-3.333 8.667-6 8.8-6s3.734 2.4 7.867 5.333M104.058 64c4.4 2.267 8 4.8 8 5.733 0 1.067-2 2.667-4.267 3.734-6 2.533-6.533 7.066-1.2 9.733 5.867 3.067 9.334 2.667 13.467-1.867 2.133-2.266 5.067-4 6.933-4 3.467 0 15.734 7.334 15.734 9.467 0 .667-4.134 3.2-9.067 5.733-10.933 5.467-13.333 7.867-10.933 10.8.933 1.067 2.4 2 3.333 2s2.4.8 3.2 1.867c1.333 1.467.933 2.267-1.467 4-4.266 3.067-7.6 2.667-10.666-1.2-3.867-4.933-8.534-4.267-19.067 2.533-8.667 5.6-9.467 5.867-13.333 4.267-14.667-6.267-16.534-8.4-9.467-10.267 8.133-2.266 9.733-6.666 3.467-9.866-5.6-2.934-9.867-2.534-14.4 1.333-2.267 1.867-4.8 3.333-5.867 3.333-1.867 0-15.733-8.933-15.733-10.133 0-.4 4-2.4 8.933-4.667 8.267-3.733 10.933-5.733 11.067-8 0-.533-2.534-1.866-5.6-3.2l-5.734-2.266 3.2-2.534c3.734-3.066 8.534-3.333 10.8-.4 5.067 5.867 9.867 4.934 22.534-4.666C91.925 62.4 95.39 60 95.658 60s4 1.867 8.4 4m596.533 8.133c3.2 1.467 6.934 3.867 8.134 5.2 2.133 2.4 2 2.667-3.2 5.867-6 3.867-6.534 5.333-3.2 9.067 1.466 1.6 4 2.4 7.866 2.4 4.8 0 6.134-.667 8.534-4 3.333-4.8 5.466-4.534 14.533 1.733l5.867 4-9.867 4.933c-11.2 5.6-12.8 9.067-5.6 11.334 5.867 2 6.8 3.2 3.867 5.466-3.734 2.667-9.734 2.267-12.8-.8-3.734-3.733-6.4-3.333-15.467 2.134-15.6 9.6-13.6 9.2-22.133 5.333-4.267-1.867-7.734-4.133-7.734-5.067 0-.933 2-2.666 4.4-3.733 7.867-3.6 5.867-10-3.6-11.6-4.133-.667-5.2-.133-8.4 3.467-2 2.266-4.533 4.133-5.733 4.133-2.267-.133-16.267-9.467-16.8-11.467-.533-1.466 13.6-11.2 16.267-11.2 1.066 0 3.2 1.334 4.666 2.8 2.267 2.267 3.867 2.667 8.267 2.134 6.667-.934 11.6-5.334 9.467-8.534-.8-1.333-2.8-2.666-4.4-3.066s-2.934-1.334-2.8-2c0-1.334 19.333-11.067 22.4-11.2.933-.134 4.266 1.066 7.466 2.666m-107.466 5.2c4.533 2.134 8.266 4.4 8.266 5.2 0 .667-2.133 1.734-4.8 2.4-6.933 1.6-8.8 5.067-4.666 8.534 4.133 3.333 12.133 3.333 16.533-.134 1.867-1.466 4.533-2.666 5.867-2.666 2.933 0 15.066 7.6 15.066 9.466 0 1.334-16 11.734-18.133 11.867-.8 0-2.533-1.2-3.867-2.667-4.8-5.333-18.666-2.4-18.666 4 0 2.534.933 3.467 4.4 4.534 2.266.666 4.266 1.6 4.266 2 0 1.2-19.2 10.8-21.6 10.8-1.066 0-2.8-.934-3.866-2.134-2.267-2.666-11.067-7.2-14.267-7.2-1.333 0-4.4 1.467-6.933 3.334-4.667 3.466-8.667 4.133-11.867 2.133-2.933-1.867-.933-4.533 4.667-6.133 8.4-2.267 7.066-5.734-4.4-11.334-5.334-2.533-9.734-4.933-9.734-5.333 0-.533 5.467-3.467 12.267-6.8 6.667-3.2 12.267-6.533 12.267-7.2 0-1.2-1.734-1.867-9.867-4.267-1.6-.533-1.333-1.2 1.2-3.2 4-3.333 8.8-3.2 13.067.134 5.066 4 8.8 3.333 16.666-3.2 3.867-3.334 7.734-6 8.4-6 .8-.134 5.067 1.6 9.734 3.866M478.858 80.8c7.2 7.733 14.667 9.067 20.933 3.867 4.267-3.6 7.067-4.134 11.067-2 3.867 2.133 3.067 3.6-3.067 5.6-9.733 3.333-7.2 7.466 8.534 13.733 5.2 2 5.333 2.133 3.066 4.667-2.4 2.666-14.266 10.666-15.733 10.666-.4 0-2.533-1.6-4.533-3.466-3.067-2.8-4.667-3.334-8.934-2.8-6.666.933-11.333 5.333-9.333 8.666.8 1.2 2.8 2.4 4.4 2.667 1.467.267 2.8 1.067 2.8 1.733 0 1.467-18.533 10.534-21.467 10.534-1.066 0-4.8-2.134-8.4-4.667-7.6-5.467-14.266-6.133-19.466-2-4 3.067-11.067 3.467-13.334.667-1.333-1.6-1.066-2.134 1.467-3.2 1.733-.667 4.8-1.6 6.933-2 6.4-1.467 4.667-5.6-4.4-10.134-4.4-2.266-8-4.533-8-5.2 0-1.6 15.734-10.8 18.667-10.8 1.333 0 3.333 1.467 4.533 3.334 2.667 4.133 7.734 4.4 13.867.666 5.333-3.333 5.467-6.133.267-9.066-2.134-1.2-3.734-2.934-3.6-3.6.533-1.467 16.666-10.934 19.066-11.2.8-.134 2.8 1.466 4.667 3.333m-102.933 4.267c4 2 7.466 4.266 7.733 5.066s-2 2.4-4.933 3.6c-6.134 2.4-7.067 6.134-2.4 9.467 4.8 3.467 10.666 2.667 15.066-1.867 2.134-2.266 4.4-4 5.2-4 1.867 0 15.467 9.334 15.467 10.667 0 .4-2.933 2.267-6.533 3.867-12.8 6.133-16.8 11.866-9.867 14.4 5.067 1.733 6 3.333 3.6 5.866-2.267 2.534-9.867 3.6-9.867 1.334 0-2.534-4.266-5.467-7.866-5.467-2 0-6.4 1.733-9.867 4-13.067 8.267-13.067 8.267-21.733 4.933-8.534-3.333-10.4-5.733-5.334-7.066 7.067-1.734 7.867-8 1.334-10.934-5.2-2.4-9.067-1.866-12.534 1.734-1.733 1.866-4 3.333-5.066 3.333-2.267 0-15.6-10.4-15.6-12.267 0-.666 4.133-3.466 9.333-6.133 10.533-5.6 12.667-9.2 6.133-10.4-4.933-1.067-6.266-2.667-4.266-5.067 2.8-3.333 7.866-3.333 12.4 0 6 4.4 8.933 4 18.666-2.666 4.534-3.2 9.6-5.867 11.067-6 1.467 0 5.867 1.6 9.867 3.6m-112.4 3.733c11.2 7.733 16.266 8.4 23.066 3.067 3.6-2.8 7.067-3.2 10.934-1.067 2.133 1.067 2.4 1.733 1.066 3.333-.8 1.067-2.933 1.867-4.533 1.867-1.733 0-4.4 1.067-6.133 2.533-4 3.2-2.4 5.467 7.6 10.134 4 1.866 7.2 3.866 7.2 4.4 0 1.866-16.4 10.933-19.734 10.933-1.866 0-4.4-1.467-5.866-3.333-3.334-4.267-10-4.4-14.934-.534-4.666 3.6-4.4 6.134 1.067 9.334 2.933 1.733 4.4 3.466 3.867 4.533-.667 2-13.6 8.667-16.534 8.667-.8 0-4.8-2.134-8.8-4.8-9.866-6.534-16.133-7.334-22.133-2.667-4.667 3.6-8.267 4.267-11.467 2.267-2.8-1.867-.8-5.067 3.734-6.134 4-.8 7.866-4.133 6.4-5.466-.4-.4-3.867-2.4-7.734-4.4s-7.2-4.134-7.466-4.934c-.267-.8 2.8-2.666 6.666-4.266 13.2-5.467 15.734-10.8 6.134-12.934-4.4-1.066-5.067-3.866-1.334-6 4.134-2.133 8.667-1.6 11.2 1.334 3.734 4.4 10 3.466 20.4-3.334 5.067-3.2 9.867-6 10.667-6s3.867 1.6 6.667 3.467m-106.8 4.267c7.6 4.133 8.533 7.066 2.533 8.266-5.6 1.2-7.2 2.4-7.2 5.2 0 6.4 12.533 8.4 19.2 3.067 2.133-1.6 5.467-2.933 7.333-2.933 4 0 16.934 7.6 15.467 9.066-.4.534-4.933 3.067-9.733 5.6-10.267 5.334-11.6 8.267-5.734 11.334 4.667 2.4 5.334 5.333 1.6 7.333-4.4 2.267-8.133 1.6-9.733-2-2.533-5.6-8.8-4.133-22 4.8-3.067 2.133-6.133 3.867-6.933 3.867s-4.4-2.134-8.134-4.8c-8-5.734-15.733-6.534-20.533-1.867-3.733 3.467-11.867 3.333-12.533-.133-.267-1.6 1.2-2.8 5.333-4 8.933-2.934 8.133-5.6-2.8-10.8-5.2-2.4-9.467-4.8-9.467-5.334 0-1.466 14.267-10.4 16.8-10.4 1.2 0 3.6 1.467 5.334 3.334 3.733 4 7.733 4.266 13.6.666 5.6-3.466 5.733-7.6.266-9.6-2.266-.666-3.866-2-3.6-2.8.667-2 18.267-11.333 21.6-11.466 1.467 0 5.734 1.6 9.334 3.6M753.525 104c10.533 6.267 15.466 6.667 19.866 2 2.4-2.533 4.4-3.333 7.334-3.067 6.266.667 6 4.534-.534 7.2-3.066 1.2-5.466 2.934-5.466 3.867 0 2.267 5.2 6.4 10.666 8.667 2.134.933 4 2 4 2.533 0 .4-3.2 2.533-7.2 4.533-4 2.134-8.4 5.067-9.733 6.534-2.267 2.533-2.267 2.666.267 4.533 1.333 1.067 3.733 1.867 5.2 1.867 1.6 0 3.733.666 4.8 1.333 1.733 1.2 1.6 1.6-.534 3.333-3.333 2.534-10.666 2.534-12.666.134-4.134-4.934-14.134-3.467-25.2 3.866-4 2.534-7.734 4.667-8.4 4.667-.8 0-5.334-2.4-10.134-5.333-4.933-2.934-10.266-5.334-12-5.334-1.6 0-5.2 1.867-7.733 4.267-4.133 3.467-5.333 4-8.267 2.933-5.6-2-5.2-4.266 1.467-7.2 3.333-1.333 6.133-3.066 6.133-3.733 0-2.4-3.6-5.467-9.866-8.667l-6.667-3.2 9.333-6.266c10.4-6.934 12.267-7.334 15.734-3.334 2 2.4 3.466 2.8 8.4 2.134 6.666-.667 11.866-4.8 10.666-8.134-.4-1.066-2.933-2.4-5.6-2.933-2.666-.4-4.533-1.467-4.4-2.4.534-1.733 16.8-10 19.6-10.133 1.067 0 6 2.4 10.934 5.333m-108.934 4.667c4.934 3.333 10.267 6 11.867 6 1.467 0 4.8-1.867 7.067-4.134 3.466-3.333 5.066-4 7.733-3.333 5.067 1.2 4.4 5.2-1.333 7.867-6.4 3.066-5.467 6.133 3.066 10.266 3.867 1.867 6.934 3.867 6.934 4.667 0 1.333-13.467 11.333-15.2 11.333-.534 0-2.4-1.2-4.267-2.666-1.867-1.467-5.2-2.667-7.333-2.667-4.667 0-11.067 3.067-12.134 5.867-.933 2.4 3.734 6.133 7.334 6.133 1.333 0 2.4.533 2.4 1.067 0 1.066-20.934 10.933-23.2 10.933-.667 0-3.6-2-6.667-4.4-8.667-7.067-11.067-8.133-15.6-6.267-2 .934-4.533 2.4-5.333 3.467-2.667 3.2-11.867 2-11.867-1.467 0-.933 2.533-2.533 5.733-3.6 8.267-2.533 7.2-5.066-4-9.6-5.333-2-9.733-4.266-9.733-4.666 0-.534 4.267-3.067 9.467-5.467 5.066-2.533 10-5.333 10.8-6.267 1.866-2.266-.934-5.733-4.534-5.733-2.4 0-4.8-3.333-3.466-4.8.4-.267 2.533-1.2 4.933-1.867 3.467-.933 4.8-.666 8.133 2.134 5.067 4.266 8.667 3.6 19.334-3.467 4.4-2.933 8.666-5.333 9.466-5.333s5.6 2.666 10.4 6m-108 2c8.667 3.866 11.867 8 6.134 8-4.267 0-9.334 2.933-9.334 5.466 0 5.734 12.8 7.6 19.6 2.8 2.267-1.6 5.067-2.933 6.134-2.933 2.666 0 12.933 7.733 12.933 9.733 0 2.267-15.733 11.6-19.467 11.6-1.6 0-3.866-1.466-4.933-3.2-2.933-4.4-6.4-4.933-12.933-2-4.4 2-5.467 3.067-5.067 5.467.267 1.733 2 3.867 4.133 4.8 2 .933 3.334 2.267 2.934 2.933-1.334 2.134-16.667 10.667-19.2 10.667-3.067 0-16.134-6.533-16.134-8.133 0-.667 2.4-2.134 5.334-3.334 6.133-2.4 6.933-5.866 2.4-9.066-4.534-3.2-10.934-2.667-15.467 1.2-2.267 1.866-4.8 3.333-5.867 3.333-.933 0-5.333-2.133-9.6-4.8-8.933-5.733-8.933-5.867 4.934-12.533 10.533-5.067 12-7.867 5.2-9.867-2.934-.8-4.267-1.867-4-3.333.533-2.667 7.333-5.2 9.6-3.467 10 7.467 11.466 7.333 23.066-1.467 4.267-3.2 8.4-5.866 9.334-5.866.8 0 5.466 1.733 10.266 4M425.258 114.4c4 2 7.467 4.267 7.733 5.067.267.933-1.733 2.133-4.4 2.8-11.066 2.533-8.533 10.4 3.334 10.4 4.4 0 7.333-.8 9.066-2.4 1.467-1.2 4.134-2.267 5.867-2.267 4 0 15.867 7.2 15.867 9.6 0 .933-4.534 4-10 6.8-10.934 5.733-13.2 9.467-6.267 11.067 7.467 1.6 7.6 1.733 4.8 4.4-4.4 4.266-7.867 4.533-12.267.8-5.6-4.667-10.4-4.267-20.133 2-4.533 2.933-8.667 5.333-9.2 5.333s-3.867-2.133-7.467-4.667c-9.6-6.8-14.266-7.333-20.133-2.133-2.667 2.267-5.6 4.133-6.667 4.133-6.666 0-8.4-5.866-2.133-7.333 4.667-.933 7.333-3.867 6.4-6.533-.4-1.067-4.4-3.6-8.8-5.6-4.533-2.134-8.133-4.134-8.133-4.534 0-1.2 16.666-10.666 18.933-10.666 1.067 0 3.2 1.466 4.8 3.333 1.733 1.867 4.4 3.333 6.267 3.333 4.133 0 10.8-3.2 11.733-5.6.933-2.8-1.467-6-5.067-6.933-1.866-.533-3.333-1.6-3.333-2.533 0-2.134 15.467-11.334 19.333-11.467 1.467 0 6 1.6 9.867 3.6m-108.667 5.333c12.267 9.2 14.667 9.734 18.8 3.467 2.134-3.2 6.4-4.133 9.867-2 2.8 1.867.8 5.2-4.533 7.467-2.8 1.066-4.667 2.666-4.4 3.6.4.933 4.266 3.2 8.8 5.066 4.533 1.867 8.266 3.6 8.266 4s-4.4 2.8-9.6 5.334c-11.466 5.466-12.933 8.4-5.866 11.333 5.066 2.133 5.866 3.467 3.066 5.733-3.866 3.334-8.266 3.2-11.6-.266-4.533-4.934-8.666-4.4-18.933 2.533-4.933 3.333-9.6 6-10.533 6-.8 0-4.8-2.4-9.067-5.333-8.8-6.267-11.867-6.534-16.133-2-2.534 2.666-4.267 3.333-8 3.066-6.8-.533-6.8-4.133.133-6.8 3.2-1.2 5.2-2.8 4.933-3.866-.266-.934-4.266-3.6-8.8-5.867-4.533-2.267-8.666-4.4-9.066-4.933-.4-.4 2.8-2.534 7.333-4.8 6.933-3.6 10.8-7.2 10.8-10.134 0-.4-2.133-1.733-4.667-2.8-5.2-2.133-6-5.066-2.133-7.2 4.267-2.266 7.733-1.6 10 2 3.733 5.734 14 3.734 26.133-5.2 2.534-1.866 5.467-3.333 6.534-3.466 1.066 0 4.933 2.266 8.666 5.066m-109.2 3.2c7.467 4 7.734 4.267 4.534 5.467-1.734.667-4.534 1.733-6.134 2.4-4.8 1.867-3.866 6.267 1.734 8.667s11.2 1.466 14.666-2.267c1.2-1.333 3.867-2.533 5.867-2.533 3.333 0 14.8 6.266 16.533 9.066.667 1.2-11.6 11.467-15.733 13.067-1.067.4-3.733-.533-5.867-2.133-3.2-2.4-5.066-2.8-8.666-2.134-10.267 1.867-13.467 9.334-4.934 10.934 4.8 1.066 5.2 2.8.934 4.4-1.6.666-6.267 2.8-10.267 4.666-3.867 1.867-8 3.467-8.933 3.467-1.067 0-4.8-2.4-8.534-5.333-7.333-5.734-12.666-7.734-15.2-5.867-7.866 5.867-8.933 6.267-12.4 5.067-5.2-1.867-4.4-4.667 2.134-6.934 8.4-2.8 7.466-4.4-5.334-9.6-4.266-1.6-7.733-3.333-7.733-3.866.133-1.2 18.4-12.134 20.533-12.134 1.067 0 2.8 1.6 4.134 3.467 2 3.067 2.933 3.467 7.6 2.8 9.866-1.333 13.866-8.533 6.4-11.6-2.134-.933-4-2.4-4-3.2 0-1.733 15.333-9.867 18.8-10 1.066-.133 5.6 1.733 9.866 4.133M99.925 126.4c4 2 7.466 4.267 7.733 5.067.267.933-1.733 2.133-4.4 2.8-6.933 1.6-8.8 5.066-4.667 8.533 4.4 3.6 11.6 3.333 16.934-.8 2.4-1.867 5.2-3.333 6.266-3.333 2.667 0 14.267 8 14.267 9.733-.133 1.733-12 9.333-16.8 10.8-1.867.533-3.6-.133-5.867-2.533-1.866-2-4.533-3.334-6.933-3.334-4.667 0-11.067 3.2-12.133 5.867-1.067 2.533 2.4 6.133 5.733 6.133 1.333 0 2.8.534 3.2 1.2 1.067 1.6-2.533 4.267-12.133 9.6l-8.4 4.4-7.334-3.866c-4.133-2.267-8.4-5.067-9.6-6.267-1.866-2.133-1.866-2.4 1.467-3.733 2-.667 4.133-1.334 4.8-1.334s1.867-1.2 2.667-2.533c1.066-2.133.666-3.067-2.134-5.333-5.2-4-11.066-3.6-16.266 1.2-5.6 5.066-7.467 5.066-15.6-.134l-6.667-4.266 6-5.067c3.2-2.8 7.733-6.133 10.133-7.333 4.134-2.267 4.4-2.267 7.867.533 4.133 3.333 7.6 3.6 13.867 1.467 6-2.134 7.6-5.734 3.866-8.4-1.6-1.2-4-2.134-5.333-2.134-4.933 0-2.133-2.533 7.333-6.4 5.2-2.266 10.8-4.133 12.267-4.133s5.867 1.6 9.867 3.6m594.8 8.933c3.733 1.867 6.666 4 6.666 4.667s-2 2.133-4.266 3.067c-6.8 2.8-8.267 5.333-5.334 8.933 3.734 4.667 12.534 4.4 16.934-.4 1.866-2 4.4-3.6 5.6-3.6 3.066 0 17.733 9.2 17.733 11.2s-15.6 11.467-18.8 11.467c-1.2 0-3.2-1.467-4.4-3.334-2.8-4.266-10.8-4.666-16-.533-4.8 3.733-4.4 6.267 1.333 8.667 5.867 2.4 5.334 3.333-7.066 10l-8.4 4.4-7.334-3.6c-4-2-7.333-4.267-7.333-5.2 0-.934 2-2.667 4.4-3.734 7.733-3.6 5.867-10-3.467-11.6-4-.533-5.2 0-9.333 4.134l-4.933 4.8-4.934-2c-2.8-1.2-7.333-3.734-10.133-5.6-6-4.134-5.467-5.067 5.733-9.6 13.6-5.6 17.2-9.867 9.734-11.6-7.734-1.6-8-1.867-4.534-4.667 4.134-3.333 9.2-3.2 12.934.267 3.866 3.6 7.066 2.8 16.4-4.134 3.866-2.933 8.266-5.333 9.6-5.333 1.466 0 5.6 1.467 9.2 3.333M586.058 139.2c4.4 1.867 8.133 3.733 8.267 4.4.266.533-2 2.133-4.934 3.333-6.266 2.667-6.8 5.6-1.333 8.4 5.733 2.934 11.2 2.534 15.867-1.466 4.933-4 6.666-3.6 14.8 3.466 6.933 5.867 7.066 5.6-6.134 13.334-8 4.666-11.2 4.933-14.533 1.333-2.933-3.2-9.867-3.467-15.333-.667-6.267 3.2-4.8 7.467 3.066 9.334 2 .533 3.6 1.466 3.6 2 0 1.466-7.333 5.866-14.4 8.666l-5.6 2.267-7.066-4.8c-8.134-5.6-14.667-6.267-20.134-2-2.4 1.867-4.933 2.533-8.4 2.267-8.8-.667-6.533-4.8 4-6.934 7.067-1.6 3.6-6.533-8.133-11.466-3.867-1.734-6.8-3.6-6.533-4.4s4-3.334 8.266-5.734c10.134-5.6 11.467-7.866 6.134-10.933-5.334-2.933-5.2-6.133 0-8.4 4-1.6 4.4-1.467 7.866 2.8 3.2 3.867 4.134 4.267 8.4 3.6 2.534-.4 8.534-3.2 13.2-6.133 4.667-2.934 9.067-5.467 9.734-5.467.8 0 4.933 1.467 9.333 3.2m-112.133 4c5.733 4.267 12.133 7.467 15.333 7.467 1.467 0 4.267-1.467 6.267-3.334 2.666-2.533 4.933-3.333 7.733-3.066 6.267.666 6 4.266-.533 6.933-7.6 3.067-6.667 5.733 3.866 11.333l8.667 4.534-4 3.2c-2.133 1.733-7.067 4.666-10.933 6.533l-6.934 3.6-5.333-3.733c-4.267-2.934-6.133-3.467-9.733-2.8-5.334.933-9.6 5.066-8.4 8.133.4 1.067 2.533 2.4 4.8 2.8 2.266.533 4.4 1.333 4.8 2 .666 1.2-11.6 8.8-16.534 10-3.466.933-20.266-5.733-20.266-8.133 0-.8 2.533-2 5.733-2.8 4.267-.934 5.733-1.867 6-4.134.933-6.133-12.267-8.4-19.467-3.2-4.533 3.2-7.6 3.467-11.733 1.067-4.533-2.667-9.867-7.2-9.867-8.533 0-2.534 13.867-11.067 18-11.067 1.2 0 3.734 1.2 5.6 2.667 4.134 3.2 9.734 3.466 15.2.533 5.467-2.8 4.934-7.333-1.2-9.2-2.4-.667-4.133-1.733-3.866-2.4.4-1.467 18.4-11.467 20.8-11.467 1.066-.133 3.733 1.334 6 3.067m-105.2 4.4c4 2 7.333 4.267 7.333 5.2 0 .8-2.4 2.4-5.333 3.6-8.534 3.333-6.8 9.6 3.066 11.2 3.734.533 5.334 0 9.2-3.467 2.667-2.266 5.467-4.133 6.267-4.133 3.867 0 16.133 8.133 16.133 10.8 0 1.733-15.066 10.533-18.133 10.533-1.467 0-3.867-1.2-5.2-2.666-4.8-5.334-19.333-2.267-19.333 4 0 1.6 1.6 3.066 4.666 4.133 2.534.933 4.534 2.4 4.267 3.2-.267.667-4.933 3.733-10.533 6.667l-10 5.2-8.534-3.734c-4.666-2.133-9.066-4.266-9.6-4.8-.666-.533 1.067-2.266 3.6-3.733 5.6-3.333 6.267-7.067 1.867-10.133-4.8-3.334-9.6-2.667-14.267 2.133s-5.866 4.533-15.333-3.333l-5.2-4.4 8.667-5.6c4.666-3.067 9.333-5.6 10.266-5.6.934 0 3.6 1.6 5.867 3.466 4.533 3.734 8.4 3.6 14.267-.666 4.533-3.334 4.133-5.734-1.067-8-2.4-1.067-4.133-2.667-3.867-3.334.534-2 16.934-10 20.534-10.133 1.733 0 6.266 1.6 10.4 3.6M259.258 152c4.8 2.267 8.8 4.533 8.8 5.2 0 .533-1.867 1.6-4.133 2.267-2.4.666-4.934 2.266-5.734 3.6-1.2 2-.933 2.933 1.734 5.066 4.533 3.734 12.133 3.334 16.666-.8 2-1.866 4-3.333 4.4-3.333 1.6 0 15.067 9.733 15.067 10.8 0 1.333-9.333 6.933-16.133 9.733-4.667 2-5.067 1.867-8.4-1.2-4.134-3.866-9.734-4.266-15.6-1.2-5.467 2.8-4.934 7.334 1.2 9.2 2.533.667 4.133 2 4 3.067-.267.933-4.4 4-9.2 6.667l-8.8 4.8-8.8-3.867c-9.6-4-10.8-5.467-5.734-6.8 1.867-.4 4.4-2 5.734-3.467 2.266-2.533 2.266-2.8-1.334-5.866-5.2-4.4-10.666-4.134-15.733.8-4.133 3.866-4.267 3.866-8.4 1.733-5.6-2.933-12.8-8.4-12.8-9.867 0-.666 5.2-3.6 11.467-6.533 12.4-5.733 13.6-7.867 5.466-9.867-5.733-1.466-6.266-3.733-1.6-5.866 4.934-2.267 7.867-2 10.667 1.066 3.733 4 7.733 3.2 16.267-3.333 4.266-3.2 8.666-5.867 9.866-6 1.2 0 6.134 1.867 11.067 4m-114.133 1.333c1.2.667 4.533 2.134 7.333 3.334 5.067 1.866 5.733 4.666 1.067 4.666-6.134 0-7.334 6.934-1.467 10 5.467 2.8 8.533 2.534 13.067-1.333 2.266-1.867 4.933-3.333 6-3.333 2.533 0 15.866 10.666 15.333 12.266-.267.667-5.2 3.867-11.067 6.8-5.866 3.067-10.666 6.4-10.666 7.467s1.866 2.4 4 3.067c2.266.666 4.8 1.6 5.866 1.866 2.8.934-.666 4.134-5.466 5.2-3.067.667-5.067.267-7.867-1.866-6-4.4-11.6-3.2-22.133 4.933-3.067 2.267-5.334 2.933-7.6 2.4-5.334-1.333-15.467-6-15.467-7.067 0-.533 2-2 4.4-3.066 2.267-1.067 4.4-2.934 4.667-4.134 1.2-6.666-12.134-9.066-17.6-3.2-1.734 1.867-4.267 3.334-5.734 3.334-3.2 0-15.066-8.934-15.066-11.334 0-.933 4.4-4.133 9.866-7.2 9.334-5.066 12.4-8.133 10.4-10.133-.533-.533-3.066-1.733-5.6-2.933l-4.666-1.867 3.2-2.667c4.133-3.466 7.6-3.2 12.4.8 4.666 4 6.133 3.734 17.733-2.8 8.533-4.666 11.333-5.333 15.067-3.2m600.266 11.334c3.734 1.866 6.667 4.133 6.667 5.066 0 .934-2 2.534-4.533 3.334-2.534.933-4.934 2.666-5.334 3.866-1.2 2.934 2.8 6.8 8 7.867 3.334.667 5.067 0 8.8-3.333 2.667-2.267 5.867-4.134 7.2-4.134 3.067 0 16.534 8.134 16.534 10 0 1.334-12.534 9.6-17.867 11.734-1.733.666-3.467.266-5.333-1.467-4-3.6-6.667-4.267-11.867-2.8-6.267 1.733-9.867 5.733-7.6 8.533.933 1.067 3.067 2 4.8 2 3.733 0 5.333 2.134 3.2 4.667-.8 1.067-5.467 3.733-10.267 5.867L729.125 220l-8.8-3.733c-4.934-2-8.934-4.267-8.934-4.8 0-.667 2-1.867 4.534-2.8 6.666-2.267 8.266-5.467 4.266-8.8-4.533-3.734-11.866-3.334-16.266.933-2.667 2.533-4.534 3.333-6.8 2.8-4.134-1.067-14.4-9.067-14.4-11.2 0-.933 2.533-2.933 5.733-4.533 6.933-3.467 14.267-8.934 14.267-10.534 0-.8-2.134-2.133-4.667-3.2-4.933-2.133-5.733-3.6-2.933-5.866 4.133-3.2 7.2-2.934 11.333 1.066 2.4 2.134 5.333 4 6.533 4 3.2-.133 12-4.266 17.734-8.533 5.866-4.267 6.666-4.267 14.666-.133m-109.733 5.466c4.267 2.8 9.867 5.2 12.933 5.467 4.8.533 5.867.133 9.2-3.467q6-6.8 10.8-2c1.2 1.067 2.134 2.267 2.134 2.667 0 .267-2.4 1.733-5.467 3.2-6.933 3.6-6.4 6.133 2.4 11.333 3.867 2.134 7.067 4.267 7.067 4.667s-5.067 3.333-11.334 6.4c-11.2 5.467-14 8.8-8.933 10.4 7.333 2.267 8.533 3.2 6.933 5.2-.8.933-3.333 2.267-5.466 2.667-3.067.666-4.8.133-8.134-2.667-5.2-4.4-8.266-3.867-18.666 3.467-4.134 2.8-8 5.2-8.667 5.2-.533 0-4.667-2.4-9.067-5.334-9.466-6.266-12.8-6.533-19.733-1.733-4.133 2.933-5.733 3.333-8.667 2.267-5.2-1.867-4.4-4.667 2.134-6.934 3.2-1.066 5.6-2.666 5.6-3.733 0-1.2-3.734-3.733-8.667-6-4.8-2.133-8.667-4.4-8.667-4.933 0-.667 3.6-2.8 8-4.934 4.4-2.133 9.067-4.933 10.4-6.4 2.134-2.4 2.134-2.666-.4-4.4-1.333-1.066-3.6-1.866-4.8-1.866-5.733 0-3.866-5.734 2.4-7.334 2.667-.666 4.267 0 6.934 2.534 5.2 4.933 9.866 4.4 20.8-2.534 5.2-3.2 9.733-5.866 10.266-5.866.534-.134 4.4 2 8.667 4.666m-106.267 3.2c4.4 2.267 8 4.667 8 5.334s-2.133 1.6-4.666 2.133c-4.667.8-8.667 3.6-8.667 5.867 0 1.866 7.467 5.333 11.467 5.333 2 0 6.266-1.467 9.333-3.333 5.6-3.334 6-3.334 10.133-1.2 4.667 2.266 10.4 7.066 10.4 8.533 0 1.2-13.866 10.4-18 12-2.4.933-4 .533-6.4-1.467-4.533-3.466-12.8-3.333-17.466.267-4.667 3.733-4.4 5.067 1.866 7.467 2.934 1.2 5.334 2.666 5.334 3.333 0 1.067-16.4 9.067-18.667 9.067-.533 0-4.133-2.134-7.867-4.667-10.266-6.8-14.666-7.2-22.4-2.133-4.133 2.8-7.066 3.866-8.933 3.333-6.8-2-6-5.067 2-7.2 7.733-2.133 6.8-6.133-2.4-11.067-3.867-2.133-7.067-4.266-7.067-4.933s2.8-2.533 6.4-4.133c8.534-3.867 12.667-7.734 10.8-10.134-.8-.933-2-1.733-2.666-1.733-.534 0-2.667-.667-4.8-1.467l-3.734-1.466 3.2-2.534c4-3.333 8.4-3.2 11.467.134 4.267 4.8 12.4 3.6 22.267-3.2 4.533-3.2 9.466-5.867 10.8-6 1.333 0 5.866 1.733 10.266 3.866M416.325 178c9.733 6.8 12.266 7.067 20.533 2.667 6.133-3.334 7.467-3.6 10.533-2.267 4.934 2.267 3.6 4.533-3.466 6.133-3.734.934-5.867 2.267-5.867 3.467 0 1.067 4 4 8.933 6.667 5.067 2.533 9.067 5.066 9.067 5.6 0 1.066-11.867 8.4-15.733 9.6-2 .666-4 .133-6.4-1.734-4.267-3.333-11.067-3.6-16.534-.8-6.266 3.2-4.8 7.467 3.067 9.334 5.6 1.466 4.4 3.866-4 8.266-12.267 6.4-12.8 6.534-21.6 1.067-9.333-5.867-16.933-6.533-22.933-2.133-4.4 3.2-10.8 3.733-13.2.8-1.334-1.6-1.067-2.134 2-3.334 1.866-.666 4.133-1.333 4.8-1.333.8 0 2.533-.667 4-1.333 3.733-2.134 1.333-5.734-6.8-10.134-3.734-2-6.534-4.266-6.267-4.933.133-.667 3.6-2.933 7.6-5.2 13.467-7.333 15.2-10.8 6.667-13.067-6.534-1.733-6.8-3.6-.667-6.133 4.933-2 7.867-1.333 11.333 2.667 2.667 3.333 8.934 2.533 16.8-2 3.867-2.134 7.467-4.534 7.867-5.334 1.333-2 3.067-1.466 10.267 3.467m-106 4.667c4.133 2.933 8.4 5.333 9.6 5.333 1.066 0 4-1.867 6.4-4.267 3.733-3.6 4.933-4.133 8-2.933 5.333 1.867 5.066 4.133-.934 7.2-3.066 1.6-5.333 3.467-5.066 4.4.266.933 4.4 3.467 9.066 5.867 4.8 2.266 8.8 4.933 9.067 5.6.267.8-3.333 3.2-8.133 5.333s-9.067 4.533-9.6 5.333C327.39 216.8 330.59 220 334.19 220c5.734 0 3.467 5.2-2.933 7.2-2 .667-4.133-.133-6.933-2.533-6.267-5.334-11.067-4.134-24.8 5.733-4.267 3.2-6.934 4.267-8 3.467-6.4-4.8-15.067-9.867-16.934-9.867-1.333 0-4 1.467-6 3.333-4 3.734-10 4.4-12.4 1.467-1.866-2.133-.666-3.333 5.867-5.467 6.4-2.133 4.8-4.933-5.6-10-5.333-2.533-9.733-5.066-9.733-5.6s3.2-2.666 7.066-4.533c3.734-1.867 8-4.4 9.334-5.6 2.666-2.4 2.933-5.467.666-6.267-9.866-3.466-9.6-3.2-7.066-6 3.2-3.6 10.133-3.466 12.4 0 2.666 4.4 10.266 3.467 20.266-2.533 4.8-2.933 9.734-5.333 11.067-5.333 1.333-.134 5.867 2.266 9.867 5.2m-109.467 4c9.2 6.4 14.667 6.933 18.933 2 3.334-3.734 8.4-4.4 11.067-1.2 1.467 1.866 1.333 2.4-.8 4-1.333 1.066-3.2 1.866-4.133 1.866-.8 0-2.267.934-3.2 2-2.267 2.8-.667 4.267 8.133 8 3.733 1.6 6.8 3.467 6.8 4.134 0 .666-3.333 3.066-7.467 5.333-4.133 2.133-8.533 5.067-9.866 6.4-2.134 2.133-2.134 2.4.266 4.267 1.467 1.066 4 1.866 5.6 1.866 4.134 0 5.467 2.667 2.534 4.934-3.6 2.533-8 2.133-13.867-1.2-6-3.467-8.533-2.934-20.4 4.266-4.933 2.934-9.467 5.334-10.133 5.334-.667 0-4-2.134-7.467-4.8-9.467-7.2-12.933-8-19.2-4.534-3.2 1.867-6.8 2.667-9.733 2.4-6.4-.533-6-4 .8-5.333 10.4-2.267 9.2-5.733-3.467-10.667-4.267-1.733-7.867-3.466-7.867-3.866 0-.534 3.2-3.067 7.067-5.734 7.333-5.066 11.6-6 14.133-2.933 3.734 4.533 17.6 2.8 19.6-2.533 1.2-2.934-1.866-6-5.733-6-1.867 0-3.067-.667-2.8-1.6.667-1.867 18.133-11.467 21.333-11.6 1.2-.134 5.734 2.266 9.867 5.2m-112.4 3.2c11.067 8.8 15.733 9.6 21.6 3.466 4.533-4.666 6-4.933 10.133-1.466l3.067 2.533-5.6 2.8c-3.067 1.6-5.6 3.6-5.6 4.667 0 1.6 4.8 4.266 13.733 7.466 2 .667 3.6 1.734 3.6 2.267-.133 1.2-9.066 8-15.733 11.867l-4.4 2.533-2.8-3.733c-1.867-2.534-3.867-3.6-6.533-3.6-10.4 0-16.267 8.8-7.867 11.866 2.267.667 4 1.734 4 2.134s-4.667 2.8-10.267 5.466l-10.4 4.667-8.933-3.6c-5.067-2-9.067-4-9.067-4.533s2.4-1.867 5.334-3.067c6-2.267 7.2-6.533 2.8-8.933-4-2-12.934-1.6-14.8.8-3.867 4.533-6.534 4.8-12.4 1.466-6.934-4.133-11.2-8.533-9.467-10.133.667-.667 4.8-3.067 9.2-5.467 13.333-7.2 14.267-9.866 4.533-11.866-6.266-1.2-6.266-3.734 0-5.6 4.667-1.334 5.734-1.2 9.867 1.333 6.4 4 9.867 3.6 19.733-2.533 4.667-2.8 9.067-5.2 9.6-5.334.667 0 3.6 2 6.667 4.534M686.058 200c9.333 7.2 13.6 7.867 19.067 3.333 3.066-2.533 5.333-3.333 8.533-3.066 6.533.666 6.533 4.4.133 6.4-2.8.933-5.6 2.133-6.266 2.8-2 1.866 2.533 5.733 9.866 8.4 3.6 1.333 6.667 2.8 6.667 3.333 0 .667-3.6 2.533-8.133 4.267-10 4-14 7.333-11.734 10 .8 1.066 2.934 1.866 4.667 1.866 6.667 0 4.933 5.6-2.4 7.334-2.667.666-4.133.266-6-1.867-4.267-5.067-10.267-3.733-21.333 4.667-3.334 2.533-6.667 4.533-7.6 4.533-.934 0-4-2-6.934-4.4-10.133-8.667-13.866-9.467-21.6-4.267-4 2.534-5.733 3.067-8.933 2.267-5.867-1.6-4.933-4.4 2.4-6.533 3.467-1.067 6.267-2.667 6.267-3.6 0-1.067-3.867-3.6-8.667-5.6-4.8-2.134-8.667-4.4-8.667-5.2 0-1.6 14.267-11.334 16.667-11.334.8 0 2.933 1.6 4.8 3.467 2.533 2.8 4 3.333 7.733 2.667 5.6-.8 10.8-4.267 10.8-6.934 0-1.066-2.133-2.933-4.8-4-2.933-1.2-4.4-2.533-3.733-3.2 1.467-1.466 19.333-10.533 21.067-10.533.666-.133 4.266 2.267 8.133 5.2m-107.6 2.267c4.533 2 8.267 4.133 8.267 4.666 0 .667-1.734 1.467-3.867 1.867-2.267.533-5.067 2-6.4 3.467-2.267 2.533-2.267 2.8.8 5.2 4.267 3.466 13.333 3.333 17.2-.134 1.6-1.466 4-2.666 5.333-2.666 2.8 0 15.067 7.866 15.867 10.133.267.667-2.933 2.933-7.067 5.2-9.466 5.2-12.133 7.867-10 10.533.934 1.067 3.334 2.134 5.2 2.4 4.8.534 4.667 3.867-.133 6.134-3.467 1.733-4.267 1.466-8.933-1.734-6.667-4.666-10.934-4-23.334 3.467l-8.933 5.467-8.533-3.6c-9.467-4-11.334-5.6-7.6-6.8 9.733-2.934 12.133-7.2 5.866-10.4-5.733-3.067-10-2.667-14.533 1.2-5.467 4.533-9.467 4.133-16.8-1.334-3.333-2.666-6.133-5.066-6.133-5.333 0-.4 4.4-2.8 9.733-5.467 5.2-2.666 10-5.466 10.533-6.266 1.2-2-1.333-4.934-4.266-4.934-3.467 0-6.667-1.333-6.667-2.8 0-.666 2.133-2.266 4.667-3.466 4.533-2.134 4.8-2.134 8.666.666 6.4 4.8 13.334 3.2 25.2-5.6 2.534-1.866 5.334-3.466 6-3.466.8 0 5.2 1.6 9.867 3.6m-108.933 4c3.6 1.866 6.533 4.266 6.533 5.066 0 .934-2.4 2.267-5.467 3.2-6.666 2-8 5.067-4 8.4 4.4 3.467 11.734 3.067 17.734-1.2 4.666-3.2 5.6-3.333 10.133-1.866 2.667.8 6.933 3.2 9.467 5.333l4.533 3.733-9.2 6.267c-10.267 6.8-13.467 7.467-17.067 3.333-1.866-2.266-3.333-2.666-7.733-2.133-6.8.933-11.733 5.333-9.6 8.533.8 1.334 2.8 2.667 4.533 3.067 5.867 1.333 4.4 4-4.666 8-4.934 2.267-9.734 4-10.667 4s-5.2-2.133-9.467-4.667c-9.6-5.733-16-6.133-20.533-1.333-3.333 3.6-6.667 4.133-10.8 1.867-3.333-1.734-2.133-3.467 4.267-6.134 7.866-3.066 6.533-6.4-5.067-12.266-3.2-1.6-5.733-3.334-5.733-3.867 0-.667 2.8-2.4 6.4-4 16.266-7.467 19.333-12.267 9.6-14.933-5.734-1.467-6.534-2.667-3.467-5.2 3.2-2.667 9.467-2.134 13.867 1.2 4.933 3.6 7.466 3.2 17.6-3.2 4-2.534 8.4-4.534 9.866-4.667 1.334-.133 5.334 1.467 8.934 3.467m-102.134 9.066c0 .667-2.666 2-5.866 2.934-8.8 2.533-10.134 6.4-3.334 9.6 5.2 2.266 9.734 1.733 16.134-2 4.133-2.4 6.933-3.2 9.466-2.534 4.267.934 14.134 7.467 14 9.2 0 .8-4.4 4.267-9.6 7.867l-9.6 6.667-3.866-3.734c-3.2-3.066-4.667-3.6-8.8-2.933-5.2.933-9.867 4.267-9.867 7.2 0 .933 2.133 2.8 4.667 4s4.666 2.8 4.666 3.333c0 1.467-13.466 7.6-18.666 8.667-3.6.667-16.934-4.933-18.934-8.133-1.2-1.734 2.4-4.8 5.6-4.8 2.934 0 7.2-4.8 6-6.667-1.6-2.667-9.333-5.2-12.8-4.4-1.733.4-4.933 2.267-7.066 4-2.667 2.267-4.8 3.067-6.934 2.533-4.4-1.2-15.2-7.866-15.2-9.466 0-1.867 13.467-10.934 17.734-12 2.533-.667 4.533-.134 7.066 1.866 4.267 3.334 9.867 3.6 15.334.667 5.466-2.8 4.933-7.333-1.067-9.067-2.4-.666-4.4-1.6-4.4-2 0-.533 4.4-3.066 9.733-5.733l9.6-4.8 8 4.267c4.4 2.4 8 4.933 8 5.466m-114.533-.933c5.067 2.133 9.067 4.4 8.8 5.067-.133.666-2.133 1.733-4.267 2.533-7.466 2.533-8.4 6.8-1.866 9.867 5.333 2.4 10.666 1.733 14.933-1.867 2.267-1.867 4.667-3.333 5.6-3.333 1.733 0 13.333 9.2 13.333 10.533 0 .533-4.8 3.2-10.666 6s-10.667 5.467-10.667 6c0 1.733 3.2 4.133 5.6 4.133 3.2 0 4.667 3.867 2.267 5.467-3.334 2.133-9.867 1.333-12.267-1.467-3.333-4-6.133-3.333-16.533 4-5.2 3.6-10.134 6.667-11.067 6.667-2.667 0-21.333-8.133-21.333-9.333 0-.667 2.266-2.267 5.066-3.6 6.4-3.067 6.934-6.267 1.734-8.934-5.734-3.066-10-2.666-14.534 1.2-2.266 1.867-4.8 3.334-5.733 3.334-1.067 0-4.533-2.267-7.867-5.2l-5.866-5.067 9.866-5.467c5.467-3.066 10.8-5.6 11.734-5.6s3.466 1.334 5.6 2.8c4.533 3.467 13.2 2.934 17.466-.933 3.867-3.467 3.067-5.6-2.8-7.333-2.933-.934-5.333-2.267-5.333-3.067 0-1.733 14.4-10 17.467-10.133 1.2 0 6.266 1.733 11.333 3.733M150.991 222c0 .8-2.4 1.867-5.333 2.4-6.533 1.333-8.267 4.667-4.267 7.867 4.134 3.333 13.334 3.2 17.734-.267 1.866-1.467 4.133-2.667 5.2-2.667 2.533 0 15.6 9.6 15.733 11.467 0 .8-2.933 2.8-6.667 4.533-7.066 3.334-12 7.2-12 9.467 0 .8 2.4 2.4 5.334 3.467 6.133 2.4 6.533 3.466 2.4 6.266-4.267 2.934-6.8 2.667-10.534-1.333-4.4-4.667-10.533-3.733-22.8 3.467l-9.466 5.733-9.467-4.933c-11.2-5.734-13.867-5.867-20.8-1.334-4.267 2.8-5.867 3.2-8.933 2.267-5.6-1.867-4.534-4.667 2.266-6.4 9.2-2.267 8.8-5.6-1.333-11.333-4.4-2.4-8-5.067-8-5.6 0-.667 4.533-3.334 10-6 5.467-2.534 10-5.467 10-6.4 0-.8-2.133-2.534-4.8-3.867-4.667-2.133-4.8-2.267-2.533-4.8 3.333-3.6 8.4-3.333 12.133.667 1.733 1.866 4 3.333 4.933 3.333 1.067 0 6.934-3.2 12.934-7.2l10.8-7.2 8.8 3.6c4.8 1.867 8.666 4.133 8.666 4.8m588.267 6.667c5.333 3.333 11.067 6 12.667 6 1.733 0 4.8-1.467 7.066-3.334 4-3.333 7.067-4 10.934-2.533 3.6 1.467 2.4 3.867-3.467 6.533-3.2 1.467-5.733 3.6-5.733 4.667s3.466 3.733 7.6 6c4.266 2.133 7.733 4.4 7.733 5.067 0 1.466-16 12.933-18 12.933-1.067 0-2.267-1.2-2.667-2.8-1.866-5.733-11.466-6-16.666-.4-3.6 3.733-2.8 6.667 2.133 8.667 3.067 1.066 3.333 1.6 1.733 3.066-2.533 2.267-18.133 8.8-21.066 8.8-3.067 0-16.934-5.733-17.6-7.2-.267-.666 2-2.133 5.066-3.066 6.534-2.267 8-4.8 4.4-8.4-3.466-3.467-11.466-3.467-16.666 0-2.134 1.466-5.2 2.666-6.534 2.666-2.666 0-14.133-8.666-14.133-10.666 0-1.067 16.267-13.334 17.6-13.334.4 0 2 1.2 3.733 2.667 4.134 3.6 13.2 3.6 17.067 0 1.6-1.6 2.933-3.333 2.933-3.867 0-1.6-2.933-3.733-6-4.4-5.333-.933-2.533-4.266 7.334-8.533 5.466-2.4 10.266-4.4 10.533-4.4.267-.133 4.8 2.533 10 5.867m-102.8 4.933c2.133 1.067 2.267 1.6.8 2.533-1.067.667-3.067 1.2-4.667 1.2-1.466 0-3.866 1.2-5.066 2.534-2.267 2.4-2.267 2.666.4 5.333 3.733 3.733 13.2 3.867 17.866.133 1.867-1.466 4.4-2.666 5.734-2.666 1.866 0 16.533 10.133 16.533 11.466 0 .134-4.133 2.534-9.2 5.2-9.867 5.2-14.267 8.934-12.933 11.067.4.8 3.2 1.733 6.133 2.267 6.667 1.066 6.933 3.866.667 6-4 1.333-5.334 1.2-9.2-1.2-6.267-4-9.734-3.467-19.867 2.533-4.8 2.933-9.6 5.333-10.667 5.333-1.066 0-4.133-1.466-6.8-3.333-6.933-4.667-12.266-7.333-14.933-7.333-1.2 0-4.267 1.733-6.8 4-4.933 4.4-6 4.666-9.867 2.666-3.733-2.133-3.066-3.6 2.934-6.666 3.6-1.867 5.2-3.6 4.933-5.067-.4-1.867-7.6-6.667-15.067-10.133-3.2-1.467 14.934-12.8 20.4-12.8 1.334 0 3.6 1.2 4.934 2.666 4.8 5.2 20 1.734 19.066-4.4-.266-2.133-1.733-3.2-5.466-4-2.8-.666-4.8-1.866-4.534-2.666.267-.8 4.534-3.734 9.6-6.4l9.067-4.934 6.667 2.534c3.733 1.466 7.866 3.333 9.333 4.133m-122.267-.133c1.867 3.066 13.2 9.2 16.934 9.2 2.133 0 5.6-1.467 7.866-3.334 4.534-3.733 7.467-4.133 11.2-1.466 3.067 2.266 1.867 3.733-4.533 5.466-7.867 2.267-6.8 4.934 3.733 10 5.067 2.534 9.334 4.8 9.334 5.334 0 1.2-16.534 12-18.4 12-.934 0-3.467-1.334-5.6-2.8-4.934-3.734-14.134-2.934-17.734 1.6-2.8 3.466-1.333 6 4.534 7.2 2.133.533 3.866 1.333 3.866 2 0 1.733-4.933 4.8-13.066 8.133-5.734 2.4-7.734 2.667-9.467 1.467-14.4-10.267-24-12.267-29.333-6.134-2.134 2.534-4 3.2-7.2 2.934-6.534-.667-6.4-4.534.266-7.2 7.6-3.067 7.2-6.267-1.2-10.934-3.6-2-6.666-4-6.666-4.4s3.6-2.4 8-4.533c13.066-6.267 14.4-9.6 5.066-11.867-4.266-.933-4.933-4.133-1.2-6.133 4-2.133 6.8-1.6 11.067 2 4.933 4.133 6.8 3.733 18.4-4 8.933-6 12.533-7.067 14.133-4.533m-96.133 11.866c0 .934-2.133 2.267-4.667 3.2-5.733 1.867-6.933 6.267-2.4 9.334 4.534 3.2 10.934 2.666 14.534-1.2 2-2 4.666-3.334 6.933-3.334 3.6 0 14.8 5.467 16.267 8.134.4.533-2.267 2.666-6 4.533-9.067 4.667-12.667 8.267-10.534 10.8.8 1.067 2 1.867 2.667 1.867.533 0 2.667.666 4.8 1.466l3.733 1.467-3.2 2.533c-4 3.334-8.4 3.2-11.466-.133-4.534-5.067-13.6-2.933-27.867 6.533l-5.2 3.334-9.733-5.2c-5.467-2.8-9.734-5.734-9.467-6.534s2.267-1.733 4.533-2.266c5.467-1.067 7.067-2.267 7.067-5.2 0-3.467-3.867-5.334-11.067-5.334-4.133 0-6.533.8-8.266 2.667-1.334 1.467-3.6 2.667-5.067 2.667-2.933 0-14.267-6.134-14.267-7.734 0-.533 4.4-3.066 9.734-5.6 10.666-5.2 11.866-7.6 5.333-10.533-4.933-2.133-5.467-3.733-2-6.267 4-3.066 8.933-2.266 10.8 1.6 1.333 3.067 2.133 3.467 5.733 2.667 2.267-.4 6-2.267 8.267-4s6.533-4.667 9.333-6.667l5.2-3.466 8.134 4.533c4.533 2.533 8.133 5.333 8.133 6.133M302.325 244c9.733 6 13.466 6.267 19.6 1.467 5.733-4.534 8.4-5.067 12.266-2.267 3.067 2.4 1.867 3.867-5.066 6.133-6.534 2-6.8 6.134-.667 10.267 2.4 1.733 4.933 3.067 5.733 3.067.667 0 2.267.933 3.6 1.866 2.134 1.734 1.6 2.4-6.4 8-8.533 6-12.666 7.467-12.666 4.8s-6.534-5.6-10.4-4.666c-4.134.8-9.6 5.2-9.6 7.466 0 .667 1.733 2.4 4 3.6 2.133 1.2 4 2.934 4 3.734 0 1.333-17.067 9.866-19.867 9.866-.667 0-2.933-1.466-5.067-3.2-6.133-5.066-14-10.133-15.866-10.133-.934 0-3.867 1.867-6.534 4.133-3.6 3.2-5.466 4-8 3.334-4.533-1.2-4.533-5.734 0-6.934 1.734-.4 3.867-1.6 4.8-2.666 2.267-2.8-.4-5.334-8.266-7.867-3.6-1.2-6.8-2.667-7.2-3.2-.267-.667 3.6-4 8.666-7.467l9.334-6.4 3.333 3.067c2.667 2.533 4.267 2.933 9.467 2.267 10.933-1.2 14.533-8.534 5.2-10.8-1.867-.534-3.334-1.334-3.334-1.867 0-1.333 17.067-9.333 20.267-9.467 1.2-.133 5.067 1.6 8.667 3.867m-110.534 4c7.734 6.133 11.734 6.667 16.8 2 3.734-3.333 8-4.267 11.334-2.133 2.8 1.733 1.066 4.4-4 6.133-7.867 2.667-6.667 5.467 4.666 10.8 5.6 2.533 10.134 4.8 10.134 5.2 0 .267-4.134 2.4-9.2 4.667-5.2 2.4-9.734 5.333-10.134 6.4-.933 2.533 2.534 5.6 6.267 5.6 4.133 0 2.933 4.933-1.733 6.533-4.534 1.6-6.267 1.067-8.934-2.8-3.066-4.133-8.666-2.933-19.6 4.4l-10.266 6.933-7.467-3.866c-8.667-4.534-9.867-6.534-4.667-7.867 8.4-2 9.467-7.2 2.4-10.533-5.466-2.667-10-1.734-14.133 2.666-1.6 1.734-3.733 3.2-4.533 3.2-2.667 0-18.134-10.8-17.334-12 1.334-2.133 17.467-10.666 20-10.666 1.334 0 3.867 1.6 5.6 3.466 2.667 2.934 4 3.334 8.134 2.8 6.266-1.066 12.133-6.666 9.733-9.466-.933-1.067-3.467-2.4-5.6-2.8-6.4-1.467-5.333-3.067 6.8-9.867 4-2.267 7.733-4.133 8.133-4.133.534 0 3.867 2.4 7.6 5.333m-107.066 3.733c8.266 4.534 8.533 7.2.933 8.667-6.933 1.333-8.533 4.4-4.4 7.867 4.267 3.333 13.467 3.2 17.867-.267 1.866-1.467 4.533-2.667 6.133-2.667 2 0 14.8 6.4 17.2 8.667.8.8-14.933 11.467-18 12.133-2.4.667-3.867-.133-6-2.8-2.4-3.2-3.467-3.6-8.133-2.933-9.734 1.333-13.334 8.667-5.6 11.6 1.866.667 3.333 1.733 3.333 2.4 0 .533-4.667 3.333-10.267 6l-10.4 5.067-7.733-3.2c-4.133-1.734-8-3.6-8.4-4s2-1.867 5.333-3.467c3.334-1.467 6.134-3.2 6.134-3.867 0-3.2-4-5.866-9.467-6.533-5.067-.533-6.667-.133-10.133 2.8-4 3.333-4.534 3.467-8 1.6-2-1.067-6.134-4-8.934-6.4l-5.333-4.533 10.667-5.334c7.866-3.866 10.533-5.866 10.533-7.866 0-1.867-1.333-3.067-4.4-4-4.8-1.334-5.6-3.867-1.733-6 3.866-2 8.933-1.6 10.8.8 4.8 5.6 11.466 4.4 22.533-4 5.733-4.267 7.2-4.267 15.467.266M681.39 263.6q10.2 7.8 16.8 1.6c3.467-3.2 8.8-3.733 12-1.067 1.867 1.6 1.867 1.867-.266 3.467-1.334.933-3.734 1.733-5.334 1.733s-3.6.934-4.533 2c-2.4 2.934.133 5.467 9.467 8.8 4.4 1.6 7.866 3.2 7.866 3.734 0 .4-4.4 2.933-9.733 5.466-11.067 5.334-12.8 9.067-5.2 10.934 5.067 1.333 5.6 4 .933 6.133-5.066 2.267-8.4 2-10-1.067-2.533-4.666-8.933-3.466-19.066 3.6l-9.2 6.4-8.8-4.933c-4.934-2.667-8.934-5.6-8.934-6.533s1.867-2.134 4.134-2.8c2.266-.534 5.066-2 6-3.2 1.6-1.867 1.333-2.667-1.867-5.334-5.333-4.666-12.4-4-18 1.734-.933.933-2.933 1.733-4.133 1.733-3.067 0-14.8-6.4-14.8-8.133 0-.534 3.2-3.2 6.933-5.867 7.467-4.933 13.067-5.867 15.6-2.8 2.667 3.067 8.8 3.867 14 1.6 8.267-3.467 7.6-9.6-.933-10.4-2.4-.267-4.267-1.067-4.267-1.733 0-.8 4.8-3.867 10.667-6.934 8.666-4.533 11.066-5.333 12.8-4 1.2.934 4.666 3.6 7.866 5.867m-109.466 1.2c7.333 3.867 8.666 6.4 3.866 7.6-8.666 2.267-9.866 8.8-2.133 11.467 6 2.133 7.2 1.866 12.133-2.534 2.534-2.266 5.2-4 6-4 2.4 0 16.267 8.534 16.267 10 0 .667-4.267 3.2-9.333 5.6-10.667 4.8-11.867 7.467-4.667 10.534 6 2.4 5.867 4.133-.267 6.8-4.8 2-5.066 2-7.733-1.467-1.467-1.867-4.133-3.467-5.733-3.467s-7.467 2.934-13.067 6.667c-5.6 3.6-10.8 6.667-11.467 6.667-.8 0-3.6-1.734-6.4-4-9.333-7.334-14.8-8.267-20.533-3.334-3.867 3.334-7.867 4.134-12 2.534-3.6-1.334-2.4-3.2 3.867-5.867 3.333-1.467 6-3.067 6-3.733 0-1.867-4.134-4.934-10.934-8.134-3.6-1.733-6.4-3.466-6.4-3.866 0-.534 4.4-3.067 9.734-5.6 7.066-3.467 9.733-5.467 10-7.6.4-2.4-.4-3.067-4.267-3.867-5.867-1.067-6.8-2.267-4-5.067 3.067-3.066 10.133-2.666 13.067.667 3.333 4 9.466 2.667 19.066-4 4.267-2.933 8.667-5.333 10-5.333 1.2-.134 5.2 1.466 8.934 3.333m-111.067 2.667c4 1.866 7.2 4.266 7.2 5.333 0 .933-2.133 2.667-4.667 3.733-6.133 2.667-7.333 5.867-3.466 9.067 4.8 3.733 11.466 3.067 16.4-1.733 3.333-3.067 5.066-3.867 7.733-3.2 3.867.933 16 8.533 16 10 0 .533-4.533 3.2-10.133 5.866-5.467 2.8-10.4 5.867-10.8 6.934-1.067 2.666 2 5.866 5.733 5.866 2.267 0 3.2.8 3.2 2.534 0 4.8-10.133 5.866-14 1.466-3.6-4-7.2-3.333-17.733 3.467l-9.467 6-6.4-4.267c-12.267-8.533-17.733-8.933-26-2.266-3.067 2.4-4.4 2.666-7.333 1.6-5.334-1.867-4.534-4.667 2-6.934 3.066-.933 5.6-2.666 5.6-3.6 0-2.266-5.067-6.4-10.667-8.666-2.133-.934-4-2.4-4-3.2.133-1.734 13.2-9.867 18.667-11.467 3.333-.933 4.666-.533 7.866 2.133 2.134 1.734 5.467 3.2 7.334 3.2 4.4 0 10.933-3.2 11.866-5.866.934-2.267-3.733-6.134-7.333-6.134-2.667 0-3.867-1.6-2.667-3.6.8-1.2 15.734-9.733 17.2-9.733.267 0 3.867 1.6 7.867 3.467m-108.4 5.2c7.867 5.333 14 6 17.6 2 3.2-3.6 14.4-3.867 13.733-.4-.266 1.2-2.666 2.8-5.733 3.6-8.4 2.4-7.2 5.733 3.733 11.6 5.067 2.666 9.067 5.333 9.067 6s-4.4 3.066-9.733 5.2c-10.8 4.533-12.667 7.466-6.8 10.266 4.933 2.4 4.666 5.2-.667 7.334-4 1.6-4.4 1.466-7.2-1.6-1.6-1.867-4.133-3.334-5.733-3.334s-7.067 3.067-12.4 6.8l-9.6 6.667-10.667-4.267c-5.867-2.266-10.667-4.666-10.667-5.2s2.4-1.6 5.334-2.533c8.666-2.533 6.666-8.8-3.2-10.4-3.867-.533-5.867 0-10.134 2.933-4.933 3.467-5.466 3.6-8.266 1.6-6.267-4.4-11.067-9.2-9.734-9.733 19.6-9.067 22.8-12.533 15.067-16.267-4.533-2.133-4.667-3.466-.8-6.133 4.267-3.067 7.067-2.667 9.6 1.2 3.2 4.8 6.933 4.133 18-3.333 5.467-3.734 10.4-6.667 11.067-6.667s4.266 2.133 8.133 4.667m-108.4 2.533c4.667 1.733 8.667 3.6 8.933 4.267.134.666-1.6 2.133-4 3.2-7.866 3.6-5.866 10 3.6 11.6 4.134.666 5.334.133 8.8-3.467 4.667-5.2 6.267-4.933 15.2 2.933l6.534 5.734-9.2 6.266c-10.267 6.934-12.4 7.467-15.867 3.6-3.067-3.333-10.133-3.466-15.467-.4-5.333 3.2-4.666 7.334 1.2 9.067 2.4.667 4.134 1.867 3.867 2.667-.4 1.6-16.667 9.866-19.6 9.866-1.067.134-5.2-1.733-9.067-4-7.733-4.4-7.866-6.8-.266-8.266 9.6-2 6.533-11.6-3.734-11.6-3.733 0-6 .933-8.266 3.333-1.734 1.867-4.667 3.333-6.667 3.333-3.733 0-17.733-7.866-17.867-10 0-2 15.467-12.533 18.534-12.666 1.466 0 3.466 1.2 4.4 2.666 1.2 2 3.066 2.667 7.333 2.667 11.333 0 15.733-7.6 6.667-11.467l-5.067-2.133 3.2-2.133c3.067-2.134 15.867-8.134 17.467-8.134.4-.133 4.533 1.334 9.333 3.067m-108 6c12.533 7.467 14.4 7.733 19.733 2.8 4.8-4.4 4.8-4.4 9.334-3.2 4.666 1.333 3.733 5.467-1.734 7.2-8.4 2.8-7.333 5.867 3.6 11.467 3.467 1.733 6.4 3.733 6.4 4.4 0 .8-10.266 8.4-15.733 11.466-1.067.534-3.867-.533-6.933-2.666-5.734-4-10.134-3.867-16 .666-2.667 2.134-3.067 2.934-1.867 4.934.8 1.333 2.8 2.666 4.533 3.066s3.334 1.334 3.6 2.134c.4 1.2-18.666 11.2-21.6 11.2-.533 0-2.933-1.467-5.2-3.2C108.458 327.2 102.058 324 98.858 324c-1.467 0-4.4 1.6-6.667 3.467-2.933 2.4-5.333 3.2-8.4 2.933-6.8-.667-6.533-4.4.534-6.533 8.533-2.667 7.866-6.134-2.267-11.467-4.4-2.267-8.133-4.667-8.267-5.333-.266-.534 3.6-3.2 8.667-5.734C88.991 298 91.391 296 91.391 294c0-1.733-1.066-2.8-3.066-3.067-4.134-.666-5.2-3.866-2.134-6.266 3.867-2.934 8-2.4 10.4 1.333 3.467 5.2 8.4 4.4 19.734-3.333 5.333-3.6 10-6.534 10.266-6.667.4 0 4.667 2.4 9.467 5.2m590.667 6.4c1.866 1.2 5.333 3.867 7.733 6 5.067 4.4 10.267 4.8 14.933 1.067 3.334-2.667 7.467-3.334 11.2-1.867 3.334 1.333 2.534 4.4-1.466 5.333-6.267 1.2-10 3.2-9.467 4.667.533 1.733 7.333 5.6 14.4 8.4l4.667 1.733L758.458 318c-12.533 6.133-14.667 8.133-11.067 10.8 1.334 1.067 3.867 1.867 5.467 1.867 4.4 0 5.067 2.133 1.6 4.533-4 2.933-8.667 2.667-12.667-.533-4.8-3.734-7.333-3.334-14.133 1.866-10.533 8-11.067 8.134-17.067 3.867-12.8-9.067-17.066-10-23.866-5.067-5.067 3.734-8.934 4.267-12.667 1.467-2.8-2-3.2-1.733 8.4-6.267 4.533-1.733 3.067-4-5.2-8.266-4-2.134-7.333-4.267-7.6-4.934-.533-1.466 14.933-12 17.6-12 1.2 0 3.333 1.2 4.8 2.667 3.333 3.333 8.8 3.333 14.4 0 6-3.733 5.333-8.267-1.6-9.467-5.333-1.066-3.2-3.6 6.8-8.266 5.733-2.667 10.667-4.8 11.067-4.934.4 0 2.266 1.067 4 2.267m-104 6.4c8.8 5.6 14.266 6 18.666 1.333 3.334-3.6 9.067-4.4 11.734-1.733 2.533 2.533 2 3.467-2.934 5.067-5.733 1.866-8.266 4.666-6.4 6.933.8.933 4.667 3.467 8.8 5.6s7.467 4.533 7.467 5.333-4.533 3.867-10 6.8l-10.133 5.334-2.667-3.734c-3.6-4.8-11.333-5.066-16.8-.4-3.6 3.2-3.733 3.2-1.2 6 1.467 1.6 3.6 2.8 5.067 2.8 1.466 0 2.4.934 2.4 2.534 0 1.733-2.934 4-9.467 7.466-8.8 4.534-10 4.8-14.4 3.467-2.667-.8-6.933-2.667-9.467-4.267-4.266-2.666-4.4-2.933-2-4.666 1.334-1.067 3.467-1.867 4.667-1.867s3.333-1.2 4.667-2.667c2.4-2.666 2.4-2.8-.267-5.6-4.267-4.133-12.267-3.866-17.6.667-3.2 2.533-5.333 3.467-7.333 2.8-3.734-1.067-15.467-8.533-15.467-9.733 0-1.467 18-13.467 20.133-13.467 1.067 0 2.667 1.2 3.6 2.667 2.4 3.866 10.934 3.6 15.867-.534 3.6-3.2 3.733-3.2 1.2-6-1.467-1.6-3.6-2.8-5.067-2.8-5.066 0-2.133-2.933 7.334-7.333 5.2-2.533 10.266-4.533 10.933-4.533.8 0 4.667 2 8.667 4.533m-110.134 3.467c4.8 2.266 9.067 4.666 9.6 5.333.4.667-1.733 2.133-4.666 3.333-6.534 2.534-7.6 5.067-3.867 8.534 4.267 4 13.067 3.6 17.067-.667 1.733-1.867 4.133-3.333 5.333-3.333 2.933 0 14.667 7.866 14.667 9.733-.134.933-3.734 3.867-8 6.8l-7.867 5.067-6-2.934c-5.067-2.4-6.667-2.666-11.2-1.333-9.6 2.533-10.933 8.4-2.267 10.133 2.667.4 4.534 1.467 4.4 2.4-.266.8-5.2 3.734-10.933 6.667l-10.4 5.2-8.8-3.867c-4.8-2.133-8.933-4.533-9.2-5.333s1.333-2.267 3.467-3.2c6.533-2.667 6.8-7.733.666-10.533-5.733-2.534-9.733-1.734-13.866 2.666-3.467 3.867-4.134 4.134-7.6 2.667-2-.8-5.867-3.333-8.4-5.6l-4.667-3.867 4-3.333c2.267-1.867 6.533-4.667 9.467-6.267l5.466-2.933 3.734 2.933c4.4 3.467 9.866 3.734 15.466.8 5.467-2.8 4.934-7.333-1.066-9.066-2.4-.667-4.4-1.867-4.4-2.8 0-1.067 18.8-11.334 20.8-11.334.133 0 4.266 1.867 9.066 4.134m-109.2 4c4 2.266 7.334 4.666 7.334 5.333 0 .533-2.4 1.867-5.2 2.667-7.734 2.266-8.667 7.333-2 10.4 5.2 2.4 9.333 1.733 13.866-2.134 2.534-2 5.734-3.466 7.867-3.333 4 .133 17.467 7.6 17.467 9.733 0 .534-5.067 3.6-11.334 6.534-8.533 4-11.333 6-11.333 8 0 1.733 1.333 2.933 4.267 3.733 5.866 1.467 6.133 3.867.533 6.533-4.8 2.267-4.8 2.267-8.533-1.333-2-2-4.934-3.6-6.534-3.6-1.466 0-6.8 2.8-11.733 6.133l-9.067 6.267-9.866-4.933c-5.334-2.534-9.734-5.334-9.734-5.867 0-.667 2.4-2.133 5.334-3.333 8.133-3.2 6.933-9.2-2.267-11.067-4.133-.8-12.4 2.4-12.4 4.8 0 .667-1.2 1.6-2.8 2-2 .667-4.667-.4-9.333-3.6-3.6-2.4-6.534-4.8-6.534-5.2 0-1.067 17.734-13.2 19.334-13.2.8 0 2.133 1.2 3.066 2.667 2.267 3.6 10.667 3.6 15.467-.134 4.533-3.6 4.4-6.4-.533-8.266-2.134-.8-4-2-4-2.534 0-1.066 17.866-10 20.4-10.266.533-.134 4.266 1.733 8.266 4m-110.133 5.066c8.533 7.067 11.6 7.734 17.333 3.467 4.667-3.333 7.467-4 11.334-2.533 3.866 1.466 2.266 4.4-3.2 5.866-9.067 2.4-7.067 5.6 6.4 10.8 4.533 1.734 8.266 3.467 8.266 4 0 .667-4.666 4.4-12.8 9.867l-4.8 3.333-3.333-2.666c-1.867-1.467-5.467-2.667-8-2.667-5.333 0-12.4 3.333-12.4 5.733s2.8 4.934 5.467 4.934c5.733 0 3.2 3.066-6.267 7.333-11.6 5.333-12.8 5.467-15.333 2.533-2.667-3.2-14.8-9.866-18.134-9.866-1.6 0-4.266 1.733-6.133 4.133-2.533 3.2-4 4-7.067 3.6-5.6-.667-5.6-4.133.134-7.467 6.8-4.133 6-6.4-3.6-10.8l-8.4-3.733 9.6-4.8c5.2-2.667 10-5.6 10.533-6.4 1.2-2-3.067-5.2-7.067-5.2-3.733 0-4.133-3.333-.533-5.333 4.133-2.134 8.8-1.6 11.467 1.333 4.133 4.533 7.866 3.467 21.866-5.867 3.867-2.666 7.334-4.8 7.734-4.8s3.466 2.4 6.933 5.2m-107.6 3.6c4.533 2.8 10.4 5.2 13.6 5.467 4.667.533 6 .133 8.667-2.8 2.266-2.4 4.666-3.467 7.6-3.467 8 0 7.2 4.534-1.2 7.467-5.734 2-6.267 6-1.2 9.733 2.266 1.6 4.533 2.8 5.2 2.8s2.4.8 3.733 1.867c2.4 1.733 2 2.133-4.8 5.467-8 4-13.2 8.266-13.2 10.8 0 .933 2.4 2.4 5.333 3.2 7.6 2 6.534 5.333-2 7.2-3.333.8-4.666.266-7.2-2.667s-3.733-3.333-7.866-2.667c-4.134.667-7.2 2.134-19.734 10.134-2.533 1.6-3.733 1.2-11.333-2.8-4.533-2.534-8.667-5.467-8.933-6.267-.267-.933 1.6-2.533 4-3.6 2.533-.933 5.466-2.8 6.4-4 1.466-1.867 1.333-2.533-1.067-5.067-4.267-4.133-12.533-3.733-17.467.934-2 1.866-4.4 3.466-5.333 3.466-2.267 0-14.8-7.066-14.8-8.266 0-.534 4.4-3.067 9.733-5.467 14.134-6.533 15.734-9.733 6-12.133-5.2-1.2-4.666-4.267.934-6.134 4.266-1.466 5.066-1.2 8.933 2 3.067 2.667 5.067 3.334 7.6 2.667 3.467-.8 16.933-9.333 18.267-11.467 1.066-1.733 1.466-1.6 10.133 3.6m-107.333 3.334c4.666 2.266 8.4 4.8 8.4 5.733s-2.134 2.267-4.934 2.933c-9.866 2.534-8.8 9.334 1.734 10.8 4.133.534 6.266-.133 10.266-2.8 2.8-1.866 5.734-3.466 6.667-3.466 2.267 0 14.267 8.4 14.267 10s-15.067 10-18 10c-1.2 0-3.867-1.334-6-2.8-4.4-3.334-11.867-2.934-16.134.933-4.533 4.133-3.2 6.133 6 9.2 2.534.8 2.534.8 0 3.2-1.333 1.333-6.266 4.4-10.8 6.8l-8.133 4.533-9.2-4.666c-4.933-2.534-9.067-5.334-9.067-6.4s2-2.534 4.667-3.2c9.2-2.267 10.133-7.6 1.867-10.267-5.467-1.867-10.267-.933-14.934 2.8-1.866 1.333-4.133 2.533-5.2 2.533-2.133 0-13.333-6.266-14.4-8.133-.4-.533 2.667-2.8 6.934-5.067 4.266-2.133 8.8-5.066 10.133-6.533 2.4-2.533 2.4-2.667-.667-4.8-1.6-1.2-3.866-2.133-4.8-2.133-3.066 0-1.066-4.534 2.8-6.4 3.467-1.6 4-1.467 8.4 2.4 6.134 5.333 9.867 4.666 21.867-3.467 4.8-3.2 8.933-5.867 9.2-5.867.4 0 4.4 1.867 9.067 4.134M672.59 322.8c4.8 2.267 8.534 4.533 8.134 5.2-.4.533-2.667 1.467-5.2 1.867-2.534.533-5.2 1.733-6 2.666-2.267 2.8 2.266 7.334 8.266 8.4 4 .667 5.867.134 10.134-2.933 4.8-3.2 5.733-3.467 9.733-2.133 2.4.8 6.667 3.466 9.6 5.866l5.2 4.4-9.333 5.6c-10 6.134-11.734 6.534-15.6 3.6-5.6-4.266-20.8-1.333-20.8 4 0 2.267 4.133 4.667 8 4.667 5.066 0 2.133 3.2-7.867 8.4l-9.6 5.067-9.333-3.6c-9.867-3.867-10.934-5.734-4.267-7.467 8.8-2.267 8.667-7.467-.4-10.4-4.667-1.6-6.933-.933-14.8 4-2.533 1.6-3.467 1.333-9.6-3.333-3.733-2.934-6.8-5.734-6.8-6.267s3.2-2.667 7.067-4.533c12.933-6.534 15.066-11.067 6.933-14.4-5.2-2.267-5.867-4-2.133-6.134 4.266-2.266 8.266-1.466 11.733 2.134 4 4.266 6.933 3.733 19.067-3.467 4.8-2.933 8.8-5.2 8.8-5.333.133 0 4.266 1.866 9.066 4.133m-111.6 3.333c2.4 1.867 7.067 4.534 10.267 6 6.533 2.8 9.067 2.267 15.733-3.066 3.067-2.4 4.4-2.667 7.334-1.6 5.333 1.866 4.666 4.666-1.6 6.8-2.934.933-5.734 2.266-6.4 2.933-2.134 2.133.8 5.467 8 8.933 4 2 6.666 4 6.133 4.534s-3.867 2-7.333 3.2c-7.6 2.8-12.534 6.533-11.2 8.533.533.8 2.933 1.867 5.466 2.4 5.2.933 6.134 3.733 2.134 5.867-4 2-7.467 1.6-11.334-1.467-5.066-4-10-2.667-20.533 5.467-7.467 5.733-9.067 6.533-10.933 5.066-1.2-.933-4.8-3.733-8-6.133-6.534-4.8-11.467-5.467-16.134-1.867-4.533 3.467-6.8 4.134-10.133 2.8-4.667-1.733-3.733-4.933 1.6-6 10.133-1.866 8.267-6-4.933-10.8-3.467-1.2-6.4-2.8-6.4-3.466 0-.534 4.4-3.067 9.733-5.467 11.6-5.333 14-7.6 10.933-10.667-1.2-1.2-4-2.133-6.133-2.133-4.8 0-5.2-2.933-.533-5.067 4.8-2.266 6.933-2 11.333 1.2 4.8 3.6 8.4 2.8 18.4-4.133 4.133-2.933 8.133-5.333 8.8-5.333s3.2 1.6 5.733 3.466m-108.4 5.067c5.467 4.667 11.2 7.467 14.934 7.467.933 0 3.466-1.867 5.466-4 3.734-4.267 8.4-5.2 11.067-2 2 2.4 1.067 3.866-4 6-6.533 2.666-5.2 5.866 4.667 10.533 4.8 2.267 8.666 4.4 8.666 4.667 0 .933-16.4 11.066-19.466 12q-2.8.8-6.4-2c-6.267-4.934-19.467-2-19.467 4.4 0 2.533.533 2.933 7.067 4.266 2 .534 3.6 1.467 3.6 2.134s-4.267 3.466-9.334 6l-9.333 4.666-5.067-2.666c-2.666-1.467-7.066-3.867-9.6-5.334-5.866-3.333-11.733-3.333-16 0-4 3.067-11.066 3.467-13.333.667-1.333-1.6-1.067-2.133 2-3.333 1.867-.667 4.267-1.334 5.2-1.334s2.8-.8 4.267-1.866c2.4-1.867 2.4-2.134.266-4.267-1.333-1.333-4.933-3.6-8-5.2-3.066-1.467-5.733-3.333-6-4-.4-1.2 14-11.333 16-11.333.534 0 2.134 1.2 3.6 2.666 3.867 3.867 12.134 3.6 16.934-.533 3.066-2.667 3.333-3.467 2-5.2-.934-1.067-3.2-2.4-4.934-2.8-1.866-.533-3.333-1.467-3.333-2.133 0-1.2 19.333-11.734 21.733-12 .667 0 3.734 2 6.8 4.533m-108.4 4.133c8.534 5.867 15.2 6.267 19.867 1.334 3.333-3.6 6.667-4.134 10.8-1.867 3.333 1.733 2.133 3.467-4.267 6.133-2.8 1.067-5.2 2.8-5.2 3.734 0 2.533 5.734 6.8 12.8 9.466 3.334 1.2 5.734 2.934 5.467 3.734s-4.533 3.866-9.6 6.666l-9.067 5.334-3.066-3.867c-2.267-2.933-4.134-3.867-7.6-3.867-10 0-15.6 8.534-7.6 11.6 2.266.8 4 2.267 4 3.067 0 2.267-4.934 6-12.934 9.733l-6.666 3.067-6.8-4.667c-9.2-6.266-13.2-7.2-17.467-3.6-6.267 4.934-9.067 5.867-12.933 4.134-4.267-1.867-3.6-4.134 1.866-6 2.267-.8 4.934-2.267 5.867-3.067 2-2.133-.267-4.133-11.2-9.733-4.267-2.267-7.733-4.4-7.733-4.8s5.066-3.067 11.2-5.867c14.533-6.8 16-8.8 7.333-10.533-6.133-1.2-6.267-3.867-.533-6.267 4.8-2 5.2-1.867 9.733 1.333 5.467 3.867 7.467 3.467 18.667-4.533 4-2.933 7.6-5.333 7.866-5.333.267 0 3.467 2.133 7.2 4.666m-108.133 1.6c10.667 3.867 11.6 5.467 4.667 8.8-5.467 2.534-6.134 6.4-1.734 9.467 4.8 3.467 10.134 2.667 14.534-2 2.933-3.067 4.666-4 6.933-3.333 3.867.933 15.6 9.733 15.6 11.6 0 .8-4.533 3.466-10 5.866-5.467 2.534-10 5.2-10 6s2.133 2.4 4.8 3.467c4.667 2 4.8 2.133 2.4 4.667-2.933 3.333-8.8 3.2-11.867-.134-4.4-4.933-8.4-3.733-22.666 6.934-3.6 2.8-6.934 5.066-7.334 5.066s-4-2.666-8-6c-8.4-6.8-12-7.466-17.6-2.666-2.133 1.866-4.8 3.333-5.733 3.333-6.667 0-8.4-5.867-2.133-7.333 2.133-.4 4.666-1.734 5.6-2.8 2.266-2.8-.4-5.2-9.467-8.267-3.867-1.333-7.467-3.2-7.733-4-.534-1.733 10.666-9.2 15.466-10.533 2-.4 4.134.133 6 1.866 1.6 1.467 4 3.067 5.2 3.467 3.2 1.067 10.934-1.333 13.734-4.4 2.933-3.2 1.066-6-4.8-7.333-2.267-.534-3.734-1.6-3.467-2.4.533-1.6 18-11.6 20.267-11.6.666 0 4 1.066 7.333 2.266M123.391 340c1.334 2.133 13.6 8 16.667 8 1.467 0 4.533-1.867 6.933-4 4.4-4.267 6.4-4.8 10.534-2.667 3.866 2.134 3.066 4-2.667 6.267-2.933 1.2-5.6 2.8-6 3.733-1.067 2.934 2.8 6.8 10.533 10.534 4 1.866 7.334 3.733 7.334 4.133s-3.2 2.267-7.2 4.133-8.267 4.534-9.467 5.867c-2 2.267-2 2.533.933 4.533 1.6 1.2 3.734 2.134 4.667 2.134 2.267 0 2.267 3.333.133 5.066-4.266 3.2-7.333 2.934-11.466-1.066-4.267-4-4.267-4-9.334-2-2.666 1.2-8.266 4.133-12.533 6.666-4.133 2.534-8.4 4.667-9.467 4.667-1.066 0-4.533-2.133-7.6-4.667-8.133-6.8-11.066-7.2-16.666-2.133-5.2 4.533-6.267 4.8-10.134 2.8-3.733-2.133-3.066-3.733 2.4-6.267 9.334-4.4 7.6-6.533-11.6-14.666l-3.333-1.467 4.4-2.4c11.067-6.267 16.267-10 16.267-11.733 0-.934-2.4-2.8-5.334-4-5.866-2.4-6.666-4-2.8-6.134 4.134-2.133 8.8-1.6 11.467 1.334 3.733 4 9.6 3.333 19.333-2.534 8.934-5.466 12.534-6.4 14-4.133m602.534 12.533c5.6 2.534 10.133 4.934 10.133 5.334s-2.4 1.333-5.467 2.133c-6.533 1.867-8.133 4.8-4 8.267 4 3.2 11.734 3.066 16.8-.267 2.267-1.467 4.934-2.667 6.134-2.667 2.666 0 13.466 8 12.933 9.6-.267.8-3.467 2.667-7.067 4.267-11.066 4.8-15.333 7.467-15.333 9.467 0 2.266 4 4.666 7.867 4.666 4.533 0 3.2 3.6-1.867 5.334-4 1.333-5.333 1.2-9.2-1.2-6.533-4-10.8-3.467-19.6 2.533-4.267 2.933-8.4 5.333-8.933 5.333-.667 0-3.867-2.133-7.067-4.666s-7.6-4.934-9.867-5.467c-3.333-.8-4.4-.267-7.466 3.467-2.8 3.2-4.4 4.133-7.334 3.733-5.6-.667-5.6-4.267.134-7.6 2.666-1.6 4.666-3.6 4.4-4.533-.267-.8-4.934-3.734-10.267-6.4l-9.867-4.8 10.134-5.6c5.6-3.067 10.666-6.267 11.066-7.067 1.334-2.133-3.333-5.067-7.733-5.067-5.6 0-4.667-3.6 1.467-5.466 4.666-1.334 5.6-1.2 9.466 1.466 5.467 3.867 10.267 2.934 20.667-4 4.4-2.933 8.4-5.333 8.933-5.333.534 0 5.467 2 10.934 4.533M616.325 358c9.066 6.8 11.2 7.2 16.4 3.2 5.2-4.267 15.6-3.333 12.933 1.067-.533.8-3.067 2-5.6 2.666-7.733 2-6.267 5.6 4 9.867 4.667 2 8.8 4.133 8.933 4.8.267.667-2.666 2.667-6.533 4.533-13.067 6.134-16.667 11.2-9.067 12.8 4.934.934 6.267 2.8 3.867 5.067-3.867 3.6-7.467 3.6-11.733-.133-5.334-4.534-9.067-3.867-20.934 3.6-8 5.066-9.066 5.466-11.733 3.866-6.267-4.133-18.933-10.666-20.533-10.666-1.067 0-4.4 1.866-7.467 4-4.933 3.6-6.133 3.866-9.333 2.666-4.934-1.866-3.867-4.266 3.066-6.666 7.734-2.667 7.067-6.134-2.133-11.067-3.867-2.133-7.067-4.267-7.067-4.933 0-1.6 16.134-13.334 18.267-13.334 1.067 0 3.6 1.334 5.733 2.8 2.934 2.267 4.934 2.667 8.8 2.134 9.867-1.6 12.934-9.467 4.534-11.067-2.267-.533-4.4-1.333-4.667-1.867-.667-1.066 17.333-9.2 20.533-9.333.934 0 5.334 2.667 9.734 6m-109.467 1.6c5.067 2 9.2 4 9.2 4.667 0 .533-1.867 1.466-4.267 2.133-6.266 1.6-7.866 5.067-3.866 8.4 4.133 3.333 12.133 3.333 16.533-.133 1.867-1.467 4.267-2.667 5.333-2.667 2.4 0 14.267 8.933 14.267 10.8 0 .667-4 3.2-8.933 5.6-10.267 4.933-11.867 7.733-5.734 10.267 4.534 1.866 5.2 4.666 1.467 6.666-4.133 2.134-6.933 1.6-10.267-2-1.733-1.866-4.533-3.333-6.266-3.333-3.067 0-13.2 5.733-20 11.467l-3.734 3.2-6.933-4c-8.667-4.934-9.333-7.067-2.4-9.067 6.4-2 8-5.333 4.133-8.533-4.533-3.734-13.466-3.2-17.333.933-1.733 1.867-4 3.333-5.067 3.333-2.8 0-19.333-9.466-18.266-10.4.4-.533 4.266-2.666 8.266-4.933 8.667-4.533 11.467-8 8.4-10-1.066-.667-3.333-1.333-4.933-1.333-3.733 0-5.067-2.267-3.067-4.667 2.4-2.8 8.4-2.4 13.867.8 4.667 2.667 4.667 2.667 10.4.133 3.2-1.333 8.667-4.4 12.267-6.666 3.733-2.4 6.933-4.267 7.2-4.267.4 0 4.666 1.6 9.733 3.6m-110.133 4c8.4 4.133 9.333 6.533 2.8 7.867-5.067.933-9.2 4.533-7.734 6.666 3.2 4.934 14.134 6 19.334 1.867 1.866-1.467 4.8-2.667 6.533-2.667 3.867 0 19.067 9.2 17.467 10.667-4.8 4.267-15.6 12-16.667 12-.8 0-2.933-1.6-4.667-3.467-2.666-2.933-4-3.333-8-2.8-9.333 1.6-12.933 8.667-5.733 11.6 2.267.934 4 2.134 4 2.667s-4.933 3.2-10.933 5.867l-11.067 4.933-9.2-3.867c-5.067-2-9.467-4.4-9.733-5.2-.267-.8 1.6-1.866 4.133-2.266 2.4-.534 5.333-1.867 6.267-2.934 1.466-1.866 1.2-2.666-1.867-5.333-4.8-4.133-10.533-4.133-17.6.133l-5.733 3.2-5.067-3.733c-9.6-6.8-9.467-7.2.4-12.267 4.8-2.533 9.733-5.866 10.8-7.466 1.733-2.8 1.6-3.2-2.933-5.867-5.467-3.2-5.6-4.933-.4-7.867 3.333-1.866 3.733-1.733 7.333 1.734 5.2 5.066 9.867 4.666 20.267-1.734 4.8-2.8 9.066-5.2 9.6-5.333.533 0 4.266 1.6 8.4 3.6m-107.867 5.2c10.267 5.733 11.2 6.933 6 8-2.133.533-5.067 2-6.267 3.467-2.266 2.4-2.266 2.666.534 5.466 4.266 4.267 12 3.867 17.466-.8 2.4-2 4.8-3.6 5.2-3.6 1.734 0 14.934 8 14.934 9.067 0 .533-4 3.467-8.934 6.667l-8.933 5.6-3.467-3.334c-4.666-4.533-11.866-4.533-16.933 0l-3.733 3.334 3.2 2.666c1.733 1.467 3.866 2.667 4.933 2.667 4.933 0 .8 4.4-8.8 9.2l-10.667 5.333-8.266-4.133c-12.534-6.133-13.067-6.8-7.067-8.533 7.067-2 8.933-5.2 4.8-8.667-4.133-3.333-12.133-3.333-16.533.133-1.867 1.467-4.667 2.667-6.267 2.667-2.8 0-13.333-7.467-13.333-9.467 0-1.6 16.4-13.2 18.666-13.2 1.2 0 3.334 1.2 4.667 2.667 2.8 3.2 8.667 3.467 13.867.667 5.733-2.8 6.133-5.734 1.466-8.4-2.133-1.2-4-2.667-4-3.067 0-.533 15.734-8.267 18.4-9.067.267-.133 4.4 2 9.067 4.667m-107.2 2.667c5.067 1.866 9.067 3.866 9.067 4.4 0 .666-2.4 2-5.334 3.2-7.2 2.8-7.333 6.933-.533 9.733 5.6 2.4 10.267 1.6 13.6-2.133 1.2-1.467 3.067-2.667 4.267-2.667 2.4 0 14 8.933 14 10.8 0 .667-4.134 3.6-9.334 6.4-10.4 5.6-12 8.8-5.6 11.867 4.134 2 4.534 3.866 1.334 6.4-3.6 2.8-7.867 2.133-10.134-1.334-1.2-1.733-3.333-3.466-4.666-3.733-3.2-.933-11.2 2.533-18.8 8l-5.6 4.133-5.867-2.266c-3.2-1.067-7.2-3.2-8.933-4.534-2.934-2.4-2.934-2.533-.534-4.133 1.334-.933 4.134-2.933 6-4.667l3.467-2.933-3.733-3.333c-5.2-4.667-10.934-4.4-15.334.666-2 2.134-4.4 4-5.466 4-2.8 0-16.134-8.266-16.134-10 0-1.2 9.334-7.333 18.4-12.133 3.334-1.733 3.734-1.6 7.2 2.267 3.2 3.466 4.4 4 8 3.066 5.734-1.2 8.934-3.333 9.867-6.4.933-2.666-2.4-6.133-5.733-6.133-.934 0-1.734-.8-1.734-1.733 0-1.734 13.867-9.867 17.334-10.134 1.066 0 6 1.467 10.933 3.334m-110 3.333c4.267 1.6 8.533 3.6 9.6 4.667 1.6 1.466 1.2 2-2.933 4-5.734 2.8-7.067 5.466-4.267 8.533 4.4 4.8 13.867 4 17.6-1.333 1.067-1.467 2.667-2.667 3.6-2.667 2.4 0 12.667 8.267 12.667 10.133.133.667-4.267 3.2-9.467 5.334-11.333 4.666-12.8 7.466-5.867 10.4 5.467 2.266 5.6 2.533 2.667 5.333-2.933 3.067-9.467 2.667-11.2-.533-2.267-4.267-8-3.334-16.133 2.666-12.4 9.067-12.134 9.067-22.534 4-5.066-2.4-8.933-4.933-8.666-5.333.4-.533 2.4-1.333 4.533-1.733s4.8-1.867 6.133-3.067c2-2.133 2-2.4-.266-4.8-1.467-1.333-4.8-2.8-7.467-3.333-4-.534-6 0-10.4 2.933-4.8 3.067-6 3.333-8.8 2.133-4.533-2.133-12.4-8.133-12.4-9.6 0-2 12.533-10.533 15.333-10.533 1.467 0 4.134 1.2 6 2.667 4.267 3.333 10.134 3.333 15.734 0 2.266-1.467 4.266-2.934 4.266-3.2 0-2.8-2.4-4.934-6.133-5.6-2.533-.4-4.4-1.467-4.133-2.267.533-1.867 19.333-11.467 22.533-11.467 1.333-.133 5.733 1.2 10 2.667M669.791 386c4.134 1.733 7.6 3.733 7.6 4.4s-2.133 2.133-4.666 3.333c-5.467 2.534-6.134 6.4-1.734 9.467 5.067 3.6 11.2 2.667 14.667-1.867 1.6-2.266 3.6-4 4.533-4 1.867 0 15.2 9.6 15.2 11.067 0 .667-4.533 3.2-10.133 5.733-10.533 4.8-11.6 6.534-5.467 9.6 4.267 2 4.667 4.934 1.067 6.934-3.2 1.733-8.133 1.733-8.133.133 0-2.133-4-5.467-6.534-5.467-1.333 0-7.466 3.334-13.466 7.334s-11.467 7.333-12 7.333c-.534 0-4.667-2.4-9.067-5.333s-8.933-5.334-10.133-5.334-4.534 1.6-7.467 3.467c-4.267 2.8-5.867 3.2-8.933 2.267-4.267-1.467-4.934-4.8-1.067-5.467 5.733-.933 10.133-3.333 9.733-5.467-.266-1.2-4.266-4.133-9.066-6.533s-8.8-4.933-9.067-5.467c-.4-1.333 14.533-10.8 17.2-10.8.933 0 3.067 1.334 4.8 2.934 3.733 3.466 10.8 3.733 15.733.533 4.8-3.2 4.267-6.933-1.333-8.933-2.533-.934-4.533-2.267-4.4-2.8.8-2.4 19.2-11.6 21.867-11.067 1.466.4 6.133 2.133 10.266 4m-113.066 2.933c6.933 3.467 9.733 7.067 5.333 7.067-3.467 0-10 3.867-10 6 0 2.933 5.467 6 10.8 6 3.333 0 6.267-1.067 8.933-3.333 3.467-2.934 4.534-3.2 7.867-1.867 5.467 2 15.067 8.267 15.067 9.867 0 .8-4 3.866-8.8 6.933l-8.934 5.6-3.866-3.2c-4.8-4-9.6-4.267-15.467-.667-5.467 3.334-5.2 6.8.8 8.8 2.4.8 4.533 2 4.533 2.667.134.667-4.533 3.467-10.266 6.267l-10.4 5.2-8.8-4.134c-4.8-2.266-8.934-4.8-9.2-5.866-.134-.934 1.733-2.4 4.4-3.467 5.466-1.867 6.133-5.6 1.733-8.667-4.667-3.2-11.333-2.666-14.933 1.2-1.734 1.867-4.267 3.334-5.6 3.334-2.934 0-15.2-8.134-15.2-10 0-1.734 11.2-10.4 16.4-12.8 3.333-1.467 4-1.334 7.333 1.866 4.8 4.534 10.8 4.667 15.733.534 4.267-3.734 3.734-6.934-1.466-8.934-1.867-.666-3.334-1.733-3.334-2.4 0-.933 16.267-9.066 18.934-9.466.533-.134 4.266 1.466 8.4 3.466M449.39 394c4.534 2.533 9.734 5.067 11.334 5.467 3.2.8 7.733-1.067 11.2-4.4 2.4-2.534 11.466-1.734 11.466.933 0 1.067-2 2.667-4.666 3.467-9.2 3.066-8.534 7.466 2.133 12.8 3.2 1.6 5.867 3.6 5.867 4.4 0 1.866-16.4 12.666-19.334 12.666-1.2 0-3.466-1.466-4.933-3.333-3.467-4.4-10.267-4.533-15.2-.267-4.267 3.734-3.733 6.934 1.467 8.934 1.866.666 3.333 1.866 3.333 2.666 0 1.467-14.933 9.334-18 9.334-1.067 0-4.667-2.134-8.133-4.667-6.934-5.333-12.8-6-17.867-2-3.467 2.667-10 3.467-13.2 1.467-2.8-1.734-.8-3.6 5.867-5.334 8.666-2.133 7.733-4.666-3.6-10.266-5.334-2.534-9.6-4.934-9.467-5.467s4.533-3.067 10-5.6c10.533-5.2 12-7.733 6-10.533-4.667-2.267-4.267-5.734.8-7.467 3.067-1.067 4.133-.8 7.467 2.4 5.066 4.8 8.533 4.133 19.2-4 4.266-3.2 8.4-5.867 8.933-5.867s4.8 2.134 9.333 4.667"/></pattern><pattern id="e" width="800.058" height="450.667" patternUnits="userSpaceOnUse" preserveAspectRatio="xMidYMid"><path fill="url(#d)" d="M0 0h800.058v450.667H0z"/></pattern></defs><path fill="url(#e)" d="M0 0h800.058v450.667H0z" transform="scale(.75)"/></svg>