<?xml version="1.0" encoding="UTF-8" standalone="no"?>
<svg
   width="270.89062"
   height="311.42929"
   viewBox="0 0 270.89062 311.42929"
   version="1.1"
   id="svg1"
   xml:space="preserve"
   sodipodi:docname="logo.svg"
   inkscape:version="1.4.2 (f4327f4, 2025-05-13)"
   xmlns:inkscape="http://www.inkscape.org/namespaces/inkscape"
   xmlns:sodipodi="http://sodipodi.sourceforge.net/DTD/sodipodi-0.dtd"
   xmlns:xlink="http://www.w3.org/1999/xlink"
   xmlns="http://www.w3.org/2000/svg"
   xmlns:svg="http://www.w3.org/2000/svg"><sodipodi:namedview
     id="namedview1"
     pagecolor="#ffffff"
     bordercolor="#000000"
     borderopacity="0.25"
     inkscape:showpageshadow="2"
     inkscape:pageopacity="0.0"
     inkscape:pagecheckerboard="0"
     inkscape:deskcolor="#d1d1d1"
     inkscape:zoom="1.7837497"
     inkscape:cx="116.04767"
     inkscape:cy="169.58657"
     inkscape:window-width="1920"
     inkscape:window-height="991"
     inkscape:window-x="-9"
     inkscape:window-y="-9"
     inkscape:window-maximized="1"
     inkscape:current-layer="svg1" /><defs
     id="defs1"><linearGradient
       id="linearGradient1"><stop
         style="stop-color:#ff0021;stop-opacity:1;"
         offset="0"
         id="stop1" /><stop
         style="stop-color:#ff788b;stop-opacity:1;"
         offset="0.5173611"
         id="stop2" /></linearGradient><linearGradient
       id="linearGradient45"><stop
         style="stop-color:#ffc45c;stop-opacity:1;"
         offset="0.43402779"
         id="stop46" /><stop
         style="stop-color:#ff6110;stop-opacity:1;"
         offset="1"
         id="stop45" /></linearGradient><linearGradient
       id="linearGradient41"><stop
         style="stop-color:#008aca;stop-opacity:1;"
         offset="0"
         id="stop41" /><stop
         style="stop-color:#0ee8ff;stop-opacity:1;"
         offset="1"
         id="stop42" /></linearGradient><linearGradient
       xlink:href="#linearGradient1"
       id="linearGradient3"
       gradientUnits="userSpaceOnUse"
       gradientTransform="translate(-128.88868,-111.38675)"
       x1="128.92598"
       y1="190.40089"
       x2="394.77911"
       y2="190.40089" /><linearGradient
       xlink:href="#linearGradient45"
       id="linearGradient4"
       gradientUnits="userSpaceOnUse"
       gradientTransform="translate(-128.88868,-111.38675)"
       x1="128.92599"
       y1="190.40086"
       x2="394.77911"
       y2="190.40086" /><linearGradient
       xlink:href="#linearGradient41"
       id="linearGradient5"
       gradientUnits="userSpaceOnUse"
       gradientTransform="rotate(119.9705,-32.27066,-92.922444)"
       x1="130.01401"
       y1="-379.66751"
       x2="197.59428"
       y2="-262.61502" /></defs><path
     id="path1"
     style="fill:none;fill-opacity:1;stroke:#00baf9;stroke-width:9;stroke-linecap:butt;stroke-linejoin:round;stroke-dasharray:none;stroke-opacity:1;paint-order:normal"
     d="M 135.46484,4.4999304 89.67187,30.93743 A 31.761484,18.567995 0 0 1 111.5664,48.58782 31.761484,18.567995 0 0 1 79.80468,67.15618 31.761484,18.567995 0 0 1 49.54101,54.10735 L 4.5370999,80.08977 49.53905,106.07219 a 31.761484,18.567995 60.0295 0 0 3.8418,32.69141 31.761484,18.567995 60.0295 0 0 31.95117,18.23828 31.761484,18.567995 60.0295 0 0 4.36524,-27.74609 l 45.76758,26.42383 45.8457,-26.46875 a 31.761484,18.567995 0 0 1 -21.94727,-17.61914 31.761484,18.567995 0 0 1 31.76172,-18.56836 31.761484,18.567995 0 0 1 30.30664,13.02343 L 266.39062,80.08977 221.38866,54.10735 A 31.761484,18.567995 0 0 1 191.12499,67.15618 31.761484,18.567995 0 0 1 159.36327,48.58782 31.761484,18.567995 0 0 1 181.31054,30.96868 Z" /><path
     id="path2"
     style="fill:#00baf9;fill-opacity:1;stroke:#00baf9;stroke-width:9;stroke-linecap:butt;stroke-linejoin:round;stroke-dasharray:none;stroke-opacity:1;paint-order:normal"
     d="m 266.31444,80.08977 -44.88867,25.94727 a 31.761484,18.567995 0 0 0 -30.30078,-13.01367 31.761484,18.567995 0 0 0 -31.76172,18.56836 31.761484,18.567995 0 0 0 21.96485,17.62304 l -45.90235,26.53321 0.0274,52.9375 a 18.567995,31.761484 29.9705 0 1 26.22656,-10.21094 18.567995,31.761484 29.9705 0 1 0.21875,36.79101 18.567995,31.761484 29.9705 0 1 -26.42188,19.69922 l 0.0273,51.96485 44.98828,-26.00586 a 18.567995,31.761484 29.9705 0 1 3.81641,-32.73633 18.567995,31.761484 29.9705 0 1 31.95117,-18.23828 18.567995,31.761484 29.9705 0 1 4.34961,27.78515 l 45.78125,-26.46289 -0.0274,-52.93945 a 18.567995,31.761484 29.9705 0 1 -26.22656,10.21094 18.567995,31.761484 29.9705 0 1 -0.21875,-36.79102 18.567995,31.761484 29.9705 0 1 26.42188,-19.69922 z" /><path
     id="path3"
     style="fill:none;stroke:#00baf9;stroke-width:9;stroke-linecap:butt;stroke-linejoin:round;stroke-dasharray:none;stroke-opacity:1;paint-order:normal"
     d="m 4.5761299,80.02146 -0.0254,51.96484 c 8.7738101,-0.29578 19.4737501,7.68171 26.4218801,19.69922 8.76226,15.1954 8.66432,31.66611 -0.21876,36.78906 -6.97024,3.98591 -17.55154,-0.13298 -26.2265501,-10.20898 l -0.0273,52.9375 45.8300901,26.49217 c -4.37545,-12.55513 -2.64028,-23.77623 4.30079,-27.81251 8.88348,-5.12251 23.18833,3.04296 31.95117,18.23829 6.93548,12.02915 8.49853,25.29698 3.85937,32.75976 l 44.94533,25.98045 0.0273,-51.89649 c 8.78312,0.33539 19.51842,-7.64958 26.48439,-19.69921 8.76337,-15.19626 8.66544,-31.66848 -0.21876,-36.79102 -6.97515,-3.98792 -17.56517,0.13977 -26.24218,10.22851 l 0.0273,-53.02344 -45.78125,-26.46289 c 4.36313,12.56079 2.60721,23.77256 -4.35156,27.78516 -8.88348,5.12251 -23.18833,-3.04295 -31.95118,-18.23828 -6.92143,-12.03313 -8.46694,-25.29026 -3.8164,-32.73633 z" /></svg>
