<?xml version="1.0" standalone="no"?>
<!DOCTYPE svg PUBLIC "-//W3C//DTD SVG 20010904//EN"
 "http://www.w3.org/TR/2001/REC-SVG-20010904/DTD/svg10.dtd">
<svg version="1.0" xmlns="http://www.w3.org/2000/svg"
 width="600.000000pt" height="600.000000pt" viewBox="0 0 600.000000 600.000000"
 preserveAspectRatio="xMidYMid meet">
<g transform="translate(0.000000,600.000000) scale(0.100000,-0.100000)"
fill="#000000" stroke="none">
<path d="M2696 5253 c-6 -14 -5 -15 5 -6 7 7 10 15 7 18 -3 3 -9 -2 -12 -12z"/>
<path d="M2660 5202 c0 -4 41 -45 90 -90 50 -46 90 -89 90 -97 0 -10 -26 -4
-99 20 -87 29 -261 65 -386 79 -132 15 -185 18 -185 10 0 -6 28 -24 63 -41
122 -61 249 -140 237 -148 -7 -4 -45 -11 -84 -16 -39 -4 -120 -14 -181 -23
-193 -29 -218 -31 -330 -30 -73 1 -137 8 -190 22 -44 11 -84 17 -89 14 -5 -3
7 -19 26 -36 20 -17 74 -65 121 -107 47 -42 111 -89 141 -105 31 -16 55 -32
53 -36 -6 -19 -321 -154 -399 -172 -58 -13 -204 -9 -262 8 -34 10 -62 14 -68
8 -5 -5 18 -34 56 -70 79 -76 201 -138 304 -155 39 -7 74 -15 77 -19 4 -3 -13
-24 -37 -45 -23 -21 -79 -72 -123 -114 -90 -84 -235 -186 -339 -237 -86 -41
-77 -52 46 -52 97 0 214 14 302 36 32 8 61 13 63 10 3 -3 -19 -47 -50 -98 -30
-51 -66 -115 -79 -143 -45 -91 -112 -265 -105 -272 4 -3 38 23 75 58 38 35 86
78 108 94 21 17 61 49 88 70 l49 40 -7 -50 c-11 -75 -61 -218 -113 -323 -25
-51 -43 -96 -39 -99 12 -12 94 54 204 164 92 94 112 110 113 91 3 -78 -3 -140
-21 -206 -12 -42 -17 -79 -12 -84 8 -8 143 120 150 142 2 6 9 10 17 10 18 0
25 -57 18 -174 -9 -157 7 -206 186 -584 54 -114 111 -236 126 -272 61 -141
103 -165 240 -136 44 9 90 19 102 22 17 5 26 -1 42 -27 12 -19 21 -41 21 -49
0 -16 -145 -142 -315 -276 -55 -43 -102 -81 -105 -84 -19 -21 -276 -210 -472
-349 -104 -73 -188 -138 -188 -145 0 -20 23 -36 51 -36 51 0 39 -17 -49 -71
-48 -29 -108 -75 -134 -102 -69 -72 -166 -269 -203 -412 -26 -102 -74 -326
-85 -400 -5 -38 -12 -80 -15 -92 -4 -18 -1 -23 15 -23 15 0 20 7 21 30 1 17 2
33 3 38 1 4 6 30 10 57 18 115 96 437 121 501 84 210 134 276 292 380 90 60
144 87 227 116 60 21 121 38 135 38 59 0 150 -96 242 -258 59 -104 67 -143 70
-359 5 -311 4 -346 -4 -393 -25 -154 -25 -150 -6 -150 12 0 19 7 19 20 0 11 7
55 15 97 8 43 26 152 41 243 24 152 86 439 100 461 3 5 35 -21 72 -59 111
-113 231 -162 397 -162 103 0 214 24 322 69 40 16 74 27 77 23 2 -4 0 -32 -5
-62 -14 -90 -17 -111 -29 -200 -6 -47 -13 -96 -15 -110 -3 -14 -9 -72 -15
-130 -6 -58 -13 -124 -16 -147 -6 -38 -4 -43 13 -43 13 0 19 7 19 23 2 69 84
700 110 835 15 82 18 87 94 181 44 54 102 119 129 144 76 71 94 68 271 -48 52
-35 115 -73 139 -85 73 -37 273 -111 290 -108 14 3 16 24 13 178 -3 137 1 209
18 330 11 85 25 191 31 235 5 44 16 120 24 168 8 49 13 94 12 100 -5 26 45 15
143 -34 58 -28 150 -71 205 -94 55 -24 197 -87 315 -140 118 -54 253 -113 300
-132 97 -40 208 -102 253 -142 l30 -28 -74 -5 c-139 -11 -290 -84 -416 -202
-81 -76 -120 -130 -187 -264 -107 -215 -181 -406 -261 -676 -63 -215 -67 -236
-46 -236 13 0 21 15 31 58 19 87 114 396 153 497 178 462 284 608 533 732 87
43 102 47 183 51 150 7 178 -13 261 -191 32 -69 124 -333 158 -457 10 -34 10
-33 11 23 2 121 -158 527 -249 629 -48 55 -151 132 -240 181 -36 20 -168 81
-295 135 -256 111 -516 227 -675 302 -58 28 -111 50 -117 50 -7 0 -13 10 -13
23 0 13 -7 46 -15 75 -12 41 -26 60 -71 98 -46 40 -64 65 -106 153 -81 169
-99 187 -211 199 l-62 7 -3 78 c-2 42 -1 77 2 77 2 0 27 -16 56 -35 52 -35 96
-52 106 -42 3 3 -8 29 -25 58 -45 81 -72 173 -69 231 l3 51 44 -37 c54 -46
130 -91 138 -82 3 3 -1 23 -11 43 -30 68 -47 146 -53 256 -3 59 -3 107 0 107
4 0 35 -15 69 -34 63 -34 175 -72 185 -63 2 3 -14 29 -37 58 -38 48 -136 227
-128 234 2 1 68 5 147 8 184 7 203 19 106 66 -72 36 -170 121 -216 187 -36 53
-123 224 -116 230 2 2 38 -1 78 -7 81 -12 195 -7 211 9 8 8 -6 18 -45 36 -117
51 -136 69 -310 295 -58 74 -95 112 -143 143 -35 23 -60 46 -56 50 12 12 161
11 202 -2 68 -20 69 -4 3 42 -98 67 -192 98 -302 98 l-58 0 -11 78 c-16 115
-97 342 -121 342 -6 0 -12 -24 -13 -52 -5 -130 -18 -258 -26 -258 -4 0 -20 22
-35 50 -86 152 -333 426 -367 405 -6 -4 1 -28 18 -63 35 -69 76 -181 70 -187
-2 -3 -35 18 -74 46 -86 63 -280 159 -402 199 -102 33 -102 33 -102 22z m200
-93 c135 -51 290 -147 400 -247 35 -32 50 -39 50 -23 0 12 -70 211 -82 234
-18 34 15 6 86 -73 90 -100 149 -184 199 -282 35 -70 42 -78 53 -63 11 15 23
75 39 198 3 26 10 47 14 47 19 0 80 -253 68 -284 -10 -25 16 -34 98 -33 79 0
188 -23 200 -43 4 -6 -15 -10 -47 -10 -51 0 -129 -27 -142 -48 -4 -6 13 -20
40 -31 82 -37 145 -93 242 -215 112 -142 165 -200 210 -227 17 -12 30 -24 27
-29 -8 -13 -114 1 -169 22 -26 10 -68 32 -93 49 -24 17 -47 28 -50 25 -3 -3
17 -30 45 -59 32 -35 68 -90 99 -154 27 -54 63 -119 80 -144 33 -47 155 -168
188 -187 11 -6 16 -14 12 -19 -13 -12 -146 -16 -205 -5 -63 11 -75 -1 -45 -45
37 -53 122 -222 115 -227 -12 -7 -89 30 -142 69 -27 20 -51 32 -54 27 -10 -17
9 -243 30 -360 l7 -34 -33 17 c-18 9 -51 34 -75 56 -23 21 -46 39 -50 39 -17
0 4 -176 29 -250 30 -88 29 -80 13 -80 -7 0 -35 23 -62 50 -27 28 -52 50 -55
50 -7 0 -4 -67 9 -208 4 -46 4 -85 -1 -88 -8 -5 -84 105 -92 134 -3 10 -10 37
-16 61 -13 51 -19 47 -50 -36 -12 -35 -26 -63 -30 -63 -4 0 -11 36 -14 81 -4
44 -14 105 -22 135 -8 30 -14 56 -14 58 0 1 37 40 83 87 49 51 96 110 117 149
32 60 35 73 38 170 3 89 1 114 -18 163 -28 74 -62 114 -110 128 -54 16 -118
-3 -175 -53 l-45 -40 0 77 c0 57 -3 76 -12 73 -9 -3 -16 -37 -20 -96 -7 -95
-44 -268 -58 -277 -5 -3 -14 12 -21 32 -6 21 -38 100 -70 175 -33 75 -65 164
-73 198 -8 34 -17 65 -20 68 -16 15 -16 -14 -2 -97 26 -148 19 -179 -23 -98
-12 23 -74 112 -137 197 -64 85 -126 174 -137 198 -44 89 -46 45 -6 -184 6
-39 10 -77 7 -84 -5 -17 -135 176 -185 274 -20 39 -49 109 -64 156 -15 46 -31
86 -37 88 -5 1 -27 -53 -49 -120 -45 -135 -126 -327 -153 -360 -16 -21 -17
-14 -15 156 3 260 -7 281 -61 135 -30 -80 -67 -166 -168 -384 -25 -55 -48
-104 -50 -110 -23 -62 -23 297 0 458 9 62 18 127 21 145 3 18 1 32 -5 32 -13
0 -26 -41 -47 -142 -11 -55 -26 -95 -52 -135 -21 -32 -75 -132 -121 -223 l-84
-165 7 80 c8 100 28 198 61 297 34 104 26 133 -13 48 -48 -102 -74 -228 -91
-437 -7 -85 -6 -98 16 -152 l25 -59 -33 -45 c-56 -79 -59 -74 -57 96 1 84 -2
158 -7 166 -6 10 -15 1 -32 -35 -41 -84 -211 -271 -229 -252 -3 3 8 34 24 69
40 87 121 368 121 419 0 20 -20 9 -35 -19 -22 -43 -261 -259 -273 -247 -12 13
79 210 142 308 19 29 50 73 70 98 33 41 45 70 30 70 -3 0 -42 -13 -87 -29
-103 -36 -204 -54 -282 -49 l-60 3 115 82 c63 45 138 103 165 129 28 25 96 87
152 137 56 50 101 92 99 94 -1 2 -45 5 -97 8 -57 2 -117 12 -152 24 -69 24
-156 72 -181 100 -18 20 -17 20 70 14 124 -7 202 12 385 95 85 38 180 79 212
91 31 13 57 27 57 31 0 4 -28 17 -62 30 -35 12 -92 42 -128 66 -107 71 -177
148 -117 129 12 -4 74 -9 137 -12 103 -4 262 10 452 42 34 6 208 25 231 25 42
0 9 31 -103 96 -66 38 -120 73 -120 78 0 18 239 -21 370 -60 47 -14 122 -44
168 -66 46 -22 86 -38 89 -35 8 8 -38 69 -106 140 -82 85 -81 90 9 56z m-106
-1125 c27 -57 75 -144 106 -192 107 -165 205 -262 185 -184 -8 32 -30 141 -40
196 -4 22 -2 37 3 35 5 -2 38 -42 73 -89 35 -47 79 -103 96 -125 36 -46 77
-124 103 -199 23 -63 40 -71 41 -19 1 21 4 49 9 63 7 23 10 19 40 -44 17 -38
41 -108 52 -155 32 -134 32 -134 57 -79 11 27 30 85 42 130 27 101 79 184 134
216 56 32 138 27 172 -12 45 -52 69 -200 48 -296 -18 -84 -99 -201 -187 -271
-54 -43 -75 -46 -160 -24 -34 9 -39 0 -78 -146 -34 -124 -49 -156 -112 -230
-59 -71 -153 -144 -303 -239 -320 -200 -603 -296 -679 -227 -14 12 -56 90 -94
172 -39 83 -98 209 -132 280 -134 283 -143 313 -144 515 l-1 155 -36 82 -37
81 50 109 c108 236 176 365 189 357 4 -2 5 -46 2 -97 -6 -100 12 -336 27 -351
9 -9 13 -2 73 144 20 47 60 137 90 200 30 63 64 137 76 164 16 37 24 47 33 38
8 -8 7 -55 -5 -179 -8 -92 -11 -172 -7 -177 22 -23 165 246 216 404 30 95 32
100 42 100 4 0 29 -48 56 -106z m-924 -838 c0 -2 -7 -7 -16 -10 -8 -3 -12 -2
-9 4 6 10 25 14 25 6z m1770 -265 c50 -9 59 -37 72 -214 6 -83 15 -156 19
-161 4 -5 24 24 43 63 20 39 40 71 45 71 12 0 29 -42 46 -116 17 -72 77 -210
126 -285 l29 -46 -63 -109 c-35 -60 -83 -143 -106 -184 -48 -85 -290 -568
-339 -677 -18 -39 -39 -76 -46 -82 -8 -7 -54 -21 -103 -33 -48 -11 -106 -25
-127 -30 -26 -6 -58 -28 -94 -62 -70 -67 -53 -82 22 -20 49 41 68 49 144 65
48 11 100 22 116 26 28 6 29 5 22 -22 -20 -81 -31 -92 -133 -143 -226 -114
-399 -121 -553 -22 -60 39 -130 114 -158 171 l-20 41 34 81 c46 107 82 170
157 275 34 48 70 99 80 115 10 15 22 27 27 27 5 0 19 -19 31 -41 47 -93 78
-233 79 -352 0 -73 16 -67 26 10 15 119 -32 277 -134 456 -41 73 -84 166 -107
232 -20 61 -44 123 -52 138 -8 16 -13 30 -11 31 2 2 46 23 98 48 171 80 451
266 552 365 92 91 116 134 158 278 18 61 34 114 37 118 3 4 14 5 26 1 12 -4
38 -10 57 -13z m472 -369 c36 -15 72 -65 107 -151 37 -91 75 -147 123 -180 58
-40 69 -74 67 -199 -1 -59 -10 -159 -19 -222 -18 -119 -21 -136 -40 -280 -6
-47 -13 -96 -15 -110 -11 -65 -15 -252 -7 -310 5 -36 8 -68 5 -72 -6 -10 -165
47 -254 92 -41 21 -123 70 -182 109 -59 38 -123 73 -141 77 -55 10 -100 -19
-188 -123 -45 -51 -83 -91 -86 -88 -16 16 306 671 464 945 173 299 176 304
172 352 -3 34 -5 39 -12 23 -43 -100 -60 -135 -68 -135 -21 0 -129 212 -128
252 1 7 20 -8 45 -34 24 -27 46 -48 50 -48 4 0 5 14 1 30 -3 17 -9 44 -12 61
l-6 30 48 -4 c27 -3 61 -10 76 -15z m-1353 -652 c15 -41 43 -103 64 -138 20
-35 37 -68 37 -73 0 -6 -15 -29 -34 -52 -58 -72 -162 -230 -194 -292 -79 -160
-182 -486 -233 -740 -12 -60 -26 -114 -30 -119 -5 -5 -8 58 -7 140 2 182 -7
218 -93 364 -73 123 -175 233 -226 243 -23 4 -63 -3 -130 -24 -105 -32 -223
-49 -223 -32 0 6 84 70 188 144 272 193 539 399 682 525 113 101 155 134 163
131 5 -1 22 -36 36 -77z m-179 -820 c0 -5 32 -44 71 -85 174 -183 366 -206
642 -78 53 26 99 44 101 42 2 -2 -3 -44 -12 -92 -18 -101 -11 -95 -155 -146
-118 -41 -254 -58 -352 -43 -136 21 -260 94 -328 193 l-37 54 26 83 c14 45 29
82 35 82 5 0 9 -4 9 -10z m891 -13 c-6 -8 -7 -18 -3 -22 4 -5 1 -5 -6 -1 -10
6 -10 11 -1 22 6 8 14 14 16 14 3 0 0 -6 -6 -13z m-1094 -622 c0 -8 -4 -12 -9
-9 -5 3 -6 10 -3 15 9 13 12 11 12 -6z"/>
<path d="M2425 4131 c-3 -5 -2 -12 3 -15 5 -3 9 1 9 9 0 17 -3 19 -12 6z"/>
<path d="M1574 4038 l-19 -23 23 19 c21 18 27 26 19 26 -2 0 -12 -10 -23 -22z"/>
<path d="M2050 3996 c0 -2 8 -10 18 -17 15 -13 16 -12 3 4 -13 16 -21 21 -21
13z"/>
<path d="M1469 3963 c-13 -16 -12 -17 4 -4 16 13 21 21 13 21 -2 0 -10 -8 -17
-17z"/>
<path d="M1655 3801 c-3 -5 -2 -12 3 -15 5 -3 9 1 9 9 0 17 -3 19 -12 6z"/>
<path d="M3665 3458 c-23 -24 -50 -65 -60 -91 -18 -47 -18 -51 0 -103 15 -44
16 -58 6 -76 -7 -13 -21 -39 -32 -58 -18 -34 -18 -35 0 -53 18 -18 21 -19 67
-3 88 30 124 75 124 155 0 65 -24 109 -75 137 -41 22 -44 36 -10 69 32 33 70
32 91 0 9 -14 20 -25 25 -25 18 0 8 42 -16 65 -36 37 -70 32 -120 -17z m43
-150 c68 -74 27 -184 -78 -204 -36 -8 -36 -7 0 46 26 38 30 68 14 105 -37 89
1 120 64 53z"/>
<path d="M3689 3023 c-13 -16 -12 -17 4 -4 16 13 21 21 13 21 -2 0 -10 -8 -17
-17z"/>
<path d="M2106 2924 c-31 -56 -33 -83 -5 -117 20 -26 117 -82 127 -73 11 12
-10 37 -47 56 -23 11 -48 31 -56 44 -15 22 -14 28 5 77 23 63 23 59 11 59 -5
0 -21 -21 -35 -46z"/>
<path d="M3397 2505 c-4 -8 -3 -16 1 -19 4 -3 9 4 9 15 2 23 -3 25 -10 4z"/>
<path d="M3496 2302 c-3 -5 1 -9 9 -9 8 0 12 4 9 9 -3 4 -7 8 -9 8 -2 0 -6 -4
-9 -8z"/>
<path d="M3507 2253 c-3 -5 -33 -119 -67 -253 -34 -141 -99 -358 -150 -509
-49 -146 -87 -267 -84 -270 12 -12 35 36 92 193 98 264 245 817 224 838 -6 6
-12 6 -15 1z"/>
<path d="M2680 1131 c0 -5 21 -23 48 -39 26 -17 63 -47 81 -66 38 -39 51 -44
51 -20 0 22 -68 88 -117 113 -46 23 -63 26 -63 12z"/>
<path d="M4095 2410 c10 -11 20 -20 23 -20 3 0 -3 9 -13 20 -10 11 -20 20 -23
20 -3 0 3 -9 13 -20z"/>
<path d="M4065 2201 c-3 -5 -2 -12 3 -15 5 -3 9 1 9 9 0 17 -3 19 -12 6z"/>
<path d="M3706 1552 c-3 -5 1 -9 9 -9 8 0 12 4 9 9 -3 4 -7 8 -9 8 -2 0 -6 -4
-9 -8z"/>
<path d="M3666 1373 c-6 -14 -5 -15 5 -6 7 7 10 15 7 18 -3 3 -9 -2 -12 -12z"/>
<path d="M3954 1188 c-4 -7 -4 -10 1 -6 4 4 15 2 24 -5 14 -11 14 -10 2 6 -16
20 -18 21 -27 5z"/>
<path d="M2129 1183 c-13 -16 -12 -17 4 -4 16 13 21 21 13 21 -2 0 -10 -8 -17
-17z"/>
<path d="M2135 1151 c-3 -5 -2 -12 3 -15 5 -3 9 1 9 9 0 17 -3 19 -12 6z"/>
<path d="M2656 818 c3 -5 10 -6 15 -3 13 9 11 12 -6 12 -8 0 -12 -4 -9 -9z"/>
<path d="M3249 5173 c-13 -16 -12 -17 4 -4 16 13 21 21 13 21 -2 0 -10 -8 -17
-17z"/>
<path d="M3400 5016 c0 -2 8 -10 18 -17 15 -13 16 -12 3 4 -13 16 -21 21 -21
13z"/>
<path d="M3476 4947 c3 -10 9 -15 12 -12 3 3 0 11 -7 18 -10 9 -11 8 -5 -6z"/>
<path d="M1203 4365 c0 -8 4 -12 9 -9 5 3 6 10 3 15 -9 13 -12 11 -12 -6z"/>
<path d="M4375 4059 c-4 -6 -5 -12 -2 -15 2 -3 7 2 10 11 7 17 1 20 -8 4z"/>
<path d="M1443 3735 c0 -8 4 -12 9 -9 5 3 6 10 3 15 -9 13 -12 11 -12 -6z"/>
<path d="M1280 3306 c0 -2 8 -10 18 -17 15 -13 16 -12 3 4 -13 16 -21 21 -21
13z"/>
<path d="M2169 1633 c-13 -16 -12 -17 4 -4 9 7 17 15 17 17 0 8 -8 3 -21 -13z"/>
<path d="M5120 1610 c-9 -6 -10 -10 -3 -10 6 0 15 5 18 10 8 12 4 12 -15 0z"/>
<path d="M5656 1458 c3 -5 10 -6 15 -3 13 9 11 12 -6 12 -8 0 -12 -4 -9 -9z"/>
<path d="M5804 1334 c-18 -15 -18 -15 2 -5 12 6 25 7 29 3 5 -4 5 -1 1 6 -9
15 -8 15 -32 -4z"/>
<path d="M5265 1171 c-3 -5 -2 -12 3 -15 5 -3 9 1 9 9 0 17 -3 19 -12 6z"/>
<path d="M5230 1156 c0 -2 8 -10 18 -17 15 -13 16 -12 3 4 -13 16 -21 21 -21
13z"/>
<path d="M2030 1070 c-9 -6 -10 -10 -3 -10 6 0 15 5 18 10 8 12 4 12 -15 0z"/>
<path d="M5846 968 c3 -5 10 -6 15 -3 13 9 11 12 -6 12 -8 0 -12 -4 -9 -9z"/>
<path d="M3784 939 c-23 -28 -242 -586 -323 -822 -34 -98 -38 -118 -24 -115 9
2 23 22 31 48 22 69 171 462 257 678 70 177 90 250 59 211z"/>
<path d="M4534 809 c-15 -25 -63 -474 -71 -666 -5 -128 -4 -143 11 -143 13 0
16 13 16 83 0 67 21 295 45 502 10 82 18 235 12 235 -3 0 -9 -5 -13 -11z"/>
<path d="M1627 763 c-15 -56 -21 -84 -41 -213 -26 -170 -43 -308 -51 -430 -4
-47 -9 -93 -11 -102 -4 -13 0 -18 13 -18 17 0 21 20 41 218 12 119 24 231 27
247 2 17 13 91 25 165 11 74 20 138 20 143 0 15 -19 6 -23 -10z"/>
<path d="M1425 679 c-4 -6 -5 -12 -2 -15 2 -3 7 2 10 11 7 17 1 20 -8 4z"/>
<path d="M5206 582 c-3 -5 -32 -112 -65 -238 -99 -380 -92 -344 -72 -344 15 0
29 46 85 272 37 150 69 281 71 290 3 19 -10 34 -19 20z"/>
<path d="M1420 303 c0 -137 20 -303 37 -303 11 0 13 11 9 53 -3 28 -8 93 -11
142 -9 146 -16 195 -26 195 -5 0 -9 -39 -9 -87z"/>
<path d="M3556 172 c-3 -5 1 -9 9 -9 8 0 12 4 9 9 -3 4 -7 8 -9 8 -2 0 -6 -4
-9 -8z"/>
<path d="M5844 114 c14 -98 18 -114 32 -114 17 0 17 28 0 99 -16 73 -41 84
-32 15z"/>
<path d="M4217 64 c-4 -4 -7 -20 -7 -36 0 -21 5 -28 20 -28 17 0 19 4 14 28
-8 32 -18 45 -27 36z"/>
</g>
</svg>
