<?xml version="1.0" standalone="no"?>
<!DOCTYPE svg PUBLIC "-//W3C//DTD SVG 20010904//EN"
 "http://www.w3.org/TR/2001/REC-SVG-20010904/DTD/svg10.dtd">
<svg version="1.0" xmlns="http://www.w3.org/2000/svg"
 width="2400.000000pt" height="2400.000000pt" viewBox="0 0 2400.000000 2400.000000"
 preserveAspectRatio="xMidYMid meet">
<g transform="translate(0.000000,2400.000000) scale(0.100000,-0.100000)"
fill="#000000" stroke="none">
<path d="M12480 23045 c-17 -10 -59 -14 -130 -15 -111 0 -130 -7 -130 -45 0
-30 19 -45 55 -45 17 0 39 -6 50 -13 11 -7 56 -26 100 -41 102 -35 242 -104
249 -122 3 -8 12 -14 20 -14 29 0 247 -127 299 -175 10 -8 29 -20 43 -25 34
-13 28 -44 -9 -48 -16 -2 -36 3 -46 12 -10 9 -33 19 -52 22 -19 4 -50 14 -69
24 -19 9 -55 22 -80 30 -25 7 -59 19 -77 26 -17 8 -40 14 -51 14 -12 0 -23 4
-26 9 -3 5 -22 12 -41 15 -19 3 -52 9 -72 12 -21 4 -47 12 -58 19 -11 7 -52
15 -91 19 -39 3 -92 15 -118 27 -34 15 -58 19 -85 14 -29 -5 -43 -1 -64 15
-19 15 -35 20 -52 16 -13 -3 -50 1 -81 9 -63 16 -260 21 -282 6 -22 -13 -10
-46 18 -49 13 -2 35 -13 49 -23 13 -10 30 -19 37 -19 7 0 19 -6 26 -13 26 -25
129 -88 160 -99 18 -6 47 -23 63 -38 17 -15 43 -34 58 -41 40 -19 68 -66 47
-79 -19 -12 -99 -1 -125 16 -12 9 -48 14 -95 14 -49 0 -83 5 -96 14 -22 15
-97 24 -274 32 -88 4 -118 9 -127 20 -15 21 -207 32 -229 13 -23 -19 -20 -181
5 -203 10 -9 21 -34 25 -56 3 -21 13 -43 22 -48 9 -5 14 -18 12 -28 -5 -26
-172 -26 -232 -1 -50 22 -199 23 -249 2 -28 -11 -78 -15 -212 -15 -136 0 -184
-4 -213 -15 -26 -11 -65 -15 -132 -14 -62 2 -104 -2 -119 -10 -16 -9 -42 -11
-81 -7 -48 6 -59 4 -74 -12 -13 -15 -37 -21 -113 -26 -57 -5 -105 -13 -117
-22 -11 -8 -40 -14 -64 -14 -24 0 -53 -5 -65 -12 -12 -7 -33 -13 -47 -15 -112
-11 -151 -20 -163 -37 -9 -12 -20 -17 -31 -13 -23 9 -104 -10 -123 -28 -8 -8
-27 -15 -41 -15 -15 0 -37 -7 -49 -15 -11 -8 -47 -18 -79 -21 -33 -4 -66 -12
-74 -19 -8 -7 -31 -15 -51 -19 -20 -3 -44 -15 -54 -26 -11 -12 -31 -20 -49
-20 -17 0 -46 -9 -64 -20 -18 -11 -41 -20 -52 -20 -18 0 -43 -10 -155 -60 -22
-10 -85 -37 -140 -60 -55 -23 -105 -48 -110 -55 -6 -7 -26 -20 -45 -29 -19 -8
-42 -19 -50 -24 -8 -5 -37 -19 -65 -31 -27 -13 -61 -29 -75 -36 -14 -7 -54
-28 -90 -46 -36 -18 -68 -37 -72 -43 -22 -32 9 -66 61 -66 22 0 44 -6 51 -15
7 -9 29 -15 55 -15 58 0 79 -24 45 -51 -30 -23 -83 -39 -130 -39 -19 0 -43 -7
-53 -15 -11 -7 -38 -17 -60 -20 -23 -4 -53 -13 -67 -20 -28 -14 -100 -27 -142
-26 -14 0 -32 -6 -38 -14 -7 -8 -23 -15 -36 -15 -13 0 -41 -9 -61 -20 -21 -11
-46 -20 -55 -20 -10 0 -34 -9 -55 -19 -21 -11 -68 -22 -106 -26 -37 -4 -74
-13 -81 -21 -8 -8 -28 -14 -44 -14 -31 0 -76 -13 -129 -36 -17 -8 -38 -14 -47
-14 -9 0 -27 -6 -39 -14 -12 -8 -50 -17 -85 -21 -34 -4 -64 -11 -67 -15 -3 -4
-41 -11 -84 -15 -92 -8 -104 -20 -63 -64 24 -25 36 -29 111 -35 46 -4 93 -12
105 -18 18 -11 84 -23 166 -31 14 -2 35 -8 47 -15 12 -7 44 -12 70 -12 27 0
54 -5 60 -11 6 -6 31 -13 54 -15 107 -9 155 -17 168 -28 8 -6 46 -16 85 -23
39 -6 91 -16 116 -23 85 -22 130 -30 165 -30 35 0 61 -25 47 -47 -8 -12 -74
-24 -150 -28 -30 -1 -59 -8 -65 -14 -6 -6 -29 -11 -52 -11 -22 0 -72 -8 -110
-19 -39 -10 -94 -21 -124 -24 -29 -4 -58 -10 -65 -15 -13 -11 -59 -21 -146
-30 -36 -4 -74 -13 -85 -19 -11 -6 -58 -14 -105 -18 -46 -4 -93 -13 -104 -21
-11 -8 -33 -14 -48 -14 -27 0 -94 -13 -153 -30 -16 -5 -54 -11 -82 -14 -29 -3
-63 -11 -75 -18 -13 -6 -43 -13 -68 -15 -76 -4 -134 -15 -155 -29 -11 -8 -35
-14 -55 -14 -19 0 -68 -9 -108 -20 -39 -11 -86 -20 -104 -20 -18 0 -46 -7 -62
-15 -16 -9 -50 -15 -75 -15 -89 1 -176 -12 -184 -26 -4 -8 -18 -14 -30 -14
-62 -1 -63 -50 -2 -62 38 -8 70 -21 140 -55 50 -26 159 -63 181 -63 12 0 27
-6 33 -14 7 -8 26 -18 43 -21 17 -4 54 -18 82 -31 28 -13 62 -24 77 -24 14 0
30 -5 36 -11 6 -6 29 -15 50 -20 21 -4 56 -13 78 -19 22 -7 57 -14 78 -17 21
-3 41 -11 44 -19 5 -14 107 -39 122 -30 4 3 19 -3 31 -14 17 -15 37 -20 74
-19 28 0 78 -7 111 -17 33 -9 85 -19 115 -21 30 -3 62 -11 70 -19 9 -7 36 -13
60 -13 241 0 320 -41 199 -103 -30 -15 -72 -43 -93 -63 -22 -19 -46 -35 -53
-35 -7 0 -21 -9 -30 -20 -10 -11 -21 -20 -26 -20 -7 0 -34 -20 -139 -100 -14
-11 -31 -20 -36 -20 -5 0 -16 -7 -23 -17 -15 -18 -98 -74 -162 -110 -22 -13
-61 -43 -88 -68 -26 -25 -54 -45 -60 -45 -16 0 -140 -79 -159 -101 -8 -10 -37
-29 -65 -44 -27 -14 -56 -32 -65 -39 -8 -8 -25 -17 -37 -20 -13 -4 -23 -11
-23 -16 0 -5 -24 -22 -54 -39 -29 -17 -59 -38 -66 -46 -7 -8 -21 -15 -31 -15
-9 0 -24 -6 -31 -13 -26 -25 -124 -88 -165 -106 -11 -5 -24 -15 -28 -21 -3 -5
-22 -17 -41 -25 -19 -8 -34 -18 -34 -23 0 -5 -28 -22 -62 -37 -34 -15 -83 -43
-109 -61 -25 -19 -54 -34 -62 -34 -9 0 -24 -9 -34 -19 -10 -11 -40 -31 -68
-45 -27 -15 -56 -33 -65 -40 -8 -8 -44 -28 -80 -45 -36 -18 -83 -45 -105 -61
-22 -16 -45 -29 -52 -30 -15 0 -101 -46 -123 -64 -8 -7 -27 -20 -42 -27 -157
-80 -220 -115 -234 -130 -10 -11 -21 -19 -26 -19 -8 0 -107 -46 -148 -69 -54
-29 -171 -87 -215 -106 -131 -56 -165 -79 -165 -111 0 -36 16 -44 87 -44 26 0
48 -6 59 -17 9 -10 31 -18 48 -20 85 -5 153 -17 171 -29 11 -8 34 -14 52 -14
18 0 50 -9 70 -20 24 -13 57 -20 89 -20 32 0 56 -5 63 -14 12 -14 51 -21 191
-32 41 -3 81 -11 89 -18 8 -6 50 -14 95 -18 45 -4 126 -12 181 -18 55 -6 157
-13 227 -16 92 -4 130 -9 139 -20 13 -16 268 -18 514 -5 178 10 194 -6 99 -96
-31 -30 -68 -71 -83 -92 -14 -22 -49 -60 -78 -85 -29 -26 -55 -56 -58 -67 -4
-11 -32 -46 -64 -77 -31 -31 -69 -75 -84 -97 -14 -22 -51 -65 -82 -95 -30 -30
-55 -59 -55 -65 0 -6 -25 -35 -55 -65 -31 -30 -68 -73 -82 -95 -15 -22 -62
-74 -105 -116 -43 -42 -78 -82 -78 -89 0 -6 -27 -40 -60 -74 -33 -35 -60 -67
-60 -73 0 -5 -26 -36 -58 -69 -32 -32 -70 -77 -84 -99 -15 -22 -50 -62 -78
-90 -29 -27 -58 -61 -65 -75 -7 -14 -43 -54 -79 -89 -36 -35 -66 -70 -66 -77
0 -8 -22 -36 -50 -64 -27 -27 -61 -67 -75 -87 -13 -21 -47 -56 -74 -77 -27
-22 -53 -51 -56 -65 -3 -13 -14 -30 -22 -36 -58 -43 99 -67 162 -25 21 14 47
20 86 20 39 0 61 5 70 16 9 11 22 14 42 10 16 -3 44 1 65 9 20 9 42 13 50 10
7 -3 35 4 60 15 26 11 54 19 62 18 30 -3 100 15 111 28 6 8 25 14 41 14 16 0
46 9 68 20 22 11 50 20 63 20 14 0 30 6 36 14 6 7 29 16 50 20 21 3 50 15 64
26 14 11 38 20 55 20 16 0 40 8 53 19 13 10 56 33 94 51 39 18 93 47 120 65
28 18 73 45 100 60 28 14 76 46 107 71 51 40 58 43 72 28 21 -21 20 -26 -8
-54 -14 -12 -28 -35 -31 -51 -4 -16 -11 -31 -16 -35 -5 -3 -16 -21 -24 -41 -8
-19 -28 -51 -43 -71 -16 -21 -43 -66 -61 -102 -18 -36 -40 -78 -48 -95 -9 -16
-19 -35 -22 -41 -3 -7 -21 -33 -38 -58 -18 -26 -33 -50 -33 -53 0 -13 -55
-119 -67 -128 -14 -12 -93 -164 -93 -181 0 -7 -6 -14 -14 -17 -7 -3 -28 -36
-46 -74 -18 -37 -48 -91 -67 -119 -18 -28 -33 -56 -33 -61 0 -5 -9 -20 -20
-33 -11 -13 -20 -31 -20 -40 0 -10 -6 -23 -14 -29 -8 -7 -18 -25 -21 -41 -4
-16 -21 -48 -39 -72 -18 -24 -47 -74 -65 -113 -19 -38 -49 -87 -67 -107 -18
-21 -36 -50 -40 -65 -4 -16 -13 -36 -22 -45 -36 -42 23 -65 76 -30 48 31 66
42 102 58 19 9 42 22 50 29 8 7 47 25 85 39 39 15 84 34 102 42 17 8 35 14 40
14 5 0 16 9 26 20 9 11 29 20 46 20 15 0 39 9 52 19 14 10 47 26 74 34 28 8
91 35 140 60 50 25 122 58 160 73 39 14 79 33 90 40 11 8 27 14 36 14 9 0 24
9 34 20 10 11 34 23 54 26 30 6 80 28 141 63 8 5 42 21 75 36 33 15 68 31 78
36 46 24 126 49 141 43 21 -8 20 0 22 -219 2 -260 13 -416 29 -435 8 -9 15
-49 18 -95 3 -44 10 -100 15 -125 6 -25 16 -67 21 -94 6 -27 15 -54 20 -60 5
-6 12 -38 16 -71 4 -33 13 -70 21 -82 7 -12 18 -45 23 -75 11 -62 46 -163 67
-192 8 -11 14 -33 14 -48 0 -14 7 -33 15 -41 7 -8 17 -28 20 -43 15 -64 59
-184 71 -195 8 -6 14 -20 14 -31 0 -35 19 -58 49 -58 29 0 54 39 76 120 6 25
78 182 96 210 5 8 14 26 21 40 27 59 62 129 93 185 18 33 34 71 35 85 1 25 28
75 83 158 15 24 30 57 34 75 3 18 14 48 25 67 10 19 18 38 18 43 0 5 13 28 30
52 16 24 34 55 40 69 23 62 58 12 46 -68 -4 -25 -2 -55 5 -72 6 -16 13 -65 15
-109 10 -210 20 -331 29 -345 11 -17 24 -116 31 -245 3 -53 10 -93 17 -97 14
-9 28 -141 26 -255 0 -60 4 -88 16 -107 9 -14 16 -42 15 -63 -3 -67 0 -83 15
-90 18 -6 76 54 101 105 8 17 39 56 67 85 29 28 66 72 82 97 17 25 47 63 68
84 20 22 37 44 37 48 0 4 8 8 18 8 21 0 47 -48 57 -104 4 -20 16 -53 26 -73
11 -21 19 -47 19 -59 0 -12 7 -27 15 -34 9 -7 15 -29 15 -54 0 -24 8 -53 20
-71 11 -16 20 -38 20 -48 0 -9 9 -34 20 -54 11 -21 20 -44 20 -52 0 -7 9 -28
19 -45 10 -17 22 -45 26 -63 3 -17 22 -62 41 -100 18 -37 34 -75 34 -83 0 -8
8 -29 18 -45 11 -17 22 -47 26 -67 3 -20 13 -41 21 -48 8 -7 15 -18 15 -24 0
-17 98 -214 110 -221 6 -3 10 -19 10 -34 0 -16 7 -34 15 -41 8 -7 31 -45 50
-86 19 -40 40 -76 45 -79 6 -3 10 -19 10 -35 0 -19 7 -33 20 -40 11 -6 20 -19
20 -30 0 -11 8 -27 18 -37 26 -25 58 -82 66 -117 6 -26 38 -78 62 -101 5 -5
21 -35 34 -65 24 -53 74 -133 110 -175 9 -11 23 -36 30 -55 20 -50 50 -100 61
-100 5 0 14 -11 19 -24 5 -14 25 -48 45 -75 19 -28 35 -55 35 -60 0 -5 17 -27
38 -49 21 -21 47 -59 57 -83 11 -24 31 -56 45 -71 14 -15 43 -52 65 -83 22
-31 55 -73 73 -93 18 -20 39 -52 47 -70 8 -17 18 -32 23 -32 6 0 13 -11 16
-24 3 -13 31 -46 61 -72 30 -27 55 -56 55 -64 0 -9 27 -42 60 -75 33 -33 60
-66 60 -73 0 -19 194 -212 213 -212 8 0 30 -17 49 -37 18 -21 45 -44 58 -51
46 -24 70 -39 88 -55 10 -10 24 -17 32 -17 7 0 28 -9 47 -21 18 -12 49 -22 68
-24 19 -2 40 -7 47 -12 7 -4 51 -15 98 -23 92 -16 114 -40 60 -67 -14 -7 -42
-27 -63 -44 -38 -33 -60 -47 -107 -71 -14 -7 -36 -23 -50 -36 -22 -22 -68 -55
-119 -87 -9 -5 -35 -27 -58 -48 -24 -20 -46 -37 -51 -37 -4 0 -27 -18 -50 -40
-22 -22 -45 -40 -50 -40 -12 0 -125 -89 -135 -106 -4 -8 -16 -14 -26 -14 -10
0 -36 -17 -58 -37 -42 -40 -119 -99 -188 -145 -22 -15 -67 -48 -100 -73 -33
-25 -76 -56 -95 -69 -19 -13 -46 -35 -59 -50 -14 -14 -30 -26 -38 -26 -7 0
-21 -9 -30 -20 -10 -11 -23 -20 -31 -20 -7 0 -34 -20 -60 -44 -53 -48 -147
-116 -162 -116 -5 0 -14 -9 -20 -21 -6 -11 -20 -23 -31 -27 -23 -9 -92 -60
-154 -115 -23 -20 -46 -37 -50 -37 -14 0 -109 -67 -134 -94 -14 -14 -31 -26
-39 -26 -8 0 -24 -9 -36 -20 -35 -35 -173 -140 -183 -140 -5 0 -55 -36 -112
-80 -56 -44 -107 -80 -112 -80 -5 0 -19 -10 -31 -23 -34 -34 -120 -97 -133
-97 -6 0 -22 -12 -36 -26 -28 -30 -121 -94 -137 -94 -6 0 -26 -18 -45 -40 -19
-22 -37 -40 -42 -40 -14 0 -145 -90 -145 -100 0 -5 -8 -11 -18 -14 -10 -4 -36
-22 -58 -42 -21 -19 -54 -41 -72 -49 -18 -8 -35 -21 -38 -30 -4 -9 -24 -25
-45 -36 -22 -11 -39 -24 -39 -29 0 -5 -12 -13 -27 -16 -15 -4 -44 -24 -63 -44
-19 -20 -57 -49 -84 -65 -26 -15 -62 -41 -80 -57 -17 -16 -54 -42 -82 -58 -27
-16 -66 -44 -85 -63 -19 -18 -68 -56 -109 -84 -41 -28 -88 -65 -104 -82 -17
-17 -35 -31 -42 -31 -7 0 -31 -18 -53 -39 -22 -22 -55 -48 -73 -60 -36 -22
-264 -249 -282 -280 -23 -40 -87 -130 -101 -141 -8 -7 -15 -25 -15 -40 0 -15
-9 -37 -20 -50 -11 -13 -20 -28 -20 -33 0 -6 -7 -19 -16 -28 -9 -10 -20 -35
-25 -56 -4 -21 -14 -56 -23 -78 -22 -58 -23 -421 -1 -452 8 -12 18 -43 22 -70
3 -26 17 -68 30 -92 12 -24 23 -50 23 -58 0 -13 17 -50 42 -93 4 -8 15 -30 24
-48 8 -18 29 -55 47 -81 47 -69 56 -83 69 -111 7 -14 28 -40 48 -59 19 -19 40
-45 45 -58 13 -31 163 -182 217 -219 24 -16 60 -46 81 -66 21 -21 42 -38 48
-38 5 0 28 -17 52 -38 47 -42 68 -56 113 -77 17 -7 36 -21 44 -29 7 -9 17 -16
23 -16 5 0 28 -18 49 -40 22 -22 46 -40 53 -40 17 0 103 -45 125 -65 9 -8 22
-15 28 -15 6 0 19 -9 29 -19 10 -10 50 -36 88 -56 39 -21 84 -47 100 -60 17
-12 41 -26 55 -30 30 -10 96 -50 105 -65 3 -5 15 -10 26 -10 10 0 24 -9 31
-21 14 -22 77 -59 102 -59 8 0 19 -6 23 -13 4 -7 43 -36 86 -65 43 -28 85 -58
93 -67 9 -8 21 -15 27 -15 7 -1 27 -14 45 -29 49 -42 42 -73 -17 -83 -24 -4
-51 -14 -61 -23 -9 -8 -23 -15 -32 -15 -8 0 -27 -9 -41 -20 -14 -11 -30 -20
-36 -20 -17 0 -139 -58 -145 -69 -4 -5 -20 -13 -37 -16 -48 -11 -116 -43 -122
-59 -3 -7 -18 -17 -34 -20 -15 -4 -35 -13 -43 -20 -8 -6 -42 -23 -75 -35 -33
-13 -69 -32 -80 -41 -11 -10 -65 -39 -120 -66 -55 -26 -119 -61 -143 -77 -23
-16 -68 -42 -100 -59 -31 -17 -64 -37 -73 -44 -8 -8 -21 -14 -27 -14 -7 0 -17
-9 -24 -20 -7 -11 -18 -20 -24 -20 -21 0 -120 -55 -149 -83 -17 -16 -45 -35
-62 -43 -18 -8 -33 -18 -33 -22 0 -4 -24 -20 -53 -36 -28 -16 -60 -36 -69 -45
-45 -41 -56 -49 -98 -70 -25 -13 -63 -40 -85 -60 -22 -21 -58 -51 -80 -67 -22
-16 -62 -51 -90 -77 -27 -27 -62 -55 -77 -63 -14 -7 -35 -24 -45 -36 -10 -13
-63 -66 -118 -118 -55 -52 -109 -109 -121 -128 -12 -18 -46 -58 -78 -89 -31
-30 -56 -61 -56 -67 0 -7 -14 -25 -31 -42 -33 -32 -89 -109 -89 -124 0 -5 -16
-24 -35 -41 -31 -29 -95 -140 -95 -166 0 -6 -7 -13 -15 -17 -8 -3 -20 -16 -25
-28 -6 -13 -14 -30 -19 -38 -5 -8 -18 -35 -29 -60 -24 -58 -40 -91 -50 -110
-37 -66 -62 -121 -62 -140 0 -12 -7 -28 -15 -36 -8 -9 -15 -29 -15 -45 0 -16
-4 -37 -9 -47 -22 -41 -71 -214 -71 -251 0 -22 -7 -46 -15 -55 -11 -10 -15
-37 -15 -94 0 -49 -6 -94 -15 -116 -11 -26 -14 -52 -9 -86 6 -48 8 -50 39 -50
88 0 185 130 185 249 0 26 4 51 9 56 6 6 12 60 15 120 10 218 23 335 40 354 9
10 16 33 16 52 0 19 9 45 20 59 11 14 20 36 20 48 0 13 9 35 20 49 11 14 20
35 20 46 0 12 10 37 23 56 12 20 27 43 32 52 11 17 66 98 116 169 38 54 289
310 305 310 6 0 26 14 45 30 111 98 147 127 172 138 15 6 27 15 27 20 0 4 16
16 35 26 19 11 42 30 50 42 9 13 24 24 34 24 10 0 24 7 32 16 7 8 29 24 48 35
20 10 63 39 96 63 33 25 64 45 69 45 5 1 34 18 64 38 30 21 62 43 71 48 9 6
32 22 51 36 19 15 51 34 72 42 20 8 50 28 67 43 17 15 39 32 50 38 83 46 129
77 145 95 11 11 27 21 36 21 9 0 42 18 74 40 31 22 61 40 66 40 5 0 14 9 20
20 6 11 18 20 27 20 9 0 26 8 37 19 12 10 41 29 66 42 25 13 57 33 72 44 14
11 37 28 49 38 13 9 28 17 33 17 11 0 64 35 134 88 24 17 49 32 56 32 7 0 21
9 31 20 10 11 23 20 29 20 6 0 33 15 60 33 68 45 117 75 141 86 12 5 27 16 34
25 7 9 19 16 26 16 7 0 24 11 39 25 15 14 35 25 45 25 10 0 24 7 31 15 21 26
304 22 337 -5 14 -11 35 -20 46 -20 21 0 67 -28 139 -82 20 -16 52 -34 70 -40
18 -6 49 -28 68 -48 20 -20 53 -48 75 -62 22 -14 83 -71 135 -127 52 -56 138
-146 192 -200 53 -55 99 -108 102 -119 4 -11 33 -46 66 -78 33 -32 60 -62 60
-66 0 -4 39 -48 88 -98 48 -50 92 -102 97 -115 6 -14 21 -34 33 -45 12 -12 22
-25 22 -31 0 -5 25 -35 55 -65 30 -31 55 -62 55 -69 0 -6 9 -20 20 -30 11 -10
22 -27 26 -39 6 -18 23 -41 98 -126 8 -8 16 -24 20 -36 3 -11 23 -38 44 -60
44 -45 90 -106 112 -145 8 -15 29 -48 47 -72 17 -25 34 -55 38 -66 3 -12 11
-21 16 -21 5 0 17 -15 26 -34 10 -18 39 -64 64 -102 87 -132 129 -200 129
-213 0 -6 8 -24 18 -39 31 -47 42 -66 57 -99 9 -18 20 -33 25 -33 5 0 12 -11
16 -25 3 -13 12 -29 20 -36 8 -6 14 -17 14 -25 0 -16 14 -48 45 -99 13 -22 31
-54 39 -71 7 -17 19 -35 25 -38 6 -4 11 -17 11 -30 0 -12 11 -37 25 -56 14
-19 25 -44 25 -56 0 -12 6 -27 14 -33 8 -7 18 -26 21 -42 4 -17 13 -33 20 -35
7 -3 15 -18 19 -35 3 -16 12 -29 20 -29 9 0 16 -16 20 -45 7 -43 9 -45 41 -45
18 0 35 5 37 11 8 24 -17 99 -34 105 -11 3 -18 15 -18 31 0 14 -17 51 -37 81
-55 79 -83 138 -83 172 0 10 -8 25 -18 32 -11 7 -22 31 -26 53 -4 22 -12 45
-18 52 -20 25 -47 86 -59 136 -7 29 -21 61 -31 73 -10 11 -18 33 -18 50 0 16
-9 43 -20 59 -11 17 -20 41 -20 55 0 15 -5 31 -12 38 -13 13 -37 94 -38 128 0
12 -7 27 -15 34 -9 8 -15 30 -15 57 0 24 -6 56 -14 71 -7 15 -19 52 -25 82 -7
30 -17 69 -23 85 -12 36 -17 67 -24 159 -3 38 -12 79 -19 90 -9 14 -16 79 -20
191 -5 112 -12 179 -21 197 -9 18 -14 62 -14 127 0 55 -4 102 -9 105 -10 6 -6
1021 4 1241 4 86 11 135 19 145 10 11 16 73 21 220 6 170 10 208 23 224 16 17
32 149 32 257 -1 19 6 49 15 65 8 16 15 55 15 87 0 33 6 67 14 80 9 13 17 63
21 122 4 55 13 109 20 120 7 11 15 49 18 85 9 92 21 163 32 180 9 14 21 83 29
155 1 17 7 39 13 50 23 45 36 94 46 175 5 48 16 92 24 102 9 10 19 34 24 55 9
46 37 131 50 155 5 10 9 27 9 37 0 11 5 23 10 26 6 3 10 20 10 37 0 16 9 41
20 55 11 14 20 33 20 43 0 20 57 137 71 145 5 4 9 21 9 40 0 18 6 40 13 47 7
7 28 43 46 80 18 37 37 71 42 74 6 3 15 16 20 27 43 92 159 271 192 296 10 7
27 27 38 45 24 41 299 316 315 316 7 0 17 6 21 13 4 8 28 27 53 42 25 16 50
34 55 39 21 23 92 66 107 66 9 0 20 5 23 10 10 15 76 56 105 64 14 4 58 23 97
42 40 19 87 37 105 41 18 3 44 11 58 18 34 17 156 38 180 32 11 -3 30 3 44 14
20 16 41 19 128 19 103 0 104 0 131 -31 15 -17 27 -38 27 -46 0 -8 14 -31 30
-52 17 -21 35 -55 41 -77 10 -40 27 -81 60 -146 11 -20 19 -47 19 -58 0 -12 6
-36 14 -53 15 -33 21 -75 32 -204 4 -43 12 -77 20 -84 19 -16 20 -309 2 -328
-7 -6 -14 -40 -15 -74 -3 -126 -15 -232 -28 -247 -7 -8 -15 -36 -18 -62 -4
-26 -16 -64 -27 -85 -11 -21 -20 -47 -20 -59 0 -12 -6 -27 -14 -33 -14 -12
-30 -81 -27 -117 1 -11 -5 -26 -13 -33 -8 -7 -20 -29 -27 -49 -6 -20 -24 -65
-40 -99 -15 -34 -31 -74 -35 -90 -4 -15 -15 -39 -26 -52 -10 -13 -18 -34 -18
-46 0 -12 -9 -33 -19 -46 -10 -14 -25 -45 -32 -69 -7 -25 -26 -67 -41 -93 -15
-26 -31 -65 -34 -87 -4 -22 -13 -45 -20 -51 -8 -6 -14 -17 -14 -24 0 -7 -18
-48 -39 -90 -22 -43 -43 -91 -46 -107 -8 -33 -38 -108 -61 -150 -7 -14 -14
-32 -14 -40 0 -7 -9 -30 -20 -51 -11 -20 -20 -53 -20 -73 0 -20 -9 -51 -19
-68 -10 -17 -22 -47 -26 -66 -4 -19 -13 -44 -20 -55 -7 -11 -16 -36 -20 -55
-4 -19 -14 -44 -21 -55 -8 -11 -14 -35 -14 -55 0 -19 -6 -47 -14 -62 -8 -14
-17 -55 -21 -90 -4 -34 -13 -72 -20 -84 -7 -11 -19 -56 -25 -100 -7 -43 -19
-88 -27 -99 -7 -11 -13 -38 -13 -60 0 -22 -7 -50 -15 -62 -8 -11 -14 -33 -14
-49 1 -59 -14 -180 -24 -199 -14 -25 -29 -140 -31 -225 -1 -43 -7 -73 -18 -89
-12 -18 -15 -36 -11 -72 4 -31 0 -61 -9 -86 -11 -27 -14 -60 -11 -115 4 -55 1
-89 -11 -124 -12 -36 -16 -86 -16 -211 0 -118 -4 -172 -13 -191 -11 -21 -14
-133 -15 -547 -1 -286 -5 -736 -8 -999 -7 -453 -6 -480 11 -492 11 -8 19 -28
20 -55 3 -42 18 -61 41 -52 16 6 25 50 24 123 -2 138 7 287 18 307 8 14 12 76
12 181 0 89 5 173 11 190 12 36 19 290 22 782 1 184 6 341 10 348 7 10 18 4
47 -25 72 -72 130 -123 139 -123 5 0 27 -15 50 -33 80 -63 97 -74 206 -127 61
-30 116 -60 123 -67 7 -7 31 -16 53 -19 21 -4 44 -13 50 -20 6 -8 24 -14 39
-14 26 0 72 -12 115 -30 11 -5 34 -11 50 -15 17 -4 37 -13 45 -20 9 -8 24 -14
35 -14 45 1 131 -15 145 -26 35 -31 802 -33 838 -3 14 12 78 26 154 35 26 3
52 11 59 19 6 8 23 14 38 14 15 0 44 9 66 20 22 11 49 20 60 20 11 0 30 7 42
15 11 8 40 17 64 21 24 3 56 15 71 25 15 10 34 19 41 19 8 0 25 8 38 18 13 10
65 37 114 62 50 24 103 54 118 67 16 13 33 23 39 23 5 0 28 15 51 33 23 18 52
37 64 43 58 25 375 335 419 409 15 26 38 51 52 56 31 12 49 -2 27 -21 -12 -10
-15 -35 -15 -117 0 -65 -5 -113 -12 -126 -12 -21 -21 -104 -34 -332 -4 -67
-10 -104 -19 -111 -14 -11 -19 -79 -30 -462 -3 -126 -9 -180 -20 -202 -12 -23
-15 -70 -15 -217 -1 -144 -4 -194 -15 -213 -9 -16 -15 -57 -15 -120 -1 -52 -5
-156 -9 -230 -9 -143 -3 -184 27 -178 14 3 19 21 27 99 6 53 15 102 21 110 13
16 20 51 34 159 13 100 27 200 40 283 5 37 14 95 18 130 4 34 13 71 19 82 6
11 14 65 18 120 4 55 13 109 20 120 7 12 15 67 19 125 3 58 10 137 16 175 6
39 14 109 19 157 5 48 13 93 19 100 10 14 19 81 30 238 4 52 12 104 18 115 7
12 15 108 19 245 5 166 11 231 21 247 10 15 14 54 14 123 0 65 5 111 14 128 8
17 14 70 15 141 2 63 7 125 12 138 5 13 9 74 9 135 0 92 3 115 18 131 21 23
26 245 37 1482 4 440 11 808 16 817 5 9 9 54 9 100 0 46 5 89 10 94 11 11 18
56 27 159 3 33 10 66 16 74 16 19 36 99 30 120 -2 10 3 23 11 30 9 8 16 25 16
38 0 14 12 48 27 77 14 28 30 59 35 68 4 10 12 26 17 35 5 10 21 43 36 73 14
30 46 82 71 115 24 33 48 69 53 81 12 28 248 262 297 297 22 15 55 43 74 62
19 19 39 35 45 35 7 0 20 9 30 20 10 11 23 20 29 20 6 0 35 18 65 40 29 22 59
40 66 40 6 0 26 13 43 29 17 17 48 39 69 51 21 12 56 32 78 46 22 13 52 29 68
35 15 6 27 15 27 20 0 5 10 13 23 18 12 5 47 25 77 45 30 20 58 36 63 36 5 0
22 11 39 25 16 14 35 25 43 25 7 0 18 6 24 14 7 8 44 36 84 63 40 26 77 53 82
59 6 6 17 15 26 20 10 5 51 42 93 82 42 39 82 72 91 72 8 0 21 13 30 30 8 16
29 37 45 45 16 8 36 29 45 45 8 16 44 59 80 97 36 37 65 70 65 74 0 3 16 23
36 45 19 21 42 53 51 69 9 17 19 32 22 35 13 11 52 71 61 95 5 14 14 25 19 25
5 0 22 28 39 62 16 35 46 88 66 118 20 30 36 62 36 72 0 9 9 22 20 28 13 7 20
21 20 39 0 15 9 36 19 45 10 10 56 92 101 184 45 92 86 174 90 182 20 34 108
217 114 237 4 11 13 27 21 33 8 7 15 19 15 27 0 8 9 26 20 40 11 14 20 38 20
54 0 15 6 34 13 41 23 22 78 132 98 193 8 22 21 51 31 64 10 13 18 28 18 33 0
6 9 21 20 35 11 14 20 34 20 43 0 10 6 23 14 29 8 7 18 27 21 44 6 28 31 90
56 137 48 89 69 137 69 154 0 12 9 32 20 46 11 14 20 33 20 42 0 9 4 20 10 23
5 3 21 30 34 58 61 134 76 171 76 192 0 12 7 28 15 35 8 7 15 16 15 21 0 5 18
47 39 93 22 46 43 96 47 112 12 53 55 178 75 220 10 22 19 58 19 80 0 21 7 48
15 58 8 11 15 40 15 64 0 24 5 53 12 65 12 23 15 60 24 280 4 117 3 143 -11
163 -9 14 -13 33 -10 44 3 10 -1 35 -10 55 -8 21 -15 47 -15 59 0 29 -74 171
-116 222 -19 23 -34 51 -34 63 0 25 12 27 30 6 7 -8 18 -15 24 -15 30 0 176
-156 176 -188 0 -4 7 -20 16 -37 65 -123 76 -195 77 -470 0 -223 -11 -371 -29
-383 -6 -4 -14 -34 -18 -67 -4 -33 -18 -94 -31 -135 -13 -41 -31 -102 -40
-135 -9 -33 -30 -94 -47 -135 -16 -41 -36 -97 -43 -125 -7 -27 -20 -63 -29
-80 -9 -16 -16 -37 -16 -45 0 -15 -30 -95 -62 -166 -10 -22 -18 -47 -18 -55 0
-8 -7 -24 -15 -35 -8 -10 -15 -32 -15 -49 0 -16 -7 -41 -15 -55 -32 -58 -55
-104 -55 -115 0 -6 -11 -33 -24 -61 -13 -27 -27 -62 -31 -78 -3 -16 -15 -41
-26 -54 -10 -14 -19 -35 -19 -48 0 -23 -31 -89 -63 -135 -10 -13 -17 -35 -17
-49 0 -14 -8 -36 -17 -50 -23 -32 -103 -190 -103 -202 0 -6 -9 -21 -20 -35
-11 -14 -20 -34 -20 -43 0 -25 -51 -121 -67 -127 -7 -3 -13 -10 -13 -16 0 -15
-60 -136 -71 -142 -14 -9 -11 -61 5 -74 15 -12 116 90 116 117 0 8 18 31 40
52 22 21 40 46 40 54 0 9 8 24 18 34 9 9 23 28 30 42 27 52 41 73 73 108 31
35 47 62 83 142 9 19 34 60 56 90 21 30 39 62 39 70 1 8 11 31 23 50 44 70
118 224 118 246 0 13 4 25 9 29 14 8 71 125 71 144 0 9 9 30 20 46 11 17 20
40 20 53 0 12 6 33 14 45 8 12 17 39 20 59 4 21 13 44 22 52 8 8 18 35 23 60
5 25 13 52 19 59 12 14 34 117 33 159 0 14 6 32 14 38 8 7 15 27 15 45 0 17 6
45 14 61 8 16 19 64 25 107 5 43 15 85 23 94 7 9 16 52 20 97 5 45 13 131 20
191 6 62 12 263 12 460 l1 350 35 -1 c22 -1 52 -13 84 -35 26 -19 54 -37 62
-41 8 -5 22 -12 32 -17 9 -6 63 -34 119 -62 57 -29 103 -56 103 -61 0 -4 39
-26 88 -49 48 -23 101 -51 117 -63 17 -13 56 -35 88 -50 32 -15 67 -36 78 -47
10 -10 25 -19 33 -19 8 0 38 -18 67 -40 30 -22 60 -40 67 -40 8 0 36 -16 62
-35 26 -19 52 -35 58 -35 6 0 23 -11 39 -23 15 -13 54 -36 86 -52 31 -15 57
-31 57 -36 0 -5 11 -11 24 -15 14 -3 32 -14 42 -25 9 -10 21 -19 25 -19 4 0
29 -15 54 -32 91 -64 130 -88 144 -88 8 0 23 -9 35 -20 46 -45 118 -100 130
-100 7 0 34 -16 59 -35 25 -19 50 -35 54 -35 5 0 27 -16 49 -36 21 -20 57 -45
80 -54 23 -10 50 -29 60 -42 19 -23 51 -48 108 -81 17 -11 42 -29 56 -42 14
-13 50 -39 80 -59 80 -53 99 -67 136 -103 19 -18 40 -33 47 -33 7 0 18 -9 25
-20 7 -11 20 -20 29 -20 9 0 40 -21 69 -47 111 -101 162 -142 187 -154 15 -7
27 -15 27 -19 0 -4 25 -25 55 -45 30 -21 61 -48 69 -59 7 -12 33 -35 57 -51
24 -16 60 -45 79 -65 19 -20 54 -48 76 -63 23 -15 69 -56 103 -90 33 -34 86
-84 117 -112 31 -27 96 -88 145 -135 48 -47 101 -96 118 -110 50 -41 93 -82
148 -143 66 -73 93 -76 93 -12 0 31 -4 43 -12 40 -7 -3 -35 21 -63 52 -27 31
-94 100 -147 154 -54 55 -98 104 -98 110 0 15 -439 449 -497 492 -24 17 -88
75 -143 128 -54 52 -111 104 -127 114 -15 10 -47 36 -70 58 -23 23 -51 46 -62
51 -10 6 -43 33 -73 61 -69 64 -206 175 -216 175 -5 0 -24 16 -43 36 -18 20
-70 60 -114 90 -137 94 -180 125 -188 140 -4 8 -15 14 -23 14 -9 0 -33 18 -55
40 -22 22 -46 40 -53 40 -8 0 -19 7 -26 16 -8 8 -27 22 -44 29 -17 8 -58 35
-91 60 -33 25 -66 48 -74 52 -22 10 -145 93 -151 102 -3 4 -27 18 -54 31 -27
13 -57 31 -67 41 -16 16 -42 32 -99 61 -14 7 -36 20 -49 30 -13 10 -31 18 -39
18 -9 0 -25 9 -37 20 -11 10 -61 40 -110 65 -49 26 -96 52 -103 58 -17 14 -48
31 -87 50 -16 8 -36 21 -44 30 -7 10 -25 17 -40 17 -14 0 -52 18 -84 40 -31
22 -64 40 -71 40 -8 0 -21 7 -29 15 -8 8 -34 22 -58 31 -76 28 -106 43 -119
59 -7 8 -21 15 -31 15 -10 0 -21 5 -24 10 -7 12 -69 40 -130 60 -22 7 -51 21
-64 31 -13 11 -31 19 -40 19 -9 0 -25 6 -36 14 -11 7 -36 17 -55 21 -19 4 -42
13 -50 20 -8 7 -31 15 -51 19 -21 4 -42 13 -49 21 -7 8 -18 15 -24 15 -6 0
-33 12 -61 25 -27 14 -57 25 -66 25 -9 0 -22 7 -29 15 -7 8 -20 15 -30 15 -23
0 -162 50 -180 65 -8 7 -32 15 -53 18 -21 3 -51 12 -67 20 -16 8 -53 21 -82
28 -29 7 -60 19 -69 26 -8 7 -29 13 -45 13 -16 0 -42 9 -59 20 -16 11 -42 20
-56 20 -15 0 -32 6 -38 14 -6 7 -39 16 -73 20 -34 3 -71 12 -82 20 -12 7 -37
16 -57 20 -21 3 -42 13 -49 21 -7 8 -18 15 -25 15 -8 0 -27 11 -43 25 -17 14
-34 25 -39 25 -11 0 -181 171 -196 197 -7 11 -30 47 -51 79 -46 69 -66 114
-66 147 0 14 -9 36 -20 49 -14 18 -21 49 -26 107 -4 48 -12 85 -20 92 -18 15
-19 132 -2 162 7 12 13 45 14 72 2 64 13 115 30 140 8 11 14 27 14 36 0 32 30
30 50 -4 11 -17 20 -37 20 -44 0 -6 11 -24 24 -40 13 -15 26 -38 30 -50 4 -13
11 -23 16 -23 5 0 18 -17 29 -37 11 -21 33 -53 50 -72 17 -19 31 -37 31 -41 0
-13 268 -277 330 -325 62 -48 101 -81 141 -117 26 -25 38 -22 50 9 13 36 6 63
-40 142 -21 36 -42 77 -46 91 -4 14 -23 57 -40 95 -18 39 -36 81 -40 95 -4 14
-22 57 -39 95 -49 108 -76 178 -76 201 0 12 -9 33 -20 47 -11 14 -20 39 -20
55 0 17 -5 34 -10 37 -17 11 -69 131 -76 176 -4 24 -11 49 -15 55 -23 29 -59
108 -59 129 0 13 -7 31 -16 40 -9 9 -21 35 -26 58 -5 23 -15 49 -22 57 -7 8
-26 47 -41 85 -15 39 -33 77 -41 86 -8 8 -14 23 -14 33 0 9 -5 27 -11 38 -16
30 13 58 41 40 27 -16 101 -42 123 -42 11 0 30 -9 44 -20 14 -11 38 -20 52
-20 15 0 37 -7 49 -16 13 -9 51 -18 85 -21 34 -3 74 -12 90 -20 28 -14 49 -15
312 -15 212 0 235 2 266 18 16 8 43 14 62 14 19 0 45 8 58 18 13 10 51 31 84
47 124 61 305 208 305 249 0 7 9 21 20 31 11 10 20 22 20 27 0 6 9 21 20 35
11 14 22 41 26 62 4 20 13 48 20 63 40 78 8 131 -57 93 -24 -13 -51 -25 -60
-25 -9 0 -22 -7 -29 -15 -21 -25 -244 -21 -295 5 -22 11 -50 20 -64 20 -13 0
-32 6 -40 13 -9 7 -45 26 -81 42 -41 18 -87 50 -125 87 -33 32 -65 58 -71 58
-12 0 -84 72 -84 84 0 4 -11 21 -25 38 -14 16 -25 35 -25 43 0 7 -6 18 -14 24
-8 7 -18 25 -21 41 -3 16 -12 34 -20 40 -7 6 -16 29 -20 51 -4 21 -11 41 -16
45 -5 3 -9 52 -9 109 0 134 9 141 102 90 35 -19 77 -42 93 -50 17 -9 37 -19
45 -24 8 -5 35 -14 60 -21 25 -7 57 -18 72 -26 14 -8 41 -14 60 -14 19 0 39
-5 45 -11 5 -5 26 -10 44 -10 19 0 54 -4 79 -9 96 -19 299 -19 321 -1 20 16
20 18 5 56 -18 43 -154 178 -242 238 -77 53 -60 70 101 98 28 4 68 13 90 20
22 6 57 13 77 16 20 3 39 11 42 19 6 14 -51 74 -70 74 -11 0 -149 105 -185
141 -10 10 -24 19 -31 19 -10 0 -27 14 -166 135 -31 28 -69 56 -84 63 -16 6
-28 15 -28 20 0 5 -21 23 -47 40 -71 47 -146 103 -179 135 -16 16 -42 34 -59
42 -117 54 -96 106 40 97 47 -3 75 -1 79 7 4 6 22 11 39 11 25 0 39 8 60 35
l28 36 -29 37 c-17 20 -44 49 -61 65 -17 15 -31 33 -31 40 0 7 -27 39 -60 72
-33 33 -60 66 -60 74 0 8 -27 41 -60 73 -33 32 -60 63 -60 70 0 7 -24 37 -54
66 -30 28 -58 62 -61 73 -4 12 -43 56 -86 98 -43 43 -79 82 -79 87 0 6 -43 52
-96 103 -79 78 -134 150 -134 176 0 13 160 4 196 -11 30 -12 56 -14 118 -9 45
3 118 8 164 9 46 2 88 8 94 14 7 7 44 12 89 12 54 0 80 4 88 14 7 8 31 17 54
21 23 4 60 15 82 25 81 38 138 60 154 60 9 0 30 9 46 20 17 11 37 20 46 20 9
0 39 18 67 40 27 22 58 40 69 40 17 0 79 38 92 58 3 4 26 20 51 34 56 33 104
84 97 102 -4 10 -39 16 -134 21 -75 4 -141 12 -160 21 -17 8 -45 14 -62 14
-17 0 -64 9 -103 20 -40 11 -87 20 -104 20 -17 0 -37 6 -43 14 -7 8 -40 17
-74 21 -34 4 -80 15 -102 24 -23 10 -59 21 -80 25 -22 4 -44 11 -50 16 -20 16
-139 60 -163 60 -13 0 -35 9 -49 20 -14 11 -34 20 -45 20 -10 0 -53 18 -94 40
-42 22 -88 40 -103 40 -15 0 -36 9 -46 20 -10 11 -26 20 -35 20 -10 0 -23 6
-29 14 -7 8 -24 17 -39 21 -15 4 -34 12 -42 19 -8 8 -44 26 -80 42 -36 15 -76
35 -90 44 -14 9 -34 21 -45 28 -126 77 -144 104 -75 110 19 2 42 9 50 16 8 8
42 16 75 20 32 4 66 12 75 19 18 14 70 39 120 58 35 13 84 42 108 66 7 7 18
13 23 13 25 0 269 218 269 241 0 5 20 29 45 53 25 25 45 49 45 54 0 5 8 20 18
33 51 65 27 143 -28 94 -53 -48 -721 -55 -830 -8 -14 6 -50 16 -80 23 -30 7
-65 18 -77 26 -12 8 -41 14 -63 14 -23 0 -60 8 -83 19 -23 10 -73 31 -112 46
-162 63 -441 221 -505 285 -11 11 -24 20 -29 20 -4 0 -41 33 -82 74 -41 40
-84 76 -96 80 -12 4 -25 17 -29 29 -4 12 -58 73 -120 135 -63 62 -114 117
-114 122 0 6 -20 31 -45 57 -25 25 -45 51 -45 57 0 7 -18 29 -39 50 -22 21
-42 48 -45 60 -3 12 -28 43 -56 70 -27 26 -50 52 -50 58 0 5 -20 29 -45 54
-25 24 -45 50 -45 58 0 8 -35 49 -78 93 -43 43 -87 93 -98 111 -10 17 -26 35
-36 38 -9 3 -51 38 -93 79 -41 41 -97 89 -123 107 -64 45 -63 45 -98 73 -18
14 -38 25 -45 26 -8 0 -36 13 -64 29 -94 55 -174 90 -206 90 -18 0 -40 7 -49
15 -10 9 -46 18 -86 21 -38 4 -79 13 -91 20 -32 20 -368 20 -376 0 -3 -8 -26
-15 -56 -18 -28 -3 -59 -12 -69 -22 -10 -9 -27 -16 -37 -16 -28 0 -103 -48
-142 -91 -47 -52 -75 -52 -108 1 -14 22 -25 46 -25 54 0 7 -7 19 -15 26 -8 7
-27 36 -41 64 -14 28 -34 60 -45 72 -10 11 -19 28 -19 37 0 9 -8 22 -19 29
-10 7 -32 33 -49 58 -17 25 -58 72 -92 105 -34 33 -68 75 -75 93 -8 17 -21 32
-30 32 -9 0 -54 35 -100 78 -90 83 -107 97 -205 162 -36 24 -73 52 -83 62 -10
10 -24 18 -31 18 -8 0 -19 6 -25 14 -7 8 -54 34 -104 58 -51 25 -119 57 -152
73 -73 35 -125 55 -145 55 -8 0 -31 8 -50 19 -19 10 -57 21 -85 25 -27 4 -60
14 -72 22 -12 8 -32 14 -44 14 -24 0 -82 16 -111 31 -10 5 -57 9 -105 9 -61 1
-94 5 -107 15 -27 21 -389 20 -426 0z m383 -147 c12 -7 60 -16 107 -20 118
-10 210 -23 245 -36 17 -6 75 -25 130 -42 55 -18 109 -38 120 -46 11 -8 32
-14 47 -14 15 0 30 -5 33 -10 3 -6 39 -26 78 -45 40 -20 97 -51 127 -70 30
-19 61 -34 69 -35 7 0 27 -11 45 -26 87 -71 119 -94 128 -94 6 0 37 -27 70
-60 34 -33 66 -60 73 -60 15 0 165 -150 165 -165 0 -6 27 -37 59 -69 32 -32
61 -70 64 -85 3 -14 20 -42 38 -61 18 -19 44 -55 57 -80 13 -25 32 -54 43 -66
10 -11 19 -28 19 -38 0 -10 9 -37 21 -60 12 -22 28 -54 36 -71 9 -16 19 -43
24 -60 41 -157 77 -169 124 -43 16 43 101 124 161 155 31 15 73 37 93 47 71
38 134 56 171 50 26 -4 40 -2 49 10 18 21 188 23 229 2 15 -7 59 -16 99 -19
42 -3 88 -14 112 -26 22 -12 48 -21 57 -21 20 0 224 -98 224 -108 0 -4 17 -18
38 -32 20 -13 64 -51 97 -82 33 -32 64 -58 70 -58 17 0 106 -88 135 -133 15
-23 51 -68 81 -99 85 -90 139 -154 139 -166 0 -6 18 -29 39 -51 22 -23 42 -50
46 -60 3 -10 30 -42 60 -70 30 -29 55 -59 55 -66 0 -8 17 -31 39 -52 21 -22
45 -52 54 -68 21 -40 353 -368 395 -389 17 -9 32 -21 32 -26 0 -5 15 -16 33
-24 17 -7 45 -28 61 -45 17 -17 35 -31 41 -31 7 0 20 -9 30 -20 10 -11 24 -20
32 -20 7 0 22 -9 34 -21 23 -23 163 -99 184 -99 7 0 20 -6 27 -12 29 -28 95
-68 112 -68 10 0 30 -7 44 -15 25 -14 44 -21 142 -55 19 -7 51 -21 71 -31 21
-10 57 -21 80 -25 24 -3 61 -12 82 -20 20 -8 52 -14 70 -14 18 0 39 -6 46 -12
6 -7 24 -14 39 -16 123 -11 149 -16 163 -28 11 -10 39 -14 90 -13 111 1 262
-10 272 -20 14 -14 -50 -54 -142 -90 -46 -18 -91 -36 -100 -41 -9 -5 -46 -23
-83 -40 -37 -16 -69 -34 -73 -40 -3 -5 -21 -10 -39 -10 -18 0 -44 -8 -57 -17
-13 -10 -46 -29 -74 -42 -27 -13 -67 -32 -87 -42 -20 -11 -47 -19 -60 -19 -50
-1 -103 -43 -100 -81 1 -19 8 -36 13 -38 6 -2 21 -14 32 -27 11 -13 28 -24 38
-24 9 0 38 -19 62 -42 51 -48 132 -108 145 -108 5 0 19 -11 32 -25 13 -14 29
-25 35 -25 7 0 22 -9 35 -20 13 -11 27 -20 32 -20 6 0 21 -9 35 -20 14 -11 33
-20 41 -20 8 0 31 -12 50 -26 50 -39 160 -94 187 -94 12 0 28 -6 34 -13 6 -8
43 -26 83 -41 40 -15 90 -36 110 -47 20 -10 53 -19 72 -19 19 0 41 -7 50 -15
8 -9 42 -18 78 -21 38 -4 71 -14 83 -24 21 -18 80 -32 128 -31 15 1 41 -5 57
-14 16 -8 53 -15 83 -15 29 0 57 -4 63 -10 5 -5 59 -11 119 -12 93 -3 110 -6
113 -20 3 -16 -82 -68 -111 -68 -6 0 -29 -8 -51 -18 -45 -20 -164 -59 -211
-68 -16 -3 -47 -12 -68 -20 -21 -8 -53 -15 -70 -15 -151 -1 -284 -12 -301 -25
-26 -18 -59 -18 -94 0 -18 8 -85 16 -191 20 -115 4 -169 10 -180 20 -9 7 -43
18 -75 25 -33 6 -67 18 -76 26 -9 8 -31 15 -48 15 -19 0 -36 7 -45 20 -19 27
-69 36 -86 17 -16 -20 -5 -41 43 -85 20 -18 36 -38 36 -45 0 -7 12 -24 28 -38
39 -37 124 -146 155 -199 15 -25 42 -60 62 -77 19 -17 35 -38 35 -46 0 -8 27
-40 59 -72 33 -32 62 -68 65 -79 3 -12 28 -43 56 -70 27 -26 50 -52 50 -58 0
-5 38 -49 85 -98 47 -49 85 -92 85 -97 0 -5 41 -50 92 -99 164 -159 178 -175
178 -193 0 -26 -93 -38 -141 -19 -19 8 -60 15 -92 16 -32 2 -76 10 -98 17 -21
8 -46 12 -53 9 -8 -3 -22 3 -32 13 -46 46 -93 48 -94 4 0 -13 427 -441 441
-441 4 0 34 -24 67 -52 33 -29 88 -73 121 -98 34 -25 72 -55 85 -66 13 -12 44
-31 69 -43 25 -12 51 -29 57 -37 7 -7 20 -14 29 -15 9 0 36 -14 61 -30 25 -16
60 -36 78 -44 72 -34 47 -74 -55 -86 -244 -30 -260 -35 -223 -82 12 -15 28
-27 35 -27 8 0 34 -19 59 -42 24 -24 74 -71 110 -106 65 -63 77 -87 54 -110
-16 -16 -40 -15 -74 3 -16 8 -36 15 -44 15 -9 0 -25 6 -36 14 -11 8 -38 18
-60 21 -21 4 -46 13 -54 20 -8 8 -28 17 -45 21 -16 4 -41 12 -55 20 -14 7 -72
36 -130 64 -115 57 -163 87 -197 125 -29 33 -37 32 -63 -10 -44 -71 -47 -610
-4 -646 8 -6 14 -19 14 -28 0 -9 9 -31 20 -49 11 -18 20 -39 20 -47 0 -7 6
-20 14 -28 8 -8 21 -30 29 -49 8 -18 59 -79 113 -133 99 -99 116 -114 164
-136 14 -6 32 -15 40 -20 8 -5 26 -14 40 -21 14 -7 32 -17 40 -24 15 -12 46
-19 135 -32 28 -4 57 -12 65 -17 26 -16 232 -6 252 12 19 17 48 4 48 -22 0
-12 -73 -75 -87 -75 -5 0 -24 -11 -43 -25 -19 -14 -42 -25 -52 -25 -10 0 -27
-9 -38 -20 -11 -11 -29 -20 -40 -20 -11 0 -34 -9 -52 -20 -18 -11 -49 -20 -68
-20 -20 0 -44 -6 -55 -14 -54 -37 -665 -37 -696 0 -6 8 -21 14 -33 14 -40 0
-247 87 -261 110 -3 5 -18 11 -35 15 -16 3 -47 24 -70 46 -22 21 -46 39 -53
39 -8 0 -34 23 -58 52 -24 28 -62 70 -85 92 -22 23 -43 49 -47 59 -7 20 -28
22 -45 5 -17 -17 -15 -42 7 -70 11 -14 25 -47 32 -74 6 -27 18 -56 25 -65 8
-8 14 -20 14 -26 0 -6 7 -16 15 -23 8 -7 20 -31 26 -54 6 -22 17 -48 24 -56 7
-8 16 -28 19 -45 4 -16 19 -55 33 -85 14 -30 32 -76 39 -101 8 -26 21 -52 29
-59 8 -6 17 -31 21 -55 3 -25 12 -50 20 -56 8 -6 14 -26 14 -45 0 -18 4 -36
10 -39 11 -7 52 -91 69 -144 6 -19 17 -42 25 -50 7 -9 16 -33 19 -54 3 -20 15
-49 26 -64 12 -14 21 -38 21 -53 0 -15 7 -33 15 -40 8 -7 15 -18 15 -25 0 -7
9 -24 20 -38 11 -14 20 -34 20 -44 0 -22 57 -161 75 -183 28 -35 28 -80 -1
-80 -13 0 -44 31 -183 180 -23 25 -56 68 -72 95 -17 28 -48 75 -69 105 -22 30
-44 71 -50 92 -36 126 -79 177 -101 121 -6 -16 -17 -40 -25 -55 -8 -14 -14
-40 -14 -57 0 -17 -9 -48 -20 -68 -11 -21 -20 -48 -20 -60 0 -12 -5 -25 -10
-28 -7 -4 -9 -29 -6 -62 4 -39 2 -61 -9 -76 -17 -25 -22 -405 -6 -423 5 -5 12
-34 14 -64 10 -100 23 -157 40 -174 9 -10 17 -30 17 -45 0 -16 9 -40 20 -54
11 -14 20 -36 20 -49 0 -26 71 -171 99 -203 10 -11 29 -40 43 -65 14 -25 35
-54 47 -64 12 -11 21 -25 21 -31 0 -7 10 -19 23 -28 12 -8 27 -29 34 -46 16
-45 -19 -64 -63 -34 -49 32 -68 43 -104 59 -19 9 -42 22 -50 29 -8 7 -26 16
-40 20 -29 9 -81 44 -93 63 -4 6 -14 12 -21 12 -21 0 -124 94 -243 221 -59 63
-68 70 -81 57 -17 -17 -15 -68 4 -89 8 -9 20 -43 25 -76 17 -99 26 -147 38
-183 6 -19 11 -51 11 -71 0 -20 6 -42 14 -48 8 -7 16 -46 20 -108 4 -53 14
-105 21 -117 8 -12 17 -67 21 -133 5 -76 11 -117 20 -124 10 -8 14 -35 14 -84
0 -50 4 -76 14 -84 7 -6 16 -40 20 -74 15 -160 19 -187 32 -198 8 -7 14 -31
14 -60 0 -27 7 -69 16 -95 30 -89 -5 -93 -84 -9 -28 29 -62 70 -76 92 -14 21
-47 60 -75 86 -28 27 -53 58 -57 69 -3 11 -30 44 -59 74 -29 29 -56 62 -60 73
-3 11 -30 42 -58 68 -29 26 -63 64 -76 83 -13 19 -50 62 -81 95 -32 33 -61 71
-65 85 -7 24 -80 100 -95 100 -13 0 -28 -24 -36 -54 -4 -16 -13 -41 -20 -55
-8 -14 -14 -32 -14 -39 0 -7 -12 -34 -26 -60 -80 -143 -117 -141 -127 5 -4 46
-13 95 -20 110 -8 16 -18 47 -22 70 -3 22 -13 49 -20 60 -8 10 -15 30 -15 46
0 15 -9 36 -19 46 -21 21 -71 120 -71 139 0 6 -6 15 -13 19 -7 4 -25 28 -40
53 -14 25 -47 67 -73 93 -78 80 -90 40 -69 -235 8 -94 -3 -116 -44 -91 -18 11
-111 143 -111 157 0 5 -7 18 -17 28 -18 21 -36 49 -57 94 -9 17 -22 34 -31 37
-8 4 -15 13 -15 22 0 8 -9 32 -20 52 -11 21 -20 43 -20 49 0 6 -9 19 -20 29
-11 10 -20 25 -20 34 0 9 -9 27 -20 41 -11 14 -20 36 -20 51 0 14 -5 30 -12
37 -16 16 -37 98 -38 148 0 24 -6 47 -15 54 -22 18 -22 256 0 280 8 9 18 45
21 81 4 35 14 75 23 89 9 14 22 36 29 50 38 74 52 94 135 186 31 35 57 70 57
78 0 9 9 20 20 26 11 6 20 17 20 24 0 8 20 40 45 71 25 32 54 78 66 102 11 23
25 43 29 43 12 0 60 82 60 102 0 8 9 23 20 33 11 10 20 23 20 29 0 7 18 47 40
90 22 43 40 84 40 91 0 7 7 18 15 25 8 7 15 22 15 35 0 12 11 43 25 69 14 26
25 55 25 64 0 9 9 31 20 47 11 17 20 42 20 58 0 15 4 35 9 45 14 28 31 109 31
151 0 21 6 44 14 50 42 35 43 668 0 736 -6 11 -15 43 -19 72 -4 29 -13 57 -21
64 -8 6 -14 24 -14 39 0 15 -7 33 -16 41 -9 7 -29 39 -45 71 -16 32 -34 58
-39 58 -5 0 -13 12 -16 28 -9 34 -88 111 -181 174 -40 26 -75 53 -78 58 -3 5
-30 14 -61 20 -31 7 -71 18 -90 26 -18 8 -60 14 -92 14 -41 0 -64 5 -72 15 -7
9 -29 15 -55 15 -26 0 -48 -6 -55 -15 -8 -10 -30 -15 -65 -15 -35 0 -57 -5
-65 -15 -7 -8 -22 -15 -35 -15 -33 0 -85 -20 -129 -49 -21 -14 -51 -33 -66
-41 -32 -17 -70 -63 -88 -103 -20 -47 -64 -35 -74 21 -4 23 -14 52 -22 64 -9
12 -16 36 -16 53 0 18 -8 37 -20 48 -11 9 -20 25 -20 34 -1 26 -56 87 -73 80
-19 -7 -27 -52 -16 -91 5 -17 9 -61 9 -99 0 -46 5 -76 16 -93 13 -19 17 -48
16 -127 0 -72 4 -112 16 -137 8 -19 17 -68 18 -110 5 -146 16 -255 29 -270 7
-8 15 -44 19 -80 7 -73 19 -144 36 -209 11 -44 6 -101 -9 -101 -11 0 -89 86
-121 132 -24 35 -93 113 -232 262 -38 40 -68 79 -68 87 0 8 -26 42 -57 74 -32
33 -62 74 -68 90 -9 26 -15 30 -45 30 l-35 0 -2 -125 c-1 -69 -2 -174 -2 -235
0 -81 -4 -118 -15 -140 -9 -16 -16 -35 -16 -42 0 -50 -45 -11 -125 108 -27 41
-62 90 -78 109 -72 88 -127 164 -127 175 0 7 -11 20 -25 29 -14 10 -31 29 -38
44 -6 15 -28 43 -49 63 -21 20 -38 40 -38 45 0 15 -83 125 -124 163 -20 19
-36 41 -36 48 0 8 -18 32 -40 54 -22 22 -40 44 -40 49 0 5 -18 30 -40 55 -22
25 -40 50 -40 55 0 5 -17 26 -39 47 -21 21 -42 48 -45 60 -4 11 -18 28 -31 37
-14 9 -31 29 -40 45 -8 17 -31 47 -50 68 -19 21 -35 42 -35 47 0 5 -19 30 -42
56 -24 26 -59 70 -78 99 -19 29 -52 71 -73 94 -21 23 -44 56 -51 72 -18 39
-84 115 -101 115 -21 0 -23 -20 -20 -184 4 -220 2 -219 -203 39 -26 33 -63 75
-83 95 -19 19 -52 56 -72 82 -20 25 -55 65 -77 88 -22 23 -40 47 -40 53 0 7
-36 48 -80 92 -44 44 -80 85 -80 90 0 6 -27 38 -60 73 -33 34 -60 65 -60 70 0
5 -29 38 -65 75 -36 37 -65 73 -65 80 0 7 -28 39 -61 72 -34 33 -69 72 -78 86
-9 15 -42 55 -74 89 -31 34 -57 68 -57 74 0 19 -55 76 -73 76 -22 0 -20 41
-17 -457 2 -393 1 -435 -15 -459 -14 -22 -16 -49 -15 -167 1 -78 1 -148 1
-154 -2 -25 -32 -12 -47 20 -8 17 -31 61 -50 97 -18 35 -34 74 -34 86 0 12 -7
27 -15 34 -8 7 -15 18 -15 25 0 6 -9 20 -20 30 -11 10 -20 24 -20 31 0 7 -16
43 -35 80 -19 37 -35 75 -35 84 0 10 -7 23 -15 30 -8 7 -40 65 -71 129 -32 64
-72 135 -91 158 -18 23 -33 46 -33 51 0 17 -93 206 -106 217 -7 6 -27 38 -44
72 -17 34 -35 65 -40 68 -6 4 -10 13 -10 22 0 9 -17 41 -37 72 -21 31 -50 81
-65 112 -15 31 -34 59 -42 62 -8 3 -17 19 -21 36 -3 16 -12 35 -20 41 -7 6
-16 23 -20 37 -6 26 -36 74 -62 101 -7 7 -13 21 -13 30 0 9 -16 39 -35 66 -19
27 -39 65 -46 85 -6 20 -23 52 -38 71 -15 19 -32 47 -39 63 -6 15 -16 27 -21
27 -6 0 -13 17 -17 38 -4 20 -12 44 -19 52 -7 8 -17 29 -22 45 -8 24 -16 31
-41 33 -37 4 -51 -17 -34 -51 37 -75 54 -130 59 -187 3 -40 12 -75 24 -92 23
-33 27 -139 5 -157 -9 -8 -15 -52 -20 -149 -5 -95 -12 -144 -23 -160 -8 -13
-16 -33 -17 -45 -8 -58 -21 -110 -52 -203 -19 -56 -34 -110 -34 -119 0 -9 -6
-29 -14 -43 -8 -15 -20 -54 -27 -87 -7 -33 -19 -69 -26 -80 -7 -11 -13 -29
-13 -41 0 -12 -9 -41 -20 -65 -11 -24 -20 -60 -20 -79 0 -20 -6 -45 -14 -56
-8 -12 -18 -45 -22 -75 -4 -30 -15 -70 -25 -89 -11 -19 -19 -44 -19 -55 -1
-11 -7 -31 -15 -45 -8 -14 -14 -36 -15 -50 0 -14 -6 -34 -14 -45 -7 -11 -16
-45 -20 -75 -4 -30 -13 -68 -20 -85 -8 -16 -19 -50 -26 -75 -6 -25 -18 -58
-25 -75 -8 -16 -15 -43 -17 -60 -2 -22 -8 -30 -23 -30 -20 0 -20 7 -20 270 0
149 -4 276 -9 284 -5 8 -8 152 -7 320 1 245 -1 316 -13 354 -14 48 -15 436 -1
584 9 94 -65 112 -95 22 -8 -24 -21 -54 -27 -66 -7 -12 -13 -30 -13 -41 0 -10
-9 -27 -21 -38 -22 -20 -59 -85 -59 -105 0 -6 -9 -22 -20 -36 -11 -14 -20 -33
-20 -42 0 -9 -9 -24 -20 -34 -11 -9 -20 -23 -20 -30 0 -8 -9 -22 -20 -32 -11
-10 -20 -26 -20 -36 0 -10 -4 -20 -8 -23 -13 -8 -152 -291 -152 -309 0 -9 -14
-43 -32 -74 -62 -114 -88 -168 -88 -185 0 -10 -9 -32 -20 -50 -11 -18 -20 -45
-20 -60 0 -15 -5 -30 -10 -33 -16 -10 -67 -126 -76 -170 -4 -22 -13 -49 -19
-60 -7 -11 -23 -49 -35 -85 -12 -36 -29 -72 -36 -81 -8 -8 -14 -22 -14 -30 0
-25 -80 -263 -105 -309 -7 -14 -16 -43 -20 -65 -4 -22 -18 -73 -31 -114 -13
-40 -24 -81 -24 -90 0 -16 -23 -89 -40 -126 -8 -19 -15 -47 -27 -110 -3 -16
-11 -37 -19 -45 -7 -9 -14 -45 -16 -80 -4 -79 -25 -93 -51 -33 -15 35 -16 83
-6 543 13 683 17 778 34 804 8 13 16 70 20 151 5 98 11 139 26 168 10 21 19
51 19 68 0 17 7 52 15 78 26 84 39 185 26 209 -17 32 -38 27 -60 -15 -11 -21
-30 -57 -42 -81 -12 -24 -34 -55 -49 -70 -15 -15 -38 -45 -52 -67 -14 -22 -37
-51 -52 -64 -14 -14 -26 -30 -26 -37 0 -7 -11 -26 -25 -42 -14 -17 -25 -34
-25 -39 0 -5 -16 -24 -35 -43 -19 -19 -35 -40 -35 -46 0 -7 -14 -28 -31 -46
-17 -18 -51 -62 -75 -98 -98 -143 -156 -225 -164 -230 -4 -3 -11 -16 -15 -30
-4 -14 -14 -29 -22 -35 -7 -5 -21 -24 -31 -42 -9 -17 -38 -62 -64 -101 -27
-38 -48 -72 -48 -76 0 -3 -18 -32 -40 -63 -22 -32 -40 -62 -40 -66 0 -5 -9
-20 -20 -34 -11 -14 -20 -33 -20 -43 0 -9 -18 -41 -40 -70 -22 -29 -40 -60
-40 -68 0 -7 -9 -25 -20 -39 -11 -14 -20 -33 -20 -43 0 -10 -9 -29 -20 -43
-11 -14 -20 -32 -20 -40 0 -9 -4 -18 -10 -22 -14 -9 -65 -122 -91 -204 -13
-41 -28 -79 -35 -85 -6 -6 -14 -28 -18 -48 -3 -20 -15 -47 -26 -61 -11 -14
-20 -38 -20 -54 0 -15 -7 -36 -14 -46 -8 -10 -12 -26 -9 -36 3 -10 0 -22 -6
-25 -6 -4 -11 -26 -11 -49 0 -24 -6 -51 -14 -62 -14 -21 -25 -73 -30 -145 -1
-25 -11 -58 -21 -73 -14 -22 -19 -55 -23 -167 -3 -101 -9 -143 -18 -151 -21
-17 -19 -423 1 -459 8 -14 14 -53 15 -91 0 -74 18 -177 33 -197 6 -7 14 -38
18 -67 4 -30 14 -69 23 -86 9 -18 16 -44 16 -58 0 -14 11 -57 25 -95 14 -37
22 -72 19 -78 -3 -5 4 -27 15 -48 11 -22 24 -59 27 -83 4 -23 12 -49 19 -57
11 -13 26 -79 26 -120 1 -8 7 -32 15 -53 8 -20 14 -62 14 -91 0 -35 5 -58 15
-66 17 -14 22 -211 6 -264 -5 -17 -14 -56 -20 -86 -19 -99 -47 -190 -63 -203
-8 -6 -25 -29 -37 -49 -23 -39 -50 -48 -69 -25 -11 13 -22 125 -26 258 -2 47
-7 92 -12 100 -9 13 -16 78 -30 259 -3 47 -11 91 -18 99 -10 13 -19 75 -32
231 -3 36 -10 70 -16 77 -5 6 -11 52 -13 101 -2 50 -8 98 -14 109 -6 10 -13
93 -17 185 -6 152 -8 168 -25 173 -38 12 -58 -3 -65 -53 -4 -26 -16 -58 -28
-72 -21 -26 -35 -56 -78 -165 -12 -33 -36 -78 -51 -100 -16 -22 -44 -71 -64
-110 -19 -38 -51 -102 -71 -142 -20 -39 -43 -86 -51 -103 -7 -17 -24 -43 -37
-57 -13 -14 -24 -33 -24 -43 0 -9 -12 -32 -26 -51 -14 -19 -35 -54 -46 -79
-12 -25 -36 -68 -54 -96 -19 -28 -34 -57 -34 -65 0 -8 -13 -30 -29 -49 -45
-54 -61 -32 -80 115 -4 33 -15 77 -24 97 -10 21 -17 56 -17 78 0 23 -5 51 -12
63 -13 24 -25 81 -34 162 -4 28 -12 57 -19 65 -12 14 -24 122 -28 255 -1 33
-8 70 -14 82 -7 12 -13 52 -13 90 0 46 -5 76 -15 91 -12 17 -16 46 -14 125 1
63 -3 112 -10 126 -9 15 -10 71 -6 194 7 199 4 210 -50 184 -19 -9 -38 -24
-41 -32 -4 -8 -17 -15 -31 -15 -26 0 -59 -15 -81 -37 -7 -7 -29 -13 -47 -13
-19 0 -36 -4 -39 -9 -7 -11 -202 -111 -216 -111 -16 0 -141 -58 -240 -111 -19
-11 -45 -19 -56 -19 -12 0 -27 -7 -34 -15 -7 -8 -20 -15 -29 -15 -9 0 -27 -7
-40 -17 -34 -23 -114 -63 -128 -63 -6 0 -69 -29 -140 -64 -200 -99 -285 -137
-290 -132 -10 10 35 91 66 120 17 17 31 35 31 42 0 6 7 17 15 24 8 7 29 39 47
71 17 33 35 59 39 59 5 0 15 16 23 35 8 19 20 35 25 35 12 0 61 81 61 102 0 8
8 22 18 32 11 9 31 40 47 69 15 28 38 70 51 92 13 22 31 55 39 73 8 17 20 32
25 32 6 0 33 47 60 104 28 57 57 109 65 116 8 7 15 18 15 25 0 6 9 22 20 35
11 13 20 35 21 49 0 14 14 49 30 76 16 28 34 61 41 75 7 14 20 36 30 49 10 13
18 32 18 42 0 17 28 83 51 119 5 8 16 29 24 47 8 17 19 34 25 38 5 3 15 26 21
50 6 25 17 50 25 56 8 6 14 16 14 22 0 6 6 18 14 26 32 37 40 114 12 124 -12
5 -94 -44 -106 -62 -3 -5 -21 -16 -40 -25 -61 -29 -96 -50 -137 -83 -23 -18
-47 -33 -54 -33 -8 0 -27 -8 -44 -18 -16 -10 -45 -21 -63 -25 -29 -6 -76 -33
-109 -64 -7 -6 -26 -14 -42 -18 -16 -3 -35 -13 -42 -21 -6 -8 -18 -14 -27 -14
-16 0 -44 -12 -217 -95 -60 -29 -130 -58 -155 -65 -25 -7 -52 -16 -60 -20 -67
-38 -180 -83 -254 -101 -21 -5 -50 -19 -64 -29 -13 -11 -37 -20 -52 -20 -15 0
-33 -7 -40 -15 -7 -8 -22 -15 -34 -15 -11 0 -33 -6 -48 -14 -29 -16 -38 -12
-38 16 0 14 186 207 262 272 8 6 26 29 41 51 15 22 72 85 128 140 55 55 107
112 115 127 7 14 41 52 74 84 33 31 60 64 60 72 0 8 26 40 58 71 32 31 78 81
102 111 24 30 61 71 82 90 21 20 38 43 38 51 0 9 27 43 60 77 33 33 60 64 60
68 0 4 27 35 60 70 33 34 60 67 60 73 0 6 27 39 60 73 33 33 60 66 60 73 0 6
12 22 26 36 15 13 37 40 49 59 13 19 37 50 54 68 17 18 31 38 31 44 0 11 18
32 140 170 33 37 60 74 60 82 0 8 9 17 19 21 27 8 49 74 30 86 -25 16 -75 10
-94 -11 -16 -18 -31 -20 -142 -20 -68 0 -132 -4 -142 -9 -33 -18 -1056 6
-1094 25 -17 9 -56 18 -86 19 -139 7 -247 18 -258 27 -14 12 -133 30 -208 33
-27 1 -69 7 -93 14 -23 6 -47 9 -52 6 -15 -9 -50 4 -50 20 0 15 36 40 105 73
28 12 68 31 90 42 84 39 134 60 147 60 6 0 38 18 69 40 32 22 61 40 66 40 9 0
91 40 148 72 43 24 52 29 123 62 39 19 72 39 72 44 0 6 14 15 31 21 16 6 49
23 72 38 23 16 69 41 102 57 33 16 83 43 110 61 28 18 67 40 87 48 20 9 66 38
101 65 36 27 76 52 91 56 14 3 26 11 26 16 0 5 24 21 53 35 28 15 61 34 72 44
11 10 35 23 52 30 18 7 45 25 60 39 16 15 40 33 54 42 15 8 52 33 84 55 32 22
65 45 74 50 9 6 36 24 60 40 24 17 56 36 70 44 14 8 31 20 36 26 16 19 123 95
134 95 6 0 14 6 18 13 4 6 28 25 53 42 25 16 54 37 65 47 25 23 101 79 129 95
11 7 37 28 58 48 21 19 40 35 44 35 7 0 110 82 154 122 19 18 53 45 76 61 22
15 55 43 74 62 19 19 38 35 44 35 5 0 37 27 72 60 36 35 71 60 83 60 12 0 23
6 25 13 24 89 24 98 2 122 -21 23 -23 23 -123 14 -83 -7 -106 -6 -130 6 -19
10 -59 15 -123 15 -60 0 -100 4 -108 12 -6 6 -28 12 -49 13 -94 4 -200 19
-223 30 -36 19 -135 39 -159 32 -13 -3 -28 1 -38 11 -10 11 -35 17 -70 18 -29
1 -59 6 -66 12 -6 5 -37 15 -67 22 -30 7 -76 21 -102 31 -26 11 -58 19 -71 19
-14 0 -30 7 -37 15 -7 8 -24 15 -39 15 -63 0 -103 13 -113 36 -16 35 -8 38
120 40 229 3 386 15 404 31 10 9 36 14 75 13 85 -1 176 10 193 25 8 7 40 15
70 18 30 3 80 11 110 17 30 6 78 14 105 18 28 5 66 13 85 19 19 7 55 17 80 23
25 7 57 18 72 26 14 8 37 14 50 14 12 1 41 9 63 20 22 11 50 19 62 20 52 0
155 35 223 75 14 8 35 15 46 15 12 0 27 6 33 14 6 7 33 19 59 26 26 7 51 17
57 21 5 5 21 9 36 9 14 0 38 9 52 20 14 11 29 20 34 20 4 1 26 9 48 20 22 11
47 20 55 20 24 1 111 60 105 70 -11 18 -63 40 -79 34 -9 -3 -31 0 -49 9 -17 8
-63 18 -102 21 -38 4 -75 12 -83 18 -7 7 -35 15 -60 19 -26 4 -73 14 -105 23
-32 9 -77 16 -101 16 -25 0 -48 6 -55 14 -8 9 -44 17 -99 21 -48 4 -94 13
-102 20 -8 7 -31 15 -50 19 -107 19 -150 37 -150 63 0 16 58 31 98 25 21 -3
39 1 50 11 9 8 42 18 72 21 114 11 155 18 165 27 5 5 23 9 40 9 17 0 59 11 94
24 34 14 68 23 76 20 8 -3 27 1 42 9 44 24 92 37 138 37 26 0 48 6 55 15 7 8
23 15 37 15 13 0 41 9 63 20 22 11 50 20 62 20 13 0 37 9 53 20 17 11 47 20
70 20 22 0 53 7 69 15 15 8 39 15 51 15 28 0 56 25 49 43 -7 18 -52 42 -159
82 -38 15 -74 31 -80 36 -5 5 -23 9 -41 9 -40 0 -59 21 -45 48 11 20 32 32 57
32 14 0 47 14 189 80 33 15 78 33 100 38 73 19 158 52 175 67 9 8 29 15 44 15
15 0 43 8 64 19 20 10 54 21 74 25 20 4 50 13 65 21 15 8 40 15 54 15 15 0 38
9 52 20 14 11 36 20 49 20 25 0 93 22 104 33 4 4 23 7 41 7 19 0 44 5 56 12
20 11 72 22 154 33 18 2 43 11 55 19 13 8 55 17 95 21 42 4 77 13 84 21 7 9
31 14 64 14 33 0 57 5 64 14 8 10 28 12 75 9 41 -4 66 -2 70 6 4 6 37 11 79
11 46 0 80 5 92 14 21 15 76 22 240 32 55 3 114 12 132 20 45 20 565 21 582 0
6 -7 30 -16 54 -18 37 -4 106 -34 199 -84 33 -18 68 -61 68 -83 0 -26 21 -41
56 -41 48 0 54 53 10 89 -9 7 -16 28 -16 45 0 18 -4 36 -8 42 -5 5 -17 32 -26
59 -21 59 -57 134 -91 190 -13 22 -29 51 -35 64 -6 14 -20 31 -30 38 -21 15
-27 58 -9 69 6 3 25 -1 42 -9 50 -23 116 -39 187 -44 36 -3 69 -9 75 -14 5 -5
33 -9 62 -9 30 0 67 -7 82 -15 16 -8 70 -17 120 -21 56 -4 98 -12 106 -20 8
-8 35 -14 64 -14 59 0 148 -19 176 -37 11 -7 48 -13 86 -13 47 0 70 -4 79 -15
7 -8 26 -15 43 -15 17 0 57 -5 89 -12 50 -10 60 -10 73 3 18 18 11 46 -14 54
-14 4 -114 98 -184 171 -9 11 -47 48 -83 83 -36 36 -63 72 -62 80 5 25 69 26
97 1 13 -11 37 -20 54 -20 16 0 44 -8 61 -19 17 -10 50 -21 74 -25 24 -4 53
-13 65 -20 12 -8 40 -18 62 -22 22 -4 53 -15 70 -26 16 -10 35 -18 42 -18 7 0
35 -13 63 -30 28 -16 72 -35 98 -41 68 -16 212 -90 212 -109 0 -5 18 -11 39
-15 22 -3 47 -15 57 -26 9 -10 21 -19 26 -19 5 0 31 -18 59 -40 28 -22 56 -40
63 -40 7 0 23 -9 36 -20 13 -11 34 -23 46 -26 13 -3 26 -15 29 -25 10 -32 85
-27 85 6 0 13 -6 28 -13 32 -7 4 -29 33 -50 63 -20 30 -50 74 -67 98 -16 23
-30 46 -30 51 0 4 -20 27 -45 50 -25 23 -45 47 -45 53 0 15 -222 238 -237 238
-7 0 -31 18 -55 40 -24 22 -46 40 -49 40 -3 0 -24 14 -45 30 -33 27 -172 100
-189 100 -23 0 -74 54 -64 66 14 17 93 18 122 2z m-1443 -4474 c0 -8 7 -17 15
-20 16 -6 58 -75 70 -114 4 -14 20 -43 35 -65 15 -22 34 -56 42 -75 8 -19 22
-41 31 -49 10 -7 17 -24 17 -38 0 -14 14 -38 35 -59 19 -19 35 -37 35 -40 0
-18 81 -172 99 -188 11 -11 21 -27 21 -37 0 -10 9 -24 19 -31 11 -8 23 -26 26
-41 4 -14 13 -31 21 -38 8 -6 14 -19 14 -29 0 -9 14 -35 31 -56 31 -39 44 -61
106 -177 18 -33 36 -63 41 -66 5 -3 23 -37 42 -75 18 -38 41 -77 50 -86 9 -9
27 -38 40 -64 12 -26 29 -50 36 -53 8 -3 14 -11 14 -18 0 -18 51 -115 82 -155
14 -19 33 -51 42 -70 19 -41 74 -136 99 -170 9 -14 17 -30 17 -37 0 -26 55
-113 70 -110 19 3 31 95 30 229 -1 69 3 105 14 127 13 23 16 63 16 180 0 100
4 152 11 157 12 7 6 428 -7 537 -5 39 -3 47 10 47 19 0 66 -39 66 -55 0 -7 15
-27 33 -46 17 -19 45 -54 62 -77 16 -24 44 -60 62 -80 18 -20 33 -40 33 -44 0
-5 29 -40 65 -78 36 -38 65 -74 65 -79 0 -5 51 -61 114 -124 63 -63 117 -123
120 -134 3 -10 81 -93 172 -184 92 -90 221 -219 288 -287 l121 -122 33 29 c17
17 32 40 32 51 0 24 36 80 50 80 5 0 32 -33 60 -72 28 -40 64 -89 80 -108 52
-60 110 -139 110 -149 0 -6 20 -29 45 -52 25 -23 45 -48 45 -56 0 -8 19 -35
43 -61 63 -70 117 -139 117 -151 0 -6 14 -23 31 -38 17 -16 47 -52 66 -80 19
-29 38 -53 43 -53 4 0 13 -13 19 -29 7 -15 28 -43 47 -62 19 -18 34 -39 34
-46 0 -8 24 -36 54 -64 30 -27 60 -63 66 -80 7 -16 16 -29 20 -29 5 0 24 -24
44 -52 59 -86 90 -124 140 -172 25 -25 46 -51 46 -59 0 -7 14 -26 30 -42 17
-16 42 -49 56 -72 14 -24 29 -43 35 -43 5 0 16 -15 24 -32 7 -18 35 -55 60
-83 26 -27 54 -63 62 -80 9 -16 21 -34 27 -41 6 -6 23 -32 38 -57 27 -46 61
-66 93 -53 21 8 19 43 -5 73 -11 14 -20 38 -20 53 0 15 -6 33 -14 39 -7 6 -16
30 -20 54 -13 93 -26 151 -36 161 -5 5 -10 33 -10 61 0 28 -6 60 -15 72 -8 11
-21 57 -29 101 -7 45 -21 88 -30 97 -9 9 -16 28 -16 43 0 15 -3 36 -6 47 -3
11 2 29 10 40 14 19 18 16 108 -73 166 -165 314 -302 325 -302 6 0 44 -35 84
-77 86 -91 171 -163 193 -163 25 0 31 58 9 89 -11 14 -23 42 -26 61 -4 20 -15
43 -25 51 -12 10 -21 36 -25 71 -4 30 -14 74 -22 98 -8 23 -15 66 -15 94 0 29
-7 59 -15 70 -18 24 -22 350 -5 361 6 3 10 27 10 53 0 30 9 66 25 97 13 28 25
53 25 56 1 19 99 150 150 200 56 54 82 73 140 99 14 7 38 18 53 26 20 10 66
14 156 14 139 0 180 -12 271 -81 19 -15 46 -30 60 -34 34 -10 56 -31 96 -90
18 -27 48 -64 66 -82 21 -20 44 -60 62 -110 17 -43 35 -87 42 -98 7 -11 16
-45 19 -75 4 -30 13 -71 20 -91 19 -52 13 -270 -9 -301 -10 -13 -16 -43 -16
-75 0 -29 -4 -62 -9 -75 -5 -13 -14 -52 -21 -88 -6 -36 -17 -74 -24 -85 -7
-11 -16 -53 -20 -94 -5 -50 -14 -83 -27 -99 -10 -14 -19 -34 -19 -46 0 -21
-32 -110 -56 -157 -7 -14 -16 -44 -20 -67 -4 -23 -13 -47 -20 -53 -8 -6 -14
-24 -14 -38 0 -15 -11 -42 -24 -60 -13 -17 -29 -51 -35 -74 -6 -23 -19 -56
-29 -74 -9 -17 -44 -85 -76 -150 -33 -65 -66 -124 -73 -131 -7 -7 -13 -20 -13
-27 0 -7 -15 -33 -34 -58 -19 -24 -40 -55 -47 -68 -6 -13 -18 -30 -26 -37 -7
-7 -13 -22 -13 -32 0 -10 -16 -34 -37 -55 -20 -20 -49 -57 -65 -83 -38 -60
-150 -169 -194 -187 -19 -8 -58 -30 -88 -50 -29 -19 -65 -35 -79 -35 -14 0
-32 -7 -41 -15 -25 -25 -284 -21 -336 5 -22 11 -46 20 -55 20 -9 0 -34 18 -56
40 -22 22 -46 40 -53 40 -23 0 -66 59 -66 90 0 33 -22 54 -49 45 -27 -8 -31
-25 -18 -72 9 -33 7 -49 -6 -85 -10 -25 -17 -72 -17 -110 0 -37 -4 -70 -10
-73 -5 -3 -10 -19 -10 -35 0 -35 -26 -138 -38 -154 -10 -12 -24 -88 -23 -124
1 -13 -8 -35 -19 -49 -11 -14 -20 -36 -20 -48 0 -24 -44 -139 -66 -169 -8 -11
-14 -30 -14 -42 0 -20 -46 -122 -61 -134 -8 -7 -59 -117 -59 -128 0 -6 -18
-34 -40 -63 -22 -30 -40 -59 -40 -65 0 -6 -7 -18 -16 -25 -9 -7 -20 -22 -25
-34 -5 -11 -23 -40 -39 -65 -16 -25 -34 -54 -39 -65 -5 -11 -25 -36 -45 -54
-20 -19 -36 -39 -36 -44 0 -6 -18 -29 -40 -53 -22 -24 -40 -48 -40 -54 0 -15
-294 -307 -316 -314 -11 -3 -44 -31 -74 -61 -30 -30 -59 -55 -65 -55 -5 0 -29
-18 -53 -40 -24 -22 -49 -40 -57 -40 -8 0 -20 -8 -27 -17 -7 -10 -35 -29 -61
-43 -27 -14 -53 -31 -59 -37 -5 -7 -42 -29 -82 -48 -39 -20 -78 -39 -86 -44
-8 -4 -31 -15 -50 -24 -19 -8 -61 -27 -92 -41 -31 -14 -62 -26 -68 -26 -25 0
-120 -51 -120 -64 0 -8 8 -22 17 -31 17 -18 13 -18 208 1 33 3 68 13 77 21 9
9 39 18 65 21 26 3 59 13 72 23 13 11 29 19 36 19 7 0 17 6 23 13 6 7 47 28
90 46 44 19 93 46 108 60 25 23 65 50 125 86 9 6 42 30 74 55 32 25 67 50 79
57 20 11 159 137 213 193 14 14 62 64 109 112 46 47 84 91 84 97 0 5 23 34 50
65 57 61 110 135 110 153 0 7 6 16 13 20 8 4 27 34 42 66 16 31 33 57 37 57 5
0 17 19 27 43 10 23 33 59 50 81 21 26 31 50 31 72 0 18 4 35 10 39 9 6 52 91
89 179 12 27 21 61 21 77 0 16 7 32 17 37 9 5 17 24 18 41 1 17 2 44 3 60 1
16 9 37 18 46 10 9 21 33 25 53 4 20 13 55 20 77 7 22 14 84 16 137 3 65 9
100 18 108 8 7 12 23 9 43 -7 43 17 77 43 60 31 -20 141 -73 153 -73 6 0 22
-7 36 -16 39 -26 396 -34 423 -10 47 43 151 -17 151 -88 0 -17 6 -38 12 -44
14 -14 80 -130 99 -172 67 -152 100 -219 115 -231 8 -6 14 -17 14 -24 0 -18
81 -175 90 -175 11 0 70 -118 70 -139 0 -9 18 -40 40 -70 22 -29 40 -61 40
-70 0 -9 7 -26 15 -37 8 -10 19 -36 25 -57 13 -46 42 -77 72 -77 26 0 138 112
138 137 0 20 38 63 56 63 7 0 15 -13 19 -30 4 -16 11 -32 16 -35 5 -4 19 -30
32 -58 40 -88 46 -100 78 -157 17 -30 39 -64 50 -76 10 -11 19 -24 19 -28 0
-6 35 -81 69 -146 4 -8 14 -28 22 -45 8 -16 27 -52 41 -80 15 -27 49 -97 77
-155 28 -58 63 -130 79 -160 70 -132 122 -247 122 -267 0 -12 4 -24 9 -28 5
-3 24 -36 41 -73 17 -37 38 -79 46 -94 8 -14 14 -33 14 -41 0 -9 18 -51 39
-94 22 -43 52 -109 66 -148 29 -78 32 -86 67 -165 14 -30 35 -82 48 -115 12
-33 31 -79 41 -102 11 -23 19 -50 19 -60 0 -10 18 -54 40 -98 22 -44 40 -88
40 -98 0 -10 9 -35 20 -57 11 -22 20 -52 20 -67 0 -15 9 -41 20 -58 11 -16 20
-41 20 -54 0 -14 7 -32 15 -41 9 -10 19 -35 22 -56 3 -22 11 -46 18 -54 7 -8
16 -37 20 -65 4 -27 13 -58 21 -69 8 -11 14 -33 14 -47 0 -33 45 -89 71 -89
33 0 49 50 21 68 -18 12 -22 24 -22 63 0 26 -5 60 -11 76 -6 15 -18 59 -25 97
-7 38 -20 76 -27 85 -7 9 -19 52 -26 96 -7 44 -19 89 -27 100 -8 10 -14 31
-14 45 0 14 -5 31 -11 37 -6 6 -12 24 -14 39 -10 72 -23 122 -38 144 -9 14
-17 34 -17 45 0 11 -9 34 -20 50 -11 17 -20 42 -20 57 0 15 -4 30 -10 33 -5 3
-10 16 -10 27 0 25 -16 79 -36 123 -7 17 -16 44 -20 60 -4 17 -15 39 -24 50
-10 11 -20 36 -23 55 -9 61 -40 147 -97 263 -11 23 -20 49 -20 57 0 9 -6 24
-14 35 -8 11 -26 56 -41 99 -15 44 -38 100 -51 124 -13 25 -24 52 -24 61 0 10
-5 22 -12 29 -14 14 -58 125 -65 167 -3 17 -14 36 -24 43 -11 7 -19 21 -19 30
0 10 -6 26 -14 37 -7 11 -17 31 -21 45 -4 14 -43 99 -87 189 -72 147 -79 166
-69 189 l12 25 62 -64 c176 -182 269 -284 275 -300 4 -10 114 -126 245 -258
130 -132 237 -244 237 -249 0 -16 62 -92 75 -92 24 0 46 32 46 69 1 20 3 125
6 234 4 173 2 202 -12 224 -13 20 -15 39 -10 92 5 48 2 75 -8 100 -8 20 -13
50 -10 71 4 24 0 41 -10 51 -8 9 -17 38 -20 65 -9 77 -18 118 -32 134 -7 8
-16 31 -20 50 -4 19 -16 51 -26 70 -34 64 -26 110 27 144 77 49 281 31 449
-39 17 -7 46 -16 65 -20 19 -4 42 -13 50 -20 16 -13 68 -26 110 -26 14 -1 32
-7 40 -14 8 -7 32 -16 52 -20 21 -4 42 -13 48 -20 6 -8 30 -17 52 -20 23 -4
61 -18 86 -31 118 -63 178 -23 92 62 -22 21 -40 44 -40 51 0 15 -157 153 -174
153 -20 0 -37 25 -30 43 14 38 99 44 163 11 14 -8 36 -14 47 -14 12 0 27 -7
34 -15 7 -8 23 -15 36 -15 13 0 29 -9 36 -20 7 -11 17 -20 22 -20 21 0 118
-74 158 -121 23 -28 55 -64 70 -80 15 -16 30 -39 34 -52 3 -12 11 -28 17 -35
20 -25 67 -127 67 -147 0 -11 7 -29 15 -39 11 -14 15 -46 15 -106 0 -60 4 -92
15 -106 19 -25 19 -58 0 -74 -11 -9 -15 -34 -15 -99 0 -58 -5 -93 -14 -107 -8
-11 -17 -46 -21 -79 -4 -33 -15 -78 -25 -100 -32 -73 -57 -139 -80 -215 -13
-41 -29 -82 -35 -90 -6 -8 -33 -60 -59 -115 -27 -55 -52 -107 -57 -115 -13
-23 -96 -191 -113 -230 -9 -19 -20 -43 -26 -52 -22 -39 -31 -55 -56 -108 -41
-86 -84 -173 -100 -200 -7 -14 -43 -86 -79 -160 -36 -74 -70 -142 -75 -150 -5
-8 -32 -62 -60 -120 -28 -58 -55 -112 -60 -120 -5 -8 -32 -62 -61 -120 -28
-58 -57 -116 -65 -130 -7 -14 -15 -32 -18 -40 -3 -8 -10 -22 -15 -30 -5 -8
-22 -41 -37 -72 -15 -32 -35 -65 -46 -74 -10 -10 -18 -28 -18 -42 0 -14 -6
-33 -14 -41 -7 -9 -28 -50 -46 -91 -18 -41 -41 -84 -51 -96 -11 -11 -28 -44
-38 -73 -10 -29 -23 -57 -30 -64 -6 -6 -11 -17 -11 -24 0 -7 -8 -21 -19 -32
-10 -10 -37 -57 -59 -103 -22 -47 -52 -99 -66 -115 -14 -17 -26 -38 -26 -46 0
-9 -6 -20 -14 -24 -7 -4 -22 -23 -32 -42 -36 -64 -41 -71 -77 -106 -21 -20
-37 -42 -37 -49 0 -31 -307 -314 -358 -330 -13 -4 -29 -18 -38 -31 -8 -13 -28
-29 -45 -35 -16 -7 -34 -21 -40 -31 -5 -11 -18 -19 -28 -19 -10 0 -53 -24 -96
-53 -99 -66 -166 -105 -183 -106 -7 -1 -35 -19 -63 -41 -28 -22 -57 -40 -64
-40 -16 0 -119 -52 -123 -62 -2 -4 -27 -19 -55 -33 -29 -15 -56 -32 -62 -39
-5 -7 -32 -23 -59 -36 -27 -13 -58 -34 -69 -47 -11 -12 -25 -23 -30 -23 -15 0
-109 -65 -136 -94 -14 -14 -30 -26 -36 -26 -10 0 -275 -256 -275 -265 0 -5
-92 -140 -99 -145 -13 -8 -61 -118 -61 -137 0 -10 -9 -31 -20 -48 -11 -16 -20
-42 -20 -56 0 -15 -6 -32 -13 -38 -8 -6 -20 -49 -27 -96 -7 -47 -19 -90 -27
-96 -9 -8 -13 -39 -13 -104 0 -59 -5 -102 -14 -121 -12 -23 -16 -136 -23 -575
-7 -462 -10 -549 -23 -564 -13 -15 -15 -71 -16 -349 -1 -516 -13 -864 -30
-909 -9 -25 -14 -76 -14 -152 0 -62 -4 -116 -9 -119 -5 -3 -12 -22 -15 -41 -3
-19 -9 -52 -12 -73 -4 -20 -15 -48 -25 -61 -11 -13 -19 -29 -19 -35 0 -6 -18
-38 -40 -71 -22 -33 -40 -64 -40 -70 0 -5 -14 -23 -30 -39 -17 -16 -43 -45
-58 -65 -30 -40 -163 -171 -174 -171 -4 0 -32 -22 -62 -50 -31 -27 -68 -56
-84 -64 -16 -8 -32 -22 -35 -31 -4 -8 -15 -15 -25 -15 -11 0 -25 -6 -31 -14
-7 -8 -82 -49 -167 -91 -84 -42 -156 -81 -159 -86 -4 -5 -17 -9 -31 -9 -13 0
-41 -9 -61 -20 -21 -11 -49 -20 -63 -20 -14 0 -38 -9 -55 -20 -16 -11 -40 -20
-53 -20 -12 0 -30 -4 -40 -9 -36 -18 -90 -31 -131 -31 -23 0 -54 -6 -69 -14
-83 -42 -742 -40 -845 2 -16 7 -43 12 -60 12 -32 0 -101 20 -113 33 -4 4 -20
7 -35 7 -16 0 -45 11 -65 25 -20 14 -44 25 -53 25 -31 0 -192 88 -313 171 -15
11 -30 19 -34 19 -4 0 -28 19 -54 42 -26 24 -66 56 -89 71 -23 16 -41 36 -41
46 0 10 -17 34 -38 53 -21 19 -48 51 -61 71 -13 21 -31 42 -42 47 -10 6 -19
17 -19 24 0 7 -9 25 -20 39 -11 14 -23 40 -27 59 -4 18 -19 59 -35 91 -19 38
-32 84 -38 134 -4 41 -13 80 -19 86 -16 16 -13 89 4 111 9 11 15 41 15 69 0
34 6 57 20 74 11 14 20 33 20 42 0 62 65 102 151 94 51 -4 68 -2 80 10 15 14
53 19 220 29 25 2 53 10 62 19 11 12 44 18 115 23 60 5 108 13 119 21 11 9 43
14 83 15 43 0 73 5 88 15 12 9 40 15 64 15 90 -2 203 13 235 31 20 11 65 21
119 25 48 4 99 13 113 20 14 8 48 14 75 14 27 0 63 4 80 10 17 5 44 12 59 15
70 14 114 124 72 179 -8 11 -15 34 -15 51 0 17 -4 35 -9 40 -4 6 -14 39 -21
75 -6 36 -17 72 -24 80 -7 8 -19 42 -26 75 -7 33 -19 67 -25 75 -12 14 -17 35
-32 118 -3 18 -9 35 -14 38 -5 3 -9 22 -9 43 0 22 -6 44 -15 51 -8 7 -15 20
-15 29 0 9 -9 41 -21 71 -49 133 -81 244 -73 263 3 8 -2 22 -12 31 -9 10 -20
36 -25 59 -4 23 -13 56 -20 72 -18 45 -59 206 -59 234 0 13 -6 32 -13 40 -7 9
-19 41 -26 71 -8 30 -19 66 -26 80 -12 22 -37 111 -95 323 -10 37 -22 73 -28
80 -6 6 -13 30 -17 52 -4 22 -13 51 -20 65 -7 14 -17 48 -23 75 -16 81 -43
178 -59 213 -8 18 -18 54 -23 80 -4 26 -13 61 -19 77 -5 17 -17 59 -26 95 -33
132 -36 144 -46 157 -6 6 -8 21 -5 31 4 11 -3 33 -18 54 -15 23 -26 58 -31 97
-4 35 -15 71 -26 85 -11 14 -19 40 -19 63 0 21 -9 58 -20 82 -11 24 -20 53
-20 65 0 11 -12 44 -25 71 -14 28 -25 64 -25 81 0 18 -6 34 -14 37 -7 3 -15
27 -19 59 -5 52 -41 173 -57 193 -4 6 -11 38 -15 72 -4 40 -13 67 -25 78 -12
11 -20 38 -25 83 -4 37 -13 76 -21 87 -8 10 -14 28 -14 38 0 10 -5 28 -12 40
-6 12 -13 31 -14 42 -7 54 -23 108 -34 115 -7 5 -14 21 -16 37 -5 59 -17 109
-29 123 -7 8 -15 41 -17 72 -3 34 -11 65 -21 76 -9 10 -17 32 -17 49 0 17 -6
36 -14 42 -8 7 -18 41 -21 76 -5 39 -14 73 -25 85 -10 11 -20 46 -24 80 -4 33
-11 62 -16 65 -5 3 -14 25 -20 48 -6 23 -24 69 -40 102 -15 33 -31 74 -35 90
-4 17 -14 38 -22 48 -9 9 -21 25 -27 36 -49 83 -157 211 -178 211 -5 0 -28 15
-51 34 -54 43 -129 76 -192 83 -27 3 -56 10 -63 16 -8 6 -53 7 -123 3 l-110
-6 3 22 c2 15 18 31 43 45 85 47 99 56 113 69 7 8 18 14 24 14 6 0 28 16 49
35 22 19 45 35 52 35 7 0 48 34 91 76 44 42 89 80 102 84 13 5 31 22 41 37 25
38 105 118 126 126 20 8 22 27 4 52 -20 27 -58 13 -111 -40 -24 -25 -51 -45
-59 -45 -8 0 -17 -3 -19 -8 -5 -13 -91 -72 -105 -72 -7 0 -20 -9 -30 -19 -10
-11 -40 -31 -68 -45 -27 -15 -56 -33 -65 -40 -8 -8 -35 -25 -60 -38 -25 -14
-70 -40 -100 -59 -30 -19 -66 -40 -80 -47 -42 -21 -69 -38 -87 -55 -10 -8 -30
-19 -46 -22 -15 -4 -29 -11 -32 -15 -3 -4 -53 -31 -112 -60 -149 -72 -186 -91
-204 -106 -8 -8 -22 -14 -30 -14 -8 0 -23 -6 -34 -14 -37 -25 -152 -66 -201
-71 -26 -3 -53 -10 -58 -15 -16 -16 -168 -12 -190 5 -11 8 -28 15 -37 15 -52
0 -329 232 -329 274 0 7 -32 43 -70 81 -39 39 -83 88 -98 110 -15 22 -44 58
-64 79 -21 22 -38 44 -38 49 0 6 -19 31 -42 58 -76 85 -118 140 -118 154 0 8
-8 20 -18 27 -10 7 -31 32 -47 56 -15 23 -31 42 -35 42 -4 0 -13 14 -20 30 -7
17 -16 30 -21 30 -5 0 -14 11 -19 24 -9 24 -59 96 -100 145 -11 13 -20 30 -20
36 0 7 -7 19 -16 26 -9 7 -20 22 -25 34 -5 11 -23 40 -39 65 -16 25 -43 70
-61 100 -18 30 -39 59 -46 63 -7 4 -13 13 -13 19 0 6 -16 35 -36 64 -19 30
-40 69 -46 86 -6 18 -21 44 -34 58 -12 14 -31 45 -42 70 -11 25 -27 51 -36 59
-9 7 -16 24 -16 36 0 12 -7 28 -15 35 -8 7 -15 18 -15 26 0 7 -6 19 -13 26 -8
7 -20 25 -28 40 -20 38 -114 228 -128 258 -12 27 -24 49 -53 92 -10 15 -18 40
-18 56 0 16 -9 41 -20 55 -11 14 -20 28 -20 30 0 3 -18 43 -39 89 -22 46 -42
101 -47 123 -4 22 -10 42 -13 45 -14 11 -61 113 -61 133 0 12 -9 33 -20 47
-11 14 -20 37 -20 51 0 15 -9 38 -20 52 -11 14 -20 40 -20 59 0 18 -9 48 -20
66 -11 18 -20 40 -20 50 0 9 -9 33 -19 53 -11 20 -23 54 -27 75 -3 22 -12 46
-19 54 -13 15 -25 73 -26 120 0 14 -6 32 -14 40 -20 24 -38 63 -41 90 -4 41
-22 103 -39 137 -9 18 -14 42 -10 53 7 21 -8 76 -31 122 -8 14 -14 46 -14 71
0 25 -9 66 -20 92 -11 26 -20 65 -20 86 0 22 -6 52 -14 67 -14 29 -27 115 -30
198 -1 28 -8 59 -16 69 -15 19 -31 94 -34 170 -1 28 -7 60 -14 72 -6 12 -12
45 -12 73 0 28 -7 64 -15 81 -10 19 -15 53 -14 97 1 37 -3 80 -10 95 -13 34
-13 329 0 647 13 307 14 323 27 347 7 12 12 37 12 55 0 18 9 47 20 63 11 17
20 44 20 60 0 17 6 40 14 51 8 11 17 37 21 57 4 21 11 40 16 43 5 3 9 14 9 25
0 18 8 37 32 79 4 8 13 26 19 40 6 14 15 32 20 40 5 8 24 47 43 85 18 39 41
77 50 84 9 7 16 18 16 24 0 5 39 68 88 139 48 71 93 141 101 156 8 15 19 30
24 34 6 3 18 20 26 36 9 17 37 58 64 91 26 34 47 66 47 71 0 6 10 20 23 32 22
23 97 134 97 144 0 4 11 19 25 36 14 16 25 36 25 43 0 8 6 18 13 22 7 4 28 40
46 78 19 39 45 85 58 103 14 18 29 49 35 68 15 57 44 42 41 -21 -4 -104 -15
-191 -29 -222 -10 -22 -14 -70 -14 -160 0 -98 -4 -134 -15 -149 -19 -25 -22
-273 -2 -292 11 -12 21 -138 31 -414 2 -48 8 -93 13 -100 6 -7 13 -43 15 -79
2 -38 10 -74 18 -84 9 -11 15 -41 16 -74 2 -89 16 -184 30 -206 8 -11 14 -43
14 -73 0 -29 7 -69 15 -89 8 -19 15 -50 15 -67 0 -49 22 -73 53 -59 26 12 30
27 43 143 4 30 11 60 16 67 6 7 12 32 14 55 2 24 7 72 10 108 3 36 12 72 19
80 8 9 14 24 14 35 -1 43 14 105 27 116 8 6 14 23 14 38 0 14 11 62 25 106 14
44 25 92 25 106 0 15 6 32 14 38 8 7 18 38 21 69 4 31 14 68 23 82 9 14 21 48
28 75 23 88 52 182 63 203 6 11 11 31 11 43 0 12 7 30 16 40 9 10 19 39 21 63
3 25 12 51 19 57 8 6 14 20 14 31 0 11 6 34 14 51 8 18 26 70 41 117 14 47 37
108 50 135 13 28 26 68 30 90 4 22 13 47 20 55 7 8 23 47 36 85 13 39 28 77
35 85 6 8 15 31 19 50 4 19 16 46 26 59 11 13 19 35 19 50 0 14 9 40 20 56 11
17 20 40 20 53 0 12 9 30 20 39 11 10 20 29 20 44 0 15 6 32 14 38 8 6 17 32
20 56 4 25 11 47 17 50 5 4 23 36 39 73 88 196 95 192 103 -45 4 -103 7 -276
7 -383 1 -150 4 -201 15 -220 11 -20 14 -79 15 -286 0 -212 3 -270 16 -305 12
-34 16 -88 16 -244 1 -444 3 -581 11 -592 22 -35 73 13 81 77 4 27 13 55 20
62 7 8 16 31 20 53 4 22 13 49 20 60 7 11 16 40 20 65 4 25 13 54 20 65 7 11
17 36 21 55 4 19 16 49 26 66 10 17 19 47 19 65 0 19 6 43 14 54 7 11 17 39
20 62 4 22 14 49 21 60 8 10 15 28 15 40 0 21 6 39 36 110 8 17 14 39 14 50 0
10 7 28 14 39 8 12 15 30 16 40 1 48 13 110 24 124 7 8 18 40 25 70 7 30 19
65 27 77 8 12 14 34 14 48 0 14 4 33 9 43 19 37 31 90 31 134 0 28 6 50 15 58
8 7 15 24 15 38 0 27 12 75 42 172 27 84 39 141 45 214 3 33 11 69 19 81 7 11
16 64 20 118 4 62 12 101 20 108 8 7 14 31 14 58 0 57 18 124 31 116 5 -4 9
-13 9 -21z m690 -8921 c30 -5 64 -14 75 -20 11 -6 47 -17 80 -24 34 -7 73 -24
92 -38 17 -14 48 -37 69 -51 63 -42 184 -162 191 -189 4 -15 15 -39 25 -56 10
-16 18 -44 18 -62 0 -17 9 -52 20 -78 11 -26 20 -61 20 -78 0 -17 7 -38 15
-47 8 -9 18 -44 21 -78 5 -41 13 -67 25 -78 14 -13 19 -31 19 -73 0 -34 8 -73
20 -100 11 -24 20 -58 20 -76 0 -18 6 -38 14 -44 8 -7 18 -38 21 -69 4 -31 13
-66 20 -78 7 -11 18 -56 25 -100 6 -43 17 -95 25 -114 7 -19 18 -53 23 -75 6
-22 21 -69 32 -105 43 -129 63 -221 52 -232 -6 -6 -34 -12 -64 -14 -126 -8
-208 -22 -281 -47 -42 -15 -88 -27 -101 -27 -12 0 -31 -9 -41 -20 -11 -12 -31
-20 -49 -20 -17 0 -42 -9 -56 -20 -14 -11 -37 -20 -51 -20 -15 0 -33 -8 -40
-17 -8 -9 -45 -32 -84 -50 -89 -43 -110 -56 -133 -76 -10 -10 -24 -17 -31 -17
-15 0 -58 -31 -114 -82 -22 -21 -47 -38 -55 -38 -8 0 -30 -17 -50 -37 -19 -20
-54 -49 -78 -64 -23 -16 -50 -42 -59 -58 -8 -17 -28 -37 -44 -45 -31 -16 -81
-71 -81 -88 0 -6 -26 -36 -58 -67 -33 -31 -66 -69 -75 -86 -8 -16 -27 -41 -41
-54 -14 -14 -26 -30 -26 -36 0 -7 -9 -20 -20 -30 -11 -10 -20 -23 -20 -30 0
-6 -9 -23 -20 -36 -46 -54 -100 -134 -100 -149 0 -8 -14 -35 -30 -60 -43 -65
-45 -68 -80 -142 -17 -37 -35 -70 -40 -73 -6 -4 -10 -16 -10 -29 0 -24 -55
-142 -71 -151 -5 -4 -9 -21 -9 -40 0 -18 -6 -40 -14 -47 -7 -8 -17 -34 -21
-59 -4 -24 -13 -53 -19 -64 -7 -11 -19 -45 -26 -75 -8 -30 -20 -64 -27 -75 -7
-11 -13 -31 -13 -46 0 -15 -6 -32 -14 -38 -8 -7 -16 -45 -20 -99 -5 -55 -13
-93 -23 -104 -8 -9 -16 -29 -18 -45 -10 -94 -20 -140 -31 -158 -8 -11 -14 -39
-14 -63 0 -24 -5 -52 -10 -63 -11 -20 -14 -46 -27 -215 -5 -56 -13 -107 -20
-115 -11 -13 -16 -68 -29 -278 -3 -58 -11 -103 -20 -115 -10 -14 -14 -50 -14
-123 0 -56 -5 -114 -11 -130 -26 -64 -39 -2082 -14 -2103 11 -9 15 -35 15
-109 0 -53 5 -125 11 -161 15 -86 15 -120 -2 -130 -22 -14 -19 -19 -93 142
-14 31 -26 60 -26 64 0 4 -15 25 -34 48 -18 23 -42 56 -52 75 -42 74 -87 141
-123 180 -17 19 -31 38 -31 42 0 4 -24 32 -54 63 -30 30 -57 64 -60 74 -7 22
-430 452 -445 452 -5 0 -38 27 -71 60 -34 34 -74 68 -88 78 -15 9 -40 29 -57
44 -30 27 -66 54 -135 101 -19 14 -44 34 -54 46 -11 11 -27 21 -37 21 -10 0
-23 9 -29 19 -5 11 -20 23 -32 27 -13 4 -40 21 -60 38 -66 56 -96 76 -111 76
-9 0 -19 4 -22 10 -10 15 -158 110 -173 110 -7 0 -32 15 -55 34 -23 18 -69 48
-102 65 -32 18 -67 38 -75 46 -9 8 -19 15 -23 15 -7 0 -52 32 -127 87 -24 18
-50 33 -59 33 -9 0 -40 18 -69 40 -29 22 -57 40 -64 40 -6 0 -33 16 -60 36
-27 19 -59 39 -71 43 -12 5 -47 25 -77 45 -30 20 -60 36 -66 36 -6 0 -19 9
-29 20 -10 11 -23 20 -29 20 -6 0 -33 17 -61 38 -69 52 -119 82 -138 82 -8 0
-17 5 -19 12 -3 7 -21 22 -40 33 -58 33 -182 117 -198 135 -8 9 -46 36 -84 60
-38 24 -86 61 -108 82 -22 21 -45 38 -51 38 -35 0 -370 369 -417 460 -13 25
-27 52 -32 60 -4 8 -17 34 -27 56 -11 23 -24 45 -30 48 -6 4 -11 22 -11 39 0
18 -7 45 -15 60 -43 83 -49 477 -8 567 11 25 23 56 26 70 4 14 22 44 42 67 19
23 35 45 35 50 0 31 301 353 330 353 7 0 38 27 70 60 32 33 65 60 74 60 8 0
30 16 48 36 18 19 49 45 70 56 21 12 45 32 53 45 9 13 23 23 33 23 10 0 36 18
57 40 21 22 44 40 50 40 6 0 18 9 28 20 9 11 24 20 33 20 10 0 33 18 54 39 20
22 47 45 60 51 46 20 72 38 108 73 21 19 47 38 60 42 12 3 22 10 22 14 0 5 14
14 30 21 17 7 30 16 30 20 0 5 12 13 28 18 15 6 45 26 66 46 22 20 44 36 50
36 13 0 72 40 160 107 37 29 77 53 87 53 10 0 24 9 31 20 7 11 17 20 23 20 5
0 36 18 68 40 31 22 61 40 66 40 5 0 22 11 37 24 47 40 124 96 132 96 4 0 39
20 77 45 95 61 104 67 134 91 14 12 36 24 49 28 12 4 22 11 22 17 0 5 15 16
33 24 33 16 91 54 192 129 33 24 71 49 85 56 14 7 34 21 45 32 11 10 51 39 90
64 38 25 74 52 78 60 4 8 17 14 27 14 11 0 27 9 37 19 10 11 54 46 98 79 44
33 90 70 103 81 12 12 27 21 33 21 5 0 31 20 57 44 26 24 61 52 78 62 17 11
45 36 63 57 18 20 41 37 50 37 9 0 50 34 91 76 41 42 83 79 92 82 10 4 131
118 270 254 139 135 286 278 326 317 40 39 76 71 80 71 5 0 45 35 90 78 45 42
109 97 142 122 34 25 68 53 78 63 9 9 24 17 33 17 9 0 36 15 60 34 39 29 72
45 177 87 13 5 33 9 46 9 13 0 29 7 36 15 8 10 31 15 64 16 28 0 60 4 71 9 23
11 234 6 315 -7z m1429 -3530 c6 -21 11 -57 11 -81 0 -23 6 -53 14 -65 7 -12
17 -49 20 -82 4 -32 13 -66 21 -75 8 -9 15 -30 15 -46 0 -16 9 -61 20 -99 12
-39 23 -92 26 -120 3 -27 12 -58 22 -68 29 -32 25 -396 -4 -429 -12 -13 -32
-52 -44 -88 -12 -36 -30 -72 -39 -80 -10 -8 -32 -44 -50 -80 -17 -36 -37 -74
-43 -85 -53 -94 -88 -173 -88 -198 0 -13 -7 -44 -15 -67 -41 -117 33 -159 91
-51 13 25 39 61 59 81 19 20 35 42 35 50 0 8 18 42 40 75 22 33 40 66 40 74 0
7 11 26 25 43 14 16 25 36 25 44 0 8 4 22 10 32 22 40 60 130 60 142 0 24 41
100 55 100 27 0 72 -108 94 -226 4 -23 15 -49 24 -59 9 -9 17 -23 17 -31 0 -8
9 -31 20 -51 11 -21 20 -45 20 -53 0 -9 9 -33 20 -55 11 -22 20 -49 20 -61 0
-12 7 -27 15 -34 8 -7 15 -25 15 -39 0 -15 11 -42 25 -61 14 -18 28 -50 31
-69 4 -20 13 -45 20 -56 8 -11 14 -40 14 -65 0 -75 -39 -93 -225 -103 -27 -1
-60 -8 -72 -15 -12 -6 -52 -12 -90 -12 -43 0 -76 -5 -89 -14 -11 -8 -31 -15
-44 -15 -77 -3 -137 -15 -155 -31 -15 -13 -45 -19 -125 -25 -58 -4 -111 -12
-118 -18 -7 -6 -52 -14 -100 -19 -83 -8 -133 -15 -265 -37 -33 -5 -66 -16 -75
-24 -22 -18 -197 -24 -218 -6 -19 15 -18 38 3 61 9 11 20 42 24 71 4 29 12 70
19 92 6 22 15 60 19 85 4 25 15 60 25 79 10 18 20 59 23 90 3 31 12 65 19 76
8 11 14 29 14 42 0 12 5 25 10 28 6 3 10 17 10 30 0 14 12 50 26 82 14 32 31
85 39 118 16 73 41 141 60 169 8 11 15 32 15 46 0 14 9 36 20 50 11 14 20 39
20 56 0 17 8 38 19 48 10 9 21 35 24 57 3 22 12 48 21 58 9 10 16 24 16 31 0
12 8 31 48 120 7 14 16 32 21 40 9 15 112 230 156 325 46 101 95 196 112 217
6 7 14 24 18 38 4 14 13 32 20 40 7 8 25 39 40 68 42 81 78 94 94 35z m2411
-3245 c0 -82 -203 -348 -292 -381 -12 -4 -48 -35 -81 -67 -32 -33 -63 -60 -69
-60 -6 0 -37 -25 -70 -55 -32 -30 -64 -55 -70 -55 -6 0 -27 -17 -47 -39 -20
-21 -46 -42 -59 -45 -13 -4 -33 -16 -45 -27 -70 -63 -106 -89 -119 -89 -9 0
-21 -7 -28 -15 -7 -9 -38 -28 -67 -42 -30 -15 -59 -35 -64 -45 -5 -10 -17 -18
-27 -18 -9 -1 -60 -23 -112 -50 -169 -86 -217 -108 -262 -115 -23 -4 -53 -13
-65 -21 -12 -8 -33 -14 -45 -14 -13 0 -33 -7 -45 -15 -11 -8 -47 -18 -79 -21
-33 -4 -67 -14 -78 -23 -29 -25 -685 -24 -713 1 -11 10 -35 18 -54 18 -19 0
-47 9 -64 20 -16 11 -42 20 -56 20 -15 0 -32 6 -38 14 -7 8 -34 17 -60 21 -44
6 -107 34 -246 109 -27 15 -56 33 -65 41 -9 8 -19 15 -23 15 -6 0 -30 16 -142
96 -58 41 -185 162 -185 175 0 6 -27 37 -60 71 -43 45 -60 70 -60 89 0 15 -6
32 -14 38 -26 22 -47 287 -26 327 8 14 10 38 6 62 -13 82 36 77 129 -12 31
-31 62 -56 67 -56 5 0 41 -34 80 -75 38 -41 75 -75 80 -75 6 0 46 -33 88 -74
43 -41 91 -82 106 -92 16 -10 45 -33 64 -51 19 -18 39 -33 46 -33 6 0 19 -9
29 -20 10 -11 24 -20 31 -20 7 0 21 -8 31 -19 24 -25 93 -61 116 -61 11 0 55
-15 98 -34 44 -19 115 -40 157 -47 42 -6 91 -18 109 -25 19 -9 67 -14 121 -14
50 0 93 -4 97 -10 9 -14 525 -6 554 9 14 8 37 10 57 7 23 -5 47 -1 78 14 25
11 56 20 68 20 24 0 227 77 280 106 14 7 35 14 45 14 11 0 43 18 72 39 29 22
66 43 81 46 16 3 34 13 41 21 6 8 20 14 30 14 10 0 26 8 36 18 10 10 53 40 96
67 42 27 77 51 77 55 0 4 11 12 24 18 13 6 52 32 86 59 34 26 72 55 85 64 40
26 105 81 167 142 32 31 63 57 69 57 5 0 31 20 56 45 53 53 73 48 73 -17z"/>
<path d="M8249 19607 c-15 -12 -34 -37 -44 -56 -9 -18 -52 -71 -96 -118 -43
-46 -79 -88 -79 -93 0 -5 -19 -29 -42 -54 -50 -52 -104 -122 -171 -222 -26
-40 -54 -75 -62 -78 -8 -3 -15 -14 -15 -25 0 -11 -4 -23 -10 -26 -17 -10 -163
-233 -202 -306 -20 -39 -43 -78 -50 -87 -8 -9 -29 -46 -47 -82 -31 -64 -41
-82 -61 -117 -6 -10 -15 -28 -20 -40 -6 -13 -14 -33 -20 -45 -5 -13 -14 -30
-19 -38 -5 -8 -14 -26 -20 -40 -6 -14 -24 -47 -40 -75 -16 -27 -30 -64 -30
-81 -1 -18 -10 -39 -21 -49 -12 -11 -20 -31 -20 -51 0 -18 -7 -39 -15 -48 -8
-8 -27 -47 -41 -88 -15 -40 -31 -79 -37 -87 -12 -14 -42 -117 -56 -186 -7 -37
-28 -105 -72 -233 -11 -30 -19 -66 -19 -81 0 -14 -6 -36 -14 -47 -23 -33 -23
-144 0 -179 59 -90 80 -92 141 -15 26 34 74 90 106 125 31 36 57 68 57 73 0 5
27 35 60 68 33 32 60 66 60 74 0 8 84 98 186 200 102 102 192 197 199 211 8
14 31 37 52 51 21 14 97 85 170 157 72 72 137 131 143 131 6 0 53 41 103 90
50 50 94 90 98 90 4 0 34 23 66 51 32 28 68 55 81 60 12 5 22 13 22 18 0 5 24
25 53 44 28 19 63 47 77 62 24 26 105 85 156 113 13 7 24 17 24 21 0 4 35 29
78 56 42 27 86 57 97 68 11 10 50 38 86 61 36 23 78 51 93 64 16 12 51 33 80
46 28 13 65 38 81 55 17 17 36 31 42 31 18 0 166 137 177 163 4 12 13 32 19
45 18 38 -37 66 -69 35 -24 -24 -108 -78 -169 -109 -27 -13 -75 -42 -105 -64
-30 -22 -84 -56 -120 -77 -63 -35 -131 -82 -179 -123 -13 -11 -30 -20 -36 -20
-7 0 -20 -9 -30 -20 -10 -11 -25 -20 -33 -20 -7 0 -26 -13 -41 -29 -14 -15
-41 -36 -59 -45 -17 -9 -32 -20 -32 -25 0 -5 -13 -13 -28 -19 -15 -5 -42 -22
-59 -38 -32 -30 -74 -62 -169 -129 -32 -22 -85 -66 -119 -97 -34 -32 -66 -58
-71 -58 -6 0 -37 -26 -70 -59 -33 -32 -80 -73 -105 -90 -90 -65 -697 -680
-726 -734 -8 -16 -32 -44 -54 -64 -21 -19 -39 -40 -39 -45 0 -12 -91 -128
-100 -128 -23 0 -33 32 -21 69 6 21 11 61 11 88 0 28 6 58 15 69 8 10 15 28
15 39 0 23 55 159 76 190 8 11 14 29 14 40 0 11 7 31 14 45 8 14 31 57 50 97
20 40 41 75 46 78 6 3 10 17 10 30 0 21 57 142 80 170 15 18 80 145 80 156 0
5 15 31 33 57 18 26 48 79 67 117 18 39 39 74 47 78 7 4 13 14 13 22 0 8 11
26 25 41 13 14 34 47 46 73 13 25 29 50 36 54 7 4 13 13 13 19 0 6 18 35 40
64 22 29 40 55 40 57 0 6 91 141 99 147 3 3 29 36 56 74 28 38 67 87 88 109
20 22 37 47 37 54 0 8 19 34 43 58 101 103 119 132 124 199 8 98 -16 127 -68
83z"/>
<path d="M8864 18272 c-6 -4 -27 -33 -48 -65 -21 -31 -43 -60 -50 -65 -14 -9
-66 -78 -66 -88 0 -4 -27 -40 -60 -81 -33 -40 -60 -77 -60 -82 0 -10 -86 -142
-98 -151 -12 -8 -62 -111 -62 -125 0 -8 -8 -20 -18 -27 -10 -7 -42 -60 -70
-118 -28 -58 -62 -122 -76 -143 -14 -20 -37 -63 -52 -95 -46 -102 -78 -166
-106 -215 -15 -26 -28 -56 -28 -65 0 -9 -7 -28 -15 -42 -8 -14 -23 -43 -34
-65 -29 -57 -89 -166 -100 -179 -20 -25 -19 -106 1 -131 28 -36 48 -31 91 23
21 26 105 116 185 201 81 84 151 161 156 170 5 9 60 66 122 128 63 62 126 129
140 150 25 38 72 91 212 241 39 43 72 83 72 89 0 6 18 31 41 55 22 23 45 52
52 64 28 50 67 103 89 121 13 10 28 26 33 35 41 64 99 138 129 165 76 67 23
131 -71 86 -37 -17 -113 -89 -113 -108 0 -5 -26 -37 -56 -70 -31 -33 -62 -71
-69 -85 -8 -14 -37 -47 -64 -74 -28 -27 -51 -56 -51 -64 0 -8 -26 -40 -58 -71
-32 -31 -65 -68 -75 -84 -10 -15 -45 -57 -77 -93 -33 -36 -60 -71 -60 -77 0
-6 -17 -27 -37 -46 -21 -20 -51 -56 -67 -81 -77 -118 -173 -152 -117 -41 12
22 21 49 21 59 0 11 6 25 14 31 8 7 17 28 21 48 4 20 15 48 26 62 59 78 91
125 99 147 6 14 29 52 52 85 107 151 162 229 203 291 25 37 49 70 55 73 5 3
10 14 10 25 0 10 6 20 14 23 25 10 78 116 86 175 10 74 -22 115 -66 84z"/>
<path d="M14672 18088 c-18 -18 -14 -52 8 -71 11 -9 20 -29 20 -43 0 -14 9
-37 20 -51 11 -14 20 -32 20 -39 0 -7 9 -18 20 -24 11 -6 20 -17 20 -26 0 -8
17 -33 39 -57 21 -23 40 -48 42 -54 2 -7 47 -56 99 -110 53 -54 108 -116 123
-138 32 -48 210 -225 226 -225 6 0 46 -34 89 -76 42 -41 88 -81 102 -89 14 -7
35 -25 47 -39 13 -14 30 -26 39 -26 9 0 33 -13 53 -29 20 -15 71 -45 113 -65
43 -21 80 -41 83 -47 4 -5 15 -9 26 -9 11 0 48 -9 82 -21 73 -25 82 -26 207
-39 52 -6 106 -12 118 -15 49 -12 70 41 33 80 -11 11 -47 52 -81 90 -33 39
-81 92 -105 119 -25 27 -45 55 -45 61 0 6 -36 49 -80 94 -44 46 -80 87 -80 93
0 5 -42 50 -93 101 -51 51 -101 105 -112 122 -17 27 -107 124 -257 276 -32 32
-58 62 -58 68 0 12 -67 34 -80 26 -18 -11 -12 -112 10 -152 11 -21 20 -42 20
-48 0 -6 9 -16 20 -23 11 -7 20 -18 20 -25 0 -16 500 -516 533 -534 43 -22
109 -120 105 -156 -4 -40 -39 -49 -71 -19 -12 11 -44 32 -71 46 -27 14 -54 30
-60 35 -6 5 -22 12 -36 16 -14 4 -33 16 -43 26 -10 11 -23 19 -30 19 -7 0 -29
15 -49 34 -20 19 -62 48 -92 66 -31 17 -58 35 -61 41 -4 5 -43 40 -88 78 -100
84 -252 237 -287 290 -15 22 -43 55 -63 74 -21 19 -37 38 -37 43 0 9 -62 97
-100 142 -11 13 -20 30 -20 37 0 7 -7 19 -16 26 -9 7 -20 22 -26 34 -29 62
-50 88 -84 106 -43 22 -94 25 -112 7z"/>
<path d="M13770 17932 c-43 -38 -42 -90 5 -157 19 -28 38 -59 44 -70 5 -12 24
-37 42 -57 49 -52 79 -94 79 -110 0 -8 18 -32 40 -53 22 -21 40 -44 40 -50 0
-7 9 -20 20 -30 11 -10 20 -24 20 -31 0 -7 18 -31 40 -53 22 -22 40 -44 40
-50 0 -6 13 -25 28 -43 15 -18 36 -44 45 -58 9 -14 33 -45 52 -70 19 -25 44
-62 56 -82 13 -21 26 -38 31 -38 4 0 14 -13 23 -29 8 -17 31 -47 50 -68 19
-21 35 -42 35 -46 0 -11 32 -53 83 -110 20 -23 40 -52 43 -64 3 -12 17 -29 31
-38 13 -9 31 -32 39 -51 8 -19 18 -34 23 -34 5 0 15 -16 21 -36 7 -19 19 -38
26 -41 8 -3 24 -22 35 -42 40 -74 106 -156 129 -159 l22 -4 -4 156 c-4 124 -8
160 -21 174 -12 13 -17 48 -21 152 -11 251 -14 287 -25 308 -6 11 -11 46 -11
76 0 31 -6 73 -14 93 -8 21 -17 60 -20 87 -7 58 -32 102 -78 136 -40 30 -58
29 -103 -6 l-36 -27 3 -91 c3 -62 11 -112 27 -156 38 -107 43 -123 53 -175 17
-95 21 -184 8 -200 -19 -23 -30 -18 -47 23 -8 20 -30 55 -47 77 -18 22 -36 47
-39 55 -4 8 -15 27 -25 41 -9 14 -30 46 -46 70 -16 24 -48 69 -71 100 -24 31
-46 65 -49 75 -3 11 -21 35 -38 54 -35 36 -48 56 -72 105 -8 17 -24 39 -36 50
-27 24 -188 234 -210 273 -8 15 -30 43 -47 62 -18 19 -33 38 -33 42 0 4 -15
28 -34 53 -19 24 -37 53 -41 64 -9 31 -32 32 -65 3z"/>
<path d="M17467 15713 c-11 -10 -8 -78 4 -90 6 -6 13 -31 15 -54 12 -137 17
-165 34 -184 12 -14 19 -44 24 -99 3 -44 12 -89 20 -101 8 -11 16 -43 19 -70
6 -56 20 -131 35 -188 6 -20 8 -46 5 -56 -2 -10 4 -38 15 -62 11 -26 22 -79
25 -127 4 -52 12 -88 21 -98 10 -10 14 -33 13 -77 -2 -73 5 -87 42 -87 30 0
51 16 51 40 0 8 9 32 20 53 11 20 20 47 20 59 1 13 9 41 20 63 11 22 19 54 20
70 0 17 5 36 12 43 15 15 37 96 38 137 0 17 7 40 15 52 13 19 15 61 12 285 -6
351 -9 368 -78 368 -59 0 -64 -18 -48 -169 17 -167 14 -419 -7 -518 -10 -52
-58 -22 -67 42 -13 86 -20 115 -28 121 -5 3 -9 27 -9 53 0 27 -6 67 -14 89 -8
23 -15 49 -15 59 0 25 -18 117 -30 156 -23 74 -32 118 -26 128 4 5 0 21 -9 34
-9 13 -16 33 -16 44 0 53 -101 117 -133 84z"/>
<path d="M16435 16040 c-11 -5 -32 -9 -46 -9 -14 -1 -36 -10 -49 -21 -13 -11
-28 -20 -35 -20 -7 0 -20 -9 -30 -20 -10 -11 -23 -20 -29 -20 -15 0 -146 -132
-146 -147 0 -6 -7 -16 -15 -23 -11 -9 -15 -34 -15 -101 0 -86 1 -89 25 -95 33
-8 55 1 55 23 0 51 153 215 246 263 155 81 362 19 447 -134 19 -36 22 -55 22
-158 0 -130 2 -136 44 -118 32 13 51 52 51 106 0 18 8 46 17 62 16 28 16 31
-5 71 -12 23 -22 55 -22 71 0 71 -100 197 -197 245 -58 30 -271 46 -318 25z"/>
<path d="M16415 15066 c-28 -20 -12 -62 33 -85 47 -25 92 -82 92 -118 0 -16 9
-45 19 -65 20 -36 20 -36 0 -74 -10 -21 -19 -53 -19 -71 0 -17 -4 -34 -10 -38
-5 -3 -24 -35 -41 -71 -18 -36 -38 -68 -45 -71 -7 -3 -24 -24 -38 -46 -26 -45
-194 -210 -272 -267 -82 -60 -153 -91 -226 -97 -78 -7 -88 4 -88 96 0 105 -94
124 -131 26 -10 -27 -19 -62 -19 -76 0 -71 93 -189 149 -189 15 0 32 -5 39
-12 32 -32 226 32 316 106 31 25 63 46 72 46 20 0 175 155 208 208 14 23 30
42 35 42 5 0 23 21 40 48 45 69 54 82 72 106 25 33 79 151 79 172 0 10 7 28
15 38 26 34 21 207 -7 257 -49 87 -112 132 -199 142 -39 5 -61 3 -74 -7z"/>
<path d="M9387 14613 c-4 -3 -7 -15 -7 -27 0 -11 -9 -38 -19 -60 -11 -23 -29
-70 -41 -106 -12 -36 -30 -77 -41 -92 -10 -15 -19 -39 -19 -54 0 -15 -6 -35
-14 -43 -8 -9 -26 -47 -40 -86 -15 -38 -31 -77 -36 -85 -36 -59 -70 -138 -70
-160 0 -15 -9 -35 -20 -45 -11 -10 -23 -34 -26 -54 -4 -20 -12 -43 -19 -51
-34 -41 -34 -262 1 -291 8 -6 14 -22 14 -36 0 -31 12 -53 55 -100 19 -21 35
-43 35 -50 0 -15 671 -693 686 -693 6 0 19 -9 29 -20 10 -11 29 -20 42 -20 12
0 32 -9 43 -20 52 -52 92 19 56 103 -14 35 -143 167 -163 167 -6 0 -54 42
-106 93 -52 51 -110 103 -130 117 -21 14 -39 32 -42 41 -3 9 -57 69 -120 133
-63 64 -115 121 -115 126 0 6 -18 29 -41 52 -110 114 -130 287 -53 455 13 28
24 57 24 63 0 10 6 23 32 73 16 30 47 93 69 142 10 22 23 47 28 55 5 8 12 22
15 30 3 8 10 22 14 30 58 101 84 358 41 399 -23 21 -50 27 -62 14z"/>
<path d="M15947 11583 c-3 -5 -8 -23 -12 -40 -3 -18 -11 -33 -16 -33 -13 0
-27 -39 -30 -86 -1 -21 -8 -48 -14 -59 -7 -11 -15 -41 -19 -65 -4 -25 -11 -74
-17 -110 -6 -36 -13 -101 -15 -145 -4 -49 -11 -86 -20 -96 -12 -13 -16 -78
-20 -345 -5 -251 -10 -334 -20 -351 -11 -17 -14 -174 -19 -825 -12 -1801 -20
-2352 -32 -2381 -10 -21 -13 -119 -13 -373 0 -258 -3 -351 -12 -367 -9 -14
-14 -74 -15 -172 -4 -237 -17 -451 -29 -466 -11 -14 -24 -146 -28 -284 -1 -38
-9 -81 -16 -95 -8 -14 -18 -70 -22 -125 -4 -55 -12 -127 -18 -160 -6 -33 -14
-87 -18 -120 -4 -33 -13 -69 -19 -80 -6 -11 -16 -56 -23 -100 -7 -44 -18 -89
-26 -100 -8 -10 -14 -42 -14 -70 0 -28 -6 -59 -14 -70 -13 -19 -22 -69 -29
-158 -2 -22 -11 -43 -23 -51 -17 -13 -18 -15 -2 -21 23 -9 76 29 84 60 3 13
12 29 20 36 8 6 14 19 14 28 0 9 8 32 19 51 10 19 22 54 25 77 4 23 14 47 22
54 8 6 14 21 14 33 0 11 9 35 20 51 12 18 20 47 20 71 0 24 6 47 15 54 8 6 14
24 14 38 0 39 17 136 29 158 15 29 32 110 32 153 0 24 5 41 14 44 16 7 29 107
26 223 -1 62 3 84 14 94 13 10 16 39 16 159 0 111 3 152 14 167 12 17 16 118
22 575 6 514 8 556 26 589 17 32 18 64 20 425 1 600 12 1098 23 1115 6 9 13
236 18 590 4 316 11 764 16 995 6 231 14 614 19 852 7 375 10 435 24 450 19
21 33 127 24 177 -7 34 -36 51 -49 29z"/>
<path d="M15833 4223 c-17 -2 -37 -11 -43 -19 -7 -8 -27 -14 -46 -14 -37 0
-169 -59 -212 -94 -15 -13 -39 -26 -53 -29 -32 -8 -205 -171 -246 -231 -15
-22 -34 -45 -40 -49 -7 -4 -13 -13 -13 -18 0 -6 -18 -36 -40 -66 -22 -31 -40
-64 -40 -73 0 -10 -8 -28 -18 -41 -9 -13 -37 -64 -61 -114 -23 -49 -52 -107
-62 -127 -10 -20 -19 -50 -19 -66 0 -16 -9 -41 -20 -55 -11 -14 -20 -37 -20
-52 0 -15 -9 -38 -20 -52 -11 -14 -20 -38 -20 -54 0 -15 -7 -34 -15 -43 -35
-34 -48 -277 -17 -308 16 -16 58 23 83 77 11 22 32 63 48 90 16 28 30 59 30
70 1 11 19 64 41 118 22 53 40 102 40 108 0 6 9 22 20 36 11 14 20 38 20 52 0
15 6 35 14 46 7 11 16 38 20 60 9 49 46 129 92 198 19 28 34 62 34 74 0 13 16
37 40 60 23 20 51 53 62 72 25 41 49 66 128 129 30 25 57 48 60 52 3 4 21 15
40 24 19 9 64 32 100 51 35 19 74 35 86 35 12 0 27 7 34 15 8 10 30 15 60 15
68 0 112 37 108 89 l-3 36 -60 1 c-33 1 -74 -1 -92 -3z"/>
<path d="M22036 8623 c-144 -3 -194 -7 -205 -17 -14 -12 -40 -17 -163 -28 -15
-2 -33 -9 -39 -15 -7 -7 -27 -13 -45 -13 -17 0 -37 -6 -43 -14 -6 -8 -32 -17
-56 -20 -27 -4 -68 -23 -103 -47 -33 -21 -63 -39 -68 -39 -9 0 -81 -48 -102
-67 -7 -7 -19 -13 -25 -13 -7 0 -32 -18 -56 -40 -24 -22 -48 -40 -52 -40 -5 0
-35 -25 -66 -55 -31 -30 -61 -55 -65 -55 -5 0 -30 -19 -56 -43 -26 -23 -65
-56 -87 -72 -22 -16 -60 -51 -84 -78 -24 -26 -56 -54 -72 -62 -15 -8 -59 -46
-96 -84 -38 -38 -77 -70 -86 -72 -10 -2 -107 -93 -216 -201 -109 -109 -202
-198 -206 -198 -4 0 -18 -10 -30 -22 -12 -13 -133 -133 -268 -267 -136 -134
-247 -248 -247 -254 0 -5 -108 -117 -239 -248 -132 -132 -241 -246 -243 -253
-2 -8 -83 -96 -180 -195 -98 -99 -178 -185 -178 -190 0 -5 -54 -63 -120 -129
-66 -67 -120 -127 -120 -134 0 -8 -36 -49 -80 -91 -44 -43 -80 -84 -80 -92 0
-8 -25 -38 -56 -67 -30 -29 -62 -65 -70 -80 -8 -15 -37 -50 -64 -76 -28 -27
-50 -52 -50 -56 0 -9 -33 -51 -88 -112 -46 -52 -102 -130 -102 -143 0 -6 -11
-18 -25 -27 -14 -9 -25 -22 -25 -28 0 -13 -68 -109 -100 -141 -11 -12 -20 -25
-20 -31 0 -6 -27 -46 -60 -89 -33 -43 -60 -83 -60 -88 0 -5 -13 -26 -29 -46
-17 -21 -36 -50 -43 -67 -7 -16 -21 -35 -30 -42 -10 -7 -18 -20 -18 -28 0 -8
-18 -37 -40 -65 -22 -28 -40 -58 -40 -66 0 -8 -18 -40 -40 -72 -22 -31 -40
-61 -40 -65 0 -15 -54 -120 -70 -136 -13 -14 -38 -58 -55 -100 -3 -8 -17 -33
-31 -55 -13 -22 -27 -48 -31 -59 -3 -10 -17 -39 -30 -63 -12 -24 -23 -50 -23
-57 0 -8 -7 -19 -15 -26 -8 -7 -22 -36 -31 -64 -8 -28 -23 -65 -32 -83 -63
-118 -82 -159 -82 -178 0 -13 -7 -28 -15 -35 -8 -7 -20 -31 -26 -54 -13 -46
-59 -145 -71 -152 -4 -3 -8 -27 -8 -53 0 -31 -5 -53 -15 -61 -8 -7 -21 -33
-29 -59 -23 -70 -43 -123 -60 -156 -9 -16 -16 -45 -16 -64 0 -19 -7 -42 -15
-51 -8 -9 -17 -43 -21 -75 -4 -34 -15 -70 -26 -84 -10 -13 -18 -35 -18 -48 0
-13 -5 -34 -11 -46 -24 -43 -52 -161 -65 -272 -4 -27 -12 -57 -19 -65 -12 -14
-16 -30 -31 -140 -4 -25 -11 -50 -16 -56 -5 -7 -10 -27 -13 -45 -2 -19 -11
-74 -20 -124 -10 -49 -19 -121 -22 -160 -3 -40 -11 -77 -19 -86 -9 -10 -14
-37 -14 -75 1 -117 -11 -229 -25 -240 -16 -12 -23 -108 -31 -388 -3 -105 -9
-195 -15 -202 -12 -14 -18 -444 -6 -462 6 -8 39 -12 109 -12 l100 0 -8 32
c-10 41 -9 1010 1 1138 4 52 14 107 21 122 8 15 14 55 14 90 0 38 6 72 14 83
7 11 17 62 21 115 5 63 13 105 25 125 11 17 16 41 13 55 -2 14 5 62 17 105 12
44 23 94 26 110 3 17 9 39 13 50 12 29 31 112 31 134 0 10 6 23 13 29 7 6 19
49 27 94 7 46 19 92 26 103 8 11 14 28 14 38 0 10 7 31 15 45 22 39 57 142 62
182 3 19 11 42 19 50 7 8 17 35 23 58 5 24 16 51 25 61 9 10 16 28 16 40 0 12
6 32 14 44 8 12 24 51 36 87 12 36 41 107 66 158 24 51 44 96 44 101 0 5 6 14
14 20 8 6 17 31 20 55 4 24 16 52 26 61 11 10 20 26 20 35 0 10 7 23 15 30 8
6 17 22 20 33 7 22 41 100 57 127 5 8 15 29 23 47 8 17 19 34 24 37 11 7 45
78 61 128 6 20 14 38 18 40 10 5 52 66 52 76 0 5 9 21 21 36 27 34 69 113 69
130 0 7 9 21 20 31 17 16 46 61 100 157 8 14 39 61 68 103 28 42 52 79 52 82
0 3 18 28 40 55 22 28 40 57 40 64 0 7 6 17 13 21 15 10 67 86 67 99 0 6 16
26 36 45 20 18 40 43 46 54 25 52 46 83 81 117 20 21 37 42 37 48 0 12 38 61
113 146 26 30 47 60 47 67 0 6 18 28 40 47 22 19 40 40 40 46 0 6 27 41 60 77
33 36 60 69 60 74 0 5 27 35 60 68 33 33 60 65 60 72 0 7 28 41 63 75 35 35
78 83 97 108 19 25 79 89 133 143 54 54 101 107 105 117 10 27 966 988 1016
1022 22 14 106 91 187 170 228 222 387 368 400 368 7 0 56 44 109 98 53 53
114 109 136 124 21 15 64 52 94 83 30 30 59 55 64 55 6 0 29 18 51 41 106 108
206 199 218 199 7 0 32 20 56 44 23 24 61 52 84 63 23 12 75 37 114 56 40 19
97 38 125 42 29 4 60 13 68 20 8 7 44 16 80 20 114 11 1411 16 1785 7 322 -9
361 -8 373 6 20 25 14 56 -15 83 -64 58 -70 59 -281 65 -129 4 -204 11 -217
19 -21 12 -950 25 -1359 18z"/>
<path d="M18266 7785 c-81 -85 -154 -155 -162 -155 -8 0 -38 -23 -67 -51 -51
-50 -130 -109 -146 -109 -4 0 -18 -11 -31 -25 -13 -14 -28 -25 -34 -26 -6 0
-38 -20 -71 -45 -33 -24 -80 -53 -104 -64 -24 -11 -60 -33 -80 -49 -20 -16
-47 -32 -61 -36 -22 -7 -51 -24 -125 -75 -12 -8 -35 -24 -51 -34 -16 -11 -55
-44 -86 -73 -31 -29 -62 -53 -68 -53 -17 0 -320 -302 -320 -318 0 -7 -32 -46
-71 -85 -66 -67 -145 -174 -169 -229 -5 -12 -14 -30 -19 -38 -19 -29 -49 -106
-55 -135 -15 -82 -24 -122 -35 -148 -6 -16 -11 -51 -11 -78 0 -28 -7 -64 -17
-82 -14 -29 -16 -89 -17 -561 l-1 -530 29 -7 c38 -10 52 -2 76 46 19 37 20 59
20 395 0 271 3 359 13 369 7 7 12 41 13 84 1 94 14 178 29 197 12 13 16 37 28
157 1 18 8 38 15 45 7 7 12 19 12 29 0 9 11 37 25 63 14 26 25 52 25 57 0 6 9
22 20 36 11 14 20 35 20 47 0 19 18 52 80 142 8 12 24 36 35 53 10 17 23 31
27 31 4 0 14 12 22 28 14 27 214 232 227 232 3 0 34 24 67 53 84 72 118 97
131 97 7 0 27 15 45 33 18 17 48 41 67 52 19 11 53 31 76 45 24 14 52 33 63
42 10 9 32 24 47 33 15 8 42 24 58 35 17 11 42 26 57 35 15 8 44 30 64 49 21
19 49 37 64 39 14 3 41 22 60 41 19 20 42 36 51 36 8 0 28 14 45 31 16 17 41
39 57 49 44 27 337 318 337 334 0 9 7 31 16 50 16 33 16 35 -5 65 -38 53 -53
45 -215 -124z"/>
<path d="M18900 5133 c-7 -21 -21 -49 -31 -62 -11 -13 -19 -30 -19 -37 0 -14
-34 -76 -62 -113 -10 -13 -18 -39 -18 -57 0 -18 -4 -35 -9 -38 -5 -3 -20 -32
-35 -63 -15 -32 -35 -74 -45 -93 -10 -19 -21 -51 -25 -71 -4 -21 -13 -42 -21
-49 -8 -7 -18 -28 -21 -48 -4 -20 -19 -61 -35 -92 -15 -31 -31 -69 -35 -86 -3
-16 -14 -40 -22 -54 -9 -14 -17 -42 -18 -63 -1 -21 -9 -46 -18 -56 -9 -10 -16
-23 -16 -29 0 -11 -24 -88 -39 -127 -26 -65 -44 -126 -51 -172 -4 -29 -15 -62
-24 -75 -9 -12 -16 -34 -16 -48 0 -14 -7 -38 -16 -55 -26 -48 -64 -177 -64
-218 0 -24 -5 -40 -15 -43 -8 -4 -15 -17 -15 -29 0 -13 -13 -60 -30 -105 -16
-45 -30 -91 -30 -103 0 -12 -7 -31 -15 -41 -8 -11 -15 -41 -15 -67 0 -28 -6
-51 -14 -58 -8 -7 -17 -42 -21 -84 -4 -40 -13 -82 -21 -95 -8 -12 -17 -37 -19
-55 -12 -85 -18 -113 -29 -126 -14 -17 -24 -131 -36 -406 -12 -248 -12 -197 0
-475 17 -386 20 -428 36 -441 8 -6 14 -27 14 -45 0 -51 21 -174 36 -214 11
-31 19 -79 28 -175 1 -16 8 -40 14 -52 7 -12 12 -48 12 -79 0 -34 6 -64 13
-73 8 -9 20 -55 26 -103 7 -48 19 -92 26 -98 7 -6 16 -41 20 -78 4 -36 13 -76
21 -87 8 -10 14 -38 14 -60 0 -63 38 -187 65 -213 20 -18 36 -22 85 -22 64 0
69 4 45 30 -9 10 -17 39 -20 66 -5 68 -16 117 -27 131 -6 7 -15 45 -20 85 -18
138 -20 148 -29 154 -5 3 -9 33 -9 67 0 43 -5 70 -17 87 -11 15 -18 46 -19 85
-2 85 -18 197 -29 215 -6 8 -13 51 -17 95 -14 148 -20 190 -29 200 -5 5 -9 50
-9 100 0 63 -4 97 -14 111 -16 23 -25 153 -30 454 -3 139 -7 182 -20 207 -20
41 -21 119 0 158 12 22 17 64 18 160 3 166 14 272 32 312 8 17 14 51 14 75 0
24 9 60 20 81 11 20 20 53 20 72 0 20 9 53 19 74 11 21 23 62 27 92 4 30 11
60 17 67 5 7 14 31 19 55 5 23 13 60 19 82 6 22 13 54 16 70 3 17 11 37 17 45
7 8 18 40 26 70 7 30 19 64 25 75 7 11 16 46 19 78 4 32 13 72 21 87 8 16 15
40 15 53 0 14 6 30 14 36 7 6 17 30 20 53 4 23 16 62 26 86 11 25 20 54 20 66
0 11 16 66 36 121 20 55 38 116 41 135 3 19 13 44 23 55 10 11 21 45 25 77 3
32 10 60 15 63 5 3 16 27 24 53 19 58 48 135 70 184 9 21 16 48 16 61 0 14 7
30 15 37 8 7 15 24 15 38 0 13 9 39 19 56 10 17 22 47 26 66 4 19 17 47 28 62
18 24 19 34 11 75 -12 62 -37 70 -54 16z"/>
<path d="M21753 4230 c-29 -12 -36 -81 -23 -235 13 -154 20 -197 35 -210 7 -5
16 -37 19 -70 4 -33 13 -70 21 -82 8 -12 15 -31 15 -41 0 -10 7 -27 15 -38 11
-14 14 -52 15 -160 l0 -141 36 -67 c22 -43 33 -74 29 -87 -4 -10 1 -33 9 -51
11 -21 16 -59 16 -122 0 -68 4 -97 16 -115 12 -16 15 -34 10 -62 -4 -25 0 -61
10 -96 9 -31 14 -71 11 -90 -4 -23 0 -46 13 -71 10 -20 22 -68 26 -107 3 -38
11 -79 17 -90 6 -11 14 -47 19 -80 4 -33 12 -80 18 -105 6 -25 15 -69 20 -98
5 -29 13 -58 18 -65 6 -7 12 -34 15 -62 12 -102 23 -163 34 -176 10 -13 25
-143 24 -200 -1 -15 6 -32 14 -39 11 -9 15 -34 15 -99 0 -62 4 -93 16 -109 8
-12 13 -30 9 -40 -3 -10 1 -37 9 -60 9 -24 12 -56 9 -76 -4 -24 0 -44 11 -61
10 -14 19 -45 21 -68 3 -23 8 -71 11 -107 4 -36 11 -71 18 -79 6 -8 14 -53 18
-100 19 -220 38 -352 55 -373 6 -7 13 -56 17 -108 5 -66 13 -109 29 -142 l22
-47 63 -1 c68 0 81 18 48 65 -14 20 -25 141 -31 336 -2 57 -8 106 -16 120 -12
21 -21 106 -32 289 -2 25 -8 55 -15 67 -7 12 -12 57 -12 101 0 56 -4 83 -14
91 -14 12 -24 91 -31 242 -2 42 -10 89 -18 105 -9 19 -17 79 -21 169 -5 99
-12 145 -22 156 -8 9 -14 37 -14 65 0 27 -7 57 -15 67 -8 12 -11 31 -8 51 3
19 0 43 -6 55 -7 12 -14 51 -16 87 -2 43 -9 72 -20 84 -11 12 -16 34 -14 71 3
77 -11 190 -27 221 -8 15 -14 50 -14 77 0 28 -4 60 -9 73 -24 64 -32 104 -35
164 -1 36 -7 68 -13 72 -10 7 -14 36 -30 202 -3 36 -11 69 -18 75 -12 10 -26
84 -29 152 0 18 -7 38 -13 44 -7 7 -13 25 -13 41 0 15 -6 47 -14 70 -21 66
-38 184 -31 208 5 15 0 29 -13 43 -14 16 -21 43 -26 101 -3 43 -11 85 -18 94
-7 8 -16 39 -20 71 -5 31 -11 73 -14 94 -4 20 -10 40 -15 43 -5 3 -9 21 -9 40
0 35 -33 113 -54 126 -15 10 -76 9 -103 -2z"/>
<path d="M19016 3904 c-12 -32 -6 -72 14 -85 12 -8 23 -30 27 -54 3 -22 15
-51 25 -65 10 -14 29 -56 43 -94 14 -38 29 -74 34 -80 4 -6 11 -27 15 -46 3
-20 24 -71 46 -114 22 -43 40 -86 40 -95 0 -9 7 -26 15 -37 8 -10 17 -40 21
-66 4 -26 15 -55 25 -64 11 -9 19 -27 19 -38 0 -12 9 -34 20 -51 11 -16 20
-39 20 -50 0 -12 4 -25 9 -30 4 -6 16 -40 26 -78 10 -37 24 -72 31 -78 8 -6
14 -18 14 -26 0 -8 9 -26 20 -40 11 -14 20 -38 20 -52 0 -15 6 -36 14 -47 8
-11 17 -38 21 -60 4 -21 13 -48 20 -59 6 -11 17 -37 24 -57 7 -20 19 -42 27
-48 7 -7 14 -23 14 -37 0 -13 9 -41 19 -61 11 -20 27 -62 37 -92 9 -30 28 -75
41 -100 12 -25 23 -54 23 -66 0 -11 9 -31 20 -44 11 -13 20 -37 20 -55 0 -18
6 -38 14 -44 7 -6 16 -27 19 -46 3 -20 15 -47 26 -62 12 -14 21 -38 21 -53 0
-15 9 -39 20 -53 11 -14 20 -36 20 -50 0 -13 15 -58 34 -98 18 -41 37 -89 40
-106 4 -17 13 -37 21 -43 8 -6 17 -26 20 -43 6 -28 27 -91 56 -162 4 -11 13
-36 19 -56 6 -21 19 -47 30 -59 10 -12 22 -40 25 -63 4 -22 14 -47 21 -55 8
-7 14 -26 14 -42 0 -29 5 -42 53 -138 15 -28 27 -58 27 -65 1 -6 9 -30 20 -52
11 -22 19 -51 20 -64 0 -14 18 -62 40 -107 22 -46 40 -90 40 -99 0 -9 9 -28
20 -42 11 -14 20 -37 20 -52 0 -14 9 -39 20 -56 11 -16 20 -41 20 -53 0 -13 9
-35 20 -49 11 -14 20 -38 20 -53 0 -43 37 -70 97 -70 l50 0 -11 44 c-7 25 -19
53 -28 63 -8 10 -18 34 -22 54 -6 33 -34 96 -54 122 -5 7 -12 31 -16 53 -3 23
-15 61 -26 85 -11 24 -20 58 -20 75 0 18 -8 38 -19 48 -11 10 -22 35 -26 56
-4 21 -13 46 -20 57 -8 10 -15 28 -15 41 0 12 -9 39 -20 59 -11 21 -20 47 -20
58 0 11 -9 34 -20 50 -11 17 -20 38 -20 48 0 11 -9 30 -20 44 -11 14 -20 36
-20 48 0 13 -9 42 -20 66 -11 24 -20 55 -20 68 0 14 -6 32 -14 40 -14 17 -66
140 -66 158 0 6 -6 16 -14 22 -7 6 -17 30 -20 54 -4 23 -15 60 -25 82 -51 112
-61 137 -61 148 -1 6 -9 30 -20 52 -11 22 -19 49 -20 60 0 11 -6 29 -14 40 -7
11 -16 36 -20 56 -3 20 -15 44 -26 54 -10 9 -22 37 -26 61 -3 24 -12 49 -20
55 -8 6 -14 26 -14 43 0 17 -7 40 -15 50 -8 11 -15 30 -15 42 0 11 -11 38 -25
58 -14 20 -25 42 -25 47 0 6 -7 23 -15 37 -16 30 -40 93 -60 164 -7 25 -20 57
-29 69 -9 13 -16 30 -16 37 0 8 -9 25 -20 39 -11 14 -20 40 -20 57 0 17 -8 47
-19 66 -10 19 -28 64 -41 100 -12 36 -28 72 -35 80 -8 8 -19 36 -25 62 -7 26
-18 53 -26 59 -8 6 -14 25 -14 41 0 16 -9 41 -20 55 -11 14 -20 34 -20 43 0
10 -7 23 -15 30 -8 7 -17 28 -21 49 -4 20 -13 43 -21 52 -7 9 -17 34 -20 55
-3 22 -14 50 -25 63 -10 13 -18 29 -18 35 0 6 -18 47 -40 90 -22 44 -40 88
-40 98 0 10 -16 40 -35 67 -19 26 -35 53 -35 60 0 6 -9 16 -20 23 -11 7 -20
21 -20 30 0 10 -9 27 -19 37 -11 11 -24 29 -31 40 -13 25 -45 28 -54 5z"/>
<path d="M16268 2963 c-34 -39 -43 -73 -50 -183 -4 -63 -12 -149 -18 -190 -6
-41 -13 -111 -16 -155 -3 -44 -12 -87 -19 -95 -8 -10 -15 -65 -20 -155 -5 -94
-11 -145 -20 -155 -9 -10 -15 -54 -19 -125 -7 -147 -20 -272 -35 -315 -6 -19
-11 -62 -11 -95 0 -34 -5 -66 -11 -72 -6 -6 -12 -44 -14 -84 -7 -142 -17 -234
-29 -248 -10 -13 -18 -90 -32 -341 -4 -64 -11 -112 -20 -124 -10 -14 -14 -50
-14 -114 0 -65 -5 -102 -16 -123 -9 -18 -15 -54 -15 -87 1 -31 -3 -109 -8
-172 -5 -63 -7 -118 -4 -122 2 -5 31 -8 63 -8 l58 0 6 73 c3 39 9 115 12 167
3 52 11 101 17 109 7 8 13 54 14 103 1 49 6 95 11 101 6 7 13 50 16 97 8 126
20 212 33 235 6 11 14 105 18 210 5 129 12 199 21 217 8 15 14 57 14 98 0 43
6 82 15 100 10 19 13 47 11 79 -3 33 1 61 10 79 8 17 14 57 14 106 0 56 4 84
15 96 11 12 16 59 21 194 5 128 11 182 21 191 9 9 13 41 13 100 0 58 5 96 15
116 10 19 15 51 13 92 -1 34 4 72 10 84 7 12 12 52 12 88 0 52 5 73 20 92 47
61 15 153 -53 153 -20 0 -40 -7 -49 -17z"/>
<path d="M9731 1889 c-39 -43 -71 -133 -71 -202 0 -41 -4 -58 -16 -65 -11 -6
-17 -29 -20 -83 -10 -199 -16 -255 -29 -269 -9 -10 -15 -55 -19 -130 -3 -63
-10 -151 -16 -195 -6 -44 -13 -123 -16 -175 -3 -56 -11 -101 -18 -110 -14 -16
-27 -126 -30 -246 0 -47 -6 -77 -16 -89 -10 -12 -17 -53 -22 -124 -4 -58 -10
-127 -14 -153 l-6 -48 70 0 70 0 6 48 c4 26 9 82 12 124 4 48 11 82 20 89 10
8 14 34 14 81 0 38 5 79 12 91 7 12 13 54 14 92 4 123 19 269 30 290 11 20 24
128 29 237 1 32 9 68 17 80 17 25 31 148 29 244 0 44 4 66 14 74 11 9 15 36
15 108 0 66 4 100 14 111 21 25 30 182 10 209 -30 43 -51 46 -83 11z"/>
<path d="M20982 1718 c-25 -25 -9 -223 21 -253 9 -9 17 -28 17 -41 0 -14 7
-35 15 -48 8 -12 18 -58 21 -102 4 -43 11 -83 18 -89 6 -5 18 -37 27 -70 17
-61 27 -91 60 -180 11 -28 19 -63 19 -78 0 -15 6 -40 14 -55 7 -15 16 -51 19
-80 4 -30 15 -64 27 -79 11 -14 20 -40 20 -57 0 -17 9 -56 20 -86 11 -30 20
-67 20 -81 0 -15 7 -32 15 -39 8 -7 15 -27 15 -44 1 -46 16 -103 32 -120 8 -8
18 -41 22 -73 4 -32 16 -77 27 -101 l21 -42 58 0 c63 0 69 12 33 65 -7 11 -13
38 -13 61 0 23 -9 61 -20 85 -11 24 -20 54 -20 65 0 12 -6 27 -14 33 -7 6 -17
39 -20 74 -4 34 -16 82 -27 106 -10 24 -19 55 -19 70 0 31 -41 180 -64 233 -9
21 -16 50 -16 65 0 16 -7 38 -15 49 -8 12 -18 48 -24 80 -5 32 -17 76 -25 96
-9 21 -16 50 -16 65 0 15 -9 42 -20 58 -11 17 -20 44 -20 60 0 17 -6 39 -14
50 -13 20 -25 63 -31 114 -2 14 -13 51 -24 81 -11 30 -20 62 -21 71 0 9 -7 30
-15 45 -8 16 -15 41 -15 56 0 30 -3 33 -45 42 -19 4 -35 2 -43 -6z"/>
<path d="M5924 706 c-18 -13 -19 -29 -20 -208 -1 -196 -11 -321 -32 -371 -7
-16 -12 -41 -12 -55 0 -15 -7 -38 -16 -50 l-15 -22 60 0 c60 0 61 0 81 40 11
21 20 56 20 77 0 21 6 47 14 58 27 40 50 501 25 531 -15 18 -80 18 -105 0z"/>
</g>
</svg>
