<?xml version="1.0" standalone="no"?>
<!DOCTYPE svg PUBLIC "-//W3C//DTD SVG 20010904//EN"
 "http://www.w3.org/TR/2001/REC-SVG-20010904/DTD/svg10.dtd">
<svg version="1.0" xmlns="http://www.w3.org/2000/svg"
 width="600.000000pt" height="600.000000pt" viewBox="0 0 600.000000 600.000000"
 preserveAspectRatio="xMidYMid meet">
<g transform="translate(0.000000,600.000000) scale(0.100000,-0.100000)"
fill="#000000" stroke="none">
<path d="M3229 5343 c-13 -16 -12 -17 4 -4 16 13 21 21 13 21 -2 0 -10 -8 -17
-17z"/>
<path d="M3771 5314 c-152 -58 -339 -66 -518 -24 -111 26 -155 18 -202 -35
-38 -43 -48 -94 -30 -148 13 -41 13 -42 17 -12 8 73 32 134 62 155 35 25 55
24 230 -4 72 -12 146 -16 236 -14 l132 3 -42 -45 c-22 -25 -43 -45 -46 -45 -3
0 -43 11 -90 24 -189 52 -335 3 -375 -127 -5 -17 6 -10 43 27 74 74 101 85
207 85 74 0 111 -6 212 -37 66 -20 161 -43 210 -53 48 -9 97 -18 108 -20 18
-4 57 -9 140 -19 17 -1 78 -6 137 -10 l107 -8 -42 -30 c-55 -40 -124 -66 -198
-74 l-60 -6 39 -22 c86 -49 170 -112 226 -169 48 -51 72 -89 138 -225 112
-232 210 -354 362 -453 67 -43 67 -44 -18 -22 -118 30 -256 90 -323 142 -24
18 -33 20 -33 10 0 -19 33 -48 96 -87 56 -34 55 -32 104 -184 51 -162 134
-300 257 -428 35 -36 63 -69 63 -73 0 -5 -12 -5 -27 -1 -23 5 -300 232 -347
284 -30 33 -40 24 -13 -11 37 -49 45 -89 51 -243 6 -178 35 -289 142 -540 6
-15 -2 -12 -34 14 -47 36 -123 126 -150 175 l-17 31 -3 -30 c-1 -16 -12 -119
-23 -228 -12 -109 -19 -201 -16 -203 14 -14 67 227 67 302 l0 45 56 -60 c44
-48 179 -151 198 -151 2 0 -16 46 -41 103 -102 232 -143 392 -143 564 l0 116
53 -50 c28 -27 74 -64 100 -82 56 -38 195 -104 250 -119 38 -11 37 -9 -57 88
-198 207 -308 383 -348 562 l-16 66 47 -20 c101 -43 235 -59 336 -39 l40 8
-40 8 c-103 20 -255 113 -340 207 -65 72 -112 146 -191 302 -37 72 -82 154
-100 182 -48 72 -134 151 -196 179 -29 13 -45 24 -35 24 31 1 169 78 217 121
42 36 43 39 20 39 -14 0 -43 2 -65 6 -22 3 -56 7 -75 10 -19 2 -53 7 -75 10
-56 9 -67 10 -293 41 l-203 27 43 46 c23 25 70 74 103 109 33 34 55 61 50 61
-6 -1 -39 -12 -74 -25z m-48 -59 c-3 -9 -8 -14 -10 -11 -3 3 -2 9 2 15 9 16
15 13 8 -4z"/>
<path d="M2635 5150 c-56 -12 -137 -45 -185 -75 -30 -19 -40 -31 -35 -44 4
-14 -4 -22 -37 -37 -75 -32 -212 -121 -335 -216 -45 -35 -193 -148 -329 -253
-312 -239 -287 -217 -244 -209 108 20 310 92 415 147 19 10 19 9 1 -18 -10
-15 -33 -53 -52 -85 -105 -180 -325 -451 -501 -620 l-112 -107 107 39 c59 22
167 68 240 104 72 35 134 64 135 64 8 0 -44 -227 -67 -298 -35 -105 -114 -258
-170 -331 -26 -34 -44 -61 -40 -61 23 0 294 172 302 192 2 4 7 8 11 8 11 0 -3
-83 -24 -145 -33 -98 -104 -191 -191 -250 l-36 -25 28 -12 c49 -20 182 -15
237 9 52 24 62 38 20 29 -44 -9 -198 -25 -202 -21 -2 3 26 36 62 75 90 97 123
165 137 276 13 105 17 123 38 147 8 9 12 17 9 17 -5 0 -102 -70 -222 -161 -27
-21 -51 -36 -53 -35 -2 2 10 23 26 47 61 91 232 449 214 449 -4 0 -21 -26 -39
-58 -17 -31 -39 -66 -47 -77 -15 -19 -15 -18 -10 15 20 127 57 218 115 285 17
19 28 35 25 35 -4 0 -41 -20 -84 -44 -42 -24 -120 -65 -172 -91 -52 -26 -107
-56 -122 -67 -16 -11 -28 -16 -28 -13 0 4 44 66 98 139 170 226 501 676 498
676 -2 0 -17 -7 -33 -15 -37 -19 -377 -154 -380 -152 -2 3 368 293 496 389
168 126 380 249 454 262 12 3 22 5 22 6 0 2 4 2 85 19 40 8 34 9 -55 11 -106
1 -107 6 -6 38 39 13 300 8 369 -6 58 -13 41 3 -33 29 -67 23 -233 34 -300 19z
m-145 -105 c-7 -9 -15 -13 -18 -10 -3 3 -11 0 -19 -6 -18 -16 -16 -4 3 15 8 9
22 16 31 16 13 0 13 -3 3 -15z m-900 -659 c0 -2 -8 -10 -17 -17 -16 -13 -17
-12 -4 4 13 16 21 21 21 13z m-189 -639 c-6 -8 -9 -16 -6 -18 2 -3 -6 -5 -18
-6 -12 0 -16 1 -9 4 6 3 9 10 6 15 -4 6 -2 8 4 4 6 -3 13 -2 17 4 3 5 9 10 12
10 3 0 0 -6 -6 -13z"/>
<path d="M4220 4861 c0 -6 4 -13 10 -16 6 -3 7 1 4 9 -7 18 -14 21 -14 7z"/>
<path d="M1849 4703 c-13 -16 -12 -17 4 -4 9 7 17 15 17 17 0 8 -8 3 -21 -13z"/>
<path d="M3143 4267 c-20 -108 -23 -120 -50 -212 -58 -203 -192 -509 -287
-658 -20 -31 -36 -61 -36 -67 0 -5 -5 -10 -11 -10 -7 0 -8 7 -4 18 7 18 62
292 70 352 13 97 46 250 66 308 10 28 16 52 14 52 -8 0 -114 -158 -148 -220
-147 -268 -192 -653 -110 -934 10 -35 -15 -7 -50 57 -64 113 -90 211 -90 340
-1 42 -4 74 -8 70 -11 -12 -47 -179 -60 -277 -6 -50 -10 -155 -7 -239 l4 -149
-22 51 c-20 46 -78 213 -103 301 -8 28 -9 19 -6 -50 3 -47 7 -132 10 -190 l5
-105 -52 187 c-28 103 -53 186 -55 185 -1 -2 -5 -21 -8 -43 -19 -125 -34 -185
-36 -138 0 10 -3 33 -5 49 -3 17 -14 97 -25 179 -19 140 -45 237 -56 208 -14
-36 36 -336 90 -542 16 -63 19 -58 43 75 3 17 10 37 15 45 6 12 9 9 10 -10 2
-60 33 -186 83 -340 l25 -75 -2 158 c-1 86 0 157 3 157 4 0 12 -17 19 -37 17
-49 82 -162 139 -240 48 -66 65 -76 37 -23 -14 28 -35 86 -53 150 -22 79 -33
201 -29 321 5 147 19 205 33 134 14 -78 91 -219 168 -310 31 -36 31 -39 5 132
-41 266 -29 498 36 696 29 89 96 237 108 237 5 0 6 -8 3 -17 -3 -10 -8 -47
-11 -83 -8 -100 -52 -317 -89 -439 -18 -61 -30 -111 -26 -111 16 0 90 79 126
135 41 65 207 403 245 500 30 77 39 87 40 44 3 -78 42 -259 80 -374 57 -170
185 -400 283 -510 30 -34 42 -26 16 10 -8 11 -69 196 -76 230 -2 11 -6 43 -9
70 -6 46 -3 42 35 -55 50 -130 116 -266 177 -368 26 -42 49 -79 52 -82 3 -3
22 -27 41 -55 37 -54 160 -210 160 -203 0 2 -9 53 -20 114 -11 60 -22 125 -25
144 -3 19 -7 46 -10 60 -6 28 -6 27 -36 208 -18 112 -20 139 -10 174 13 41 25
43 27 5 1 -12 5 -43 8 -69 17 -135 22 -181 24 -222 2 -37 9 -31 17 14 10 65
96 505 101 519 3 8 24 -41 48 -110 41 -116 66 -178 135 -324 l28 -59 7 111 c7
101 3 259 -10 373 -7 64 10 33 34 -65 56 -219 29 -414 -92 -665 -33 -70 -115
-208 -147 -248 -23 -30 -20 -36 19 -27 45 9 87 58 84 98 -2 21 6 46 21 68 63
93 92 151 125 248 l37 106 0 190 c0 176 -2 198 -28 300 -16 61 -39 142 -52
180 -23 69 -23 69 -25 30 -8 -171 1 -491 16 -549 12 -49 -9 -22 -48 61 -88
187 -131 355 -132 515 -1 53 -4 94 -8 90 -3 -4 -16 -78 -28 -165 -12 -87 -34
-229 -50 -315 -16 -86 -30 -167 -30 -179 0 -13 -4 -23 -9 -23 -4 0 -12 30 -15
68 -14 135 -41 300 -50 309 -12 12 -35 -284 -30 -382 9 -162 43 -374 70 -439
14 -36 -14 -7 -84 87 -71 94 -162 241 -188 303 -8 19 -28 64 -44 100 -89 194
-159 550 -148 758 6 124 -8 86 -22 -59 -21 -214 0 -460 55 -639 8 -27 13 -51
12 -53 -6 -5 -69 101 -110 182 -29 59 -103 250 -96 250 1 0 -1 10 -5 22 -28
89 -42 394 -22 498 11 54 15 161 7 173 -4 6 -12 -16 -18 -51z m-36 -309 c2
-17 0 -19 -7 -8 -5 8 -6 18 -4 22 8 12 10 10 11 -14z m277 -563 c3 -8 1 -15
-3 -15 -5 0 -11 7 -15 15 -3 8 -1 15 3 15 5 0 11 -7 15 -15z m26 -247 c0 -6
-6 -5 -15 2 -8 7 -15 14 -15 16 0 2 7 1 15 -2 8 -4 15 -11 15 -16z m-950 -468
c0 -5 -5 -10 -11 -10 -5 0 -7 5 -4 10 3 6 8 10 11 10 2 0 4 -4 4 -10z"/>
<path d="M4769 4133 c-13 -16 -12 -17 4 -4 16 13 21 21 13 21 -2 0 -10 -8 -17
-17z"/>
<path d="M3843 3465 c0 -8 4 -12 9 -9 5 3 6 10 3 15 -9 13 -12 11 -12 -6z"/>
<path d="M1964 3378 c-117 -103 -134 -267 -46 -443 45 -92 154 -248 191 -274
38 -28 83 -36 111 -21 l22 12 -6 -79 c-3 -43 -9 -157 -12 -253 -4 -96 -8 -177
-10 -179 -7 -7 -12 3 -17 34 -4 24 -13 59 -32 125 -1 3 -5 22 -9 43 -11 51
-20 53 -35 9 -8 -20 -40 -93 -72 -161 -33 -68 -59 -128 -59 -132 0 -13 -24
-11 -38 3 -17 17 -15 71 6 126 17 44 17 54 5 102 -10 39 -11 62 -3 83 5 17 10
53 9 81 l-1 51 -15 -35 c-30 -68 -58 -201 -46 -218 6 -10 16 -16 23 -14 12 3
8 -16 -15 -71 l-12 -29 -36 44 c-68 83 -83 138 -52 198 17 32 63 65 52 37 -10
-27 -19 -87 -13 -87 15 0 72 144 82 210 6 33 8 159 5 225 l-2 30 -22 -30 c-47
-63 -138 -165 -149 -165 -7 0 -7 4 -1 13 12 14 50 115 59 154 18 86 23 133 18
173 -6 41 -28 110 -36 110 -2 0 -3 -51 -3 -112 0 -86 -6 -133 -23 -195 -25
-92 -65 -188 -89 -215 -26 -29 2 -22 60 15 58 37 137 121 137 145 0 35 22 -7
25 -47 4 -60 -13 -105 -55 -146 -29 -28 -49 -38 -99 -46 -54 -10 -68 -18 -109
-58 -51 -49 -64 -77 -153 -316 -94 -256 -95 -257 -242 -310 -315 -116 -650
-265 -938 -419 -263 -140 -303 -166 -307 -199 -3 -26 -2 -26 75 27 175 121
350 186 498 186 46 0 96 -5 111 -10 15 -6 29 -8 32 -5 11 10 -109 56 -152 58
-25 1 -46 5 -46 8 0 3 17 13 38 21 20 9 109 50 197 91 154 72 303 133 523 213
131 48 145 65 218 261 53 141 59 158 63 175 1 4 18 40 37 80 49 101 117 168
170 168 14 0 14 -2 3 -16 -20 -24 -14 -104 11 -155 27 -53 309 -468 408 -600
38 -52 131 -164 206 -249 279 -317 329 -424 366 -784 27 -265 32 -336 23 -336
-18 1 -204 106 -293 165 -281 187 -597 520 -911 961 -57 79 -104 142 -107 140
-12 -13 213 -361 328 -506 104 -132 344 -372 475 -476 127 -101 282 -205 413
-279 56 -31 107 -65 112 -75 5 -10 12 -49 15 -86 3 -40 12 -75 20 -83 22 -22
26 -10 16 50 -6 30 -13 86 -16 124 -4 39 -9 90 -12 115 -8 72 -10 91 -17 175
-4 44 -9 87 -11 95 -3 8 -7 38 -10 65 -3 28 -7 62 -9 77 -3 27 -2 28 49 28 68
0 142 -23 193 -60 53 -38 55 -24 4 22 -54 49 -114 70 -187 66 l-60 -3 -17 85
c-32 160 -110 284 -341 547 -201 230 -417 531 -417 582 0 11 29 79 64 152 l64
132 7 -44 c11 -69 52 -168 97 -236 41 -64 68 -86 43 -35 -35 69 -51 281 -32
422 2 14 5 35 5 48 3 34 15 26 34 -21 24 -57 132 -199 207 -270 34 -33 61 -57
61 -54 0 3 -35 52 -79 110 -161 213 -226 355 -241 522 -2 17 -3 16 -9 -5 -4
-14 -18 -30 -31 -37 -86 -43 -142 26 -267 325 -38 93 -50 183 -30 231 6 14 34
50 64 79 74 74 72 116 -3 50z m-64 -902 c0 -2 -6 -9 -14 -15 -11 -9 -16 -9
-22 0 -4 7 -3 9 4 5 6 -3 13 -2 17 4 6 10 15 14 15 6z m-1386 -1075 c3 -5 -7
-14 -24 -19 -16 -6 -32 -8 -34 -3 -3 4 5 8 17 8 12 1 23 7 25 13 4 12 9 13 16
1z"/>
<path d="M5070 3340 c6 -11 13 -20 16 -20 2 0 0 9 -6 20 -6 11 -13 20 -16 20
-2 0 0 -9 6 -20z"/>
<path d="M4382 3072 c9 -23 2 -48 -48 -177 -32 -82 -60 -142 -62 -132 -2 9 15
78 38 153 28 95 38 140 30 148 -21 21 -23 13 -107 -304 -33 -127 -43 -200 -28
-200 14 0 118 216 161 332 16 43 32 78 37 78 7 0 9 -30 13 -155 1 -33 5 -103
9 -155 4 -52 8 -106 9 -119 2 -38 23 -36 36 4 10 30 9 47 -3 93 -9 32 -18 111
-21 177 -2 66 -7 127 -10 135 -3 8 -7 34 -9 57 -4 42 -29 93 -46 93 -5 0 -5
-12 1 -28z m-122 -352 c-6 -11 -13 -20 -16 -20 -2 0 0 9 6 20 6 11 13 20 16
20 2 0 0 -9 -6 -20z"/>
<path d="M3365 3061 c-3 -5 -2 -12 3 -15 5 -3 9 1 9 9 0 17 -3 19 -12 6z"/>
<path d="M4600 3036 c0 -2 8 -10 18 -17 15 -13 16 -12 3 4 -13 16 -21 21 -21
13z"/>
<path d="M3617 2760 c-6 -47 4 -165 19 -236 9 -46 -7 -68 -98 -134 -59 -44
-77 -61 -65 -66 21 -8 108 40 152 84 50 51 61 93 41 167 -9 33 -19 97 -23 143
-3 45 -9 85 -13 87 -4 3 -10 -18 -13 -45z"/>
<path d="M4150 2675 c-1 -53 -75 -144 -199 -243 -54 -44 -58 -85 -3 -46 12 8
22 12 22 9 0 -8 -165 -219 -254 -325 -39 -46 -125 -139 -191 -206 -148 -150
-200 -180 -300 -172 -72 6 -112 26 -234 116 -69 50 -175 112 -194 112 -13 0
137 -129 199 -171 93 -64 155 -83 267 -84 l98 0 -6 -30 c-6 -31 -62 -350 -115
-654 -30 -169 -36 -240 -11 -124 7 32 35 144 63 248 27 105 50 198 51 208 1 9
4 17 7 17 11 -1 137 -164 200 -258 79 -118 169 -298 207 -411 27 -83 27 -84
10 -147 -21 -80 -92 -248 -162 -382 -49 -93 -52 -103 -32 -100 14 2 32 23 55
63 48 85 139 300 153 363 7 28 15 52 19 52 15 0 88 -247 114 -389 9 -46 16
-85 16 -87 0 -2 10 -4 23 -4 l23 0 -41 163 c-23 89 -61 223 -85 297 -24 74
-44 137 -45 140 -1 3 -7 19 -14 35 -6 17 -21 55 -33 85 -67 171 -199 390 -323
535 l-78 90 7 82 c12 164 40 241 109 305 l40 38 96 -68 c53 -36 224 -156 381
-264 326 -226 360 -255 360 -299 0 -48 -45 -217 -120 -444 -59 -181 -84 -266
-107 -360 -10 -44 -19 -100 -27 -175 l-6 -55 16 34 c8 19 23 64 31 100 24 100
24 99 39 59 7 -21 27 -58 43 -82 30 -42 48 -54 157 -100 45 -20 79 -66 69 -96
-4 -14 -2 -20 8 -20 23 0 35 22 32 60 -4 42 -32 66 -116 99 -172 66 -217 211
-135 441 21 58 47 134 59 170 12 36 22 67 24 69 8 12 203 -133 272 -202 166
-169 267 -345 320 -564 13 -57 20 -69 39 -71 20 -3 22 -1 16 25 -82 344 -266
613 -542 794 -39 26 -77 49 -83 51 -8 3 -5 25 11 73 28 83 34 185 15 240 -19
53 -64 92 -226 197 -209 135 -589 402 -589 414 0 2 8 12 18 22 120 126 424
505 535 668 58 87 75 132 58 161 -10 17 -10 17 -11 -2z m-146 -244 c3 -5 0
-14 -8 -20 -10 -9 -15 -8 -19 3 -4 11 -1 13 10 9 11 -4 14 -2 9 5 -4 7 -5 12
-2 12 3 0 7 -4 10 -9z m-614 -735 c0 -3 -4 -8 -10 -11 -5 -3 -10 -1 -10 4 0 6
5 11 10 11 6 0 10 -2 10 -4z"/>
<path d="M3559 2453 c-13 -16 -12 -17 4 -4 16 13 21 21 13 21 -2 0 -10 -8 -17
-17z"/>
<path d="M2408 2144 c-5 -4 -8 -18 -8 -32 0 -25 60 -270 86 -353 8 -25 16 -54
19 -65 28 -130 91 -304 115 -319 17 -11 11 17 -29 141 -43 130 -74 232 -86
279 -5 17 -9 35 -11 40 -1 6 -16 66 -33 135 -44 180 -45 183 -53 174z"/>
<path d="M1926 1928 c3 -5 10 -6 15 -3 13 9 11 12 -6 12 -8 0 -12 -4 -9 -9z"/>
<path d="M3537 1709 c7 -7 15 -10 18 -7 3 3 -2 9 -12 12 -14 6 -15 5 -6 -5z"/>
<path d="M4131 1493 c7 -12 15 -20 18 -17 3 2 -3 12 -13 22 -17 16 -18 16 -5
-5z"/>
<path d="M1624 1416 c1 -8 5 -18 8 -22 4 -3 5 1 4 10 -1 8 -5 18 -8 22 -4 3
-5 -1 -4 -10z"/>
<path d="M912 1255 c-66 -38 -161 -114 -230 -185 -75 -76 -167 -200 -150 -200
7 0 56 46 108 101 99 106 208 201 297 261 48 32 58 48 29 48 -6 0 -30 -11 -54
-25z"/>
<path d="M2695 1195 c24 -143 158 -365 219 -365 21 0 16 8 -39 63 -64 64 -87
104 -124 214 -12 35 -30 77 -42 95 l-21 33 7 -40z"/>
<path d="M3209 1083 c-13 -16 -12 -17 4 -4 9 7 17 15 17 17 0 8 -8 3 -21 -13z"/>
<path d="M483 945 c0 -8 4 -12 9 -9 5 3 6 10 3 15 -9 13 -12 11 -12 -6z"/>
<path d="M3408 804 c-86 -20 -202 -83 -185 -100 4 -4 40 9 80 29 39 20 96 42
126 48 54 11 184 7 230 -7 18 -5 23 -4 19 7 -11 35 -167 48 -270 23z"/>
<path d="M4670 706 c0 -2 8 -10 18 -17 15 -13 16 -12 3 4 -13 16 -21 21 -21
13z"/>
<path d="M1175 641 c3 -16 47 -123 96 -238 49 -114 104 -243 121 -287 29 -72
49 -98 65 -82 14 14 -261 636 -282 636 -4 0 -4 -13 0 -29z"/>
<path d="M201 528 c7 -13 49 -75 94 -138 93 -131 153 -232 185 -307 16 -38 28
-53 42 -53 15 0 18 5 12 23 -15 49 -110 223 -162 295 -96 135 -211 256 -171
180z"/>
<path d="M295 520 c10 -11 20 -20 23 -20 3 0 -3 9 -13 20 -10 11 -20 20 -23
20 -3 0 3 -9 13 -20z"/>
<path d="M597 417 c-3 -8 40 -98 95 -201 76 -142 104 -186 119 -186 10 0 19 2
19 4 0 7 -164 296 -197 349 -20 30 -33 42 -36 34z"/>
<path d="M2690 390 c-9 -6 -10 -10 -3 -10 6 0 15 5 18 10 8 12 4 12 -15 0z"/>
<path d="M2645 261 c-3 -5 -2 -12 3 -15 5 -3 9 1 9 9 0 17 -3 19 -12 6z"/>
<path d="M3976 218 c3 -5 10 -6 15 -3 13 9 11 12 -6 12 -8 0 -12 -4 -9 -9z"/>
</g>
</svg>
